<svg width="19" height="15" viewBox="0 0 19 15" fill="none" xmlns="http://www.w3.org/2000/svg">
<path d="M6.6875 0.75C9.80469 0.75 12.375 2.91016 12.375 5.5625C12.375 8.24219 9.80469 10.375 6.6875 10.375C6.16797 10.375 5.67578 10.3203 5.18359 10.2109C4.36328 10.7305 3.16016 11.25 1.65625 11.25C1.38281 11.25 1.13672 11.1133 1.05469 10.8398C0.945312 10.5938 0.972656 10.3203 1.16406 10.1016C1.19141 10.1016 1.79297 9.44531 2.23047 8.57031C1.46484 7.75 1 6.71094 1 5.5625C1 2.91016 3.54297 0.75 6.6875 0.75ZM5.48438 8.92578C5.89453 9.03516 6.27734 9.0625 6.6875 9.0625C9.09375 9.0625 11.0625 7.50391 11.0625 5.5625C11.0625 3.64844 9.09375 2.0625 6.6875 2.0625C4.25391 2.0625 2.3125 3.64844 2.3125 5.5625C2.3125 6.54688 2.77734 7.25781 3.1875 7.66797L3.84375 8.35156L3.40625 9.19922C3.29688 9.36328 3.1875 9.55469 3.07812 9.74609C3.57031 9.60938 4.03516 9.39062 4.5 9.08984L4.96484 8.81641L5.48438 8.92578ZM13.0586 4.27734C16.0938 4.38672 18.5 6.49219 18.5 9.0625C18.5 10.2109 18.0078 11.25 17.2422 12.0703C17.6797 12.9453 18.2812 13.6016 18.3086 13.6016C18.5 13.8203 18.5273 14.0938 18.418 14.3398C18.3359 14.6133 18.0898 14.75 17.8164 14.75C16.3125 14.75 15.1094 14.2305 14.2891 13.7109C13.7969 13.8203 13.3047 13.875 12.8125 13.875C10.5703 13.875 8.62891 12.7812 7.69922 11.1953C8.16406 11.1406 8.62891 11.0312 9.03906 10.8672C9.80469 11.9062 11.1992 12.5625 12.8125 12.5625C13.1953 12.5625 13.5781 12.5352 13.9883 12.4258L14.5078 12.3164L14.9727 12.5898C15.4375 12.8906 15.9023 13.1094 16.3945 13.2461C16.2852 13.0547 16.1758 12.8633 16.0664 12.6992L15.6289 11.8516L16.2852 11.168C16.6953 10.7578 17.1875 10.0469 17.1875 9.0625C17.1875 7.25781 15.4375 5.78125 13.2227 5.58984L13.25 5.5625C13.25 5.125 13.168 4.6875 13.0586 4.27734Z" fill="url(#paint0_linear_3633_10152)"/>
<defs>
<linearGradient id="paint0_linear_3633_10152" x1="0.885991" y1="6.03274" x2="19.1937" y2="6.44747" gradientUnits="userSpaceOnUse">
<stop stop-color="#351EE0"/>
<stop offset="1" stop-color="#3F74EF"/>
</linearGradient>
</defs>
</svg>
