<svg width="80" height="80" viewBox="0 0 80 80" fill="none" xmlns="http://www.w3.org/2000/svg">
<circle cx="40" cy="40" r="40" fill="white"/>
<g clip-path="url(#clip0_3633_10325)">
<path d="M51.0002 58.332H21.6669C21.4456 58.3321 21.2387 58.2224 21.1146 58.0391C20.9906 57.8559 20.9655 57.6231 21.0477 57.4176L23.7144 50.751C23.8159 50.498 24.061 50.3322 24.3335 50.332H48.3335C48.6061 50.3322 48.8512 50.498 48.9527 50.751L51.6193 57.4176C51.7016 57.6231 51.6765 57.8559 51.5524 58.0391C51.4284 58.2224 51.2215 58.3321 51.0002 58.332ZM22.6516 56.9987H50.0155L47.8821 51.6654H24.785L22.6516 56.9987Z" fill="url(#paint0_linear_3633_10325)"/>
<path d="M39.6692 58.332H33.0025C32.7942 58.332 32.5979 58.2346 32.4718 58.0688C32.3458 57.9029 32.3045 57.6877 32.3603 57.487L32.9654 55.3086C33.1266 54.7322 33.6514 54.3332 34.2499 54.332H38.4218C39.0205 54.3333 39.5454 54.7324 39.7067 55.3089L40.3115 57.487C40.3672 57.6877 40.3259 57.9029 40.1999 58.0688C40.0738 58.2346 39.8775 58.332 39.6692 58.332ZM33.8795 56.9987H38.7923L38.4218 55.6654H34.2499L33.8795 56.9987Z" fill="url(#paint1_linear_3633_10325)"/>
<path d="M50.3333 61H22.3333C21.5973 60.9993 21.0007 60.4027 21 59.6667V57.6667C21 57.2985 21.2985 57 21.6667 57C22.0349 57 22.3333 57.2985 22.3333 57.6667V59.6667H50.3333V57.6667C50.3333 57.2985 50.6318 57 51 57C51.3682 57 51.6667 57.2985 51.6667 57.6667V59.6667C51.6659 60.4027 51.0694 60.9993 50.3333 61Z" fill="url(#paint2_linear_3633_10325)"/>
<path d="M48.3307 51.668H24.3307C23.9625 51.668 23.6641 51.3695 23.6641 51.0013V37.0013C23.6648 36.2652 24.2613 35.6687 24.9974 35.668H47.6641C48.4001 35.6687 48.9967 36.2652 48.9974 37.0013V51.0013C48.9974 51.3695 48.6989 51.668 48.3307 51.668ZM24.9974 50.3346H47.6641V37.0013H24.9974V50.3346Z" fill="url(#paint3_linear_3633_10325)"/>
<path d="M58.9974 50.3333H48.3307C47.9625 50.3333 47.6641 50.0349 47.6641 49.6667C47.6641 49.2985 47.9625 49 48.3307 49H58.9974C59.3654 48.9995 59.6636 48.7013 59.6641 48.3333V23C59.6636 22.632 59.3654 22.3338 58.9974 22.3333H41.6641C41.2961 22.3338 40.9979 22.632 40.9974 23V36.3333C40.9974 36.7015 40.6989 37 40.3307 37C39.9625 37 39.6641 36.7015 39.6641 36.3333V23C39.6653 21.8959 40.56 21.0012 41.6641 21H58.9974C60.1015 21.0012 60.9962 21.8959 60.9974 23V48.3333C60.9962 49.4374 60.1015 50.3321 58.9974 50.3333Z" fill="url(#paint4_linear_3633_10325)"/>
<path d="M50.3333 34.3346C47.3878 34.3346 45 31.9468 45 29.0013C45 26.0558 47.3878 23.668 50.3333 23.668C53.2789 23.668 55.6667 26.0558 55.6667 29.0013C55.6633 31.9454 53.2775 34.3313 50.3333 34.3346ZM50.3333 25.0013C48.7155 25.0013 47.2569 25.9759 46.6378 27.4706C46.0187 28.9653 46.3609 30.6857 47.5049 31.8297C48.6489 32.9737 50.3694 33.3159 51.8641 32.6968C53.3588 32.0777 54.3333 30.6192 54.3333 29.0013C54.3309 26.7932 52.5415 25.0037 50.3333 25.0013Z" fill="url(#paint5_linear_3633_10325)"/>
<path d="M50.3307 31.6654C48.858 31.6654 47.6641 30.4715 47.6641 28.9987C47.6641 27.5259 48.858 26.332 50.3307 26.332C51.8035 26.332 52.9974 27.5259 52.9974 28.9987C52.9957 30.4708 51.8028 31.6637 50.3307 31.6654ZM50.3307 27.6654C49.5943 27.6654 48.9974 28.2623 48.9974 28.9987C48.9974 29.7351 49.5943 30.332 50.3307 30.332C51.0671 30.332 51.6641 29.7351 51.6641 28.9987C51.6633 28.2626 51.0668 27.6661 50.3307 27.6654Z" fill="url(#paint6_linear_3633_10325)"/>
<path d="M50.3332 47.6667C49.5867 47.6673 48.8446 47.5535 48.1326 47.3292C47.7845 47.2162 47.5927 46.8436 47.7028 46.4946C47.8128 46.1455 48.1838 45.9505 48.5337 46.0577C51.4456 46.977 54.5835 45.5633 55.8241 42.7732C57.0648 39.9831 56.0126 36.7062 53.3796 35.1599C50.7466 33.6135 47.3722 34.2908 45.5398 36.7334C45.3969 36.9239 45.1632 37.0238 44.9268 36.9953C44.6903 36.9668 44.487 36.8143 44.3934 36.5953C44.2999 36.3762 44.3303 36.1239 44.4732 35.9334C45.8491 34.0796 48.0246 32.9906 50.3332 33.0001C54.3833 33.0001 57.6665 36.2833 57.6665 40.3334C57.6665 44.3835 54.3833 47.6667 50.3332 47.6667Z" fill="url(#paint7_linear_3633_10325)"/>
<path d="M50.3329 45.0013C49.5106 45.0034 48.7028 44.7849 47.9937 44.3685C47.6799 44.1798 47.5771 43.7733 47.7634 43.458C47.9497 43.1428 48.3554 43.0368 48.6721 43.2207C49.1749 43.5177 49.749 43.6723 50.3329 43.668C52.1738 43.668 53.6662 42.1756 53.6662 40.3346C53.6662 38.4937 52.1738 37.0013 50.3329 37.0013C49.7443 37.0001 49.1662 37.1569 48.6587 37.4551C48.4536 37.5785 48.198 37.5824 47.9892 37.4654C47.7803 37.3484 47.6503 37.1283 47.6485 36.8889C47.6466 36.6495 47.7733 36.4275 47.9803 36.3073C48.6932 35.8876 49.5056 35.6668 50.3329 35.668C52.9102 35.668 54.9995 37.7573 54.9995 40.3346C54.9995 42.912 52.9102 45.0013 50.3329 45.0013Z" fill="url(#paint8_linear_3633_10325)"/>
<path d="M43.0026 25.0013C43.3708 25.0013 43.6693 24.7028 43.6693 24.3346C43.6693 23.9664 43.3708 23.668 43.0026 23.668C42.6344 23.668 42.3359 23.9664 42.3359 24.3346C42.3359 24.7028 42.6344 25.0013 43.0026 25.0013Z" fill="url(#paint9_linear_3633_10325)"/>
<path d="M57.6667 25.0013C58.0349 25.0013 58.3333 24.7028 58.3333 24.3346C58.3333 23.9664 58.0349 23.668 57.6667 23.668C57.2985 23.668 57 23.9664 57 24.3346C57 24.7028 57.2985 25.0013 57.6667 25.0013Z" fill="url(#paint10_linear_3633_10325)"/>
<path d="M57.6667 47.6654C58.0349 47.6654 58.3333 47.3669 58.3333 46.9987C58.3333 46.6305 58.0349 46.332 57.6667 46.332C57.2985 46.332 57 46.6305 57 46.9987C57 47.3669 57.2985 47.6654 57.6667 47.6654Z" fill="url(#paint11_linear_3633_10325)"/>
<path d="M37.6672 29.6748C37.3978 29.6749 37.1548 29.5128 37.0514 29.264C35.8126 26.2791 32.8987 24.3334 29.6669 24.3334C26.4351 24.3334 23.5211 26.2791 22.2824 29.264C22.1409 29.604 21.7506 29.7649 21.4107 29.6234C21.0707 29.4819 20.9099 29.0916 21.0514 28.7516C22.497 25.2695 25.8966 23 29.6669 23C33.4372 23 36.8368 25.2695 38.2824 28.7516C38.3679 28.9574 38.3451 29.1922 38.2215 29.3776C38.098 29.563 37.89 29.6745 37.6672 29.6748Z" fill="url(#paint12_linear_3633_10325)"/>
<path d="M34.7564 31.0091C34.4872 31.0092 34.2444 30.8474 34.1408 30.599C33.3906 28.79 31.6249 27.6107 29.6665 27.6107C27.7081 27.6107 25.9424 28.79 25.1923 30.599C25.0504 30.9388 24.66 31.0992 24.3202 30.9574C23.9804 30.8155 23.8199 30.4251 23.9618 30.0853C24.9192 27.7799 27.1702 26.2773 29.6665 26.2773C32.1629 26.2773 34.4138 27.7799 35.3713 30.0853C35.4569 30.2911 35.4342 30.526 35.3107 30.7116C35.1873 30.8971 34.9793 31.0087 34.7564 31.0091Z" fill="url(#paint13_linear_3633_10325)"/>
<path d="M31.8455 32.3397C31.5774 32.3396 31.3354 32.1791 31.231 31.9322C30.9698 31.2981 30.3519 30.8843 29.6662 30.8843C28.9805 30.8843 28.3625 31.2981 28.1014 31.9322C28.0087 32.1516 27.806 32.3049 27.5696 32.3344C27.3332 32.3639 27.099 32.265 26.9553 32.075C26.8116 31.885 26.7802 31.6327 26.8729 31.4133C27.3426 30.2855 28.4445 29.5508 29.6662 29.5508C30.8879 29.5508 31.9898 30.2855 32.4595 31.4133C32.5464 31.6192 32.5245 31.8549 32.4011 32.0413C32.2776 32.2276 32.069 32.3394 31.8455 32.3397Z" fill="url(#paint14_linear_3633_10325)"/>
<path d="M34.7564 31.0091C34.4872 31.0092 34.2444 30.8474 34.1408 30.599C33.3906 28.79 31.6249 27.6107 29.6665 27.6107C27.7081 27.6107 25.9424 28.79 25.1923 30.599C25.0504 30.9388 24.66 31.0992 24.3202 30.9574C23.9804 30.8155 23.8199 30.4251 23.9618 30.0853C24.9192 27.7799 27.1702 26.2773 29.6665 26.2773C32.1629 26.2773 34.4138 27.7799 35.3713 30.0853C35.4569 30.2911 35.4342 30.526 35.3107 30.7116C35.1873 30.8971 34.9793 31.0087 34.7564 31.0091Z" fill="url(#paint15_linear_3633_10325)"/>
<path d="M31.8455 32.3397C31.5774 32.3396 31.3354 32.1791 31.231 31.9322C30.9698 31.2981 30.3519 30.8843 29.6662 30.8843C28.9805 30.8843 28.3625 31.2981 28.1014 31.9322C28.0087 32.1516 27.806 32.3049 27.5696 32.3344C27.3332 32.3639 27.099 32.265 26.9553 32.075C26.8116 31.885 26.7802 31.6327 26.8729 31.4133C27.3426 30.2855 28.4445 29.5508 29.6662 29.5508C30.8879 29.5508 31.9898 30.2855 32.4595 31.4133C32.5464 31.6192 32.5245 31.8549 32.4011 32.0413C32.2776 32.2276 32.069 32.3394 31.8455 32.3397Z" fill="url(#paint16_linear_3633_10325)"/>
<path d="M29.6667 33.6732C30.0349 33.6732 30.3333 33.3747 30.3333 33.0065C30.3333 32.6383 30.0349 32.3398 29.6667 32.3398C29.2985 32.3398 29 32.6383 29 33.0065C29 33.3747 29.2985 33.6732 29.6667 33.6732Z" fill="url(#paint17_linear_3633_10325)"/>
<path d="M32.9974 46.9987H31.6641C30.56 46.9975 29.6653 46.1028 29.6641 44.9987V42.332C29.6653 41.228 30.56 40.3332 31.6641 40.332H32.9974C33.3656 40.332 33.6641 40.6305 33.6641 40.9987V46.332C33.6641 46.7002 33.3656 46.9987 32.9974 46.9987ZM31.6641 41.6654C31.2961 41.6658 30.9979 41.964 30.9974 42.332V44.9987C30.9979 45.3667 31.2961 45.6649 31.6641 45.6654H32.3307V41.6654H31.6641Z" fill="url(#paint18_linear_3633_10325)"/>
<path d="M35.6693 49.003C35.4274 49.0024 35.1903 48.9359 34.9834 48.8106C34.9556 48.7939 34.9291 48.7752 34.904 48.7546L32.5804 46.8506C32.4257 46.7241 32.336 46.5348 32.3359 46.335V41.0017C32.3359 40.8019 32.4255 40.6126 32.5801 40.4861L34.9037 38.5821C34.9287 38.5615 34.9553 38.5428 34.9831 38.5261C35.395 38.2788 35.9081 38.2723 36.3261 38.509C36.7442 38.7456 37.0026 39.1889 37.0026 39.6693V47.6673C37.0007 48.4033 36.4052 48.9998 35.6693 49.003ZM33.6693 46.0193L35.6725 47.6609L35.6693 39.6784L33.6693 41.3174V46.0193Z" fill="url(#paint19_linear_3633_10325)"/>
<path d="M39.4611 48.9991C39.1466 48.9998 38.8745 48.7806 38.8081 48.4733C38.7417 48.166 38.899 47.854 39.1857 47.7248C40.7088 46.9443 41.6668 45.3769 41.6668 43.6655C41.6668 41.9541 40.7088 40.3867 39.1857 39.6062C38.9686 39.5079 38.8206 39.3014 38.7972 39.0643C38.7738 38.8272 38.8786 38.5957 39.0722 38.4569C39.2658 38.3181 39.5188 38.2931 39.7358 38.3914C41.7359 39.3882 43.0001 41.4307 43.0001 43.6655C43.0001 45.9003 41.7359 47.9427 39.7358 48.9395C39.6495 48.9788 39.5558 48.9991 39.4611 48.9991Z" fill="url(#paint20_linear_3633_10325)"/>
<path d="M38.3312 46.3296C38.0177 46.3298 37.7464 46.1115 37.6795 45.8052C37.6126 45.4989 37.7682 45.1873 38.0532 45.0568C38.5704 44.7851 38.8944 44.2491 38.8944 43.6649C38.8944 43.0807 38.5704 42.5446 38.0532 42.2729C37.7185 42.1196 37.5714 41.7239 37.7248 41.3892C37.8782 41.0544 38.2738 40.9074 38.6086 41.0607C39.6 41.5498 40.2277 42.5594 40.2277 43.6649C40.2277 44.7704 39.6 45.7799 38.6086 46.269C38.5216 46.309 38.427 46.3297 38.3312 46.3296Z" fill="url(#paint21_linear_3633_10325)"/>
</g>
<defs>
<linearGradient id="paint0_linear_3633_10325" x1="20.8058" y1="53.2079" x2="51.8715" y2="55.3061" gradientUnits="userSpaceOnUse">
<stop stop-color="#351EE0"/>
<stop offset="1" stop-color="#3F74EF"/>
</linearGradient>
<linearGradient id="paint1_linear_3633_10325" x1="32.2853" y1="55.77" x2="40.416" y2="56.0565" gradientUnits="userSpaceOnUse">
<stop stop-color="#351EE0"/>
<stop offset="1" stop-color="#3F74EF"/>
</linearGradient>
<linearGradient id="paint2_linear_3633_10325" x1="20.8058" y1="58.4379" x2="51.4535" y2="62.5779" gradientUnits="userSpaceOnUse">
<stop stop-color="#351EE0"/>
<stop offset="1" stop-color="#3F74EF"/>
</linearGradient>
<linearGradient id="paint3_linear_3633_10325" x1="23.5036" y1="41.4197" x2="49.2633" y2="42.1383" gradientUnits="userSpaceOnUse">
<stop stop-color="#351EE0"/>
<stop offset="1" stop-color="#3F74EF"/>
</linearGradient>
<linearGradient id="paint4_linear_3633_10325" x1="39.5289" y1="31.5448" x2="61.2346" y2="31.8229" gradientUnits="userSpaceOnUse">
<stop stop-color="#351EE0"/>
<stop offset="1" stop-color="#3F74EF"/>
</linearGradient>
<linearGradient id="paint5_linear_3633_10325" x1="44.9324" y1="27.5024" x2="55.7837" y2="27.6936" gradientUnits="userSpaceOnUse">
<stop stop-color="#351EE0"/>
<stop offset="1" stop-color="#3F74EF"/>
</linearGradient>
<linearGradient id="paint6_linear_3633_10325" x1="47.6303" y1="28.2493" x2="53.0559" y2="28.3449" gradientUnits="userSpaceOnUse">
<stop stop-color="#351EE0"/>
<stop offset="1" stop-color="#3F74EF"/>
</linearGradient>
<linearGradient id="paint7_linear_3633_10325" x1="44.2554" y1="38.2724" x2="57.8134" y2="38.4895" gradientUnits="userSpaceOnUse">
<stop stop-color="#351EE0"/>
<stop offset="1" stop-color="#3F74EF"/>
</linearGradient>
<linearGradient id="paint8_linear_3633_10325" x1="47.6019" y1="39.0231" x2="55.0811" y2="39.1269" gradientUnits="userSpaceOnUse">
<stop stop-color="#351EE0"/>
<stop offset="1" stop-color="#3F74EF"/>
</linearGradient>
<linearGradient id="paint9_linear_3633_10325" x1="42.3275" y1="24.1473" x2="43.6839" y2="24.1712" gradientUnits="userSpaceOnUse">
<stop stop-color="#351EE0"/>
<stop offset="1" stop-color="#3F74EF"/>
</linearGradient>
<linearGradient id="paint10_linear_3633_10325" x1="56.9916" y1="24.1473" x2="58.348" y2="24.1712" gradientUnits="userSpaceOnUse">
<stop stop-color="#351EE0"/>
<stop offset="1" stop-color="#3F74EF"/>
</linearGradient>
<linearGradient id="paint11_linear_3633_10325" x1="56.9916" y1="46.8113" x2="58.348" y2="46.8352" gradientUnits="userSpaceOnUse">
<stop stop-color="#351EE0"/>
<stop offset="1" stop-color="#3F74EF"/>
</linearGradient>
<linearGradient id="paint12_linear_3633_10325" x1="20.8902" y1="25.3995" x2="38.4923" y2="26.2049" gradientUnits="userSpaceOnUse">
<stop stop-color="#351EE0"/>
<stop offset="1" stop-color="#3F74EF"/>
</linearGradient>
<linearGradient id="paint13_linear_3633_10325" x1="23.8372" y1="27.9783" x2="35.531" y2="28.4796" gradientUnits="userSpaceOnUse">
<stop stop-color="#351EE0"/>
<stop offset="1" stop-color="#3F74EF"/>
</linearGradient>
<linearGradient id="paint14_linear_3633_10325" x1="26.7843" y1="30.5534" x2="32.5688" y2="30.7614" gradientUnits="userSpaceOnUse">
<stop stop-color="#351EE0"/>
<stop offset="1" stop-color="#3F74EF"/>
</linearGradient>
<linearGradient id="paint15_linear_3633_10325" x1="23.8372" y1="27.9783" x2="35.531" y2="28.4796" gradientUnits="userSpaceOnUse">
<stop stop-color="#351EE0"/>
<stop offset="1" stop-color="#3F74EF"/>
</linearGradient>
<linearGradient id="paint16_linear_3633_10325" x1="26.7843" y1="30.5534" x2="32.5688" y2="30.7614" gradientUnits="userSpaceOnUse">
<stop stop-color="#351EE0"/>
<stop offset="1" stop-color="#3F74EF"/>
</linearGradient>
<linearGradient id="paint17_linear_3633_10325" x1="28.9916" y1="32.8192" x2="30.348" y2="32.8431" gradientUnits="userSpaceOnUse">
<stop stop-color="#351EE0"/>
<stop offset="1" stop-color="#3F74EF"/>
</linearGradient>
<linearGradient id="paint18_linear_3633_10325" x1="29.6387" y1="42.7286" x2="33.7088" y2="42.7716" gradientUnits="userSpaceOnUse">
<stop stop-color="#351EE0"/>
<stop offset="1" stop-color="#3F74EF"/>
</linearGradient>
<linearGradient id="paint19_linear_3633_10325" x1="32.3064" y1="42.1705" x2="37.055" y2="42.2072" gradientUnits="userSpaceOnUse">
<stop stop-color="#351EE0"/>
<stop offset="1" stop-color="#3F74EF"/>
</linearGradient>
<linearGradient id="paint20_linear_3633_10325" x1="38.7663" y1="42.1667" x2="43.0474" y2="42.1964" gradientUnits="userSpaceOnUse">
<stop stop-color="#351EE0"/>
<stop offset="1" stop-color="#3F74EF"/>
</linearGradient>
<linearGradient id="paint21_linear_3633_10325" x1="37.6478" y1="42.9159" x2="40.2565" y2="42.938" gradientUnits="userSpaceOnUse">
<stop stop-color="#351EE0"/>
<stop offset="1" stop-color="#3F74EF"/>
</linearGradient>
<clipPath id="clip0_3633_10325">
<rect width="40" height="40" fill="white" transform="translate(21 21)"/>
</clipPath>
</defs>
</svg>
