<svg width="80" height="80" viewBox="0 0 80 80" fill="none" xmlns="http://www.w3.org/2000/svg">
<circle cx="40" cy="40" r="40" fill="white"/>
<g clip-path="url(#clip0_3633_10358)">
<path d="M46.2065 39.999H33.795C32.7061 40.0053 31.6933 39.4413 31.1251 38.5123C30.5629 37.6056 30.5162 36.4707 31.0021 35.5208L37.2288 24.9997C37.7768 23.9667 38.8536 23.3241 40.0229 23.3321C41.1922 23.3401 42.26 23.9974 42.7939 25.0377L48.9788 35.4827C49.4824 36.4397 49.4436 37.5915 48.8766 38.5123C48.3084 39.4413 47.2955 40.0053 46.2065 39.999ZM40.0008 24.6657C39.3231 24.6554 38.6994 25.0345 38.3966 25.6409L32.17 36.1621C31.9094 36.691 31.9439 37.3176 32.2611 37.8147C32.588 38.3476 33.17 38.6704 33.795 38.6657H46.2065C46.8316 38.6704 47.4135 38.3475 47.7404 37.8147C48.0626 37.3037 48.0893 36.66 47.8106 36.124L41.6258 25.679C41.3266 25.0545 40.6932 24.6595 40.0008 24.6657Z" fill="url(#paint0_linear_3633_10358)"/>
<path d="M40.0026 34.6654C39.6344 34.6654 39.3359 34.3669 39.3359 33.9987V27.9987C39.3359 27.6305 39.6344 27.332 40.0026 27.332C40.3708 27.332 40.6693 27.6305 40.6693 27.9987V33.9987C40.6693 34.3669 40.3708 34.6654 40.0026 34.6654Z" fill="url(#paint1_linear_3633_10358)"/>
<path d="M40.0026 37.3333C40.3708 37.3333 40.6693 37.0349 40.6693 36.6667C40.6693 36.2985 40.3708 36 40.0026 36C39.6344 36 39.3359 36.2985 39.3359 36.6667C39.3359 37.0349 39.6344 37.3333 40.0026 37.3333Z" fill="url(#paint2_linear_3633_10358)"/>
<path d="M55.3307 55.0267C54.9625 55.0267 54.6641 54.7282 54.6641 54.36V51.3333H41.9974V54.36C41.9974 54.7282 41.6989 55.0267 41.3307 55.0267C40.9625 55.0267 40.6641 54.7282 40.6641 54.36V50.6667C40.6641 50.2985 40.9625 50 41.3307 50H55.3307C55.6989 50 55.9974 50.2985 55.9974 50.6667V54.36C55.9974 54.7282 55.6989 55.0267 55.3307 55.0267Z" fill="url(#paint3_linear_3633_10358)"/>
<path d="M22.0026 55.0267C21.6344 55.0267 21.3359 54.7282 21.3359 54.36V50C21.3375 48.5279 22.5305 47.3349 24.0026 47.3333H38.0026V44.6667C38.0026 44.2985 38.3011 44 38.6693 44C39.0375 44 39.3359 44.2985 39.3359 44.6667V48C39.3359 48.3682 39.0375 48.6667 38.6693 48.6667H24.0026C23.2666 48.6675 22.6701 49.264 22.6693 50V54.36C22.6693 54.7282 22.3708 55.0267 22.0026 55.0267Z" fill="url(#paint4_linear_3633_10358)"/>
<path d="M57.9974 55.0267C57.6292 55.0267 57.3307 54.7282 57.3307 54.36V50C57.3299 49.264 56.7334 48.6675 55.9974 48.6667H41.3307C40.9625 48.6667 40.6641 48.3682 40.6641 48V44.6667C40.6641 44.2985 40.9625 44 41.3307 44C41.6989 44 41.9974 44.2985 41.9974 44.6667V47.3333H55.9974C57.4695 47.3349 58.6625 48.5279 58.6641 50V54.36C58.6641 54.7282 58.3656 55.0267 57.9974 55.0267Z" fill="url(#paint5_linear_3633_10358)"/>
<path d="M38.6667 55.0267C38.2985 55.0267 38 54.7282 38 54.36V51.3333H25.3333V54.36C25.3333 54.7282 25.0349 55.0267 24.6667 55.0267C24.2985 55.0267 24 54.7282 24 54.36V50.6667C24 50.2985 24.2985 50 24.6667 50H38.6667C39.0349 50 39.3333 50.2985 39.3333 50.6667V54.36C39.3333 54.7282 39.0349 55.0267 38.6667 55.0267Z" fill="url(#paint6_linear_3633_10358)"/>
<path d="M54.6643 42.668H25.3309C25.1097 42.668 24.9028 42.5583 24.7787 42.3751C24.6546 42.1918 24.6296 41.959 24.7118 41.7536L27.3785 35.0869C27.4799 34.8339 27.725 34.668 27.9976 34.668H31.8843C32.2525 34.668 32.5509 34.9664 32.5509 35.3346C32.5509 35.7028 32.2525 36.0013 31.8843 36.0013H28.4488L26.3155 41.3346H53.6799L51.5465 36.0013H48.1109C47.7428 36.0013 47.4443 35.7028 47.4443 35.3346C47.4443 34.9664 47.7428 34.668 48.1109 34.668H51.9976C52.2702 34.668 52.5153 34.8339 52.6167 35.0869L55.2834 41.7536C55.3656 41.959 55.3406 42.1918 55.2165 42.3751C55.0924 42.5583 54.8856 42.668 54.6643 42.668Z" fill="url(#paint7_linear_3633_10358)"/>
<path d="M53.9974 45.332H25.9974C25.2614 45.3312 24.6649 44.7347 24.6641 43.9987V41.9987C24.6641 41.6305 24.9625 41.332 25.3307 41.332C25.6989 41.332 25.9974 41.6305 25.9974 41.9987V43.9987H53.9974V41.9987C53.9974 41.6305 54.2959 41.332 54.6641 41.332C55.0323 41.332 55.3307 41.6305 55.3307 41.9987V43.9987C55.3299 44.7347 54.7334 45.3312 53.9974 45.332Z" fill="url(#paint8_linear_3633_10358)"/>
<path d="M52.0026 36H48.1159C47.7477 36 47.4493 35.7015 47.4493 35.3333C47.4493 34.9651 47.7477 34.6667 48.1159 34.6667H51.3359V21.3333H28.6693V34.6667H31.8893C32.2575 34.6667 32.5559 34.9651 32.5559 35.3333C32.5559 35.7015 32.2575 36 31.8893 36H28.0026C27.6344 36 27.3359 35.7015 27.3359 35.3333V21.3333C27.3368 20.5973 27.9332 20.0008 28.6693 20H51.3359C52.072 20.0008 52.6684 20.5973 52.6693 21.3333V35.3333C52.6693 35.7015 52.3708 36 52.0026 36Z" fill="url(#paint9_linear_3633_10358)"/>
<path d="M23.3333 59.9987C21.4924 59.9987 20 58.5063 20 56.6654C20 54.8244 21.4924 53.332 23.3333 53.332C25.1743 53.332 26.6667 54.8244 26.6667 56.6654C26.6645 58.5054 25.1734 59.9965 23.3333 59.9987ZM23.3333 54.6654C22.2288 54.6654 21.3333 55.5608 21.3333 56.6654C21.3333 57.7699 22.2288 58.6654 23.3333 58.6654C24.4379 58.6654 25.3333 57.7699 25.3333 56.6654C25.3321 55.5613 24.4374 54.6666 23.3333 54.6654Z" fill="url(#paint10_linear_3633_10358)"/>
<path d="M56.6693 59.9987C54.8283 59.9987 53.3359 58.5063 53.3359 56.6654C53.3359 54.8244 54.8283 53.332 56.6693 53.332C58.5102 53.332 60.0026 54.8244 60.0026 56.6654C60.0004 58.5054 58.5093 59.9965 56.6693 59.9987ZM56.6693 54.6654C55.5647 54.6654 54.6693 55.5608 54.6693 56.6654C54.6693 57.7699 55.5647 58.6654 56.6693 58.6654C57.7738 58.6654 58.6693 57.7699 58.6693 56.6654C58.6681 55.5613 57.7733 54.6666 56.6693 54.6654Z" fill="url(#paint11_linear_3633_10358)"/>
<path d="M39.9974 59.9987C38.1564 59.9987 36.6641 58.5063 36.6641 56.6654C36.6641 54.8244 38.1564 53.332 39.9974 53.332C41.8383 53.332 43.3307 54.8244 43.3307 56.6654C43.3286 58.5054 41.8374 59.9965 39.9974 59.9987ZM39.9974 54.6654C38.8928 54.6654 37.9974 55.5608 37.9974 56.6654C37.9974 57.7699 38.8928 58.6654 39.9974 58.6654C41.102 58.6654 41.9974 57.7699 41.9974 56.6654C41.9962 55.5613 41.1015 54.6666 39.9974 54.6654Z" fill="url(#paint12_linear_3633_10358)"/>
</g>
<defs>
<linearGradient id="paint0_linear_3633_10358" x1="30.5498" y1="29.3235" x2="49.5342" y2="29.6981" gradientUnits="userSpaceOnUse">
<stop stop-color="#351EE0"/>
<stop offset="1" stop-color="#3F74EF"/>
</linearGradient>
<linearGradient id="paint1_linear_3633_10358" x1="39.3275" y1="29.9682" x2="40.6843" y2="29.9726" gradientUnits="userSpaceOnUse">
<stop stop-color="#351EE0"/>
<stop offset="1" stop-color="#3F74EF"/>
</linearGradient>
<linearGradient id="paint2_linear_3633_10358" x1="39.3275" y1="36.4793" x2="40.6839" y2="36.5032" gradientUnits="userSpaceOnUse">
<stop stop-color="#351EE0"/>
<stop offset="1" stop-color="#3F74EF"/>
</linearGradient>
<linearGradient id="paint3_linear_3633_10358" x1="40.5669" y1="51.807" x2="56.1255" y2="52.6432" gradientUnits="userSpaceOnUse">
<stop stop-color="#351EE0"/>
<stop offset="1" stop-color="#3F74EF"/>
</linearGradient>
<linearGradient id="paint4_linear_3633_10358" x1="21.2219" y1="47.9639" x2="39.5239" y2="48.4903" gradientUnits="userSpaceOnUse">
<stop stop-color="#351EE0"/>
<stop offset="1" stop-color="#3F74EF"/>
</linearGradient>
<linearGradient id="paint5_linear_3633_10358" x1="40.5501" y1="47.9639" x2="58.8521" y2="48.4903" gradientUnits="userSpaceOnUse">
<stop stop-color="#351EE0"/>
<stop offset="1" stop-color="#3F74EF"/>
</linearGradient>
<linearGradient id="paint6_linear_3633_10358" x1="23.9029" y1="51.807" x2="39.4614" y2="52.6432" gradientUnits="userSpaceOnUse">
<stop stop-color="#351EE0"/>
<stop offset="1" stop-color="#3F74EF"/>
</linearGradient>
<linearGradient id="paint7_linear_3633_10358" x1="24.4698" y1="37.5438" x2="55.5355" y2="39.6421" gradientUnits="userSpaceOnUse">
<stop stop-color="#351EE0"/>
<stop offset="1" stop-color="#3F74EF"/>
</linearGradient>
<linearGradient id="paint8_linear_3633_10358" x1="24.4698" y1="42.77" x2="55.1176" y2="46.9099" gradientUnits="userSpaceOnUse">
<stop stop-color="#351EE0"/>
<stop offset="1" stop-color="#3F74EF"/>
</linearGradient>
<linearGradient id="paint9_linear_3633_10358" x1="27.1755" y1="25.7517" x2="52.9351" y2="26.4703" gradientUnits="userSpaceOnUse">
<stop stop-color="#351EE0"/>
<stop offset="1" stop-color="#3F74EF"/>
</linearGradient>
<linearGradient id="paint10_linear_3633_10358" x1="19.9578" y1="55.7286" x2="26.7398" y2="55.8481" gradientUnits="userSpaceOnUse">
<stop stop-color="#351EE0"/>
<stop offset="1" stop-color="#3F74EF"/>
</linearGradient>
<linearGradient id="paint11_linear_3633_10358" x1="53.2937" y1="55.7286" x2="60.0757" y2="55.8481" gradientUnits="userSpaceOnUse">
<stop stop-color="#351EE0"/>
<stop offset="1" stop-color="#3F74EF"/>
</linearGradient>
<linearGradient id="paint12_linear_3633_10358" x1="36.6218" y1="55.7286" x2="43.4039" y2="55.8481" gradientUnits="userSpaceOnUse">
<stop stop-color="#351EE0"/>
<stop offset="1" stop-color="#3F74EF"/>
</linearGradient>
<clipPath id="clip0_3633_10358">
<rect width="40" height="40" fill="white" transform="translate(20 20)"/>
</clipPath>
</defs>
</svg>
