<svg width="80" height="80" viewBox="0 0 80 80" fill="none" xmlns="http://www.w3.org/2000/svg">
<circle cx="40" cy="40" r="40" fill="white"/>
<g clip-path="url(#clip0_3633_10303)">
<path d="M59.0026 54.9987H23.0026C22.6344 54.9987 22.3359 54.7002 22.3359 54.332V30.332C22.3371 29.228 23.2319 28.3332 24.3359 28.332H29.2093C29.5775 28.332 29.8759 28.6305 29.8759 28.9987C29.8759 29.3669 29.5775 29.6654 29.2093 29.6654H24.3359C23.9679 29.6657 23.6696 29.964 23.6693 30.332V53.6654H58.3359V30.332C58.3356 29.964 58.0373 29.6657 57.6693 29.6654H51.7559C51.3877 29.6654 51.0893 29.3669 51.0893 28.9987C51.0893 28.6305 51.3877 28.332 51.7559 28.332H57.6693C58.7733 28.3332 59.6681 29.228 59.6693 30.332V54.332C59.6693 54.7002 59.3708 54.9987 59.0026 54.9987Z" fill="url(#paint0_linear_3633_10303)"/>
<path d="M56.3333 55H25.6667C25.2985 55 25 54.7015 25 54.3333V32.3333C25.0008 31.5973 25.5973 31.0008 26.3333 31H29.3067C29.6749 31 29.9733 31.2985 29.9733 31.6667C29.9733 32.0349 29.6749 32.3333 29.3067 32.3333H26.3333V53.6667H55.6667V32.3333H52.9333C52.5651 32.3333 52.2667 32.0349 52.2667 31.6667C52.2667 31.2985 52.5651 31 52.9333 31H55.6667C56.4027 31.0008 56.9992 31.5973 57 32.3333V54.3333C57 54.7015 56.7015 55 56.3333 55Z" fill="url(#paint1_linear_3633_10303)"/>
<path d="M57.6667 61.0013H24.3333C22.4933 60.9991 21.0022 59.508 21 57.668V55.0013C21.0008 54.2653 21.5973 53.6688 22.3333 53.668H59.6667C60.4027 53.6688 60.9992 54.2653 61 55.0013V57.668C60.9978 59.508 59.5067 60.9991 57.6667 61.0013ZM22.3333 55.0013V57.668C22.3345 58.772 23.2293 59.6668 24.3333 59.668H57.6667C58.7707 59.6668 59.6655 58.772 59.6667 57.668V55.0013H22.3333Z" fill="url(#paint2_linear_3633_10303)"/>
<path d="M45.5066 57.668H36.4883C35.7301 57.6705 35.0363 57.2418 34.6993 56.5625L33.7345 54.6328C33.6311 54.4262 33.6421 54.1807 33.7636 53.9841C33.8851 53.7876 34.0997 53.6679 34.3308 53.668H47.6641C47.8952 53.6679 48.1098 53.7876 48.2313 53.9841C48.3528 54.1807 48.3638 54.4262 48.2605 54.6328L47.2957 56.5625C46.9587 57.2418 46.2649 57.6705 45.5066 57.668ZM35.4096 55.0013L35.892 55.9662C36.0045 56.1925 36.2356 56.3353 36.4883 56.3346H45.5066C45.7593 56.3353 45.9905 56.1925 46.1029 55.9662L46.5853 55.0013H35.4096Z" fill="url(#paint3_linear_3633_10303)"/>
<path d="M29.6667 57.6654H21.6667C21.2985 57.6654 21 57.3669 21 56.9987C21 56.6305 21.2985 56.332 21.6667 56.332H29.6667C30.0349 56.332 30.3333 56.6305 30.3333 56.9987C30.3333 57.3669 30.0349 57.6654 29.6667 57.6654Z" fill="url(#paint4_linear_3633_10303)"/>
<path d="M32.9974 57.6654H32.3307C31.9625 57.6654 31.6641 57.3669 31.6641 56.9987C31.6641 56.6305 31.9625 56.332 32.3307 56.332H32.9974C33.3656 56.332 33.6641 56.6305 33.6641 56.9987C33.6641 57.3669 33.3656 57.6654 32.9974 57.6654Z" fill="url(#paint5_linear_3633_10303)"/>
<path d="M60.3307 57.6654H52.3307C51.9625 57.6654 51.6641 57.3669 51.6641 56.9987C51.6641 56.6305 51.9625 56.332 52.3307 56.332H60.3307C60.6989 56.332 60.9974 56.6305 60.9974 56.9987C60.9974 57.3669 60.6989 57.6654 60.3307 57.6654Z" fill="url(#paint6_linear_3633_10303)"/>
<path d="M49.6693 57.6654H49.0026C48.6344 57.6654 48.3359 57.3669 48.3359 56.9987C48.3359 56.6305 48.6344 56.332 49.0026 56.332H49.6693C50.0375 56.332 50.3359 56.6305 50.3359 56.9987C50.3359 57.3669 50.0375 57.6654 49.6693 57.6654Z" fill="url(#paint7_linear_3633_10303)"/>
<path d="M49.4374 35.6665H49.2707C48.9025 35.6665 48.604 35.3681 48.604 34.9999C48.604 34.6317 48.9025 34.3332 49.2707 34.3332H49.4374C50.9477 34.3438 52.1963 33.1585 52.264 31.6496C52.2652 31.6122 52.2693 31.575 52.2764 31.5383C52.2645 30.7546 51.915 30.0142 51.3174 29.507C50.798 29.0499 50.1293 28.7986 49.4374 28.8003C49.146 28.8017 48.8825 28.6275 48.7694 28.3589C48.237 26.9145 46.8571 25.9581 45.3177 25.9665C45.2838 25.9653 45.2499 25.9662 45.2161 25.9691C44.9162 26.0021 44.6317 25.8293 44.5228 25.5479C43.7385 23.6031 41.8505 22.3305 39.7534 22.3331C37.6564 22.3357 35.7716 23.6131 34.9922 25.5599C34.8829 25.842 34.5975 26.0153 34.2968 25.9821C34.1974 25.9716 34.0974 25.9664 33.9974 25.9665C32.0439 25.9447 30.33 27.2642 29.8515 29.1583C29.7649 29.4828 29.722 29.8174 29.724 30.1532C29.723 30.5952 29.7945 31.0344 29.9356 31.4532C30.4998 33.0805 31.9868 34.2091 33.7058 34.3149C34.0731 34.3379 34.3523 34.6542 34.3295 35.0215C34.3208 35.1989 34.2409 35.3653 34.1077 35.4828C33.9746 35.6003 33.7996 35.659 33.6225 35.6456C31.3562 35.5225 29.3943 34.0293 28.672 31.8777C28.4847 31.3221 28.3897 30.7395 28.3907 30.1532C28.3884 29.7049 28.4455 29.2583 28.5606 28.8251C29.1833 26.361 31.3998 24.6344 33.9414 24.6337C35.0278 22.409 37.2877 20.9986 39.7634 21C42.2392 21.0014 44.4975 22.4144 45.5814 24.6403C47.4209 24.7316 49.0616 25.8262 49.8522 27.4897C50.7185 27.5728 51.5368 27.9262 52.1914 28.4999C53.0883 29.2661 53.6045 30.3869 53.604 31.5665C53.6043 31.6189 53.6017 31.6711 53.5962 31.7231C53.4841 33.9367 51.6537 35.6723 49.4374 35.6665Z" fill="url(#paint8_linear_3633_10303)"/>
<path d="M43.3933 35.6654H37.6667C37.2985 35.6654 37 35.3669 37 34.9987C37 34.6305 37.2985 34.332 37.6667 34.332H43.3933C43.7615 34.332 44.06 34.6305 44.06 34.9987C44.06 35.3669 43.7615 35.6654 43.3933 35.6654Z" fill="url(#paint9_linear_3633_10303)"/>
<path d="M35.6678 51.0013C35.2834 51.0014 34.9176 50.8356 34.6645 50.5462L30.6958 46.5784C30.3274 46.1846 30.2323 45.6077 30.4549 45.1166C30.6685 44.638 31.145 44.3311 31.6691 44.3346H33.0011V33.0013C33.002 32.2653 33.5984 31.6688 34.3344 31.668H37.0011C37.7371 31.6688 38.3336 32.2653 38.3344 33.0013V44.3346H39.6664C40.1897 44.3345 40.6646 44.6403 40.8809 45.1168C41.0972 45.5932 41.0149 46.1521 40.6704 46.5459C40.6606 46.557 40.6504 46.568 40.6398 46.5784L36.6411 50.5784C36.3912 50.8508 36.0375 51.0045 35.6678 51.0013ZM31.6691 45.668L35.6372 49.6358L39.6684 45.664L37.6678 45.668C37.2996 45.668 37.0011 45.3695 37.0011 45.0013V33.0013H34.3344V45.0013C34.3344 45.3695 34.036 45.668 33.6678 45.668H31.6691Z" fill="url(#paint10_linear_3633_10303)"/>
<path d="M47.6658 51.0014H44.9991C44.2631 51.0005 43.6666 50.404 43.6658 49.668V38.3347H42.3338C41.8106 38.3349 41.3356 38.029 41.1193 37.5525C40.903 37.0761 40.9853 36.5172 41.3299 36.1234L45.3591 32.0909C45.6091 31.8185 45.9628 31.6648 46.3325 31.668C46.7169 31.6679 47.0826 31.8338 47.3357 32.1231L51.3045 36.0909C51.3149 36.1013 51.3253 36.1124 51.3351 36.1234C51.6796 36.5172 51.7619 37.0761 51.5456 37.5525C51.3293 38.029 50.8544 38.3349 50.3311 38.3347H48.9991V49.668C48.9983 50.404 48.4018 51.0005 47.6658 51.0014ZM44.3325 37.0014C44.7006 37.0014 44.9991 37.2998 44.9991 37.668V49.668H47.6658V37.668C47.6658 37.2998 47.9643 37.0014 48.3325 37.0014H50.3292L46.3631 33.0336L42.3031 37.0336L44.3325 37.0014Z" fill="url(#paint11_linear_3633_10303)"/>
</g>
<defs>
<linearGradient id="paint0_linear_3633_10303" x1="22.0995" y1="37.9182" x2="60.0675" y2="38.8548" gradientUnits="userSpaceOnUse">
<stop stop-color="#351EE0"/>
<stop offset="1" stop-color="#3F74EF"/>
</linearGradient>
<linearGradient id="paint1_linear_3633_10303" x1="24.7973" y1="39.6275" x2="57.3432" y2="40.3921" gradientUnits="userSpaceOnUse">
<stop stop-color="#351EE0"/>
<stop offset="1" stop-color="#3F74EF"/>
</linearGradient>
<linearGradient id="paint2_linear_3633_10303" x1="20.7466" y1="56.3042" x2="61.0789" y2="60.1803" gradientUnits="userSpaceOnUse">
<stop stop-color="#351EE0"/>
<stop offset="1" stop-color="#3F74EF"/>
</linearGradient>
<linearGradient id="paint3_linear_3633_10303" x1="33.5712" y1="55.1059" x2="48.4344" y2="56.0661" gradientUnits="userSpaceOnUse">
<stop stop-color="#351EE0"/>
<stop offset="1" stop-color="#3F74EF"/>
</linearGradient>
<linearGradient id="paint4_linear_3633_10303" x1="20.9409" y1="56.8113" x2="30.2964" y2="57.9652" gradientUnits="userSpaceOnUse">
<stop stop-color="#351EE0"/>
<stop offset="1" stop-color="#3F74EF"/>
</linearGradient>
<linearGradient id="paint5_linear_3633_10303" x1="31.6514" y1="56.8113" x2="33.6852" y2="56.8651" gradientUnits="userSpaceOnUse">
<stop stop-color="#351EE0"/>
<stop offset="1" stop-color="#3F74EF"/>
</linearGradient>
<linearGradient id="paint6_linear_3633_10303" x1="51.6049" y1="56.8113" x2="60.9604" y2="57.9652" gradientUnits="userSpaceOnUse">
<stop stop-color="#351EE0"/>
<stop offset="1" stop-color="#3F74EF"/>
</linearGradient>
<linearGradient id="paint7_linear_3633_10303" x1="48.3233" y1="56.8113" x2="50.3571" y2="56.8651" gradientUnits="userSpaceOnUse">
<stop stop-color="#351EE0"/>
<stop offset="1" stop-color="#3F74EF"/>
</linearGradient>
<linearGradient id="paint8_linear_3633_10303" x1="28.2309" y1="26.2724" x2="53.8651" y2="27.0488" gradientUnits="userSpaceOnUse">
<stop stop-color="#351EE0"/>
<stop offset="1" stop-color="#3F74EF"/>
</linearGradient>
<linearGradient id="paint9_linear_3633_10303" x1="36.9553" y1="34.8113" x2="44.0777" y2="35.4758" gradientUnits="userSpaceOnUse">
<stop stop-color="#351EE0"/>
<stop offset="1" stop-color="#3F74EF"/>
</linearGradient>
<linearGradient id="paint10_linear_3633_10303" x1="30.2684" y1="38.618" x2="41.1196" y2="38.7234" gradientUnits="userSpaceOnUse">
<stop stop-color="#351EE0"/>
<stop offset="1" stop-color="#3F74EF"/>
</linearGradient>
<linearGradient id="paint11_linear_3633_10303" x1="40.9325" y1="38.618" x2="51.7842" y2="38.7234" gradientUnits="userSpaceOnUse">
<stop stop-color="#351EE0"/>
<stop offset="1" stop-color="#3F74EF"/>
</linearGradient>
<clipPath id="clip0_3633_10303">
<rect width="40" height="40" fill="white" transform="translate(21 21)"/>
</clipPath>
</defs>
</svg>
