<svg width="80" height="80" viewBox="0 0 80 80" fill="none" xmlns="http://www.w3.org/2000/svg">
<circle cx="40" cy="40" r="40" fill="white"/>
<g clip-path="url(#clip0_3633_10382)">
<path d="M48.6667 45.3333H36C35.6318 45.3333 35.3333 45.0349 35.3333 44.6667C35.3333 44.2985 35.6318 44 36 44H48.6667C50.1388 43.9985 51.3318 42.8055 51.3333 41.3333V25.3333C51.3321 24.2293 50.4374 23.3345 49.3333 23.3333H25.3333C24.2293 23.3345 23.3345 24.2293 23.3333 25.3333V42C23.3345 43.1041 24.2293 43.9988 25.3333 44H32C32.3682 44 32.6667 44.2985 32.6667 44.6667C32.6667 45.0349 32.3682 45.3333 32 45.3333H25.3333C23.4933 45.3312 22.0022 43.8401 22 42V25.3333C22.0022 23.4933 23.4933 22.0022 25.3333 22H49.3333C51.1734 22.0022 52.6645 23.4933 52.6667 25.3333V41.3333C52.6642 43.5415 50.8748 45.3309 48.6667 45.3333Z" fill="url(#paint0_linear_3633_10382)"/>
<path d="M32 40.0013H22.6667C22.2985 40.0013 22 39.7028 22 39.3346C22 38.9664 22.2985 38.668 22.6667 38.668H32C32.3682 38.668 32.6667 38.9664 32.6667 39.3346C32.6667 39.7028 32.3682 40.0013 32 40.0013Z" fill="url(#paint1_linear_3633_10382)"/>
<path d="M61.3359 50.6654H32.0026C31.6344 50.6654 31.3359 50.3669 31.3359 49.9987C31.3359 49.6305 31.6344 49.332 32.0026 49.332H61.3359C61.7041 49.332 62.0026 49.6305 62.0026 49.9987C62.0026 50.3669 61.7041 50.6654 61.3359 50.6654Z" fill="url(#paint2_linear_3633_10382)"/>
<path d="M49.9974 59.3346H43.3307C42.9625 59.3346 42.6641 59.0362 42.6641 58.668V55.3346C42.6641 54.9664 42.9625 54.668 43.3307 54.668H49.9974C50.3656 54.668 50.6641 54.9664 50.6641 55.3346V58.668C50.6641 59.0362 50.3656 59.3346 49.9974 59.3346ZM43.9974 58.0013H49.3307V56.0013H43.9974V58.0013Z" fill="url(#paint3_linear_3633_10382)"/>
<path d="M52.6693 62H40.6693C39.9332 61.9992 39.3368 61.4027 39.3359 60.6667C39.3375 59.1945 40.5305 58.0015 42.0026 58H51.3359C52.8081 58.0015 54.0011 59.1945 54.0026 60.6667C54.0018 61.4027 53.4053 61.9992 52.6693 62ZM42.0026 59.3333C41.2666 59.3342 40.6701 59.9306 40.6693 60.6667H52.6693C52.6684 59.9306 52.072 59.3342 51.3359 59.3333H42.0026Z" fill="url(#paint4_linear_3633_10382)"/>
<path d="M58.0026 55.9996H34.6693C32.8292 55.9975 31.3381 54.5063 31.3359 52.6663V35.9996C31.3381 34.1596 32.8292 32.6685 34.6693 32.6663H46.3932L44.8646 31.1376C44.612 30.876 44.6156 30.4602 44.8727 30.2031C45.1299 29.9459 45.5457 29.9423 45.8073 30.195L48.4739 32.8616C48.6645 33.0523 48.7216 33.339 48.6184 33.5881C48.5152 33.8371 48.2722 33.9996 48.0026 33.9996H34.6693C33.5652 34.0008 32.6705 34.8956 32.6693 35.9996V52.6663C32.6705 53.7704 33.5652 54.6651 34.6693 54.6663H58.0026C59.4747 54.6647 60.6677 53.4717 60.6693 51.9996V35.9996C60.6681 34.8956 59.7733 34.0008 58.6693 33.9996H52.0026C51.6344 33.9996 51.3359 33.7011 51.3359 33.333C51.3359 32.9648 51.6344 32.6663 52.0026 32.6663H58.6693C60.5093 32.6685 62.0004 34.1596 62.0026 35.9996V51.9996C62.0002 54.2078 60.2107 55.9972 58.0026 55.9996Z" fill="url(#paint5_linear_3633_10382)"/>
<path d="M45.3306 36.6676C45.061 36.6675 44.818 36.5051 44.7148 36.256C44.6117 36.0069 44.6687 35.7203 44.8593 35.5296L47.5259 32.8629C47.7875 32.6103 48.2033 32.6139 48.4605 32.871C48.7176 33.1282 48.7213 33.544 48.4686 33.8056L45.8019 36.4723C45.6771 36.5975 45.5075 36.6678 45.3306 36.6676Z" fill="url(#paint6_linear_3633_10382)"/>
<path d="M36.0025 45.3317C35.7329 45.3316 35.4899 45.1692 35.3867 44.9201C35.2835 44.671 35.3405 44.3843 35.5311 44.1937L38.1978 41.527C38.4594 41.2743 38.8752 41.278 39.1324 41.5351C39.3895 41.7923 39.3931 42.2081 39.1405 42.4697L36.4738 45.1363C36.349 45.2616 36.1793 45.3319 36.0025 45.3317Z" fill="url(#paint7_linear_3633_10382)"/>
<path d="M38.6689 47.9996C38.492 47.9998 38.3224 47.9295 38.1976 47.8043L35.5309 45.1376C35.2782 44.876 35.2819 44.4602 35.539 44.2031C35.7962 43.9459 36.212 43.9423 36.4736 44.195L39.1402 46.8616C39.3308 47.0523 39.3878 47.339 39.2847 47.5881C39.1815 47.8371 38.9385 47.9996 38.6689 47.9996Z" fill="url(#paint8_linear_3633_10382)"/>
<path d="M47.3359 53.3333H46.0026C45.6344 53.3333 45.3359 53.0349 45.3359 52.6667C45.3359 52.2985 45.6344 52 46.0026 52H47.3359C47.7041 52 48.0026 52.2985 48.0026 52.6667C48.0026 53.0349 47.7041 53.3333 47.3359 53.3333Z" fill="url(#paint9_linear_3633_10382)"/>
<path d="M26.6641 26.0013H25.3307C24.9625 26.0013 24.6641 25.7028 24.6641 25.3346C24.6641 24.9664 24.9625 24.668 25.3307 24.668H26.6641C27.0323 24.668 27.3307 24.9664 27.3307 25.3346C27.3307 25.7028 27.0323 26.0013 26.6641 26.0013Z" fill="url(#paint10_linear_3633_10382)"/>
<path d="M37.3307 26.0013H29.3307C28.9625 26.0013 28.6641 25.7028 28.6641 25.3346C28.6641 24.9664 28.9625 24.668 29.3307 24.668H37.3307C37.6989 24.668 37.9974 24.9664 37.9974 25.3346C37.9974 25.7028 37.6989 26.0013 37.3307 26.0013Z" fill="url(#paint11_linear_3633_10382)"/>
</g>
<defs>
<linearGradient id="paint0_linear_3633_10382" x1="21.8058" y1="30.3879" x2="52.996" y2="31.1102" gradientUnits="userSpaceOnUse">
<stop stop-color="#351EE0"/>
<stop offset="1" stop-color="#3F74EF"/>
</linearGradient>
<linearGradient id="paint1_linear_3633_10382" x1="21.9324" y1="39.1473" x2="32.5756" y2="40.6475" gradientUnits="userSpaceOnUse">
<stop stop-color="#351EE0"/>
<stop offset="1" stop-color="#3F74EF"/>
</linearGradient>
<linearGradient id="paint2_linear_3633_10382" x1="31.1417" y1="49.8113" x2="57.9467" y2="60.6739" gradientUnits="userSpaceOnUse">
<stop stop-color="#351EE0"/>
<stop offset="1" stop-color="#3F74EF"/>
</linearGradient>
<linearGradient id="paint3_linear_3633_10382" x1="42.6134" y1="56.3455" x2="50.7469" y2="56.5912" gradientUnits="userSpaceOnUse">
<stop stop-color="#351EE0"/>
<stop offset="1" stop-color="#3F74EF"/>
</linearGradient>
<linearGradient id="paint4_linear_3633_10382" x1="39.243" y1="59.4379" x2="54.1061" y2="60.3981" gradientUnits="userSpaceOnUse">
<stop stop-color="#351EE0"/>
<stop offset="1" stop-color="#3F74EF"/>
</linearGradient>
<linearGradient id="paint5_linear_3633_10382" x1="31.1417" y1="39.3514" x2="62.3352" y2="39.9998" gradientUnits="userSpaceOnUse">
<stop stop-color="#351EE0"/>
<stop offset="1" stop-color="#3F74EF"/>
</linearGradient>
<linearGradient id="paint6_linear_3633_10382" x1="44.6388" y1="34.1108" x2="48.6995" y2="34.1823" gradientUnits="userSpaceOnUse">
<stop stop-color="#351EE0"/>
<stop offset="1" stop-color="#3F74EF"/>
</linearGradient>
<linearGradient id="paint7_linear_3633_10382" x1="35.3107" y1="42.7748" x2="39.3714" y2="42.8464" gradientUnits="userSpaceOnUse">
<stop stop-color="#351EE0"/>
<stop offset="1" stop-color="#3F74EF"/>
</linearGradient>
<linearGradient id="paint8_linear_3633_10382" x1="35.3185" y1="45.4428" x2="39.3792" y2="45.5143" gradientUnits="userSpaceOnUse">
<stop stop-color="#351EE0"/>
<stop offset="1" stop-color="#3F74EF"/>
</linearGradient>
<linearGradient id="paint9_linear_3633_10382" x1="45.319" y1="52.4793" x2="48.0293" y2="52.5748" gradientUnits="userSpaceOnUse">
<stop stop-color="#351EE0"/>
<stop offset="1" stop-color="#3F74EF"/>
</linearGradient>
<linearGradient id="paint10_linear_3633_10382" x1="24.6472" y1="25.1473" x2="27.3575" y2="25.2428" gradientUnits="userSpaceOnUse">
<stop stop-color="#351EE0"/>
<stop offset="1" stop-color="#3F74EF"/>
</linearGradient>
<linearGradient id="paint11_linear_3633_10382" x1="28.6049" y1="25.1473" x2="37.9604" y2="26.3011" gradientUnits="userSpaceOnUse">
<stop stop-color="#351EE0"/>
<stop offset="1" stop-color="#3F74EF"/>
</linearGradient>
<clipPath id="clip0_3633_10382">
<rect width="40" height="40" fill="white" transform="translate(22 22)"/>
</clipPath>
</defs>
</svg>
