<svg width="65" height="66" viewBox="0 0 65 66" fill="none" xmlns="http://www.w3.org/2000/svg">
<g clip-path="url(#clip0_3633_8051)">
<path d="M61.7474 55.7513H3.2474C2.64909 55.7513 2.16406 55.2663 2.16406 54.668V15.668C2.16603 13.8739 3.61995 12.4199 5.41406 12.418H13.3332C13.9315 12.418 14.4166 12.903 14.4166 13.5013C14.4166 14.0996 13.9315 14.5846 13.3332 14.5846H5.41406C4.81598 14.5852 4.33127 15.0699 4.33073 15.668V53.5846H60.6641V15.668C60.6635 15.0699 60.1788 14.5852 59.5807 14.5846H49.9716C49.3733 14.5846 48.8882 14.0996 48.8882 13.5013C48.8882 12.903 49.3733 12.418 49.9716 12.418H59.5807C61.3748 12.4199 62.8288 13.8739 62.8307 15.668V54.668C62.8307 55.2663 62.3457 55.7513 61.7474 55.7513Z" fill="url(#paint0_linear_3633_8051)"/>
<path d="M57.4167 55.75H7.58333C6.98502 55.75 6.5 55.265 6.5 54.6667V18.9167C6.50137 17.7206 7.47062 16.7514 8.66667 16.75H13.4983C14.0966 16.75 14.5817 17.235 14.5817 17.8333C14.5817 18.4316 14.0966 18.9167 13.4983 18.9167H8.66667V53.5833H56.3333V18.9167H51.8917C51.2934 18.9167 50.8083 18.4316 50.8083 17.8333C50.8083 17.235 51.2934 16.75 51.8917 16.75H56.3333C57.5294 16.7514 58.4986 17.7206 58.5 18.9167V54.6667C58.5 55.265 58.015 55.75 57.4167 55.75Z" fill="url(#paint1_linear_3633_8051)"/>
<path d="M59.5833 65.4987H5.41667C2.42658 65.4952 0.00352207 63.0721 0 60.082V55.7487C0.00137309 54.5527 0.970619 53.5834 2.16667 53.582H62.8333C64.0294 53.5834 64.9986 54.5527 65 55.7487V60.082C64.9965 63.0721 62.5734 65.4952 59.5833 65.4987ZM2.16667 55.7487V60.082C2.16864 61.8761 3.62256 63.3301 5.41667 63.332H59.5833C61.3774 63.3301 62.8314 61.8761 62.8333 60.082V55.7487H2.16667Z" fill="url(#paint2_linear_3633_8051)"/>
<path d="M39.8301 60.082H25.1754C23.9432 60.0862 22.8157 59.3895 22.2682 58.2856L20.7004 55.1499C20.5324 54.8141 20.5503 54.4152 20.7477 54.0958C20.9452 53.7764 21.2939 53.582 21.6694 53.582H43.3361C43.7116 53.582 44.0603 53.7764 44.2577 54.0958C44.4551 54.4152 44.4731 54.8141 44.3051 55.1499L42.7373 58.2856C42.1897 59.3895 41.0623 60.0862 39.8301 60.082ZM23.4224 55.7487L24.2063 57.3166C24.3891 57.6844 24.7647 57.9165 25.1754 57.9154H39.8301C40.2407 57.9165 40.6164 57.6844 40.7991 57.3166L41.583 55.7487H23.4224Z" fill="url(#paint3_linear_3633_8051)"/>
<path d="M14.0833 60.0846H1.08333C0.485025 60.0846 0 59.5996 0 59.0013C0 58.403 0.485025 57.918 1.08333 57.918H14.0833C14.6816 57.918 15.1667 58.403 15.1667 59.0013C15.1667 59.5996 14.6816 60.0846 14.0833 60.0846Z" fill="url(#paint4_linear_3633_8051)"/>
<path d="M19.5026 60.0846H18.4193C17.821 60.0846 17.3359 59.5996 17.3359 59.0013C17.3359 58.403 17.821 57.918 18.4193 57.918H19.5026C20.1009 57.918 20.5859 58.403 20.5859 59.0013C20.5859 59.5996 20.1009 60.0846 19.5026 60.0846Z" fill="url(#paint5_linear_3633_8051)"/>
<path d="M63.9193 60.0846H50.9193C50.321 60.0846 49.8359 59.5996 49.8359 59.0013C49.8359 58.403 50.321 57.918 50.9193 57.918H63.9193C64.5176 57.918 65.0026 58.403 65.0026 59.0013C65.0026 59.5996 64.5176 60.0846 63.9193 60.0846Z" fill="url(#paint6_linear_3633_8051)"/>
<path d="M46.5807 60.0846H45.4974C44.8991 60.0846 44.4141 59.5996 44.4141 59.0013C44.4141 58.403 44.8991 57.918 45.4974 57.918H46.5807C47.179 57.918 47.6641 58.403 47.6641 59.0013C47.6641 59.5996 47.179 60.0846 46.5807 60.0846Z" fill="url(#paint7_linear_3633_8051)"/>
<path d="M46.2166 24.3331H45.9457C45.3474 24.3331 44.8624 23.8481 44.8624 23.2498C44.8624 22.6515 45.3474 22.1665 45.9457 22.1665H46.2166C48.6709 22.1837 50.6998 20.2576 50.8099 17.8056C50.8118 17.7449 50.8185 17.6844 50.8299 17.6247C50.8107 16.3512 50.2427 15.1481 49.2717 14.3239C48.4276 13.5811 47.341 13.1727 46.2167 13.1756C45.7432 13.1777 45.3149 12.8947 45.1312 12.4583C44.2659 10.1111 42.0236 8.55699 39.5221 8.57063C39.467 8.56867 39.4119 8.57008 39.357 8.57486C38.8697 8.62846 38.4073 8.34756 38.2303 7.89041C36.9558 4.73002 33.8878 2.66199 30.4801 2.66628C27.0724 2.67057 24.0097 4.74632 22.7431 7.90991C22.5655 8.36826 22.1018 8.64982 21.6132 8.59598C21.4516 8.57889 21.2891 8.57043 21.1266 8.57063C17.9523 8.53521 15.1671 10.6794 14.3895 13.7572C14.2488 14.2845 14.1792 14.8282 14.1824 15.374C14.1807 16.0922 14.2969 16.8058 14.5263 17.4865C15.443 20.1308 17.8594 21.9649 20.6528 22.1367C21.2497 22.1741 21.7033 22.6881 21.6663 23.285C21.6522 23.5733 21.5223 23.8436 21.3059 24.0346C21.0895 24.2255 20.8052 24.321 20.5174 24.2991C16.8347 24.0991 13.6466 21.6726 12.4728 18.1762C12.1685 17.2733 12.0141 16.3267 12.0157 15.374C12.012 14.6455 12.1049 13.9198 12.2919 13.2158C13.3037 9.21157 16.9055 6.40588 21.0356 6.40473C22.801 2.78965 26.4733 0.497698 30.4965 0.500002C34.5196 0.502306 38.1893 2.79846 39.9506 6.41556C42.9399 6.56378 45.6059 8.3425 46.8906 11.0457C48.2985 11.1808 49.6282 11.7551 50.6918 12.6873C52.1493 13.9325 52.9883 15.7536 52.9874 17.6706C52.9879 17.7556 52.9836 17.8406 52.9746 17.9251C52.7926 21.5222 49.8182 24.3425 46.2166 24.3331Z" fill="url(#paint8_linear_3633_8051)"/>
<path d="M36.3892 24.3346H27.0833C26.485 24.3346 26 23.8496 26 23.2513C26 22.653 26.485 22.168 27.0833 22.168H36.3892C36.9875 22.168 37.4725 22.653 37.4725 23.2513C37.4725 23.8496 36.9875 24.3346 36.3892 24.3346Z" fill="url(#paint9_linear_3633_8051)"/>
<path d="M23.8361 49.2487C23.2114 49.2489 22.6171 48.9794 22.2058 48.5092L15.7566 42.0615C15.1579 41.4216 15.0035 40.4842 15.3652 39.686C15.7123 38.9083 16.4867 38.4097 17.3383 38.4154H19.5028V19.9987C19.5042 18.8027 20.4734 17.8334 21.6694 17.832H26.0028C27.1988 17.8334 28.1681 18.8027 28.1694 19.9987V38.4154H30.3339C31.1842 38.4151 31.956 38.9121 32.3075 39.6863C32.659 40.4605 32.5252 41.3688 31.9653 42.0087C31.9495 42.0267 31.9328 42.0446 31.9156 42.0615L25.4178 48.5615C25.0116 49.0042 24.4368 49.2539 23.8361 49.2487ZM17.3383 40.582L23.7864 47.0297L30.3372 40.5756L27.0861 40.582C26.4878 40.582 26.0028 40.097 26.0028 39.4987V19.9987H21.6694V39.4987C21.6694 40.097 21.1844 40.582 20.5861 40.582H17.3383Z" fill="url(#paint10_linear_3633_8051)"/>
<path d="M43.3319 49.2488H38.9986C37.8025 49.2474 36.8333 48.2782 36.8319 47.0821V28.6654H34.6674C33.8172 28.6657 33.0453 28.1687 32.6938 27.3945C32.3424 26.6203 32.4762 25.7121 33.036 25.0721L39.5836 18.5193C39.9897 18.0766 40.5645 17.8269 41.1652 17.8321C41.7899 17.8319 42.3842 18.1015 42.7956 18.5716L49.2447 25.0193C49.2616 25.0362 49.2786 25.0542 49.2945 25.0721C49.8543 25.7121 49.9881 26.6203 49.6366 27.3945C49.2851 28.1687 48.5133 28.6657 47.6631 28.6654H45.4986V47.0821C45.4972 48.2782 44.528 49.2474 43.3319 49.2488ZM37.9152 26.4988C38.5135 26.4988 38.9986 26.9838 38.9986 27.5821V47.0821H43.3319V27.5821C43.3319 26.9838 43.8169 26.4988 44.4152 26.4988H47.6599L41.215 20.0511L34.6175 26.5511L37.9152 26.4988Z" fill="url(#paint11_linear_3633_8051)"/>
</g>
<defs>
<linearGradient id="paint0_linear_3633_8051" x1="1.77981" y1="27.9955" x2="63.4779" y2="29.5174" gradientUnits="userSpaceOnUse">
<stop stop-color="#351EE0"/>
<stop offset="1" stop-color="#3F74EF"/>
</linearGradient>
<linearGradient id="paint1_linear_3633_8051" x1="6.17064" y1="30.7698" x2="59.0577" y2="32.0122" gradientUnits="userSpaceOnUse">
<stop stop-color="#351EE0"/>
<stop offset="1" stop-color="#3F74EF"/>
</linearGradient>
<linearGradient id="paint2_linear_3633_8051" x1="-0.411699" y1="57.8658" x2="65.1282" y2="64.1646" gradientUnits="userSpaceOnUse">
<stop stop-color="#351EE0"/>
<stop offset="1" stop-color="#3F74EF"/>
</linearGradient>
<linearGradient id="paint3_linear_3633_8051" x1="20.435" y1="55.9187" x2="44.5877" y2="57.479" gradientUnits="userSpaceOnUse">
<stop stop-color="#351EE0"/>
<stop offset="1" stop-color="#3F74EF"/>
</linearGradient>
<linearGradient id="paint4_linear_3633_8051" x1="-0.096063" y1="58.6968" x2="15.1066" y2="60.5719" gradientUnits="userSpaceOnUse">
<stop stop-color="#351EE0"/>
<stop offset="1" stop-color="#3F74EF"/>
</linearGradient>
<linearGradient id="paint5_linear_3633_8051" x1="17.3154" y1="58.6968" x2="20.6203" y2="58.7842" gradientUnits="userSpaceOnUse">
<stop stop-color="#351EE0"/>
<stop offset="1" stop-color="#3F74EF"/>
</linearGradient>
<linearGradient id="paint6_linear_3633_8051" x1="49.7399" y1="58.6968" x2="64.9425" y2="60.5719" gradientUnits="userSpaceOnUse">
<stop stop-color="#351EE0"/>
<stop offset="1" stop-color="#3F74EF"/>
</linearGradient>
<linearGradient id="paint7_linear_3633_8051" x1="44.3935" y1="58.6968" x2="47.6984" y2="58.7842" gradientUnits="userSpaceOnUse">
<stop stop-color="#351EE0"/>
<stop offset="1" stop-color="#3F74EF"/>
</linearGradient>
<linearGradient id="paint8_linear_3633_8051" x1="11.7561" y1="9.06757" x2="53.4116" y2="10.3293" gradientUnits="userSpaceOnUse">
<stop stop-color="#351EE0"/>
<stop offset="1" stop-color="#3F74EF"/>
</linearGradient>
<linearGradient id="paint9_linear_3633_8051" x1="25.9273" y1="22.9468" x2="37.5012" y2="24.0266" gradientUnits="userSpaceOnUse">
<stop stop-color="#351EE0"/>
<stop offset="1" stop-color="#3F74EF"/>
</linearGradient>
<linearGradient id="paint10_linear_3633_8051" x1="15.0621" y1="29.1258" x2="32.6953" y2="29.2971" gradientUnits="userSpaceOnUse">
<stop stop-color="#351EE0"/>
<stop offset="1" stop-color="#3F74EF"/>
</linearGradient>
<linearGradient id="paint11_linear_3633_8051" x1="32.3902" y1="29.1258" x2="50.0244" y2="29.2972" gradientUnits="userSpaceOnUse">
<stop stop-color="#351EE0"/>
<stop offset="1" stop-color="#3F74EF"/>
</linearGradient>
<clipPath id="clip0_3633_8051">
<rect width="65" height="65" fill="white" transform="translate(0 0.5)"/>
</clipPath>
</defs>
</svg>
