<svg width="105" height="16" viewBox="0 0 105 16" fill="none" xmlns="http://www.w3.org/2000/svg">
<path d="M11.1621 5.29883L15.3516 5.91406C15.7031 5.97266 15.9961 6.20703 16.1133 6.55859C16.2305 6.88086 16.1426 7.26172 15.8789 7.49609L12.832 10.5137L13.5645 14.791C13.623 15.1426 13.4766 15.4941 13.1836 15.6992C12.8906 15.9336 12.5098 15.9336 12.1875 15.7871L8.4375 13.7656L4.6582 15.7871C4.36523 15.9336 3.95508 15.9336 3.69141 15.6992C3.39844 15.4941 3.25195 15.1426 3.31055 14.791L4.01367 10.5137L0.966797 7.49609C0.703125 7.26172 0.615234 6.88086 0.732422 6.55859C0.849609 6.20703 1.14258 5.97266 1.49414 5.91406L5.71289 5.29883L7.58789 1.40234C7.73438 1.08008 8.05664 0.875 8.4375 0.875C8.78906 0.875 9.11133 1.08008 9.25781 1.40234L11.1621 5.29883Z" fill="#F8BC26"/>
<path d="M33.1621 5.29883L37.3516 5.91406C37.7031 5.97266 37.9961 6.20703 38.1133 6.55859C38.2305 6.88086 38.1426 7.26172 37.8789 7.49609L34.832 10.5137L35.5645 14.791C35.623 15.1426 35.4766 15.4941 35.1836 15.6992C34.8906 15.9336 34.5098 15.9336 34.1875 15.7871L30.4375 13.7656L26.6582 15.7871C26.3652 15.9336 25.9551 15.9336 25.6914 15.6992C25.3984 15.4941 25.252 15.1426 25.3105 14.791L26.0137 10.5137L22.9668 7.49609C22.7031 7.26172 22.6152 6.88086 22.7324 6.55859C22.8496 6.20703 23.1426 5.97266 23.4941 5.91406L27.7129 5.29883L29.5879 1.40234C29.7344 1.08008 30.0566 0.875 30.4375 0.875C30.7891 0.875 31.1113 1.08008 31.2578 1.40234L33.1621 5.29883Z" fill="#F8BC26"/>
<path d="M55.1621 5.29883L59.3516 5.91406C59.7031 5.97266 59.9961 6.20703 60.1133 6.55859C60.2305 6.88086 60.1426 7.26172 59.8789 7.49609L56.832 10.5137L57.5645 14.791C57.623 15.1426 57.4766 15.4941 57.1836 15.6992C56.8906 15.9336 56.5098 15.9336 56.1875 15.7871L52.4375 13.7656L48.6582 15.7871C48.3652 15.9336 47.9551 15.9336 47.6914 15.6992C47.3984 15.4941 47.252 15.1426 47.3105 14.791L48.0137 10.5137L44.9668 7.49609C44.7031 7.26172 44.6152 6.88086 44.7324 6.55859C44.8496 6.20703 45.1426 5.97266 45.4941 5.91406L49.7129 5.29883L51.5879 1.40234C51.7344 1.08008 52.0566 0.875 52.4375 0.875C52.7891 0.875 53.1113 1.08008 53.2578 1.40234L55.1621 5.29883Z" fill="#F8BC26"/>
<path d="M77.1621 5.29883L81.3516 5.91406C81.7031 5.97266 81.9961 6.20703 82.1133 6.55859C82.2305 6.88086 82.1426 7.26172 81.8789 7.49609L78.832 10.5137L79.5645 14.791C79.623 15.1426 79.4766 15.4941 79.1836 15.6992C78.8906 15.9336 78.5098 15.9336 78.1875 15.7871L74.4375 13.7656L70.6582 15.7871C70.3652 15.9336 69.9551 15.9336 69.6914 15.6992C69.3984 15.4941 69.252 15.1426 69.3105 14.791L70.0137 10.5137L66.9668 7.49609C66.7031 7.26172 66.6152 6.88086 66.7324 6.55859C66.8496 6.20703 67.1426 5.97266 67.4941 5.91406L71.7129 5.29883L73.5879 1.40234C73.7344 1.08008 74.0566 0.875 74.4375 0.875C74.7891 0.875 75.1113 1.08008 75.2578 1.40234L77.1621 5.29883Z" fill="#F8BC26"/>
<path d="M99.1621 5.29883L103.352 5.91406C103.703 5.97266 103.996 6.20703 104.113 6.55859C104.23 6.88086 104.143 7.26172 103.879 7.49609L100.832 10.5137L101.564 14.791C101.623 15.1426 101.477 15.4941 101.184 15.6992C100.891 15.9336 100.51 15.9336 100.188 15.7871L96.4375 13.7656L92.6582 15.7871C92.3652 15.9336 91.9551 15.9336 91.6914 15.6992C91.3984 15.4941 91.252 15.1426 91.3105 14.791L92.0137 10.5137L88.9668 7.49609C88.7031 7.26172 88.6152 6.88086 88.7324 6.55859C88.8496 6.20703 89.1426 5.97266 89.4941 5.91406L93.7129 5.29883L95.5879 1.40234C95.7344 1.08008 96.0566 0.875 96.4375 0.875C96.7891 0.875 97.1113 1.08008 97.2578 1.40234L99.1621 5.29883Z" fill="#CCCCCC"/>
</svg>
