<svg width="40" height="40" viewBox="0 0 40 40" fill="none" xmlns="http://www.w3.org/2000/svg">
<g clip-path="url(#clip0_3637_13569)">
<path d="M37.9987 34.0026H1.9987C1.63051 34.0026 1.33203 33.7041 1.33203 33.3359V9.33594C1.33324 8.23187 2.22796 7.33715 3.33203 7.33594H9.39203C9.76022 7.33594 10.0587 7.63441 10.0587 8.0026C10.0587 8.37079 9.76022 8.66927 9.39203 8.66927H3.33203C2.96404 8.66975 2.66584 8.96795 2.66536 9.33594V32.6693H37.332V9.33594C37.3316 8.96795 37.0334 8.66975 36.6654 8.66927H30.6054C30.2372 8.66927 29.9387 8.37079 29.9387 8.0026C29.9387 7.63441 30.2372 7.33594 30.6054 7.33594H36.6654C37.7694 7.33715 38.6642 8.23187 38.6654 9.33594V33.3359C38.6654 33.7041 38.3669 34.0026 37.9987 34.0026Z" fill="white"/>
<path d="M35.3333 34H4.66667C4.29848 34 4 33.7015 4 33.3333V11.3333C4.00073 10.5973 4.59726 10.0007 5.33333 10H8.74667C9.11486 10 9.41333 10.2985 9.41333 10.6667C9.41333 11.0349 9.11486 11.3333 8.74667 11.3333H5.33333V32.6667H34.6667V11.3333H31.2533C30.8851 11.3333 30.5867 11.0349 30.5867 10.6667C30.5867 10.2985 30.8851 10 31.2533 10H34.6667C35.4027 10.0007 35.9993 10.5973 36 11.3333V33.3333C36 33.7015 35.7015 34 35.3333 34Z" fill="white"/>
<path d="M36.6667 39.9974H3.33333C1.49328 39.9952 0.00216743 38.5041 0 36.6641V33.9974C0.000734973 33.2613 0.597258 32.6648 1.33333 32.6641H38.6667C39.4027 32.6648 39.9993 33.2613 40 33.9974V36.6641C39.9978 38.5041 38.5067 39.9952 36.6667 39.9974ZM1.33333 33.9974V36.6641C1.33455 37.7681 2.22927 38.6629 3.33333 38.6641H36.6667C37.7707 38.6629 38.6655 37.7681 38.6667 36.6641V33.9974H1.33333Z" fill="white"/>
<path d="M24.5108 36.6641H15.4919C14.7337 36.6665 14.0401 36.2378 13.7032 35.5586L12.7384 33.6289C12.635 33.4223 12.6461 33.1768 12.7675 32.9802C12.889 32.7837 13.1036 32.664 13.3347 32.6641H26.668C26.8991 32.664 27.1137 32.7837 27.2352 32.9802C27.3567 33.1768 27.3677 33.4223 27.2644 33.6289L26.2996 35.5586C25.9627 36.2378 25.269 36.6665 24.5108 36.6641ZM14.4135 33.9974L14.8959 34.9623C15.0081 35.1886 15.2393 35.3315 15.4919 35.3307H24.5108C24.7635 35.3315 24.9946 35.1886 25.1068 34.9623L25.5893 33.9974H14.4135Z" fill="white"/>
<path d="M8.66667 36.6693H0.666667C0.298477 36.6693 0 36.3708 0 36.0026C0 35.6344 0.298477 35.3359 0.666667 35.3359H8.66667C9.03486 35.3359 9.33333 35.6344 9.33333 36.0026C9.33333 36.3708 9.03486 36.6693 8.66667 36.6693Z" fill="white"/>
<path d="M12.0013 36.6693H11.3346C10.9664 36.6693 10.668 36.3708 10.668 36.0026C10.668 35.6344 10.9664 35.3359 11.3346 35.3359H12.0013C12.3695 35.3359 12.668 35.6344 12.668 36.0026C12.668 36.3708 12.3695 36.6693 12.0013 36.6693Z" fill="white"/>
<path d="M39.3346 36.6693H31.3346C30.9664 36.6693 30.668 36.3708 30.668 36.0026C30.668 35.6344 30.9664 35.3359 31.3346 35.3359H39.3346C39.7028 35.3359 40.0013 35.6344 40.0013 36.0026C40.0013 36.3708 39.7028 36.6693 39.3346 36.6693Z" fill="white"/>
<path d="M28.6654 36.6693H27.9987C27.6305 36.6693 27.332 36.3708 27.332 36.0026C27.332 35.6344 27.6305 35.3359 27.9987 35.3359H28.6654C29.0336 35.3359 29.332 35.6344 29.332 36.0026C29.332 36.3708 29.0336 36.6693 28.6654 36.6693Z" fill="white"/>
<path d="M20 24C13.3726 24 8 18.6274 8 12C8 5.37258 13.3726 0 20 0C26.6274 0 32 5.37258 32 12C31.9927 18.6244 26.6244 23.9927 20 24ZM20 1.33333C14.109 1.33333 9.33333 6.10896 9.33333 12C9.33333 17.891 14.109 22.6667 20 22.6667C25.891 22.6667 30.6667 17.891 30.6667 12C30.6599 6.11175 25.8883 1.34006 20 1.33333Z" fill="white"/>
<path d="M35.3333 29.9974H22.6667C22.2985 29.9974 22 29.6989 22 29.3307C22 28.9625 22.2985 28.6641 22.6667 28.6641H35.3333C35.7015 28.6641 36 28.9625 36 29.3307C36 29.6989 35.7015 29.9974 35.3333 29.9974Z" fill="white"/>
<path d="M17.3333 29.9974H4.66667C4.29848 29.9974 4 29.6989 4 29.3307C4 28.9625 4.29848 28.6641 4.66667 28.6641H17.3333C17.7015 28.6641 18 28.9625 18 29.3307C18 29.6989 17.7015 29.9974 17.3333 29.9974Z" fill="white"/>
<path d="M22.0013 31.3359H18.0013C17.2652 31.3352 16.6687 30.7387 16.668 30.0026V28.6693C16.6687 27.9332 17.2652 27.3367 18.0013 27.3359H22.0013C22.7374 27.3367 23.3339 27.9332 23.3346 28.6693V30.0026C23.3339 30.7387 22.7374 31.3352 22.0013 31.3359ZM18.0013 28.6693V30.0026H22.0023L22.0013 28.6693H18.0013Z" fill="white"/>
<path d="M19.9987 28.6641C19.6305 28.6641 19.332 28.3656 19.332 27.9974V23.3307C19.332 22.9625 19.6305 22.6641 19.9987 22.6641C20.3669 22.6641 20.6654 22.9625 20.6654 23.3307V27.9974C20.6654 28.3656 20.3669 28.6641 19.9987 28.6641Z" fill="white"/>
<path d="M27.2464 21.3816C27.1018 21.3818 26.961 21.3346 26.8457 21.2472L26.7533 21.1775C25.8985 20.6127 25.1609 19.8881 24.5811 19.0434C24.019 18.1736 23.9377 17.0777 24.3653 16.1345C24.6026 15.704 24.9049 15.3126 25.2614 14.9741C25.4996 14.7454 25.7107 14.4902 25.8906 14.2133C27.0058 12.2649 27.162 9.91156 26.3141 7.83281C25.904 6.94381 24.8747 6.34354 23.0765 5.94615C22.7925 5.88814 22.5053 5.84619 22.2165 5.82048C21.6826 5.78432 21.1557 5.67817 20.6495 5.50475C18.9288 4.85208 18.3265 3.18475 18.8601 0.549678C18.9038 0.312758 19.0719 0.117842 19.2998 0.0398342C19.5278 -0.0381737 19.78 0.0128637 19.9597 0.173333C20.1394 0.333803 20.2186 0.578738 20.1667 0.814012C19.6475 3.37941 20.4639 4.00835 21.1231 4.25835C21.5244 4.3888 21.9405 4.46829 22.3617 4.49495C22.6994 4.52578 23.0351 4.5758 23.3672 4.64475C24.7731 4.95561 26.737 5.56721 27.5257 7.27588C28.5447 9.74969 28.3673 12.555 27.0449 14.8807C26.8138 15.2511 26.5384 15.5919 26.2249 15.8957C25.9632 16.1414 25.7381 16.4235 25.5567 16.7333C25.3388 17.2683 25.4015 17.8765 25.7237 18.3559C26.2195 19.0504 26.8408 19.6461 27.5553 20.1125L27.6487 20.1828C27.8776 20.3555 27.9704 20.6552 27.8792 20.927C27.7881 21.1988 27.5331 21.3819 27.2464 21.3816Z" fill="white"/>
<path d="M21.4626 14.4064C21.2924 14.4069 21.1226 14.3887 20.9564 14.352C19.929 14.0494 19.2094 13.1247 19.1683 12.0544C19.0684 11.1095 19.3474 10.1635 19.9441 9.42391C20.7122 8.59137 21.9139 8.31817 22.9665 8.73678C23.6496 9.07616 24.1667 9.67687 24.4007 10.4028C24.6461 11.1509 24.5789 11.9663 24.2145 12.6642C23.8847 13.2907 23.3625 13.7948 22.7247 14.1023C22.3324 14.2978 21.9009 14.4018 21.4626 14.4064ZM22.0114 9.85431C21.61 9.86277 21.2272 10.0251 20.9421 10.3076C20.5926 10.7689 20.4328 11.3463 20.4954 11.9216C20.5443 12.4112 20.7954 12.9499 21.2464 13.0505C21.5526 13.1019 21.8673 13.0502 22.1409 12.9034C22.5205 12.7224 22.832 12.4243 23.0297 12.0531C23.2293 11.6717 23.2666 11.2258 23.1332 10.8164C23.0086 10.4302 22.7335 10.1105 22.3701 9.92978C22.2579 9.87741 22.1352 9.85141 22.0114 9.85431Z" fill="white"/>
<path d="M17.5986 23.748C17.3819 23.7477 17.1789 23.6422 17.0541 23.465C16.9292 23.2879 16.8981 23.0613 16.9707 22.8571C17.6243 21.0238 17.6136 19.4017 16.9414 18.5179C16.7281 18.2366 16.4681 18.1602 15.9473 18.0267L15.6829 17.9577C14.3188 17.5727 13.3115 16.4173 13.1163 15.0134C12.8173 13.4257 13.4415 11.8054 14.7285 10.8288C14.9258 10.6935 15.1302 10.5689 15.3409 10.4554C15.5595 10.3424 15.7673 10.2095 15.9616 10.0583C16.3117 9.73826 16.5235 9.29445 16.5519 8.82095C16.5944 8.46573 16.4915 8.10842 16.2668 7.83009C15.8716 7.38475 15.2586 7.38215 14.2945 7.43009C13.9868 7.44509 13.6675 7.46042 13.3599 7.44669C12.2217 7.38876 11.1094 7.0863 10.0986 6.55989C9.77156 6.39052 9.64375 5.98811 9.81312 5.66109C9.98249 5.33406 10.3849 5.20625 10.7119 5.37562C11.5516 5.81411 12.4759 6.06627 13.4219 6.11489C13.6791 6.12695 13.9505 6.11229 14.2276 6.09862C15.2029 6.05109 16.4154 5.98955 17.2637 6.94529C17.7295 7.49192 17.9525 8.20466 17.8815 8.91929C17.8268 9.751 17.4453 10.5273 16.8203 11.0788C16.5629 11.2853 16.2858 11.4661 15.9932 11.6188C15.8229 11.71 15.6575 11.8101 15.4977 11.9188C14.6279 12.5952 14.2146 13.7048 14.4301 14.7854C14.5468 15.6755 15.1751 16.4143 16.0349 16.6725L16.278 16.736C16.9533 16.8387 17.5672 17.1862 18.0029 17.7122C19.3659 19.5045 18.6133 22.221 18.2266 23.306C18.1315 23.5711 17.8802 23.748 17.5986 23.748Z" fill="white"/>
</g>
<defs>
<clipPath id="clip0_3637_13569">
<rect width="40" height="40" fill="white"/>
</clipPath>
</defs>
</svg>
