<svg width="40" height="40" viewBox="0 0 40 40" fill="none" xmlns="http://www.w3.org/2000/svg">
<g clip-path="url(#clip0_3637_13598)">
<path d="M33.6667 24.9974H8.66667C3.8802 24.9974 0 21.1172 0 16.3307C0 11.5443 3.8802 7.66407 8.66667 7.66407C8.72333 7.66407 8.7796 7.66441 8.83527 7.66568C10.4251 4.02059 14.0238 1.66406 18.0005 1.66406C21.9772 1.66406 25.5759 4.02059 27.1657 7.66568C30.1837 7.73373 32.8817 9.56388 34.0609 12.3428C37.4767 12.554 40.1069 15.4406 40.0004 18.8613C39.8938 22.282 37.089 24.9993 33.6667 24.9974ZM8.66667 8.99741C4.61658 8.99741 1.33333 12.2807 1.33333 16.3307C1.33333 20.3808 4.61658 23.6641 8.66667 23.6641H33.6667C36.4281 23.6641 38.6667 21.4255 38.6667 18.6641C38.6667 15.9027 36.4281 13.6641 33.6667 13.6641H33.6C33.3174 13.6641 33.0655 13.4859 32.9714 13.2194C32.0739 10.674 29.6602 8.97844 26.9613 8.99741C26.8961 8.99741 26.8314 8.99774 26.7666 9.00227C26.4741 9.02088 26.2033 8.84799 26.097 8.57487C24.815 5.21298 21.5888 2.99312 17.9907 2.99718C14.3927 3.00124 11.1715 5.22836 9.897 8.59314C9.79066 8.87592 9.50715 9.05156 9.2066 9.02087C9.02713 9.00399 8.84693 8.99616 8.66667 8.99741Z" fill="white"/>
<path d="M4.51505 20.3307C4.31381 20.331 4.12326 20.2402 3.99685 20.0836C2.84188 18.6539 2.40817 16.7726 2.8206 14.9816C3.23303 13.1905 4.44584 11.6884 6.10978 10.9078C6.44273 10.7505 6.84017 10.8929 6.99748 11.2258C7.15479 11.5588 7.0124 11.9562 6.67945 12.1135C5.04953 12.8867 4.00804 14.5267 4.00138 16.3307C3.99728 17.392 4.36179 18.4219 5.03265 19.2444C5.19435 19.4441 5.22694 19.7188 5.11643 19.9508C5.00591 20.1827 4.77196 20.3305 4.51505 20.3307Z" fill="white"/>
<path d="M11.3345 20.998C11.1202 20.9977 10.9191 20.8945 10.7939 20.7206C10.6686 20.5468 10.6345 20.3234 10.702 20.12L13.3687 12.12C13.4852 11.7707 13.8628 11.582 14.2121 11.6985C14.5614 11.815 14.7501 12.1926 14.6336 12.5419L11.967 20.5419C11.8763 20.8142 11.6215 20.9979 11.3345 20.998Z" fill="white"/>
<path d="M16.6656 20.998C16.3786 20.9979 16.1238 20.8142 16.0331 20.5419L13.3665 12.5419C13.25 12.1926 13.4387 11.815 13.788 11.6985C14.1373 11.582 14.5149 11.7707 14.6314 12.12L17.2981 20.12C17.3656 20.3234 17.3315 20.5468 17.2062 20.7206C17.081 20.8945 16.8799 20.9977 16.6656 20.998Z" fill="white"/>
<path d="M15.5546 17.6615H12.4479C12.0797 17.6615 11.7812 17.363 11.7812 16.9948C11.7812 16.6266 12.0797 16.3281 12.4479 16.3281H15.5546C15.9228 16.3281 16.2213 16.6266 16.2213 16.9948C16.2213 17.363 15.9228 17.6615 15.5546 17.6615Z" fill="white"/>
<path d="M18.6667 20.9974C18.2985 20.9974 18 20.6989 18 20.3307V12.3307C18 11.9625 18.2985 11.6641 18.6667 11.6641C19.0349 11.6641 19.3333 11.9625 19.3333 12.3307V20.3307C19.3333 20.6989 19.0349 20.9974 18.6667 20.9974Z" fill="white"/>
<path d="M21.3333 16.9974H18.6667C18.2985 16.9974 18 16.6989 18 16.3307V12.3307C18 11.9625 18.2985 11.6641 18.6667 11.6641H21.3333C22.8061 11.6641 24 12.858 24 14.3307C24 15.8035 22.8061 16.9974 21.3333 16.9974ZM19.3333 15.6641H21.3333C22.0697 15.6641 22.6667 15.0671 22.6667 14.3307C22.6667 13.5943 22.0697 12.9974 21.3333 12.9974H19.3333V15.6641Z" fill="white"/>
<path d="M26.6667 20.9974C26.2985 20.9974 26 20.6989 26 20.3307V12.3307C26 11.9625 26.2985 11.6641 26.6667 11.6641C27.0349 11.6641 27.3333 11.9625 27.3333 12.3307V20.3307C27.3333 20.6989 27.0349 20.9974 26.6667 20.9974Z" fill="white"/>
<path d="M28.6667 12.9974H24.6667C24.2985 12.9974 24 12.6989 24 12.3307C24 11.9625 24.2985 11.6641 24.6667 11.6641H28.6667C29.0349 11.6641 29.3333 11.9625 29.3333 12.3307C29.3333 12.6989 29.0349 12.9974 28.6667 12.9974Z" fill="white"/>
<path d="M28.6667 20.9974H24.6667C24.2985 20.9974 24 20.6989 24 20.3307C24 19.9625 24.2985 19.6641 24.6667 19.6641H28.6667C29.0349 19.6641 29.3333 19.9625 29.3333 20.3307C29.3333 20.6989 29.0349 20.9974 28.6667 20.9974Z" fill="white"/>
<path d="M16.0307 38.3325C15.8626 38.3323 15.6963 38.2976 15.5421 38.2306L11.3712 36.5014C11.0638 36.3745 10.8201 36.1295 10.6948 35.8214C10.571 35.5174 10.5764 35.176 10.7097 34.8761L11.7031 32.4747C10.7255 31.7313 9.85333 30.8587 9.11025 29.8809L6.68739 30.8816C6.38559 31.0077 6.04575 31.0071 5.74439 30.88C5.44319 30.7557 5.20349 30.5172 5.07772 30.2166L3.35039 26.0261C3.08871 25.4047 3.37748 24.6885 3.99705 24.4223L6.35939 23.4487C6.5797 23.358 6.83167 23.3917 7.02039 23.5371C7.2091 23.6826 7.30589 23.9176 7.27429 24.1538C7.24269 24.3899 7.0875 24.5913 6.86719 24.682L4.61979 25.6075L6.27079 29.6111L9.08492 28.449C9.37334 28.3302 9.70558 28.4271 9.88492 28.6823C10.7068 29.8562 11.7278 30.8771 12.9018 31.6988C13.158 31.8779 13.2553 32.2111 13.1355 32.4999L11.9741 35.3079L15.9747 36.9664L17.1372 34.1568C17.2568 33.8676 17.5614 33.7005 17.8696 33.7551C19.2782 34.0061 20.7202 34.0041 22.1281 33.7493C22.4363 33.6943 22.7414 33.8607 22.8621 34.1497L24.0307 36.9641L28.0259 35.3075L26.8637 32.4927C26.7442 32.2031 26.8426 31.8693 27.1001 31.6907C28.2744 30.8731 29.295 29.8544 30.1147 28.6815C30.2939 28.4261 30.6265 28.3295 30.9147 28.4491L33.7281 29.6132L35.3881 25.6103L33.7833 24.9423C33.4822 24.8296 33.3045 24.518 33.3609 24.2015C33.4173 23.885 33.6916 23.6539 34.0131 23.6521C34.1032 23.6521 34.1924 23.6694 34.2759 23.7032L35.9892 24.4165C36.2941 24.5411 36.5356 24.7836 36.6588 25.0891C36.7822 25.3912 36.7814 25.7299 36.6565 26.0314L34.9221 30.2141C34.797 30.5199 34.5541 30.7626 34.2481 30.8873C33.9421 31.0121 33.5988 31.0086 33.2955 30.8775L30.8888 29.8813C30.147 30.8585 29.275 31.7295 28.297 32.4702L29.2963 34.8911C29.4248 35.1873 29.4279 35.523 29.3048 35.8215C29.1792 36.1304 28.9346 36.3758 28.6261 36.5025L24.4487 38.2345C24.1462 38.3613 23.8055 38.3617 23.5026 38.2357C23.1997 38.1098 22.9598 37.8679 22.8364 37.564L21.8328 35.1467C20.6174 35.3162 19.3846 35.3179 18.1687 35.1519L17.1694 37.5669C16.98 38.0291 16.5302 38.3313 16.0307 38.3325Z" fill="white"/>
<path d="M19.9992 30.9991C15.8604 30.9826 12.1549 28.431 10.6633 24.5703C10.5757 24.3473 10.6147 24.0944 10.7652 23.908C10.9157 23.7216 11.1547 23.6303 11.3911 23.6689C11.6276 23.7074 11.8252 23.8699 11.9087 24.0945C13.1895 27.4494 16.4081 29.6658 19.9992 29.6658C23.5903 29.6658 26.8088 27.4494 28.0897 24.0945C28.1732 23.8699 28.3708 23.7074 28.6072 23.6689C28.8437 23.6303 29.0827 23.7216 29.2332 23.908C29.3837 24.0944 29.4226 24.3473 29.3351 24.5703C27.8435 28.431 24.1379 30.9826 19.9992 30.9991Z" fill="white"/>
<path d="M12.6665 9.66179C12.4522 9.66149 12.2512 9.55833 12.1259 9.38448C12.0007 9.21062 11.9665 8.9872 12.0341 8.78386C13.5025 4.37893 17.1776 4.32813 17.3332 4.32813C17.7014 4.32722 18.0006 4.62497 18.0015 4.99316C18.0024 5.36135 17.7046 5.66056 17.3365 5.66146C17.2072 5.66339 14.452 5.74639 13.299 9.20573C13.2083 9.47804 12.9535 9.66177 12.6665 9.66179Z" fill="white"/>
</g>
<defs>
<clipPath id="clip0_3637_13598">
<rect width="40" height="40" fill="white"/>
</clipPath>
</defs>
</svg>
