<svg width="40" height="40" viewBox="0 0 40 40" fill="none" xmlns="http://www.w3.org/2000/svg">
<g clip-path="url(#clip0_3637_13540)">
<path d="M37.3333 37.3359H2.66667C1.19455 37.3344 0.00154329 36.1414 0 34.6693V28.0026C0.00154329 26.5305 1.19455 25.3375 2.66667 25.3359H37.3333C38.8055 25.3375 39.9985 26.5305 40 28.0026V34.6693C39.9985 36.1414 38.8055 37.3344 37.3333 37.3359ZM2.66667 26.6693C1.93064 26.6701 1.33418 27.2666 1.33333 28.0026V34.6693C1.33418 35.4053 1.93064 36.0018 2.66667 36.0026H37.3333C38.0694 36.0018 38.6658 35.4053 38.6667 34.6693V28.0026C38.6658 27.2666 38.0694 26.6701 37.3333 26.6693H2.66667Z" fill="white"/>
<path d="M11.332 40H5.33203C4.22796 39.9988 3.33324 39.1041 3.33203 38V36.6667C3.33203 36.2985 3.63051 36 3.9987 36H12.6654C13.0336 36 13.332 36.2985 13.332 36.6667V38C13.3308 39.1041 12.4361 39.9988 11.332 40ZM4.66536 37.3333V38C4.6657 38.3681 4.96398 38.6663 5.33203 38.6667H11.332C11.7001 38.6663 11.9984 38.3681 11.9987 38V37.3333H4.66536Z" fill="white"/>
<path d="M34.668 40H28.668C27.5639 39.9988 26.6692 39.1041 26.668 38V36.6667C26.668 36.2985 26.9664 36 27.3346 36H36.0013C36.3695 36 36.668 36.2985 36.668 36.6667V38C36.6668 39.1041 35.772 39.9988 34.668 40ZM28.0013 37.3333V38C28.0016 38.3681 28.2999 38.6663 28.668 38.6667H34.668C35.036 38.6663 35.3343 38.3681 35.3346 38V37.3333H28.0013Z" fill="white"/>
<path d="M39.3333 33.9974H0.666667C0.298477 33.9974 0 33.6989 0 33.3307V29.3307C0 28.9625 0.298477 28.6641 0.666667 28.6641H39.3333C39.7015 28.6641 40 28.9625 40 29.3307V33.3307C40 33.6989 39.7015 33.9974 39.3333 33.9974ZM1.33333 32.6641H38.6667V29.9974H1.33333V32.6641Z" fill="white"/>
<path d="M30.6667 31.9974C31.0349 31.9974 31.3333 31.6989 31.3333 31.3307C31.3333 30.9625 31.0349 30.6641 30.6667 30.6641C30.2985 30.6641 30 30.9625 30 31.3307C30 31.6989 30.2985 31.9974 30.6667 31.9974Z" fill="white"/>
<path d="M3.9987 31.9974C4.36689 31.9974 4.66536 31.6989 4.66536 31.3307C4.66536 30.9625 4.36689 30.6641 3.9987 30.6641C3.63051 30.6641 3.33203 30.9625 3.33203 31.3307C3.33203 31.6989 3.63051 31.9974 3.9987 31.9974Z" fill="white"/>
<path d="M33.3346 31.9974C33.7028 31.9974 34.0013 31.6989 34.0013 31.3307C34.0013 30.9625 33.7028 30.6641 33.3346 30.6641C32.9664 30.6641 32.668 30.9625 32.668 31.3307C32.668 31.6989 32.9664 31.9974 33.3346 31.9974Z" fill="white"/>
<path d="M35.9987 31.9974C36.3669 31.9974 36.6654 31.6989 36.6654 31.3307C36.6654 30.9625 36.3669 30.6641 35.9987 30.6641C35.6305 30.6641 35.332 30.9625 35.332 31.3307C35.332 31.6989 35.6305 31.9974 35.9987 31.9974Z" fill="white"/>
<path d="M7.33464 26.6641H3.33464C2.96645 26.6641 2.66797 26.3656 2.66797 25.9974V19.9974C2.66881 19.2614 3.26527 18.6649 4.0013 18.6641H6.66797C7.404 18.6649 8.00046 19.2614 8.0013 19.9974V25.9974C8.0013 26.3656 7.70283 26.6641 7.33464 26.6641ZM4.0013 25.3307H6.66797V19.9974H4.0013V25.3307Z" fill="white"/>
<path d="M6.66536 20H3.9987C3.63051 20 3.33203 19.7015 3.33203 19.3333V2C3.33203 0.895431 4.22746 0 5.33203 0C6.4366 0 7.33203 0.895431 7.33203 2V19.3333C7.33203 19.7015 7.03355 20 6.66536 20ZM4.66536 18.6667H5.9987V2C5.9987 1.63181 5.70022 1.33333 5.33203 1.33333C4.96384 1.33333 4.66536 1.63181 4.66536 2V18.6667Z" fill="white"/>
<path d="M36.6667 26.6641H32.6667C32.2985 26.6641 32 26.3656 32 25.9974V19.9974C32.0008 19.2614 32.5973 18.6649 33.3333 18.6641H36C36.736 18.6649 37.3325 19.2614 37.3333 19.9974V25.9974C37.3333 26.3656 37.0349 26.6641 36.6667 26.6641ZM33.3333 25.3307H36V19.9974H33.3333V25.3307Z" fill="white"/>
<path d="M36.0013 20H33.3346C32.9664 20 32.668 19.7015 32.668 19.3333V2C32.668 0.895431 33.5634 0 34.668 0C35.7725 0 36.668 0.895431 36.668 2V19.3333C36.668 19.7015 36.3695 20 36.0013 20ZM34.0013 18.6667H35.3346V2C35.3346 1.63181 35.0362 1.33333 34.668 1.33333C34.2998 1.33333 34.0013 1.63181 34.0013 2V18.6667Z" fill="white"/>
<path d="M30.6665 13.8066C30.3972 13.8067 30.1544 13.6446 30.0512 13.3958C28.3649 9.33303 24.3986 6.68491 19.9998 6.68491C15.601 6.68491 11.6347 9.33303 9.94841 13.3958C9.86089 13.6215 9.65789 13.7821 9.41807 13.8152C9.17825 13.8483 8.93932 13.7489 8.79388 13.5553C8.64844 13.3618 8.61934 13.1046 8.71788 12.8835C10.6109 8.3236 15.0626 5.35156 19.9998 5.35156C24.937 5.35156 29.3888 8.3236 31.2817 12.8835C31.3672 13.0892 31.3443 13.3241 31.2208 13.5094C31.0972 13.6948 30.8893 13.8063 30.6665 13.8066Z" fill="white"/>
<path d="M26.7864 15.1971C26.5173 15.197 26.2746 15.0351 26.1712 14.7866C25.1364 12.292 22.7014 10.6658 20.0006 10.6658C17.2999 10.6658 14.8648 12.292 13.83 14.7866C13.6856 15.1222 13.2981 15.279 12.9609 15.1384C12.6238 14.9977 12.4626 14.612 12.5995 14.2733C13.8412 11.2818 16.7617 9.33203 20.0006 9.33203C23.2395 9.33203 26.16 11.2818 27.4017 14.2733C27.4871 14.4791 27.4642 14.7139 27.3407 14.8994C27.2171 15.0848 27.0092 15.1966 26.7864 15.1971Z" fill="white"/>
<path d="M22.9054 16.6647C22.6374 16.6646 22.3955 16.5041 22.2914 16.2571C21.9084 15.3293 21.0036 14.7239 19.9998 14.7239C18.9959 14.7239 18.0911 15.3293 17.7081 16.2571C17.6189 16.4817 17.4151 16.6403 17.1756 16.6719C16.936 16.7034 16.6982 16.6029 16.5539 16.4091C16.4096 16.2154 16.3814 15.9587 16.4802 15.7382C17.0717 14.3167 18.4602 13.3906 19.9998 13.3906C21.5394 13.3906 22.9278 14.3167 23.5193 15.7382C23.6061 15.9441 23.5841 16.1798 23.4607 16.3661C23.3373 16.5524 23.1288 16.6643 22.9054 16.6647Z" fill="white"/>
<path d="M19.9987 17.9974C20.3669 17.9974 20.6654 17.6989 20.6654 17.3307C20.6654 16.9625 20.3669 16.6641 19.9987 16.6641C19.6305 16.6641 19.332 16.9625 19.332 17.3307C19.332 17.6989 19.6305 17.9974 19.9987 17.9974Z" fill="white"/>
</g>
<defs>
<clipPath id="clip0_3637_13540">
<rect width="40" height="40" fill="white"/>
</clipPath>
</defs>
</svg>
