<svg width="40" height="40" viewBox="0 0 40 40" fill="none" xmlns="http://www.w3.org/2000/svg">
<path d="M20.0026 39.9987C19.7864 39.9989 19.5734 39.9462 19.3821 39.8454C18.1555 39.1979 15.847 37.8685 14.8213 37.1888C9.38121 33.57 5.86881 29.36 4.38054 24.6745C3.68666 22.4946 3.33429 20.2204 3.33594 17.9327V6.66605C3.33523 6.2585 3.52084 5.87298 3.83988 5.61938C4.15098 5.36871 4.55962 5.27402 4.94928 5.36232C11.4559 6.86072 16.5798 2.89358 19.0559 0.396516C19.582 -0.115795 20.4202 -0.116652 20.9473 0.394582C23.4251 2.89325 28.5495 6.85712 35.0531 5.36298C35.4435 5.27405 35.8532 5.36841 36.1653 5.61918C36.4844 5.87283 36.6701 6.25843 36.6693 6.66605V17.9327C36.6709 20.2207 36.3185 22.4951 35.6243 24.6753C34.1364 29.3601 30.624 33.5701 25.1849 37.1879C24.1582 37.8679 21.8499 39.1977 20.6231 39.8452C20.4318 39.9461 20.2188 39.9988 20.0026 39.9987ZM4.65334 6.66245L4.66928 17.9327C4.66768 20.0832 4.99886 22.221 5.65108 24.2702C7.04561 28.6599 10.3789 32.6323 15.5586 36.0779C16.5253 36.7179 18.8115 38.0363 20.0045 38.6661C21.1937 38.0363 23.4801 36.7178 24.4476 36.0772C29.6263 32.6322 32.9596 28.6599 34.3539 24.2709C35.0063 22.2215 35.3375 20.0835 35.3359 17.9327V6.66605C35.3357 6.66381 35.3345 6.66178 35.3327 6.66052C28.2201 8.30212 22.6735 4.02865 20.0026 1.33532C17.332 4.02898 11.7884 8.30212 4.65334 6.66245Z" fill="white"/>
<path d="M7.33854 17.9974C6.97035 17.9974 6.67188 17.6989 6.67188 17.3307V9.33073C6.67188 8.96254 6.97035 8.66406 7.33854 8.66406C7.70673 8.66406 8.00521 8.96254 8.00521 9.33073V17.3307C8.00521 17.6989 7.70673 17.9974 7.33854 17.9974Z" fill="white"/>
<path d="M12.0026 17.9974C11.6344 17.9974 11.3359 17.6989 11.3359 17.3307V9.33073C11.3359 8.96254 11.6344 8.66406 12.0026 8.66406C12.3708 8.66406 12.6693 8.96254 12.6693 9.33073V17.3307C12.6693 17.6989 12.3708 17.9974 12.0026 17.9974Z" fill="white"/>
<path d="M12.0052 13.9974H7.33854C6.97035 13.9974 6.67188 13.6989 6.67188 13.3307C6.67188 12.9625 6.97035 12.6641 7.33854 12.6641H12.0052C12.3734 12.6641 12.6719 12.9625 12.6719 13.3307C12.6719 13.6989 12.3734 13.9974 12.0052 13.9974Z" fill="white"/>
<path d="M16.6667 17.9974C16.2985 17.9974 16 17.6989 16 17.3307V9.33073C16 8.96254 16.2985 8.66406 16.6667 8.66406C17.0349 8.66406 17.3333 8.96254 17.3333 9.33073V17.3307C17.3333 17.6989 17.0349 17.9974 16.6667 17.9974Z" fill="white"/>
<path d="M18.6667 9.9974H14.6667C14.2985 9.9974 14 9.69892 14 9.33073C14 8.96254 14.2985 8.66406 14.6667 8.66406H18.6667C19.0349 8.66406 19.3333 8.96254 19.3333 9.33073C19.3333 9.69892 19.0349 9.9974 18.6667 9.9974Z" fill="white"/>
<path d="M23.3385 17.9974C22.9704 17.9974 22.6719 17.6989 22.6719 17.3307V9.33073C22.6719 8.96254 22.9704 8.66406 23.3385 8.66406C23.7067 8.66406 24.0052 8.96254 24.0052 9.33073V17.3307C24.0052 17.6989 23.7067 17.9974 23.3385 17.9974Z" fill="white"/>
<path d="M25.3385 9.9974H21.3385C20.9704 9.9974 20.6719 9.69892 20.6719 9.33073C20.6719 8.96254 20.9704 8.66406 21.3385 8.66406H25.3385C25.7067 8.66406 26.0052 8.96254 26.0052 9.33073C26.0052 9.69892 25.7067 9.9974 25.3385 9.9974Z" fill="white"/>
<path d="M28.0026 17.9974C27.6344 17.9974 27.3359 17.6989 27.3359 17.3307V9.33073C27.3359 8.96254 27.6344 8.66406 28.0026 8.66406C28.3708 8.66406 28.6693 8.96254 28.6693 9.33073V17.3307C28.6693 17.6989 28.3708 17.9974 28.0026 17.9974Z" fill="white"/>
<path d="M30.6693 13.9974H28.0026C27.6344 13.9974 27.3359 13.6989 27.3359 13.3307V9.33073C27.3359 8.96254 27.6344 8.66406 28.0026 8.66406H30.6693C32.142 8.66406 33.3359 9.85797 33.3359 11.3307C33.3359 12.8035 32.142 13.9974 30.6693 13.9974ZM28.6693 12.6641H30.6693C31.4057 12.6641 32.0026 12.0671 32.0026 11.3307C32.0026 10.5943 31.4057 9.9974 30.6693 9.9974H28.6693V12.6641Z" fill="white"/>
<path d="M24.0052 33.3333H16.0052C15.2691 33.3326 14.6726 32.7361 14.6719 32V25.3333C14.6726 24.5973 15.2691 24.0007 16.0052 24H24.0052C24.7413 24.0007 25.3378 24.5973 25.3385 25.3333V32C25.3378 32.7361 24.7413 33.3326 24.0052 33.3333ZM16.0052 25.3333V32H24.0062L24.0052 25.3333H16.0052Z" fill="white"/>
<path d="M23.3333 25.3307H16.6667C16.2985 25.3307 16 25.0323 16 24.6641V22.6641C16 20.4549 17.7909 18.6641 20 18.6641C22.2091 18.6641 24 20.4549 24 22.6641V24.6641C24 25.0323 23.7015 25.3307 23.3333 25.3307ZM17.3333 23.9974H22.6667V22.6641C22.6667 21.1913 21.4728 19.9974 20 19.9974C18.5272 19.9974 17.3333 21.1913 17.3333 22.6641V23.9974Z" fill="white"/>
<path d="M20.0026 30.6654C19.6344 30.6654 19.3359 30.3669 19.3359 29.9987V27.9987C19.3359 27.6305 19.6344 27.332 20.0026 27.332C20.3708 27.332 20.6693 27.6305 20.6693 27.9987V29.9987C20.6693 30.3669 20.3708 30.6654 20.0026 30.6654Z" fill="white"/>
<path d="M20.6719 28.6654H19.3385C18.9704 28.6654 18.6719 28.3669 18.6719 27.9987C18.6719 27.6305 18.9704 27.332 19.3385 27.332H20.6719C21.0401 27.332 21.3385 27.6305 21.3385 27.9987C21.3385 28.3669 21.0401 28.6654 20.6719 28.6654Z" fill="white"/>
</svg>
