<svg width="50" height="50" viewBox="0 0 50 50" fill="none" xmlns="http://www.w3.org/2000/svg">
<g clip-path="url(#clip0_3633_7779)">
<path d="M20.8903 45.8038C15.3508 45.816 10.0325 43.6309 6.10185 39.7275C-2.03384 31.592 -2.03397 18.4016 6.10156 10.2659C14.2371 2.13023 27.4275 2.1301 35.5632 10.2656C37.6231 12.318 39.2266 14.7822 40.2685 17.497C40.4339 17.9267 40.2197 18.4091 39.7901 18.5745C39.3604 18.7399 38.878 18.5257 38.7126 18.096C37.7544 15.5987 36.2796 13.332 34.3848 11.444C27.4072 4.46998 16.2755 3.93178 8.6577 10.2002C1.03994 16.4686 -0.575101 27.4958 4.92513 35.6854C10.4254 43.8751 21.2439 46.5518 29.9283 41.8715C30.3335 41.6531 30.8391 41.8045 31.0575 42.2096C31.276 42.6148 31.1246 43.1203 30.7194 43.3388C27.6979 44.9623 24.3203 45.8093 20.8903 45.8038Z" fill="url(#paint0_linear_3633_7779)"/>
<path d="M20.8347 32.4928C17.2587 32.49 14.1826 29.9617 13.4875 26.454C12.7923 22.9462 14.6717 19.4359 17.9763 18.0695C21.281 16.7032 25.0906 17.8614 27.0756 20.8358C29.0606 23.8102 28.6681 27.7726 26.1383 30.2999C24.7324 31.7072 22.8238 32.4963 20.8347 32.4928ZM20.8347 19.1664C18.0532 19.1683 15.6605 21.1348 15.1196 23.8631C14.5788 26.5915 16.0405 29.322 18.6108 30.3849C21.1812 31.4477 24.1444 30.547 25.6885 28.2335C27.2325 25.92 26.9274 22.8379 24.9597 20.8721C23.8663 19.7775 22.3818 19.1636 20.8347 19.1664Z" fill="url(#paint1_linear_3633_7779)"/>
<path d="M20.8333 29.1641C18.8449 29.1646 17.133 27.7603 16.7447 25.8102C16.3564 23.8601 17.3998 21.9072 19.2368 21.146C21.0737 20.3848 23.1926 21.0273 24.2974 22.6806C25.4022 24.3338 25.1853 26.5373 23.7793 27.9433C22.9999 28.7275 21.939 29.1672 20.8333 29.1641ZM20.8333 22.4974C19.8223 22.4975 18.9109 23.1066 18.524 24.0407C18.1371 24.9748 18.3509 26.05 19.0657 26.765C20.0548 27.7097 21.6119 27.7097 22.6009 26.765C23.3157 26.05 23.5296 24.9748 23.1427 24.0407C22.7558 23.1066 21.8444 22.4975 20.8333 22.4974Z" fill="url(#paint2_linear_3633_7779)"/>
<path d="M30.2883 21.8776C29.7989 21.8768 29.3551 21.5897 29.1539 21.1435C28.2372 19.1744 26.6546 17.5923 24.6852 16.6762C24.073 16.399 23.7911 15.6862 24.0481 15.0653L26.2814 9.67584C26.4119 9.36291 26.6626 9.11546 26.9772 8.98901C27.2885 8.8627 27.638 8.86872 27.9448 9.00568C32.0413 10.831 35.283 14.156 37.0041 18.2973C37.0885 18.5021 37.0879 18.732 37.0024 18.9363C36.9168 19.1406 36.7534 19.3024 36.5483 19.3858L36.14 19.5525C35.7897 19.6954 35.3871 19.5844 35.1595 19.2821C34.9319 18.9799 34.9366 18.5622 35.1707 18.2651C33.6097 14.9571 30.9564 12.2882 27.6577 10.7077L25.7397 15.3353C27.7857 16.3801 29.4498 18.044 30.4947 20.09L33.1802 18.9775C33.6054 18.8013 34.0929 19.0032 34.2691 19.4284C34.4453 19.8536 34.2434 20.3411 33.8182 20.5173L30.7648 21.7823C30.6138 21.8451 30.4519 21.8774 30.2883 21.8776Z" fill="url(#paint3_linear_3633_7779)"/>
<path d="M14.2241 41.0967C14.0508 41.0964 13.8795 41.06 13.7211 40.9897C9.7657 39.2285 6.60252 36.065 4.84173 32.1094C4.70478 31.8029 4.69861 31.4539 4.82464 31.1428C4.9506 30.8279 5.19782 30.5768 5.51073 30.4461L10.9006 28.2128C11.522 27.9543 12.2363 28.2375 12.5118 28.8516C13.4285 30.8207 15.0111 32.4028 16.9805 33.3189C17.5927 33.5963 17.8746 34.3092 17.6176 34.9303L15.3843 40.3193C15.1893 40.7884 14.7321 41.0949 14.2241 41.0967ZM6.54339 31.8226C8.1068 35.09 10.741 37.7242 14.0084 39.2876L15.9257 34.6603C13.8795 33.6156 12.2154 31.9515 11.1707 29.9053L6.54339 31.8226Z" fill="url(#paint4_linear_3633_7779)"/>
<path d="M38.0911 45.8267C33.7536 45.8267 29.4355 43.8971 27.1968 40.6053C25.3819 37.8985 25.3767 34.3648 27.1838 31.6527C27.8326 30.6681 28.5368 29.7212 29.2931 28.8166C30.0933 27.8718 30.8254 26.8714 31.4839 25.823C32.3048 24.5593 32.7713 23.0984 32.8348 21.5928C32.8468 20.8063 32.7465 20.022 32.5369 19.2637C32.5239 19.2231 32.5036 19.1457 32.4824 19.0567C32.3194 18.3966 32.5724 17.7035 33.1224 17.3038C33.6724 16.904 34.4098 16.8773 34.9873 17.2362C36.4578 18.1637 37.8775 19.1694 39.2404 20.2488C39.2591 20.2639 39.3129 20.3091 39.3299 20.3253C40.0216 20.9768 42.166 23.3128 40.7256 26.0147C40.1201 27.1413 39.7173 28.7628 40.16 29.5518C40.2381 29.6914 40.4767 30.1154 41.4946 30.1715C42.2449 30.177 42.9471 29.8031 43.3613 29.1775C43.8939 28.5152 44.1033 27.6499 43.9325 26.8174C43.7935 26.436 43.95 26.0099 44.3028 25.8091C44.6561 25.6048 45.1025 25.6628 45.3917 25.9507C49.9584 31.1152 51.1485 35.8055 48.9293 39.8912C47.5925 42.2194 45.4838 44.0072 42.9682 44.9449C41.4104 45.5357 39.7572 45.8346 38.0911 45.8267ZM34.1003 18.6469L34.1385 18.8047C34.3932 19.7211 34.5154 20.6691 34.5014 21.6201C34.431 23.4147 33.8845 25.1583 32.9181 26.6722C32.2192 27.7889 31.4419 28.8547 30.5923 29.8615C29.8757 30.7163 29.2084 31.6113 28.5936 32.5422C27.1473 34.6946 27.1396 37.5062 28.574 39.6666C31.2612 43.6172 37.449 45.2879 42.3689 43.3897C44.5162 42.5961 46.3186 41.0771 47.4645 39.0952C49.0945 36.0952 48.4207 32.5942 45.4658 28.6688C45.2955 29.2088 45.0364 29.7167 44.6991 30.1715C43.9557 31.2523 42.7127 31.8796 41.4016 31.8357C40.3041 31.8686 39.274 31.3075 38.7063 30.3677C37.6084 28.4112 39.0839 25.5483 39.2556 25.2281C40.1389 23.5712 38.6607 21.9851 38.1871 21.5387C36.8769 20.5033 35.5127 19.538 34.1003 18.6469Z" fill="url(#paint5_linear_3633_7779)"/>
<path d="M37.5601 45.7657C36.0061 45.8123 34.4749 45.3834 33.1713 44.5361C32.7624 44.2541 32.406 43.9028 32.1182 43.4981C31.5021 42.5798 31.2401 41.4691 31.3809 40.3723C31.4704 39.3774 31.8033 37.0576 32.9597 37.0251C33.0021 37.0237 33.0445 37.0257 33.0866 37.0312C33.512 37.082 33.8362 37.4363 33.8492 37.8645C33.9447 38.0576 34.1007 38.2141 34.2935 38.3101C34.576 38.4845 34.9197 38.5293 35.2375 38.4334C35.3585 38.3994 35.4699 38.3379 35.563 38.2535C35.3804 37.9064 35.114 37.6103 34.788 37.3921C34.2888 37.0207 33.9591 36.4648 33.8724 35.8487C33.7857 35.2325 33.9493 34.6073 34.3266 34.1125C34.3404 34.0905 34.3673 34.051 34.3828 34.0303C35.1549 32.9905 36.0132 32.0176 36.9487 31.1219L36.9552 31.1159C37.2577 30.8285 37.726 30.8092 38.0512 31.0705C38.3764 31.3319 38.4582 31.7934 38.2426 32.1506C38.2465 32.3056 38.2596 32.4602 38.2817 32.6136C38.2923 32.6934 38.3004 32.7609 38.3045 32.8105C38.3336 33.1029 38.4117 33.3884 38.5356 33.6549C38.9409 34.522 40.2405 35.2975 41.4979 36.0474C43.1678 37.0435 44.8939 38.0734 45.295 39.7067C45.4888 40.632 45.2937 41.5962 44.7555 42.3734C43.9143 43.6256 42.6964 44.5777 41.2781 45.0919C40.0896 45.5392 38.83 45.7675 37.5601 45.7657ZM34.1299 43.1729C35.8812 44.4046 38.7483 44.2896 40.6737 43.5396C41.751 43.1537 42.6812 42.4415 43.3349 41.5022C43.6338 41.1023 43.7574 40.5982 43.6774 40.1054C43.4414 39.1479 42.0198 38.2995 40.6441 37.4792C39.1711 36.6003 37.6477 35.6913 37.0251 34.3603C36.9267 34.149 36.8459 33.9301 36.7834 33.7056C36.4139 34.1288 36.0591 34.5688 35.7189 35.0256C35.4561 35.463 35.4606 35.8211 35.7662 36.0433C36.0347 36.2374 37.3726 37.2749 37.2001 38.5209C37.0693 39.2443 36.525 39.823 35.8109 39.9979C34.9403 40.2972 33.9783 40.1522 33.2344 39.6097L33.2051 39.5889C33.1213 39.9889 33.0551 40.3698 33.0407 40.5232C32.9403 41.2272 33.0971 41.9438 33.4824 42.5414C33.6598 42.7878 33.8794 43.0015 34.1299 43.1729Z" fill="url(#paint6_linear_3633_7779)"/>
<path d="M5.16516 20.4963C4.89107 20.4956 4.63473 20.3605 4.47929 20.1348C4.32385 19.909 4.28911 19.6214 4.38633 19.3651C5.94338 15.5695 8.62484 12.3414 12.0704 10.1145C12.4651 9.87827 12.9766 10.0065 13.2131 10.4011C13.4496 10.7956 13.3217 11.3072 12.9273 11.544C9.81344 13.5917 7.38181 16.5224 5.94399 19.9607C5.82026 20.2832 5.5106 20.4961 5.16516 20.4963Z" fill="url(#paint7_linear_3633_7779)"/>
<path d="M14.9974 9.9987C15.4576 9.9987 15.8307 9.6256 15.8307 9.16536C15.8307 8.70513 15.4576 8.33203 14.9974 8.33203C14.5372 8.33203 14.1641 8.70513 14.1641 9.16536C14.1641 9.6256 14.5372 9.9987 14.9974 9.9987Z" fill="url(#paint8_linear_3633_7779)"/>
</g>
<defs>
<linearGradient id="paint0_linear_3633_7779" x1="-0.255408" y1="19.1328" x2="40.7675" y2="19.8327" gradientUnits="userSpaceOnUse">
<stop stop-color="#351EE0"/>
<stop offset="1" stop-color="#3F74EF"/>
</linearGradient>
<linearGradient id="paint1_linear_3633_7779" x1="13.2488" y1="22.8896" x2="28.5011" y2="23.1584" gradientUnits="userSpaceOnUse">
<stop stop-color="#351EE0"/>
<stop offset="1" stop-color="#3F74EF"/>
</linearGradient>
<linearGradient id="paint2_linear_3633_7779" x1="16.6113" y1="23.8247" x2="25.0915" y2="23.9742" gradientUnits="userSpaceOnUse">
<stop stop-color="#351EE0"/>
<stop offset="1" stop-color="#3F74EF"/>
</linearGradient>
<linearGradient id="paint3_linear_3633_7779" x1="23.8701" y1="13.5642" x2="37.2107" y2="13.8017" gradientUnits="userSpaceOnUse">
<stop stop-color="#351EE0"/>
<stop offset="1" stop-color="#3F74EF"/>
</linearGradient>
<linearGradient id="paint4_linear_3633_7779" x1="4.65217" y1="32.7831" x2="17.8549" y2="33.0157" gradientUnits="userSpaceOnUse">
<stop stop-color="#351EE0"/>
<stop offset="1" stop-color="#3F74EF"/>
</linearGradient>
<linearGradient id="paint5_linear_3633_7779" x1="25.6789" y1="27.3527" x2="50.2814" y2="27.7161" gradientUnits="userSpaceOnUse">
<stop stop-color="#351EE0"/>
<stop offset="1" stop-color="#3F74EF"/>
</linearGradient>
<linearGradient id="paint6_linear_3633_7779" x1="31.2549" y1="36.2367" x2="45.5225" y2="36.4736" gradientUnits="userSpaceOnUse">
<stop stop-color="#351EE0"/>
<stop offset="1" stop-color="#3F74EF"/>
</linearGradient>
<linearGradient id="paint7_linear_3633_7779" x1="4.27503" y1="13.7707" x2="13.4313" y2="13.909" gradientUnits="userSpaceOnUse">
<stop stop-color="#351EE0"/>
<stop offset="1" stop-color="#3F74EF"/>
</linearGradient>
<linearGradient id="paint8_linear_3633_7779" x1="14.1535" y1="8.93117" x2="15.849" y2="8.96104" gradientUnits="userSpaceOnUse">
<stop stop-color="#351EE0"/>
<stop offset="1" stop-color="#3F74EF"/>
</linearGradient>
<clipPath id="clip0_3633_7779">
<rect width="50" height="50" fill="white"/>
</clipPath>
</defs>
</svg>
