<svg width="40" height="40" viewBox="0 0 40 40" fill="none" xmlns="http://www.w3.org/2000/svg">
<g clip-path="url(#clip0_3637_13374)">
<path d="M18.7433 36.0731H9.09834C5.97891 36.066 3.29411 33.8674 2.67211 30.8106C2.23565 28.6391 1.65933 26.3901 1.10162 24.2154C0.850999 23.2373 0.601622 22.2639 0.365294 21.3011C0.27011 20.9098 0.359991 20.4965 0.609077 20.18C0.858163 19.8636 1.23883 19.6791 1.64156 19.6797H26.2C26.6027 19.679 26.9834 19.8634 27.2325 20.1798C27.4817 20.4962 27.5716 20.9095 27.4766 21.3008C27.2405 22.2617 26.9913 23.2335 26.7414 24.2093C26.1834 26.3864 25.6061 28.6372 25.1694 30.8106C24.5473 33.8673 21.8626 36.0659 18.7433 36.0731ZM26.2026 20.9876L1.64129 20.9912C1.87408 21.9469 2.12221 22.9158 2.37198 23.8895C2.93356 26.0805 3.51434 28.3465 3.95782 30.5518C4.45518 32.9971 6.60277 34.7559 9.09808 34.7617H18.7433C21.2386 34.7559 23.3861 32.9971 23.8835 30.5518C24.3273 28.3448 24.9087 26.0769 25.4709 23.8837C25.7201 22.9119 25.9679 21.9449 26.2029 20.9885L26.2026 20.9876Z" fill="url(#paint0_linear_3637_13374)"/>
<path d="M19.8479 39.3519H7.98862C6.54942 39.3506 5.12966 39.0195 3.83839 38.384L1.53675 37.2477C0.988559 36.978 0.699467 36.3653 0.839912 35.7707C0.980356 35.1762 1.51306 34.7576 2.12397 34.7617H25.7124C26.3233 34.7576 26.856 35.1762 26.9965 35.7707C27.1369 36.3653 26.8478 36.978 26.2996 37.2477L23.9985 38.384C22.7071 39.0195 21.2872 39.3506 19.8479 39.3519ZM25.7189 36.0721L2.1241 36.0734L4.41918 37.2084C5.52983 37.7548 6.75087 38.0394 7.98862 38.0406H19.8479C21.0858 38.0394 22.3069 37.7548 23.4177 37.2084L25.7189 36.0721Z" fill="url(#paint1_linear_3637_13374)"/>
<path d="M6.05382 14.4326C5.83467 14.4323 5.63015 14.3226 5.50862 14.1402C5.38708 13.9579 5.36458 13.7269 5.44864 13.5245C6.87062 10.0995 10.2145 7.86719 13.923 7.86719C17.6314 7.86719 20.9753 10.0995 22.3973 13.5245C22.4873 13.7408 22.4551 13.9887 22.3128 14.1749C22.1705 14.361 21.9397 14.4571 21.7073 14.4269C21.475 14.3967 21.2764 14.2448 21.1863 14.0285C19.968 11.0925 17.1018 9.17869 13.923 9.17869C10.7442 9.17869 7.87797 11.0925 6.65959 14.0285C6.5578 14.2732 6.31882 14.4326 6.05382 14.4326Z" fill="url(#paint2_linear_3637_13374)"/>
<path d="M18.927 15.7437C18.6622 15.7438 18.4234 15.5847 18.3215 15.3403C17.5837 13.561 15.847 12.401 13.9208 12.401C11.9945 12.401 10.2578 13.561 9.51997 15.3403C9.37796 15.6704 8.99677 15.8247 8.66515 15.6863C8.33353 15.548 8.17501 15.1685 8.30968 14.8354C9.25136 12.5678 11.4654 11.0898 13.9208 11.0898C16.3761 11.0898 18.5902 12.5678 19.5318 14.8354C19.6161 15.0378 19.5938 15.2689 19.4723 15.4514C19.3508 15.6339 19.1462 15.7434 18.927 15.7437Z" fill="url(#paint3_linear_3637_13374)"/>
<path d="M16.0635 17.0594C15.7997 17.0593 15.5615 16.9013 15.459 16.6582C15.2021 16.0347 14.5944 15.6278 13.92 15.6278C13.2457 15.6278 12.6379 16.0347 12.3811 16.6582C12.29 16.8741 12.0907 17.0249 11.8582 17.054C11.6257 17.0831 11.3954 16.9859 11.254 16.7991C11.1126 16.6123 11.0816 16.3643 11.1727 16.1484C11.6346 15.0391 12.7183 14.3164 13.92 14.3164C15.1217 14.3164 16.2054 15.0391 16.6673 16.1484C16.7525 16.3509 16.7308 16.5826 16.6094 16.7657C16.4881 16.9488 16.2831 17.059 16.0635 17.0594Z" fill="url(#paint4_linear_3637_13374)"/>
<path d="M18.927 15.7437C18.6622 15.7438 18.4234 15.5847 18.3215 15.3403C17.5837 13.561 15.847 12.401 13.9208 12.401C11.9945 12.401 10.2578 13.561 9.51997 15.3403C9.37796 15.6704 8.99677 15.8247 8.66515 15.6863C8.33353 15.548 8.17501 15.1685 8.30968 14.8354C9.25136 12.5678 11.4654 11.0898 13.9208 11.0898C16.3761 11.0898 18.5902 12.5678 19.5318 14.8354C19.6161 15.0378 19.5938 15.2689 19.4723 15.4514C19.3508 15.6339 19.1462 15.7434 18.927 15.7437Z" fill="url(#paint5_linear_3637_13374)"/>
<path d="M16.0635 17.0594C15.7997 17.0593 15.5615 16.9013 15.459 16.6582C15.2021 16.0347 14.5944 15.6278 13.92 15.6278C13.2457 15.6278 12.6379 16.0347 12.3811 16.6582C12.29 16.8741 12.0907 17.0249 11.8582 17.054C11.6257 17.0831 11.3954 16.9859 11.254 16.7991C11.1126 16.6123 11.0816 16.3643 11.1727 16.1484C11.6346 15.0391 12.7183 14.3164 13.92 14.3164C15.1217 14.3164 16.2054 15.0391 16.6673 16.1484C16.7525 16.3509 16.7308 16.5826 16.6094 16.7657C16.4881 16.9488 16.2831 17.059 16.0635 17.0594Z" fill="url(#paint6_linear_3637_13374)"/>
<path d="M13.9214 18.3701C14.2835 18.3701 14.5771 18.0765 14.5771 17.7143C14.5771 17.3522 14.2835 17.0586 13.9214 17.0586C13.5592 17.0586 13.2656 17.3522 13.2656 17.7143C13.2656 18.0765 13.5592 18.3701 13.9214 18.3701Z" fill="url(#paint7_linear_3637_13374)"/>
<path d="M25.6506 33.4516H23.644C23.2819 33.4516 22.9883 33.158 22.9883 32.7959C22.9883 32.4337 23.2819 32.1401 23.644 32.1401H25.6506C28.4089 32.1171 30.8008 30.2271 31.4611 27.5489L31.6971 26.6882C31.939 25.7994 31.7519 24.8486 31.1912 24.1177C30.7195 23.3927 29.912 22.9566 29.047 22.9599H26.5489C26.1868 22.9599 25.8932 22.6664 25.8932 22.3042C25.8932 21.942 26.1868 21.6485 26.5489 21.6485H29.0473C30.3212 21.6438 31.5147 22.2704 32.2342 23.3216C33.0436 24.3767 33.3132 25.7495 32.9629 27.0323L32.726 27.8942C31.9146 31.1458 29.0019 33.4336 25.6506 33.4516Z" fill="url(#paint8_linear_3637_13374)"/>
<path d="M25.6504 30.1717H24.7651C24.403 30.1717 24.1094 29.8781 24.1094 29.516C24.1094 29.1538 24.403 28.8602 24.7651 28.8602H25.6504C26.9806 28.8589 28.1464 27.9699 28.4997 26.6874L28.6191 26.2373H25.7094C25.3472 26.2373 25.0536 25.9437 25.0536 25.5815C25.0536 25.2194 25.3472 24.9258 25.7094 24.9258H29.0471C29.3539 24.9236 29.6435 25.0668 29.828 25.312C30.0236 25.5575 30.0842 25.8842 29.9897 26.1835L29.7662 27.0285C29.2572 28.8826 27.5731 30.1688 25.6504 30.1717Z" fill="url(#paint9_linear_3637_13374)"/>
<path d="M6.05046 31.4822C5.74982 31.482 5.48788 31.2773 5.41491 30.9856L3.4477 23.1168C3.38709 22.8882 3.45424 22.6447 3.62343 22.4795C3.79262 22.3143 4.03765 22.253 4.26471 22.3191C4.49176 22.3851 4.66566 22.5683 4.71983 22.7985L6.68705 30.6673C6.73608 30.8633 6.69203 31.071 6.56766 31.2302C6.44329 31.3894 6.25248 31.4824 6.05046 31.4822Z" fill="url(#paint10_linear_3637_13374)"/>
<path d="M30.4862 23.2984C30.1541 23.2981 29.8746 23.0495 29.8355 22.7197C29.7965 22.3898 30.0103 22.0829 30.3332 22.0051C35.4999 20.757 38.9174 15.8429 38.2892 10.5648C37.661 5.28678 33.1856 1.31201 27.8703 1.31148C27.722 1.31148 27.5677 1.31757 27.4198 1.32393C23.9757 1.46965 20.8234 3.29965 18.989 6.21829C18.8456 6.44208 18.7044 6.68968 18.5654 6.96111C18.4614 7.1744 18.2503 7.31485 18.0134 7.32836C17.7765 7.34187 17.5507 7.22633 17.4232 7.02625C17.2956 6.82617 17.286 6.57277 17.3982 6.36367C17.5561 6.05502 17.719 5.76938 17.8824 5.51489C19.9464 2.23384 23.4915 0.17711 27.3644 0.0137705C27.53 0.00655738 27.7035 0 27.8703 0C33.848 0.00374165 38.8796 4.47489 39.5859 10.4107C40.2922 16.3465 36.4504 21.8736 30.6405 23.28C30.59 23.2922 30.5382 23.2984 30.4862 23.2984Z" fill="url(#paint11_linear_3637_13374)"/>
<path d="M34.9965 21.0312C34.8542 21.0313 34.7158 20.9849 34.6024 20.899L34.5114 20.8304C33.6706 20.2749 32.9452 19.5621 32.3748 18.7313C31.8219 17.8758 31.742 16.7978 32.1626 15.8701C32.396 15.4466 32.6933 15.0616 33.044 14.7287C33.2783 14.5038 33.4859 14.2527 33.6629 13.9804C34.7598 12.0639 34.9135 9.74914 34.0795 7.70447C33.6761 6.83004 32.6636 6.23962 30.895 5.84873C30.6155 5.79168 30.3331 5.75041 30.049 5.72512C29.5239 5.68956 29.0056 5.58515 28.5077 5.41457C26.8152 4.7726 26.2228 3.1326 26.7476 0.540731C26.7906 0.307695 26.9559 0.115974 27.1801 0.0392452C27.4043 -0.0374839 27.6525 0.0127169 27.8292 0.170556C28.006 0.328395 28.0838 0.569314 28.0329 0.800731C27.5222 3.32407 28.3252 3.9427 28.9736 4.1886C29.3683 4.31691 29.7776 4.3951 30.1918 4.42132C30.524 4.45165 30.8542 4.50085 31.1809 4.56867C32.5637 4.87444 34.4954 5.47601 35.2712 7.15666C36.2735 9.58992 36.099 12.3492 34.7983 14.6369C34.5709 15.0011 34.3001 15.3363 33.9917 15.6352C33.7343 15.8769 33.5129 16.1543 33.3344 16.459C33.1202 16.9852 33.1818 17.5835 33.4987 18.0551C33.9864 18.7381 34.5975 19.3241 35.3003 19.7828L35.3921 19.852C35.6173 20.0219 35.7086 20.3166 35.6189 20.584C35.5292 20.8514 35.2785 21.0314 34.9965 21.0312Z" fill="url(#paint12_linear_3637_13374)"/>
<path d="M29.3075 14.1698C29.1401 14.1702 28.9731 14.1523 28.8096 14.1163C27.799 13.8186 27.0912 12.9091 27.0508 11.8564C26.9526 10.9269 27.227 9.99637 27.8138 9.26894C28.5693 8.44991 29.7514 8.18117 30.7868 8.59307C31.4586 8.9269 31.9672 9.51776 32.1974 10.2318C32.4387 10.9676 32.3727 11.7697 32.0143 12.4561C31.6899 13.0723 31.1762 13.5682 30.5489 13.8706C30.163 14.0629 29.7386 14.1652 29.3075 14.1698ZM29.8473 9.69228C29.4525 9.70061 29.076 9.86023 28.7955 10.1382C28.4517 10.5918 28.2945 11.1598 28.3561 11.7257C28.4042 12.2072 28.6512 12.7371 29.0948 12.8361C29.396 12.8869 29.7056 12.836 29.9747 12.6914C30.3481 12.5133 30.6545 12.2202 30.8489 11.855C31.0452 11.4798 31.0819 11.0413 30.9507 10.6386C30.8282 10.2587 30.5576 9.94427 30.2001 9.76651C30.0898 9.71501 29.969 9.68943 29.8473 9.69228Z" fill="url(#paint13_linear_3637_13374)"/>
<path d="M23.3023 11.6871C23.0089 11.6873 22.7511 11.4925 22.671 11.2103C22.591 10.928 22.7082 10.6269 22.9581 10.473C23.0733 10.402 23.1912 10.336 23.309 10.2698C23.5148 10.1637 23.7102 10.0386 23.8926 9.896C24.2381 9.58107 24.4471 9.14389 24.4754 8.67731C24.5171 8.32791 24.416 7.97646 24.1949 7.70268C23.8062 7.26498 23.203 7.26242 22.2549 7.30924C21.952 7.32465 21.6389 7.34 21.3356 7.32557C20.2161 7.26859 19.122 6.97109 18.1278 6.45331C17.8062 6.28672 17.6805 5.89091 17.847 5.56924C18.0136 5.24758 18.4094 5.12186 18.7311 5.28846C19.557 5.71976 20.4662 5.96778 21.3967 6.0156C21.6499 6.02682 21.9166 6.01304 22.1891 5.9996C23.1493 5.95154 24.3408 5.892 25.1755 6.83239C25.6336 7.37007 25.853 8.07112 25.7832 8.77403C25.7294 9.59211 25.3541 10.3557 24.7394 10.8981C24.4937 11.096 24.229 11.2691 23.9491 11.4149C23.8474 11.4719 23.7449 11.5288 23.6453 11.59C23.5422 11.6536 23.4234 11.6873 23.3023 11.6871Z" fill="url(#paint14_linear_3637_13374)"/>
<path d="M26.0078 20.9884C25.9954 20.9884 25.9829 20.9884 25.9704 20.9875C25.7967 20.9777 25.634 20.8994 25.5181 20.7697C25.4023 20.64 25.3426 20.4695 25.3524 20.2958C25.442 19.5648 25.2681 18.8258 24.8619 18.2115C24.6521 17.9351 24.3964 17.8599 23.8844 17.7286L23.6244 17.6608C22.8598 17.4565 22.1919 16.989 21.7383 16.3405C21.5366 16.0435 21.6113 15.6395 21.9058 15.4343C22.2003 15.229 22.6052 15.2987 22.8141 15.5906C23.0917 15.9888 23.5026 16.2745 23.9725 16.3962L24.2097 16.458C24.8739 16.5591 25.4778 16.9008 25.9064 17.4182C26.5057 18.2786 26.7741 19.3265 26.6621 20.369C26.6428 20.7163 26.3557 20.9882 26.0078 20.9884Z" fill="url(#paint15_linear_3637_13374)"/>
<path d="M20.6933 20.9916C20.5397 20.9917 20.3909 20.9378 20.2732 20.8391C19.3834 20.0976 18.6118 19.2249 17.9846 18.2511C17.8506 18.054 17.834 17.7997 17.9414 17.5869C18.0488 17.3741 18.2632 17.2363 18.5014 17.2271C18.7396 17.2178 18.964 17.3386 19.0876 17.5424C19.6429 18.4042 20.3261 19.1765 21.1138 19.8327C21.3255 20.0096 21.4038 20.3002 21.3097 20.5595C21.2156 20.8189 20.9692 20.9916 20.6933 20.9916Z" fill="url(#paint16_linear_3637_13374)"/>
</g>
<defs>
<linearGradient id="paint0_linear_3637_13374" x1="0.155937" y1="25.5728" x2="27.7969" y2="26.3804" gradientUnits="userSpaceOnUse">
<stop stop-color="#351EE0"/>
<stop offset="1" stop-color="#3F74EF"/>
</linearGradient>
<linearGradient id="paint1_linear_3637_13374" x1="0.63857" y1="36.4118" x2="27.0599" y2="39.0717" gradientUnits="userSpaceOnUse">
<stop stop-color="#351EE0"/>
<stop offset="1" stop-color="#3F74EF"/>
</linearGradient>
<linearGradient id="paint2_linear_3637_13374" x1="5.29045" y1="10.2273" x2="22.6038" y2="11.0195" gradientUnits="userSpaceOnUse">
<stop stop-color="#351EE0"/>
<stop offset="1" stop-color="#3F74EF"/>
</linearGradient>
<linearGradient id="paint3_linear_3637_13374" x1="8.19002" y1="12.7629" x2="19.6889" y2="13.2557" gradientUnits="userSpaceOnUse">
<stop stop-color="#351EE0"/>
<stop offset="1" stop-color="#3F74EF"/>
</linearGradient>
<linearGradient id="paint4_linear_3637_13374" x1="11.0856" y1="15.3025" x2="16.7745" y2="15.507" gradientUnits="userSpaceOnUse">
<stop stop-color="#351EE0"/>
<stop offset="1" stop-color="#3F74EF"/>
</linearGradient>
<linearGradient id="paint5_linear_3637_13374" x1="8.19002" y1="12.7629" x2="19.6889" y2="13.2557" gradientUnits="userSpaceOnUse">
<stop stop-color="#351EE0"/>
<stop offset="1" stop-color="#3F74EF"/>
</linearGradient>
<linearGradient id="paint6_linear_3637_13374" x1="11.0856" y1="15.3025" x2="16.7745" y2="15.507" gradientUnits="userSpaceOnUse">
<stop stop-color="#351EE0"/>
<stop offset="1" stop-color="#3F74EF"/>
</linearGradient>
<linearGradient id="paint7_linear_3637_13374" x1="13.2573" y1="17.53" x2="14.5915" y2="17.5536" gradientUnits="userSpaceOnUse">
<stop stop-color="#351EE0"/>
<stop offset="1" stop-color="#3F74EF"/>
</linearGradient>
<linearGradient id="paint8_linear_3637_13374" x1="22.9242" y1="25.8915" x2="33.2251" y2="26.0471" gradientUnits="userSpaceOnUse">
<stop stop-color="#351EE0"/>
<stop offset="1" stop-color="#3F74EF"/>
</linearGradient>
<linearGradient id="paint9_linear_3637_13374" x1="24.0719" y1="26.8116" x2="30.0979" y2="26.9315" gradientUnits="userSpaceOnUse">
<stop stop-color="#351EE0"/>
<stop offset="1" stop-color="#3F74EF"/>
</linearGradient>
<linearGradient id="paint10_linear_3637_13374" x1="3.405" y1="25.5963" x2="6.74355" y2="25.6173" gradientUnits="userSpaceOnUse">
<stop stop-color="#351EE0"/>
<stop offset="1" stop-color="#3F74EF"/>
</linearGradient>
<linearGradient id="paint11_linear_3637_13374" x1="17.1788" y1="8.37532" x2="39.9151" y2="8.7596" gradientUnits="userSpaceOnUse">
<stop stop-color="#351EE0"/>
<stop offset="1" stop-color="#3F74EF"/>
</linearGradient>
<linearGradient id="paint12_linear_3637_13374" x1="26.5033" y1="7.56283" x2="36.0204" y2="7.63742" gradientUnits="userSpaceOnUse">
<stop stop-color="#351EE0"/>
<stop offset="1" stop-color="#3F74EF"/>
</linearGradient>
<linearGradient id="paint13_linear_3637_13374" x1="26.9976" y1="10.4756" x2="32.3989" y2="10.5632" gradientUnits="userSpaceOnUse">
<stop stop-color="#351EE0"/>
<stop offset="1" stop-color="#3F74EF"/>
</linearGradient>
<linearGradient id="paint14_linear_3637_13374" x1="17.7226" y1="7.54151" x2="25.8826" y2="7.71972" gradientUnits="userSpaceOnUse">
<stop stop-color="#351EE0"/>
<stop offset="1" stop-color="#3F74EF"/>
</linearGradient>
<linearGradient id="paint15_linear_3637_13374" x1="21.5929" y1="17.3554" x2="26.7428" y2="17.4364" gradientUnits="userSpaceOnUse">
<stop stop-color="#351EE0"/>
<stop offset="1" stop-color="#3F74EF"/>
</linearGradient>
<linearGradient id="paint16_linear_3637_13374" x1="17.8491" y1="18.58" x2="21.3874" y2="18.6376" gradientUnits="userSpaceOnUse">
<stop stop-color="#351EE0"/>
<stop offset="1" stop-color="#3F74EF"/>
</linearGradient>
<clipPath id="clip0_3637_13374">
<rect width="40" height="40" fill="white"/>
</clipPath>
</defs>
</svg>
