<svg width="1144" height="884" viewBox="0 0 1144 884" fill="none" xmlns="http://www.w3.org/2000/svg">
<g clip-path="url(#clip0_3772_907)">
<path opacity="0.6" d="M425.803 736.862L186.828 975.837H-0.604126H-25.3711L310.1 641.344C338.575 683.155 378.945 716.316 425.803 736.862Z" fill="#F2F7FB"/>
<path opacity="0.6" d="M1068 -92V25.1448L758.018 335.128C729.543 293.316 689.534 259.795 642.676 239.61L974.286 -92H1068Z" fill="white"/>
<path opacity="0.6" d="M954.819 -92L628.976 233.843C599.419 222.669 567.34 216.902 534.179 216.902C485.158 216.902 439.021 229.878 399.012 252.946L743.598 -92H954.819Z" fill="white"/>
<path opacity="0.6" d="M678.36 717.562L419.92 976.002H208.699L441.547 743.154C470.383 753.607 501.381 759.374 533.821 759.374C587.167 759.014 636.548 743.875 678.36 717.562Z" fill="white"/>
<path d="M883.093 487.957C883.093 491.561 883.093 495.166 883.093 498.77L719.09 662.773C762.343 616.997 788.656 555.36 788.656 487.597C788.656 469.574 786.854 451.552 783.249 434.611C782.889 432.809 782.528 431.007 782.168 429.204C778.924 415.868 774.598 402.531 769.552 389.916C768.831 388.474 768.11 386.672 767.39 385.23C763.425 375.858 758.739 366.847 753.332 357.836L821.817 289.352C827.584 297.642 832.991 305.932 837.676 314.943C838.397 316.385 839.118 317.827 839.839 318.908C845.967 330.082 851.734 341.616 856.78 353.871C857.501 355.674 858.222 357.115 858.943 358.918C874.442 399.287 883.093 442.541 883.093 487.957Z" fill="url(#paint0_linear_3772_907)"/>
<path d="M300.971 590.684C305.296 600.416 309.982 609.788 315.389 618.439L246.904 686.923C241.137 678.633 235.73 669.982 230.684 660.971C223.475 648.355 216.987 635.379 211.22 621.682C194.279 580.592 184.547 535.176 184.547 487.957C184.547 484.713 184.547 481.83 184.547 478.586L337.376 326.117C300.971 370.092 279.344 426.681 279.344 487.957C279.344 508.142 281.867 527.967 286.193 546.71C289.797 561.849 294.843 576.627 300.971 590.684Z" fill="url(#paint1_linear_3772_907)"/>
<path d="M533.821 216.902C384.236 216.902 262.766 338.372 262.766 487.957C262.766 637.542 384.236 759.012 533.821 759.012C683.406 759.012 804.876 637.542 804.876 487.957C805.236 338.372 683.766 216.902 533.821 216.902ZM657.453 710.713C652.047 713.596 646.28 716.48 640.512 719.363C608.072 734.502 572.028 742.792 533.821 742.792C495.613 742.792 459.569 734.502 427.129 719.363C421.362 716.84 415.955 713.957 410.188 710.713C331.971 667.099 278.986 583.836 278.986 487.957C278.986 347.384 392.886 233.122 533.821 233.122C674.755 233.122 788.656 347.023 788.656 487.957C788.656 583.836 735.67 667.099 657.453 710.713Z" fill="white"/>
<path d="M533.819 233.48C393.246 233.48 278.984 347.381 278.984 488.315C278.984 629.25 392.885 743.15 533.819 743.15C674.754 743.15 788.654 629.25 788.654 488.315C788.654 347.381 674.754 233.48 533.819 233.48ZM533.819 724.047C403.338 724.047 297.728 618.436 297.728 487.955C297.728 357.474 403.338 251.863 533.819 251.863C664.301 251.863 769.911 357.474 769.911 487.955C770.272 618.436 664.301 724.047 533.819 724.047Z" fill="url(#paint2_linear_3772_907)"/>
<path d="M345.669 545.991L300.974 590.686L230.687 660.973C223.478 648.358 216.99 635.382 211.223 621.685L316.112 516.795C324.042 508.865 337.379 508.865 345.308 516.795C353.599 524.725 353.599 537.701 345.669 545.991Z" fill="white"/>
<path d="M856.781 354.233L783.25 428.124L754.414 456.96C750.449 460.925 745.042 463.087 739.636 463.087C734.229 463.087 729.183 460.925 724.858 456.96C716.928 449.03 716.928 435.693 724.858 427.764L767.03 385.592L837.316 315.305C838.037 316.746 838.758 318.188 839.479 319.27C846.328 330.804 851.734 342.338 856.781 354.233Z" fill="white"/>
</g>
<defs>
<linearGradient id="paint0_linear_3772_907" x1="718.051" y1="423.59" x2="884.933" y2="424.881" gradientUnits="userSpaceOnUse">
<stop stop-color="#351EE0"/>
<stop offset="1" stop-color="#3F74EF"/>
</linearGradient>
<linearGradient id="paint1_linear_3772_907" x1="183.579" y1="455.82" x2="339.092" y2="456.981" gradientUnits="userSpaceOnUse">
<stop stop-color="#351EE0"/>
<stop offset="1" stop-color="#3F74EF"/>
</linearGradient>
<linearGradient id="paint2_linear_3772_907" x1="275.756" y1="416.697" x2="794.245" y2="425.833" gradientUnits="userSpaceOnUse">
<stop stop-color="#351EE0"/>
<stop offset="1" stop-color="#3F74EF"/>
</linearGradient>
<clipPath id="clip0_3772_907">
<rect width="1144" height="884" fill="white"/>
</clipPath>
</defs>
</svg>
