<svg width="130" height="21" viewBox="0 0 130 21" fill="none" xmlns="http://www.w3.org/2000/svg">
<path d="M10.8984 11.75H7.96875V20.5H4.0625V11.75H0.859375V8.15625H4.0625V5.38281C4.0625 2.25781 5.9375 0.5 8.78906 0.5C10.1562 0.5 11.6016 0.773438 11.6016 0.773438V3.85938H10C8.4375 3.85938 7.96875 4.79688 7.96875 5.8125V8.15625H11.4453L10.8984 11.75Z" fill="#05092B"/>
<path d="M44.75 6.00781C47.2109 6.00781 49.2422 8.03906 49.2422 10.5C49.2422 13 47.2109 14.9922 44.75 14.9922C42.25 14.9922 40.2578 13 40.2578 10.5C40.2578 8.03906 42.25 6.00781 44.75 6.00781ZM44.75 13.4297C46.3516 13.4297 47.6406 12.1406 47.6406 10.5C47.6406 8.89844 46.3516 7.60938 44.75 7.60938C43.1094 7.60938 41.8203 8.89844 41.8203 10.5C41.8203 12.1406 43.1484 13.4297 44.75 13.4297ZM50.4531 5.85156C50.4531 5.26562 49.9844 4.79688 49.3984 4.79688C48.8125 4.79688 48.3438 5.26562 48.3438 5.85156C48.3438 6.4375 48.8125 6.90625 49.3984 6.90625C49.9844 6.90625 50.4531 6.4375 50.4531 5.85156ZM53.4219 6.90625C53.5 8.35156 53.5 12.6875 53.4219 14.1328C53.3438 15.5391 53.0312 16.75 52.0156 17.8047C51 18.8203 49.75 19.1328 48.3438 19.2109C46.8984 19.2891 42.5625 19.2891 41.1172 19.2109C39.7109 19.1328 38.5 18.8203 37.4453 17.8047C36.4297 16.75 36.1172 15.5391 36.0391 14.1328C35.9609 12.6875 35.9609 8.35156 36.0391 6.90625C36.1172 5.5 36.4297 4.25 37.4453 3.23438C38.5 2.21875 39.7109 1.90625 41.1172 1.82812C42.5625 1.75 46.8984 1.75 48.3438 1.82812C49.75 1.90625 51 2.21875 52.0156 3.23438C53.0312 4.25 53.3438 5.5 53.4219 6.90625ZM51.5469 15.6562C52.0156 14.5234 51.8984 11.7891 51.8984 10.5C51.8984 9.25 52.0156 6.51562 51.5469 5.34375C51.2344 4.60156 50.6484 3.97656 49.9062 3.70312C48.7344 3.23438 46 3.35156 44.75 3.35156C43.4609 3.35156 40.7266 3.23438 39.5938 3.70312C38.8125 4.01562 38.2266 4.60156 37.9141 5.34375C37.4453 6.51562 37.5625 9.25 37.5625 10.5C37.5625 11.7891 37.4453 14.5234 37.9141 15.6562C38.2266 16.4375 38.8125 17.0234 39.5938 17.3359C40.7266 17.8047 43.4609 17.6875 44.75 17.6875C46 17.6875 48.7344 17.8047 49.9062 17.3359C50.6484 17.0234 51.2734 16.4375 51.5469 15.6562Z" fill="#05092B"/>
<path d="M92.9297 6.4375C92.9297 6.63281 92.9297 6.78906 92.9297 6.98438C92.9297 12.4141 88.8281 18.625 81.2891 18.625C78.9453 18.625 76.7969 17.9609 75 16.7891C75.3125 16.8281 75.625 16.8672 75.9766 16.8672C77.8906 16.8672 79.6484 16.2031 81.0547 15.1094C79.2578 15.0703 77.7344 13.8984 77.2266 12.2578C77.5 12.2969 77.7344 12.3359 78.0078 12.3359C78.3594 12.3359 78.75 12.2578 79.0625 12.1797C77.1875 11.7891 75.7812 10.1484 75.7812 8.15625V8.11719C76.3281 8.42969 76.9922 8.58594 77.6562 8.625C76.5234 7.88281 75.8203 6.63281 75.8203 5.22656C75.8203 4.44531 76.0156 3.74219 76.3672 3.15625C78.3984 5.61719 81.4453 7.25781 84.8438 7.45312C84.7656 7.14062 84.7266 6.82812 84.7266 6.51562C84.7266 4.25 86.5625 2.41406 88.8281 2.41406C90 2.41406 91.0547 2.88281 91.8359 3.70312C92.7344 3.50781 93.6328 3.15625 94.4141 2.6875C94.1016 3.66406 93.4766 4.44531 92.6172 4.95312C93.4375 4.875 94.2578 4.64062 94.9609 4.32812C94.4141 5.14844 93.7109 5.85156 92.9297 6.4375Z" fill="#05092B"/>
<path d="M128.25 1.75C128.914 1.75 129.5 2.33594 129.5 3.03906V18C129.5 18.7031 128.914 19.25 128.25 19.25H113.211C112.547 19.25 112 18.7031 112 18V3.03906C112 2.33594 112.547 1.75 113.211 1.75H128.25ZM117.273 16.75V8.42969H114.695V16.75H117.273ZM115.984 7.25781C116.805 7.25781 117.469 6.59375 117.469 5.77344C117.469 4.95312 116.805 4.25 115.984 4.25C115.125 4.25 114.461 4.95312 114.461 5.77344C114.461 6.59375 115.125 7.25781 115.984 7.25781ZM127 16.75V12.1797C127 9.95312 126.492 8.19531 123.875 8.19531C122.625 8.19531 121.766 8.89844 121.414 9.5625H121.375V8.42969H118.914V16.75H121.492V12.6484C121.492 11.5547 121.688 10.5 123.055 10.5C124.383 10.5 124.383 11.75 124.383 12.6875V16.75H127Z" fill="#05092B"/>
</svg>
