<svg width="20" height="18" viewBox="0 0 20 18" fill="none" xmlns="http://www.w3.org/2000/svg">
<path d="M10.1099 3.77342C13.4799 3.80649 15.591 3.59682 15.8761 7.33206H19.9856C19.9856 1.54558 14.939 0.765625 10.0029 0.765625C5.06642 0.765625 0.0202283 1.54558 0.0202283 7.33206H4.0978C4.41328 3.52563 6.76794 3.74075 10.1099 3.77342ZM2.05823 9.19229C3.05915 9.19229 3.89201 9.2522 4.07718 8.26762C4.10208 8.1338 4.11647 7.98209 4.11647 7.80665H0C0 9.27126 0.921557 9.19229 2.05823 9.19229ZM15.9026 7.80665H15.8641C15.8641 7.98326 15.8793 8.13536 15.9077 8.26762C16.1029 9.17556 16.9346 9.11915 17.932 9.11915C19.0742 9.11915 20 9.19423 20 7.80665H15.9026Z" fill="url(#paint0_linear_3633_10224)"/>
<path d="M13.8951 6.81166V6.22971C13.8951 5.96946 13.5952 5.95312 13.2248 5.95312H12.6199C12.25 5.95312 11.95 5.96946 11.95 6.22971V7.12015H7.67098V6.22971C7.67098 5.96946 7.37105 5.95312 7.00111 5.95312H6.39581C6.02587 5.95312 5.72594 5.96946 5.72594 6.22971V7.31971C4.75109 8.33268 1.56124 12.6448 1.44531 13.1669L1.44687 16.6504C1.44687 16.9721 1.70867 17.2339 2.03038 17.2339H17.5906C17.9124 17.2339 18.1742 16.9721 18.1742 16.6504V13.1494C18.0594 12.6425 14.8703 8.33229 13.8951 7.31932V6.81166ZM7.46013 13.6356C7.38443 13.6376 7.30909 13.6244 7.23857 13.5968C7.16804 13.5692 7.10376 13.5278 7.04952 13.4749C6.99527 13.4221 6.95215 13.3589 6.92271 13.2891C6.89328 13.2193 6.87811 13.1444 6.87811 13.0686C6.87811 12.9929 6.89328 12.9179 6.92271 12.8482C6.95215 12.7784 6.99527 12.7152 7.04952 12.6624C7.10376 12.6095 7.16804 12.5681 7.23857 12.5405C7.30909 12.5129 7.38443 12.4997 7.46013 12.5017C7.60793 12.5055 7.74838 12.567 7.85155 12.6729C7.95472 12.7788 8.01245 12.9208 8.01245 13.0686C8.01245 13.2165 7.95472 13.3585 7.85155 13.4644C7.74838 13.5703 7.60793 13.6317 7.46013 13.6356ZM7.46013 11.6906C7.38443 11.6926 7.30909 11.6794 7.23857 11.6518C7.16804 11.6242 7.10376 11.5827 7.04952 11.5299C6.99527 11.477 6.95215 11.4139 6.92271 11.3441C6.89328 11.2743 6.87811 11.1993 6.87811 11.1236C6.87811 11.0479 6.89328 10.9729 6.92271 10.9031C6.95215 10.8334 6.99527 10.7702 7.04952 10.7173C7.10376 10.6645 7.16804 10.623 7.23857 10.5954C7.30909 10.5678 7.38443 10.5546 7.46013 10.5566C7.60793 10.5605 7.74838 10.6219 7.85155 10.7278C7.95472 10.8337 8.01245 10.9758 8.01245 11.1236C8.01245 11.2715 7.95472 11.4135 7.85155 11.5194C7.74838 11.6253 7.60793 11.6867 7.46013 11.6906ZM7.46013 9.74594C7.38443 9.74792 7.30909 9.73472 7.23857 9.70712C7.16804 9.67952 7.10376 9.63808 7.04952 9.58523C6.99527 9.53239 6.95215 9.46921 6.92271 9.39944C6.89328 9.32966 6.87811 9.25469 6.87811 9.17896C6.87811 9.10323 6.89328 9.02827 6.92271 8.95849C6.95215 8.88871 6.99527 8.82554 7.04952 8.7727C7.10376 8.71985 7.16804 8.6784 7.23857 8.6508C7.30909 8.6232 7.38443 8.61 7.46013 8.61199C7.60793 8.61586 7.74838 8.67729 7.85155 8.7832C7.95472 8.8891 8.01245 9.03111 8.01245 9.17896C8.01245 9.32681 7.95472 9.46882 7.85155 9.57473C7.74838 9.68063 7.60793 9.74207 7.46013 9.74594ZM9.79417 13.6356C9.71847 13.6376 9.64313 13.6244 9.57261 13.5968C9.50208 13.5692 9.4378 13.5278 9.38356 13.4749C9.32931 13.4221 9.28619 13.3589 9.25675 13.2891C9.22732 13.2193 9.21215 13.1444 9.21215 13.0686C9.21215 12.9929 9.22732 12.9179 9.25675 12.8482C9.28619 12.7784 9.32931 12.7152 9.38356 12.6624C9.4378 12.6095 9.50208 12.5681 9.57261 12.5405C9.64313 12.5129 9.71847 12.4997 9.79417 12.5017C9.94197 12.5055 10.0824 12.567 10.1856 12.6729C10.2888 12.7788 10.3465 12.9208 10.3465 13.0686C10.3465 13.2165 10.2888 13.3585 10.1856 13.4644C10.0824 13.5703 9.94197 13.6317 9.79417 13.6356ZM9.79417 11.6906C9.71847 11.6926 9.64313 11.6794 9.57261 11.6518C9.50208 11.6242 9.4378 11.5827 9.38356 11.5299C9.32931 11.477 9.28619 11.4139 9.25675 11.3441C9.22732 11.2743 9.21215 11.1993 9.21215 11.1236C9.21215 11.0479 9.22732 10.9729 9.25675 10.9031C9.28619 10.8334 9.32931 10.7702 9.38356 10.7173C9.4378 10.6645 9.50208 10.623 9.57261 10.5954C9.64313 10.5678 9.71847 10.5546 9.79417 10.5566C9.94197 10.5605 10.0824 10.6219 10.1856 10.7278C10.2888 10.8337 10.3465 10.9758 10.3465 11.1236C10.3465 11.2715 10.2888 11.4135 10.1856 11.5194C10.0824 11.6253 9.94197 11.6867 9.79417 11.6906ZM9.79417 9.74594C9.71847 9.74792 9.64313 9.73472 9.57261 9.70712C9.50208 9.67952 9.4378 9.63808 9.38356 9.58523C9.32931 9.53239 9.28619 9.46921 9.25675 9.39944C9.22732 9.32966 9.21215 9.25469 9.21215 9.17896C9.21215 9.10323 9.22732 9.02827 9.25675 8.95849C9.28619 8.88871 9.32931 8.82554 9.38356 8.7727C9.4378 8.71985 9.50208 8.6784 9.57261 8.6508C9.64313 8.6232 9.71847 8.61 9.79417 8.61199C9.94197 8.61586 10.0824 8.67729 10.1856 8.7832C10.2888 8.8891 10.3465 9.03111 10.3465 9.17896C10.3465 9.32681 10.2888 9.46882 10.1856 9.57473C10.0824 9.68063 9.94197 9.74207 9.79417 9.74594ZM12.1282 13.6356C11.9778 13.6356 11.8335 13.5759 11.7272 13.4695C11.6208 13.3631 11.561 13.2189 11.561 13.0684C11.561 12.918 11.6208 12.7738 11.7272 12.6674C11.8335 12.561 11.9778 12.5013 12.1282 12.5013C12.2786 12.5013 12.4229 12.561 12.5293 12.6674C12.6356 12.7738 12.6954 12.918 12.6954 13.0684C12.6954 13.2189 12.6356 13.3631 12.5293 13.4695C12.4229 13.5759 12.2786 13.6356 12.1282 13.6356ZM12.1282 11.6906C11.9778 11.6906 11.8335 11.6308 11.7272 11.5245C11.6208 11.4181 11.561 11.2738 11.561 11.1234C11.561 10.973 11.6208 10.8287 11.7272 10.7224C11.8335 10.616 11.9778 10.5562 12.1282 10.5562C12.2786 10.5562 12.4229 10.616 12.5293 10.7224C12.6356 10.8287 12.6954 10.973 12.6954 11.1234C12.6954 11.2738 12.6356 11.4181 12.5293 11.5245C12.4229 11.6308 12.2786 11.6906 12.1282 11.6906ZM12.1282 9.74594C11.9778 9.74594 11.8335 9.68618 11.7272 9.57982C11.6208 9.47345 11.561 9.32919 11.561 9.17877C11.561 9.02835 11.6208 8.88408 11.7272 8.77772C11.8335 8.67135 11.9778 8.6116 12.1282 8.6116C12.2786 8.6116 12.4229 8.67135 12.5293 8.77772C12.6356 8.88408 12.6954 9.02835 12.6954 9.17877C12.6954 9.32919 12.6356 9.47345 12.5293 9.57982C12.4229 9.68618 12.2786 9.74594 12.1282 9.74594Z" fill="url(#paint1_linear_3633_10224)"/>
<defs>
<linearGradient id="paint0_linear_3633_10224" x1="-0.126677" y1="3.79512" x2="20.1902" y2="4.64466" gradientUnits="userSpaceOnUse">
<stop stop-color="#351EE0"/>
<stop offset="1" stop-color="#3F74EF"/>
</linearGradient>
<linearGradient id="paint1_linear_3633_10224" x1="1.33935" y1="10.0084" x2="18.3513" y2="10.4529" gradientUnits="userSpaceOnUse">
<stop stop-color="#351EE0"/>
<stop offset="1" stop-color="#3F74EF"/>
</linearGradient>
</defs>
</svg>
