<svg width="40" height="40" viewBox="0 0 40 40" fill="none" xmlns="http://www.w3.org/2000/svg">
<g clip-path="url(#clip0_3757_53)">
<path d="M20.0022 40.0005C23.9584 40.0005 27.8258 38.8273 31.1153 36.6292C34.4047 34.4311 36.9684 31.307 38.4822 27.6518C39.996 23.9966 40.3919 19.9746 39.6197 16.0944C38.8476 12.2143 36.9421 8.65024 34.1443 5.85306C31.3465 3.05588 27.7821 1.1512 23.9017 0.379906C20.0214 -0.391389 15.9995 0.00534503 12.3447 1.51993C8.68981 3.03452 5.56619 5.59894 3.36884 8.88886C1.1715 12.1788 -0.000865409 16.0464 4.793e-07 20.0027C0.00579632 25.3054 2.11517 30.3892 5.86517 34.1384C9.61518 37.8876 14.6995 39.9958 20.0022 40.0005ZM14.311 14.3859C14.6738 14.3859 15.0285 14.4935 15.3301 14.6951C15.6318 14.8966 15.8669 15.1831 16.0057 15.5183C16.1445 15.8535 16.1809 16.2223 16.1101 16.5781C16.0393 16.9339 15.8646 17.2608 15.6081 17.5173C15.3516 17.7738 15.0247 17.9485 14.6689 18.0193C14.3131 18.0901 13.9443 18.0538 13.6091 17.9149C13.2739 17.7761 12.9874 17.541 12.7859 17.2393C12.5843 16.9377 12.4767 16.583 12.4767 16.2202C12.4773 15.978 12.5257 15.7383 12.6192 15.5149C12.7127 15.2915 12.8494 15.0887 13.0215 14.9183C13.1935 14.7478 13.3976 14.6131 13.6219 14.5217C13.8462 14.4304 14.0864 14.3842 14.3285 14.3859H14.311ZM13.2735 6.53217V12.4072C12.3559 12.6628 11.562 13.2421 11.0386 14.038C10.5153 14.8339 10.298 15.7925 10.427 16.7362C10.556 17.68 11.0225 18.5451 11.7402 19.1714C12.4579 19.7977 13.3782 20.1427 14.3307 20.1427C15.2833 20.1427 16.2036 19.7977 16.9213 19.1714C17.639 18.5451 18.1055 17.68 18.2345 16.7362C18.3635 15.7925 18.1462 14.8339 17.6229 14.038C17.0995 13.2421 16.3056 12.6628 15.388 12.4072V5.6566C16.878 5.17155 18.4352 4.92481 20.0022 4.92551H20.2123V20.6287H25.9472C26.2028 21.5463 26.7822 22.3402 27.5781 22.8636C28.374 23.3869 29.3325 23.6042 30.2763 23.4752C31.2201 23.3462 32.0852 22.8797 32.7114 22.162C33.3377 21.4443 33.6828 20.524 33.6828 19.5715C33.6828 18.6189 33.3377 17.6986 32.7114 16.9809C32.0852 16.2632 31.2201 15.7967 30.2763 15.6677C29.3325 15.5387 28.374 15.756 27.5781 16.2793C26.7822 16.8027 26.2028 17.5966 25.9472 18.5142H22.3268V5.13127C24.5309 5.46565 26.6329 6.2869 28.4799 7.53533C30.3269 8.78377 31.8725 10.428 33.0045 12.3486C34.1365 14.2692 34.8263 16.4178 35.0239 18.6384C35.2215 20.859 34.9219 23.0957 34.1469 25.186H17.4324C17.1768 24.2684 16.5975 23.4744 15.8016 22.9511C15.0057 22.4278 14.0471 22.2105 13.1034 22.3395C12.1596 22.4685 11.2945 22.935 10.6682 23.6527C10.0419 24.3704 9.69686 25.2907 9.69686 26.2432C9.69686 27.1958 10.0419 28.1161 10.6682 28.8338C11.2945 29.5515 12.1596 30.018 13.1034 30.147C14.0471 30.276 15.0057 30.0587 15.8016 29.5353C16.5975 29.012 17.1768 28.2181 17.4324 27.3005H33.1706C32.0278 29.3657 30.4156 31.1335 28.464 32.4611C26.5124 33.7886 24.276 34.6389 21.9353 34.9432C19.5947 35.2475 17.2153 34.9974 14.9891 34.213C12.7629 33.4286 10.7522 32.1319 9.1193 30.4275C7.4864 28.7231 6.277 26.6588 5.58866 24.401C4.90032 22.1432 4.75233 19.7553 5.15661 17.4298C5.5609 15.1043 6.50614 12.9065 7.91608 11.0135C9.32603 9.1205 11.1612 7.58545 13.2735 6.53217ZM27.9129 19.5649C27.912 19.2009 28.0192 18.8448 28.2209 18.5417C28.4226 18.2387 28.7098 18.0023 29.0459 17.8626C29.3821 17.7229 29.7521 17.6862 30.1092 17.757C30.4663 17.8278 30.7943 18.003 31.0517 18.2604C31.3091 18.5178 31.4843 18.8458 31.5551 19.2029C31.6259 19.56 31.5891 19.93 31.4494 20.2662C31.3097 20.6023 31.0734 20.8894 30.7703 21.0911C30.4673 21.2928 30.1112 21.4001 29.7472 21.3992C29.2626 21.3981 28.798 21.2056 28.4545 20.8638C28.111 20.5219 27.9163 20.0583 27.9129 19.5736V19.5649ZM15.4668 26.2323C15.4668 26.5959 15.3589 26.9514 15.1569 27.2538C14.9549 27.5562 14.6677 27.7918 14.3317 27.931C13.9958 28.0702 13.6261 28.1066 13.2694 28.0356C12.9127 27.9647 12.5851 27.7896 12.328 27.5324C12.0708 27.2753 11.8957 26.9477 11.8247 26.591C11.7538 26.2343 11.7902 25.8646 11.9294 25.5287C12.0686 25.1927 12.3042 24.9055 12.6066 24.7035C12.909 24.5014 13.2645 24.3936 13.6281 24.3936C14.1158 24.3936 14.5834 24.5873 14.9283 24.9321C15.2731 25.277 15.4668 25.7446 15.4668 26.2323Z" fill="url(#paint0_linear_3757_53)"/>
</g>
<defs>
<linearGradient id="paint0_linear_3757_53" x1="-0.253381" y1="14.3769" x2="40.4432" y2="15.094" gradientUnits="userSpaceOnUse">
<stop stop-color="#351EE0"/>
<stop offset="1" stop-color="#3F74EF"/>
</linearGradient>
<clipPath id="clip0_3757_53">
<rect width="40" height="40" fill="white"/>
</clipPath>
</defs>
</svg>
