<svg width="98" height="80" viewBox="0 0 98 80" fill="none" xmlns="http://www.w3.org/2000/svg">
<g clip-path="url(#clip0_3768_1623)">
<path d="M4.02568 43.8179L3.9658 43.7578C3.9658 43.7578 3.9658 43.7578 3.9658 43.6977L3.90592 43.6376C3.90592 43.6376 3.84605 43.5775 3.84605 43.5174L0.912095 36.6053C0.792342 36.3048 0.912095 35.884 1.27135 35.7638C1.57074 35.6436 1.98987 35.7638 2.10963 36.1245L4.38493 41.594L6.66024 36.1245C6.78 35.7638 7.19913 35.6436 7.49852 35.7638C7.85777 35.884 7.97753 36.3048 7.85777 36.6053L4.9837 43.5174C4.9837 43.5174 4.9837 43.5775 4.92382 43.6376L4.86395 43.6977C4.86395 43.6977 4.86395 43.6977 4.86395 43.7578L4.80407 43.8179C4.80407 43.8179 4.74419 43.878 4.68432 43.878C4.62444 43.878 4.62444 43.878 4.56456 43.878C4.50469 43.878 4.50469 43.878 4.44481 43.878C4.38493 43.878 4.38493 43.878 4.32506 43.878C4.32506 43.878 4.26518 43.878 4.2053 43.878C4.08555 43.878 4.08555 43.8179 4.02568 43.8179Z" fill="#737373"/>
<path d="M10.0156 36.3057C10.0156 35.9451 10.315 35.6445 10.6743 35.6445C11.0335 35.6445 11.3329 35.9451 11.3329 36.3057V43.2779C11.3329 43.6385 11.0335 43.939 10.6743 43.939C10.315 43.939 10.0156 43.6385 10.0156 43.2779V36.3057Z" fill="#737373"/>
<path d="M19.3537 42.9173C19.4734 43.2779 19.2938 43.6385 18.9345 43.7587C18.8747 43.7587 18.8148 43.8188 18.695 43.8188C18.5753 43.8188 18.3956 43.8188 18.216 43.6986C18.0364 43.5784 17.9166 43.4582 17.8568 43.2779C17.6771 42.9173 17.6173 42.4965 17.6173 41.8354C17.6173 41.5949 17.5574 41.4747 17.4975 41.3545C17.4376 41.2343 17.258 41.1141 17.1382 40.9939C16.8987 40.8136 16.5994 40.7535 16.4796 40.6934H15.1024V43.2779C15.1024 43.6385 14.8031 43.939 14.4438 43.939C14.0845 43.939 13.7852 43.6385 13.7852 43.2779V36.3057C13.7852 35.9451 14.0845 35.6445 14.4438 35.6445H16.5395C17.9166 35.6445 19.0543 36.7865 19.0543 38.1689C19.0543 38.9503 18.695 39.6115 18.1561 40.0923C18.3358 40.2125 18.4555 40.3327 18.5753 40.5131C18.8148 40.8737 18.9345 41.2944 18.9345 41.7753C18.9345 42.1359 18.9345 42.3763 18.9944 42.4965C19.1142 42.6167 19.2938 42.7369 19.3537 42.9173ZM17.737 38.1689C17.737 37.5078 17.1981 36.9668 16.5395 36.9668H15.1024V39.3711H16.5395C17.1981 39.3711 17.737 38.8301 17.737 38.1689Z" fill="#737373"/>
<path d="M26.1805 36.9668H24.3243V43.2779C24.3243 43.6385 24.0249 43.939 23.6656 43.939C23.3064 43.939 23.007 43.6385 23.007 43.2779V36.9668H21.1508C20.7916 36.9668 20.4922 36.6663 20.4922 36.3057C20.4922 35.9451 20.7916 35.6445 21.1508 35.6445H26.1805C26.5397 35.6445 26.8391 35.9451 26.8391 36.3057C26.8391 36.6663 26.5397 36.9668 26.1805 36.9668Z" fill="#737373"/>
<path d="M32.1669 43.939C30.2508 43.939 28.7539 42.3763 28.7539 40.5131V36.3057C28.7539 35.9451 29.0533 35.6445 29.4125 35.6445C29.7718 35.6445 30.0712 35.9451 30.0712 36.3057V40.5131C30.0712 41.6551 31.0292 42.6167 32.1669 42.6167C33.3045 42.6167 34.2625 41.6551 34.2625 40.5131V36.3057C34.2625 35.9451 34.5619 35.6445 34.9212 35.6445C35.2805 35.6445 35.5798 35.9451 35.5798 36.3057V40.5131C35.5798 42.3763 34.023 43.939 32.1669 43.939Z" fill="#737373"/>
<path d="M42.1059 41.9556H39.2318L38.6331 43.5183C38.5133 43.7587 38.2738 43.939 38.0343 43.939C37.9744 43.939 37.8547 43.939 37.7948 43.8789C37.4355 43.7587 37.3158 43.3981 37.4355 43.0375L40.0102 36.0653C40.13 35.8248 40.3695 35.6445 40.609 35.6445C40.9084 35.6445 41.1479 35.8248 41.2078 36.0653L43.7824 43.0375C43.9022 43.3981 43.7226 43.7587 43.4232 43.8789C43.3633 43.8789 43.3034 43.939 43.1837 43.939C42.9442 43.939 42.7047 43.7587 42.5849 43.5183L42.1059 41.9556ZM41.6269 40.6934L40.6689 38.1689L39.7108 40.6934H41.6269Z" fill="#737373"/>
<path d="M45.6406 43.2779V36.3057C45.6406 35.9451 45.94 35.6445 46.2993 35.6445C46.6585 35.6445 46.9579 35.9451 46.9579 36.3057V42.6167H50.1314C50.4906 42.6167 50.79 42.9173 50.79 43.2779C50.79 43.6385 50.4906 43.939 50.1314 43.939H46.2993C45.94 43.939 45.6406 43.6385 45.6406 43.2779Z" fill="#737373"/>
<path d="M62.8857 36.3057V43.2779C62.8857 43.6385 62.5864 43.939 62.2271 43.939C61.8678 43.939 61.5685 43.6385 61.5685 43.2779V38.2892L59.8919 40.6333C59.7722 40.8136 59.5925 40.9338 59.353 40.9338C59.1135 40.9338 58.9339 40.8136 58.8141 40.6333L57.1376 38.2892V43.2779C57.1376 43.6385 56.8382 43.939 56.479 43.939C56.1197 43.939 55.8203 43.6385 55.8203 43.2779V36.3057C55.8203 35.9451 56.1197 35.6445 56.479 35.6445C56.479 35.6445 56.479 35.6445 56.5388 35.6445C56.7185 35.6445 56.958 35.7647 57.0777 35.9451L59.4129 39.1907L61.7481 35.9451C61.8678 35.7647 62.0475 35.6445 62.287 35.6445C62.5864 35.6445 62.8857 35.9451 62.8857 36.3057Z" fill="#737373"/>
<path d="M72.1658 36.6646C72.8843 37.4459 73.3633 38.4677 73.3633 39.6698C73.3633 40.8719 72.8843 41.8937 72.1658 42.6751C71.4473 43.4564 70.4294 43.9373 69.3516 43.9373C68.2139 43.9373 67.196 43.4564 66.4775 42.6751C65.759 41.8937 65.3398 40.8719 65.3398 39.6698C65.3398 38.4677 65.759 37.4459 66.4775 36.6646C67.196 35.8832 68.2139 35.4023 69.3516 35.4023C70.4294 35.4023 71.4473 35.8832 72.1658 36.6646ZM71.9861 39.6698C71.9861 38.8884 71.6868 38.1071 71.2077 37.6262C70.7287 37.0853 70.0701 36.7848 69.3516 36.7848C68.5732 36.7848 67.9145 37.0853 67.4355 37.6262C66.9565 38.1672 66.6571 38.8884 66.6571 39.6698C66.6571 40.4512 66.9565 41.2325 67.4355 41.7134C67.9145 42.2543 68.5732 42.5549 69.3516 42.5549C70.0701 42.5549 70.7287 42.2543 71.2077 41.7134C71.6868 41.2325 71.9861 40.4512 71.9861 39.6698Z" fill="#737373"/>
<path d="M76.9579 43.2749C76.9579 43.6355 76.6585 43.936 76.2993 43.936C75.94 43.936 75.6406 43.6355 75.6406 43.2749V36.4229C75.6406 36.2426 75.7005 36.0021 75.8801 35.8819C76.1795 35.7016 76.5987 35.7617 76.7783 36.0021L80.5505 41.2914V36.4229C80.5505 36.0622 80.8499 35.7617 81.2091 35.7617C81.5684 35.7617 81.8678 36.0622 81.8678 36.4229V43.2749C81.8678 43.6355 81.5684 43.936 81.2091 43.936C81.0295 43.936 80.8499 43.8158 80.7301 43.6956L80.6703 43.6355L76.898 38.4063V43.2749H76.9579Z" fill="#737373"/>
<path d="M84.7383 43.2779V36.3057C84.7383 35.9451 85.0377 35.6445 85.3969 35.6445H89.229C89.5883 35.6445 89.8877 35.9451 89.8877 36.3057C89.8877 36.6663 89.5883 36.9668 89.229 36.9668H86.0556V39.1306H88.8099C89.1691 39.1306 89.4685 39.4312 89.4685 39.7918C89.4685 40.1524 89.1691 40.4529 88.8099 40.4529H86.0556V42.6167H89.229C89.5883 42.6167 89.8877 42.9173 89.8877 43.2779C89.8877 43.6385 89.5883 43.939 89.229 43.939H85.3969C85.0377 43.939 84.7383 43.6385 84.7383 43.2779Z" fill="#737373"/>
<path d="M97.7318 36.7843L95.3367 40.0901V43.2757C95.3367 43.6363 95.0373 43.9368 94.678 43.9368C94.3188 43.9368 94.0194 43.6363 94.0194 43.2757V40.0901L91.6243 36.7843C91.3848 36.4838 91.4447 36.1231 91.7441 35.8827C92.0435 35.6423 92.4626 35.7024 92.6422 36.0029L94.678 38.7678L96.7139 36.0029C96.9534 35.7024 97.3126 35.6423 97.612 35.8827C97.8515 36.063 97.9114 36.4838 97.7318 36.7843Z" fill="#737373"/>
<path d="M11.9912 30.7739H0.914062V28.9707H10.6739C15.5838 11.9008 31.3313 0 49.1147 0C66.5986 0 82.2264 11.6003 87.3758 28.3095H97.3153V30.1127H85.9986L85.8789 29.4515C81.1486 13.163 66.0597 1.80316 49.1147 1.80316C31.8702 1.80316 16.7215 13.4636 12.1709 30.1127L11.9912 30.7739Z" fill="#737373"/>
<path d="M73.2396 30.6554H65.3359V29.7539H71.8026C67.3717 20.7381 58.5699 14.9079 49.1693 14.9079C39.2297 14.9079 30.3081 20.7381 26.1767 29.7539H32.8828V30.6554H24.8594L25.0989 30.0544C29.1705 20.3173 38.631 14.0664 49.1693 14.0664C59.1088 14.0664 68.4495 20.3173 72.8804 30.0544L73.2396 30.6554Z" fill="#737373"/>
<path d="M21.8657 25.004L21.3269 25.9657L21.746 26.4465C21.8059 26.5067 21.8059 26.6269 21.746 26.7471L21.6861 26.8072C21.5664 26.9274 21.4466 26.8673 21.3269 26.8072L19.4707 24.6434C19.4108 24.5833 19.4108 24.4631 19.4707 24.3429C19.5306 24.2227 19.5904 24.2227 19.7102 24.2227L22.5244 24.5833C22.6441 24.5833 22.7639 24.7035 22.7639 24.8838V24.9439C22.704 25.004 22.6441 25.0641 22.5244 25.0641L21.8657 25.004ZM21.3269 24.9439L20.309 24.8237L20.9676 25.6051L21.3269 24.9439Z" fill="#737373"/>
<path d="M21.5673 27.0495C21.4475 27.0495 21.3876 26.9894 21.2679 26.9293L19.4117 24.7655C19.292 24.6453 19.292 24.465 19.3518 24.3447C19.4117 24.2245 19.5913 24.1043 19.7111 24.1644L22.5253 24.5251C22.7049 24.5852 22.8845 24.7655 22.8247 24.9458C22.8247 25.0059 22.8247 25.066 22.7648 25.066C22.7049 25.1862 22.5253 25.3064 22.4055 25.2463L21.8666 25.1862L21.4475 26.0277L21.8068 26.4484C21.9265 26.5686 21.9265 26.7489 21.8666 26.8692C21.8666 26.9293 21.8068 26.9293 21.8068 26.9894C21.7469 26.9894 21.6271 27.0495 21.5673 27.0495ZM19.7111 24.3447C19.6512 24.3447 19.5913 24.3447 19.5913 24.4048C19.5315 24.4649 19.5913 24.5251 19.5913 24.5852L21.4475 26.7489C21.5074 26.8091 21.5673 26.8091 21.6271 26.7489C21.6271 26.7489 21.6271 26.7489 21.6271 26.6888C21.6271 26.6287 21.6271 26.5686 21.6271 26.5085L21.208 26.0277L21.8068 24.8857L22.5253 25.0059C22.5852 25.0059 22.645 25.0059 22.645 24.9458V24.8857C22.645 24.8256 22.5852 24.7655 22.5253 24.7054L19.7111 24.3447ZM21.0284 25.8474L20.0105 24.6453L21.5074 24.8256L21.0284 25.8474ZM20.6092 25.0059L20.9685 25.4266L21.1481 25.066L20.6092 25.0059Z" fill="#737373"/>
<path d="M23.5451 23.2026L21.3297 21.6399C21.2099 21.5798 21.2099 21.3995 21.2698 21.2793C21.3297 21.1591 21.5093 21.1591 21.6291 21.2192L23.605 22.6016L24.3235 21.5798C24.3834 21.4596 24.563 21.4596 24.6828 21.5197C24.8025 21.5798 24.8025 21.7601 24.7426 21.8803L23.9044 23.0824C23.8445 23.2627 23.6649 23.2627 23.5451 23.2026Z" fill="#737373"/>
<path d="M23.7238 23.3832C23.6639 23.3832 23.604 23.3832 23.4843 23.3231L21.2688 21.7603C21.0892 21.6401 21.0892 21.3997 21.1491 21.2194C21.209 21.1593 21.2688 21.0992 21.3886 21.0391C21.5084 21.0391 21.5682 21.0391 21.688 21.0992L23.604 22.4215L24.2627 21.5199C24.3824 21.3396 24.6219 21.3396 24.8016 21.3997C24.8614 21.4598 24.9213 21.5199 24.9812 21.6401C24.9812 21.7603 24.9812 21.8204 24.9213 21.9406L24.083 23.1427C24.0232 23.263 23.9034 23.263 23.8435 23.3231C23.7238 23.3832 23.7238 23.3832 23.7238 23.3832ZM21.5084 21.3396C21.4485 21.3396 21.3886 21.3396 21.3886 21.3997C21.3287 21.4598 21.3886 21.5199 21.4485 21.58L23.6639 23.1427C23.6639 23.1427 23.7238 23.1427 23.7837 23.1427C23.8435 23.1427 23.8435 23.1427 23.8435 23.0826L24.6818 21.8805C24.6818 21.8805 24.6818 21.8204 24.6818 21.7603C24.6818 21.7002 24.6818 21.7002 24.6219 21.7002C24.5621 21.6401 24.5022 21.7002 24.4423 21.7603L23.6639 22.9023L21.5682 21.4598C21.5682 21.3396 21.5084 21.3396 21.5084 21.3396Z" fill="#737373"/>
<path d="M25.6998 20.2563L23.664 18.5133C23.5443 18.4532 23.5443 18.2729 23.664 18.1527C23.7838 18.0324 23.9035 18.0324 24.0233 18.1527L25.8795 19.7755L26.7177 18.8138C26.7776 18.6936 26.9572 18.6936 27.077 18.8138C27.1968 18.8739 27.1968 19.0542 27.077 19.1744L26.119 20.3164C25.9992 20.3164 25.8196 20.3765 25.6998 20.2563Z" fill="#737373"/>
<path d="M25.8794 20.4385C25.8196 20.4385 25.6998 20.3784 25.6399 20.3183L23.6041 18.5752C23.5443 18.5151 23.4844 18.3949 23.4844 18.3348C23.4844 18.2146 23.4844 18.1545 23.6041 18.0343C23.664 17.9742 23.7838 17.9141 23.8436 17.9141C23.9634 17.9141 24.0233 17.9141 24.0831 17.9742L25.8196 19.4768L26.5381 18.6353C26.598 18.5752 26.7177 18.5151 26.7776 18.5151C26.8973 18.5151 26.9572 18.5151 27.077 18.6353C27.1368 18.6954 27.1967 18.8156 27.1967 18.8757C27.1967 18.996 27.1967 19.0561 27.1368 19.1162L26.1788 20.2582C26.1189 20.3784 25.9992 20.4385 25.8794 20.4385ZM23.8436 18.1545C23.7838 18.1545 23.7838 18.1545 23.7239 18.2146C23.7239 18.2146 23.664 18.2747 23.664 18.3348C23.664 18.3949 23.664 18.3949 23.7239 18.3949L25.7597 20.138C25.7597 20.138 25.8196 20.1981 25.8794 20.1981C25.9393 20.1981 25.9393 20.1981 25.9992 20.138L26.9572 18.996C26.9572 18.996 27.0171 18.9359 26.9572 18.8757C26.9572 18.8156 26.9572 18.8156 26.8973 18.8156C26.8973 18.8156 26.8375 18.7555 26.7776 18.7555C26.7177 18.7555 26.7177 18.7555 26.7177 18.8156L25.8196 19.8374L23.9035 18.1545C23.9035 18.1545 23.9035 18.1545 23.8436 18.1545Z" fill="#737373"/>
<path d="M29.0477 14.904C28.5088 14.1827 28.6885 13.1609 29.407 12.5599C29.7064 12.3194 30.0656 12.1992 30.4847 12.1992C30.6045 12.1992 30.7243 12.3194 30.7243 12.4396C30.7243 12.5599 30.6045 12.6801 30.4847 12.6801C30.2452 12.6801 29.9459 12.7402 29.7662 12.9205C29.5267 13.1008 29.3471 13.4013 29.2872 13.7018C29.2273 14.0024 29.2872 14.3029 29.5267 14.5433C29.7064 14.7837 30.0057 14.9641 30.2452 14.9641C30.5446 14.9641 30.844 14.904 31.0835 14.7236C31.323 14.5433 31.4428 14.363 31.5026 14.0625C31.5625 13.9423 31.6823 13.8221 31.802 13.8822C31.9218 13.9423 32.0415 14.0625 31.9817 14.1827C31.8619 14.5433 31.6823 14.8438 31.3829 15.0843C30.6644 15.7454 29.5866 15.6252 29.0477 14.904Z" fill="#737373"/>
<path d="M30.3664 15.6267C29.8275 15.6267 29.2886 15.3863 28.9892 14.9656C28.3905 14.1842 28.5701 13.1023 29.3485 12.5013C29.7077 12.2608 30.067 12.1406 30.4861 12.1406C30.6658 12.1406 30.8454 12.3209 30.8454 12.5013C30.8454 12.7417 30.6658 12.922 30.4861 12.8619C30.2466 12.8619 30.0071 12.922 29.8275 13.1023C29.588 13.2826 29.4682 13.523 29.4084 13.7635C29.3485 14.064 29.4682 14.3044 29.588 14.4847C29.7676 14.7251 30.0071 14.8454 30.2466 14.8454C30.546 14.8454 30.7855 14.7853 31.025 14.6049C31.2047 14.4246 31.3843 14.2443 31.3843 14.0039C31.4442 13.8236 31.6238 13.7034 31.8633 13.7635C32.0429 13.8236 32.1627 14.0039 32.1627 14.2443C32.0429 14.665 31.8034 14.9656 31.504 15.206C31.1448 15.5065 30.7256 15.6267 30.3664 15.6267ZM29.1689 14.8454C29.7077 15.5065 30.6658 15.6267 31.3244 15.0858C31.6238 14.8454 31.8034 14.5448 31.9232 14.2443C31.9232 14.1842 31.9232 14.1241 31.8034 14.064C31.7435 14.064 31.6238 14.1241 31.6238 14.1842C31.5639 14.4847 31.3843 14.7251 31.1448 14.9055C30.9053 15.0858 30.546 15.206 30.1868 15.1459C29.8874 15.0858 29.588 14.9055 29.3485 14.665C29.1689 14.4246 29.0491 14.064 29.109 13.7635C29.1689 13.4028 29.3485 13.1023 29.588 12.922C29.8275 12.7417 30.1269 12.6215 30.4263 12.6215C30.4861 12.6215 30.546 12.5614 30.546 12.5013C30.546 12.4411 30.4861 12.381 30.4263 12.381C30.067 12.381 29.7676 12.5013 29.4682 12.7417C28.8096 13.1624 28.63 14.1842 29.1689 14.8454Z" fill="#737373"/>
<path d="M35.5173 12.0811C35.637 12.2013 35.637 12.3215 35.5173 12.4418L35.4574 12.5019C35.3975 12.5019 35.3376 12.562 35.2778 12.562C35.2179 12.562 35.158 12.562 35.0981 12.5019C34.9784 12.4418 34.8586 12.2614 34.7389 12.0811C34.679 12.021 34.6191 11.9609 34.6191 11.9609C34.5592 11.9008 34.4994 11.9008 34.4395 11.9008C34.3197 11.9008 34.2 11.9008 34.1401 11.9609L33.6611 12.2013L34.1401 13.0428C34.2 13.163 34.1401 13.3433 34.0203 13.4034C33.9006 13.4635 33.721 13.4034 33.6611 13.2832L32.3438 10.9391C32.2839 10.8189 32.3438 10.6386 32.4636 10.5785L33.1821 10.2179C33.6611 9.97745 34.2599 10.0977 34.4994 10.5785C34.6191 10.8189 34.679 11.1194 34.5592 11.42C34.6191 11.42 34.679 11.4801 34.7987 11.4801C34.9185 11.5402 35.0981 11.6604 35.158 11.8407C35.2179 11.9609 35.2778 12.021 35.2778 12.0811C35.3975 12.021 35.4574 12.0811 35.5173 12.0811ZM34.0802 10.8189C33.9605 10.5785 33.6611 10.5184 33.4216 10.6386L32.9426 10.9391L33.4216 11.7806L33.9006 11.4801C34.1401 11.3599 34.2 11.0593 34.0802 10.8189Z" fill="#737373"/>
<path d="M33.9005 13.5254C33.8406 13.5254 33.8406 13.5254 33.7807 13.5254C33.661 13.5254 33.6011 13.4653 33.5412 13.3451L32.2239 11.001C32.1641 10.9409 32.1641 10.8207 32.1641 10.7005C32.1641 10.5803 32.2239 10.5201 32.3437 10.46L33.0622 10.0393C33.6011 9.73878 34.2597 9.91909 34.5591 10.46C34.6789 10.7005 34.7388 11.001 34.6789 11.2414C34.7388 11.2414 34.7388 11.2414 34.7986 11.3015C34.9783 11.3616 35.098 11.5419 35.2178 11.7222C35.2776 11.7824 35.2776 11.8425 35.3375 11.9026C35.3974 11.9026 35.5171 11.9627 35.577 12.0228C35.7567 12.143 35.7567 12.3834 35.577 12.5637C35.577 12.5637 35.5171 12.6238 35.4573 12.6238C35.3974 12.6839 35.3375 12.6839 35.2178 12.6839C35.098 12.6839 35.0381 12.6238 34.9783 12.6238C34.8585 12.5036 34.7388 12.3834 34.5591 12.143C34.4992 12.0829 34.4992 12.0829 34.4394 12.0228C34.4394 12.0228 34.3795 12.0228 34.3196 11.9627C34.1999 11.9627 34.14 11.9627 34.0801 11.9627L33.7209 12.143L34.14 12.9244C34.2597 13.1047 34.1999 13.3451 34.0202 13.4052C34.0202 13.5254 33.9604 13.5254 33.9005 13.5254ZM33.661 10.2196C33.5412 10.2196 33.3616 10.2797 33.2418 10.3398L32.5233 10.7606C32.4634 10.7606 32.4634 10.8207 32.4634 10.8207C32.4634 10.8808 32.4634 10.8808 32.4634 10.9409L33.7807 13.2249C33.7807 13.285 33.8406 13.285 33.8406 13.285C33.9005 13.285 33.9005 13.285 33.9604 13.285C34.0202 13.2249 34.0202 13.1648 34.0202 13.1047L33.4813 12.143L34.0801 11.8425C34.14 11.8425 34.3196 11.7824 34.4394 11.7824C34.5591 11.7824 34.619 11.7824 34.6789 11.8425C34.7388 11.9026 34.7986 11.9627 34.8585 12.0228C34.9783 12.2031 35.098 12.3233 35.1579 12.4435C35.2178 12.4435 35.2776 12.5036 35.2776 12.5036C35.3375 12.5036 35.3974 12.5036 35.3974 12.5036C35.4573 12.5036 35.4573 12.4435 35.4573 12.4435C35.5171 12.3834 35.5171 12.3233 35.4573 12.2632C35.3974 12.2632 35.3974 12.2031 35.3375 12.2632H35.2776L35.2178 12.2031C35.1579 12.143 35.098 12.0829 35.0381 11.9627C34.9783 11.8425 34.8585 11.7222 34.7388 11.6621C34.6789 11.6621 34.619 11.602 34.5591 11.602H34.4394L34.4992 11.4818C34.619 11.2414 34.5591 11.001 34.4394 10.7606C34.3196 10.5803 34.14 10.3999 33.9005 10.3398C33.8406 10.2196 33.7209 10.2196 33.661 10.2196ZM33.3616 11.9026L32.7628 10.8808L33.3616 10.5201C33.661 10.3398 34.0202 10.46 34.14 10.7606C34.1999 10.8808 34.2597 11.0611 34.1999 11.1813C34.14 11.3616 34.0801 11.4818 33.9005 11.5419L33.3616 11.9026ZM33.1221 10.9409L33.4813 11.5419L33.8406 11.3015C33.9005 11.2414 33.9604 11.1813 34.0202 11.0611C34.0202 11.001 34.0202 10.8808 33.9604 10.8207C33.8406 10.6404 33.661 10.5803 33.4813 10.7005L33.1221 10.9409Z" fill="#737373"/>
<path d="M38.2104 8.29547L37.8511 9.85821L38.3301 11.0002C38.39 11.1204 38.3301 11.3007 38.2104 11.3007C38.0906 11.3608 37.911 11.3007 37.911 11.1805L37.3721 10.0385L36.0548 9.19705C35.9351 9.13694 35.8752 8.95663 35.995 8.83642C36.0548 8.71621 36.2345 8.6561 36.3542 8.77631L37.4919 9.49757L37.7913 8.23537C37.8511 8.11515 37.9709 7.99494 38.0906 8.05505C38.2104 8.05505 38.2703 8.17526 38.2104 8.29547Z" fill="#737373"/>
<path d="M38.093 11.4828C37.9732 11.4828 37.7936 11.4227 37.7337 11.2424L37.2547 10.1605L35.9374 9.31904C35.8776 9.25893 35.8177 9.19883 35.7578 9.07862C35.7578 8.9584 35.7578 8.8983 35.8177 8.77809C35.8776 8.71798 35.9374 8.65788 36.0572 8.59777C36.1769 8.59777 36.2368 8.59777 36.3566 8.65788L37.3146 9.25893L37.614 8.11693C37.6739 7.93662 37.8535 7.81641 38.093 7.81641C38.2726 7.87651 38.3924 8.05683 38.3325 8.23714L37.9732 9.85998L38.4523 10.9419C38.5121 11.0621 38.5121 11.1222 38.4523 11.2424C38.3924 11.3626 38.3325 11.4227 38.2726 11.4227C38.2128 11.4828 38.1529 11.4828 38.093 11.4828ZM36.1769 8.8983C36.1171 8.8983 36.1171 8.9584 36.0572 8.9584C36.0572 8.9584 36.0572 9.01851 36.0572 9.07862C36.0572 9.13872 36.0572 9.13872 36.1171 9.13872L37.4942 9.98019L37.9732 11.1823C37.9732 11.2424 38.093 11.3025 38.1529 11.2424C38.2128 11.2424 38.2128 11.1823 38.2128 11.1823C38.2128 11.1222 38.2128 11.1222 38.2128 11.0621L37.7337 9.85998L38.093 8.29725C38.093 8.23714 38.093 8.17704 37.9732 8.11693C37.9134 8.11693 37.8535 8.11693 37.7936 8.23714L37.4344 9.67967L36.1769 8.8983Z" fill="#737373"/>
<path d="M41.505 8.89738L40.9661 9.0777L41.2056 10.0394C41.2655 10.1596 41.1458 10.3399 41.026 10.3399C40.9063 10.4 40.7266 10.2798 40.7266 10.1596L40.0081 7.57507C39.9482 7.45486 40.068 7.27454 40.1877 7.27454L40.9661 7.03412C41.505 6.91391 42.0439 7.21444 42.1637 7.75539C42.3433 8.23623 41.984 8.77717 41.505 8.89738ZM40.8464 8.59686L41.3853 8.47665C41.6248 8.41654 41.8044 8.17612 41.7445 7.8756C41.6847 7.63518 41.4452 7.45486 41.1458 7.51496L40.6069 7.63518L40.8464 8.59686Z" fill="#737373"/>
<path d="M40.9684 10.4587C40.9085 10.4587 40.8486 10.4587 40.7887 10.3986C40.7288 10.3385 40.669 10.2783 40.6091 10.1581L39.8906 7.57362C39.8307 7.3933 39.9505 7.15288 40.1301 7.09277L40.9085 6.85235C41.2079 6.79225 41.5072 6.79225 41.7468 6.97256C41.9863 7.09277 42.1659 7.3332 42.2856 7.63372C42.3455 7.93425 42.3455 8.23477 42.1659 8.47519C42.0461 8.71561 41.8066 8.89593 41.5072 9.01614L41.0881 9.13635L41.3276 9.97782C41.3276 10.098 41.3276 10.1581 41.2677 10.2783C41.2079 10.3385 41.148 10.3986 41.0282 10.4587H40.9684ZM41.2677 7.09277C41.2079 7.09277 41.0881 7.09277 41.0282 7.15288L40.2498 7.3933C40.19 7.3933 40.1301 7.51351 40.1301 7.57362L40.8486 10.1581C40.8486 10.2182 40.9085 10.2182 40.9085 10.2182C40.9684 10.2182 40.9684 10.2182 41.0282 10.2182C41.0881 10.2182 41.0881 10.1581 41.0881 10.1581C41.0881 10.098 41.0881 10.098 41.0881 10.0379L40.7887 8.95603L41.4474 8.77572C41.6869 8.71561 41.8665 8.5954 41.9863 8.35498C42.106 8.17467 42.106 7.93425 42.0461 7.69383C41.9863 7.45341 41.8665 7.27309 41.627 7.15288C41.5671 7.15288 41.3875 7.09277 41.2677 7.09277ZM40.7288 8.71561L40.4295 7.57362L41.0881 7.3933C41.3875 7.3332 41.7468 7.51351 41.8066 7.81404C41.8665 8.11456 41.6869 8.47519 41.3875 8.5353L40.7288 8.71561ZM40.7288 7.75393L40.9085 8.41509L41.3276 8.29488C41.5072 8.23477 41.627 8.05446 41.5671 7.87414C41.5072 7.69383 41.3276 7.57362 41.148 7.63372L40.7288 7.75393Z" fill="#737373"/>
<path d="M46.0019 6.60975L45.2834 6.72996L45.5827 9.13417C45.5827 9.25438 45.5229 9.37459 45.3432 9.43469C45.2235 9.43469 45.1037 9.37459 45.0438 9.19427L44.7445 6.79006L44.0259 6.91027C43.9062 6.91027 43.7864 6.85017 43.7266 6.66985C43.7266 6.54964 43.7864 6.42943 43.9661 6.36933L45.8821 6.12891C46.0019 6.12891 46.1216 6.18901 46.1815 6.36933C46.2414 6.48954 46.1216 6.60975 46.0019 6.60975Z" fill="#737373"/>
<path d="M45.3406 9.55641C45.161 9.55641 44.9813 9.4362 44.9813 9.25589L44.682 6.97189L44.0832 7.032C43.9036 7.032 43.7239 6.91178 43.6641 6.73147C43.6641 6.61126 43.6641 6.55115 43.7239 6.43094C43.7838 6.37084 43.8437 6.31073 43.9634 6.31073L45.8795 6.07031C46.0591 6.07031 46.2388 6.19052 46.2986 6.37084C46.2986 6.55115 46.1789 6.79157 45.9992 6.79157L45.4005 6.85168L45.6999 9.13568C45.6999 9.25589 45.6999 9.31599 45.64 9.4362C45.5801 9.49631 45.4604 9.49631 45.3406 9.55641ZM44.8616 6.67136L45.2209 9.19578C45.2209 9.25589 45.2807 9.31599 45.3406 9.31599C45.4005 9.31599 45.4604 9.25589 45.4604 9.19578L45.1011 6.61126L45.9394 6.49105C45.9992 6.49105 46.0591 6.43094 46.0591 6.31073C46.0591 6.25063 45.9992 6.19052 45.9394 6.19052L44.0233 6.43094C43.9634 6.43094 43.9634 6.43094 43.9634 6.49105C43.9634 6.49105 43.9634 6.55115 43.9634 6.61126C43.9634 6.67136 44.0233 6.73147 44.0832 6.73147L44.8616 6.67136Z" fill="#737373"/>
<path d="M50.6632 6.37147C50.9626 6.67199 51.1422 7.09273 51.0823 7.51346C51.0823 7.99431 50.9027 8.35494 50.6033 8.65546C50.3039 8.95599 49.9447 9.1363 49.5255 9.1363C49.1064 9.1363 48.6873 8.95599 48.3879 8.65546C48.0885 8.35494 47.9688 7.9342 47.9688 7.51346C47.9688 7.03262 48.1484 6.67199 48.4478 6.37147C48.7471 6.07094 49.1064 5.89062 49.5854 5.89062C50.0046 5.89063 50.3638 6.07094 50.6632 6.37147ZM50.6033 7.51346C50.6033 7.21294 50.4836 6.91241 50.3039 6.7321C50.1243 6.55178 49.8848 6.43157 49.5854 6.37147C49.286 6.37147 49.0465 6.49168 48.8669 6.67199C48.6873 6.85231 48.5675 7.15283 48.5675 7.45336C48.5675 7.75389 48.6873 8.05441 48.8669 8.23473C49.0465 8.41504 49.286 8.59536 49.5854 8.59536C49.8848 8.59536 50.1243 8.47515 50.3039 8.29483C50.4237 8.11452 50.5434 7.81399 50.6033 7.51346Z" fill="#737373"/>
<path d="M49.5281 9.25714C49.0491 9.25714 48.63 9.07683 48.3306 8.7162C48.0312 8.35557 47.8516 7.93483 47.8516 7.45399C47.8516 6.97315 48.0312 6.55241 48.3306 6.25188C48.63 5.95136 49.0491 5.71094 49.5281 5.71094C49.9472 5.71094 50.4263 5.89125 50.7256 6.25188C51.025 6.61251 51.2046 7.03325 51.2046 7.51409C51.2046 7.99493 51.025 8.41567 50.7256 8.7763C50.4263 9.07683 49.9472 9.25714 49.5281 9.25714ZM49.5281 6.01146C49.1688 6.01146 48.7497 6.19178 48.5102 6.4322C48.2108 6.73273 48.0911 7.09336 48.0911 7.51409C48.0911 7.93483 48.2108 8.29546 48.5102 8.59599C48.7497 8.89651 49.1688 9.07683 49.5281 9.07683C49.8874 9.07683 50.2466 8.89651 50.546 8.65609C50.8454 8.35557 50.9651 7.99493 50.9651 7.5742C50.9651 7.15346 50.8454 6.79283 50.546 6.4923C50.3065 6.19178 49.9472 6.01146 49.5281 6.01146ZM49.5281 8.7763C49.2287 8.7763 48.9293 8.65609 48.6898 8.41567C48.4503 8.17525 48.3306 7.87472 48.3306 7.51409C48.3306 7.15346 48.4503 6.85294 48.6898 6.61252C48.9293 6.37209 49.2287 6.25188 49.5281 6.25188C49.8275 6.25188 50.1269 6.37209 50.3065 6.61252C50.546 6.85294 50.6658 7.15346 50.6658 7.51409C50.6658 7.81462 50.546 8.17525 50.3065 8.41567C50.1269 8.65609 49.8275 8.7763 49.5281 8.7763ZM49.5281 6.4923C49.2886 6.4923 49.0491 6.61252 48.8695 6.79283C48.6898 6.97315 48.5701 7.21357 48.5701 7.51409C48.5701 7.81462 48.6898 8.05504 48.8096 8.23535C48.9892 8.41567 49.2287 8.53588 49.4682 8.53588C49.7077 8.53588 49.9472 8.41567 50.067 8.23535C50.2466 8.05504 50.3664 7.81462 50.3664 7.51409C50.3664 7.27367 50.2466 6.97315 50.1269 6.79283C50.0071 6.61252 49.7676 6.4923 49.5281 6.4923Z" fill="#737373"/>
<path d="M52.9984 7.69415C53.178 6.79257 54.0163 6.19152 54.9145 6.37183C55.3336 6.43194 55.633 6.61225 55.8725 6.91278C55.9922 7.03299 55.9324 7.1532 55.8725 7.27341C55.7527 7.39362 55.5731 7.33352 55.5132 7.27341C55.3336 7.0931 55.0941 6.97288 54.8546 6.91278C54.5552 6.85267 54.2558 6.91278 54.0163 7.0931C53.7768 7.27341 53.5972 7.51383 53.5373 7.81436C53.4774 8.11488 53.5373 8.41541 53.7169 8.65583C53.8966 8.89625 54.1361 9.07657 54.4953 9.13667C54.7947 9.19678 55.0342 9.13667 55.2737 9.01646C55.3935 8.95636 55.5731 9.01646 55.633 9.13667C55.6928 9.25688 55.633 9.4372 55.5132 9.4973C55.154 9.61751 54.7348 9.67762 54.3756 9.61751C53.4774 9.4372 52.8188 8.59572 52.9984 7.69415Z" fill="#737373"/>
<path d="M54.6775 9.73844C54.5578 9.73844 54.438 9.73844 54.3781 9.73844C53.4201 9.55812 52.7615 8.65655 52.8812 7.69486C53.0609 6.73318 53.959 6.07202 54.917 6.25234C55.3362 6.31244 55.6954 6.49276 55.9349 6.79328C56.0547 6.9736 56.0547 7.21402 55.9349 7.33423C55.7553 7.45444 55.5158 7.45444 55.396 7.33423C55.2164 7.15392 55.0368 7.03371 54.7973 6.9736C54.5578 6.9135 54.2584 6.9736 54.0189 7.15392C53.7794 7.33423 53.6596 7.51455 53.5997 7.81507C53.5399 8.05549 53.5997 8.35602 53.7794 8.53633C53.959 8.77676 54.1985 8.89697 54.438 8.95707C54.6775 9.01718 54.917 8.95707 55.0967 8.83686C55.2763 8.71665 55.5158 8.83686 55.6356 9.01718C55.7553 9.19749 55.6355 9.43791 55.4559 9.55812C55.2763 9.67833 54.9769 9.73844 54.6775 9.73844ZM53.1207 7.75497C53.001 8.59644 53.5399 9.37781 54.3781 9.49802C54.7374 9.55812 55.0967 9.49802 55.396 9.3177C55.4559 9.2576 55.4559 9.19749 55.4559 9.13739C55.396 9.07728 55.3362 9.07728 55.2763 9.07728C55.0368 9.19749 54.7374 9.2576 54.438 9.19749C54.1386 9.13739 53.8393 8.95707 53.5997 8.71665C53.4201 8.47623 53.3004 8.1156 53.3602 7.75497C53.4201 7.45444 53.5997 7.15392 53.8393 6.9736C54.1386 6.79328 54.438 6.73318 54.7973 6.79328C55.0967 6.85339 55.3362 6.9736 55.5757 7.21402C55.6356 7.27413 55.6954 7.27413 55.7553 7.21402C55.8152 7.15392 55.8152 7.09381 55.7553 7.03371C55.5158 6.79328 55.2164 6.61297 54.8572 6.55286C54.0189 6.37255 53.2405 6.91349 53.1207 7.75497Z" fill="#737373"/>
<path d="M58.5684 10.6994C57.8499 10.459 57.4906 9.73775 57.7301 9.01649L58.269 7.45375C58.3289 7.33354 58.4487 7.27344 58.5684 7.27344C58.6882 7.33354 58.748 7.45375 58.748 7.57396L58.2092 9.1367C58.0894 9.55743 58.269 10.0383 58.6882 10.1585C59.1073 10.2787 59.5863 10.0984 59.7061 9.67764L60.245 8.11491C60.3048 7.9947 60.4246 7.93459 60.5443 7.93459C60.6641 7.9947 60.724 8.11491 60.724 8.23512L60.1851 9.79785C60.0055 10.5792 59.2271 10.9399 58.5684 10.6994Z" fill="#737373"/>
<path d="M58.9896 10.8813C58.8099 10.8813 58.6902 10.8813 58.5106 10.8212C57.7322 10.5807 57.3729 9.73927 57.6124 9.01801L58.1513 7.45527C58.2112 7.27496 58.4507 7.15475 58.6303 7.21485C58.7501 7.27496 58.81 7.33506 58.8698 7.39517C58.9297 7.45527 58.9297 7.57549 58.8698 7.6957L58.3309 9.19832C58.2112 9.55896 58.3908 9.97969 58.7501 10.0999C58.9297 10.16 59.1093 10.16 59.289 10.0398C59.4686 9.97969 59.5883 9.79938 59.6482 9.61906L60.1871 8.05633C60.247 7.87601 60.4865 7.7558 60.6661 7.81591C60.8458 7.87601 60.9655 8.11643 60.9056 8.29675L60.3667 9.85948C60.1272 10.5206 59.5883 10.8813 58.9896 10.8813ZM58.5704 10.5807C59.1692 10.8212 59.8877 10.4605 60.0674 9.79938L60.6062 8.23664C60.6062 8.17654 60.6062 8.17654 60.6062 8.11643C60.6062 8.05633 60.5464 8.05633 60.5464 8.05633C60.4865 8.05633 60.4865 8.05633 60.4266 8.05633C60.3667 8.05633 60.3667 8.11643 60.3667 8.11643L59.8279 9.67917C59.768 9.91959 59.5883 10.0999 59.3488 10.2201C59.1093 10.3403 58.8698 10.3403 58.6303 10.2802C58.1513 10.0999 57.9118 9.55896 58.0316 9.07811L58.5704 7.51538C58.5704 7.45527 58.5704 7.45527 58.5704 7.39517C58.5704 7.33506 58.5106 7.33506 58.5106 7.33506C58.4507 7.33506 58.3908 7.33506 58.3309 7.39517L57.792 8.9579C57.6124 9.67917 57.9717 10.3403 58.5704 10.5807Z" fill="#737373"/>
<path d="M63.6596 12.5028C63.6596 12.623 63.5398 12.7432 63.3602 12.7432C63.3602 12.7432 63.3003 12.7432 63.2404 12.6831C63.1806 12.6831 63.1207 12.623 63.1207 12.5629C63.0608 12.5028 63.0608 12.4426 63.0608 12.3825C63.0608 12.2623 63.1207 12.082 63.2404 11.8416C63.3003 11.7815 63.3003 11.7214 63.3003 11.6613C63.3003 11.6012 63.2404 11.5411 63.2404 11.481C63.1806 11.3608 63.1207 11.3006 63.0608 11.2405L62.5818 11.0001L62.1627 11.9017C62.1028 12.0219 61.9232 12.082 61.8034 12.0219C61.6836 11.9618 61.6238 11.7815 61.6836 11.6613L62.8812 9.25707C62.9411 9.13686 63.1207 9.07676 63.2404 9.13686L63.959 9.49749C64.438 9.73791 64.6176 10.339 64.3781 10.8198C64.2583 11.0602 64.0188 11.2405 63.7194 11.3006C63.7793 11.3608 63.7793 11.4209 63.7793 11.5411C63.7793 11.7214 63.7793 11.9017 63.7194 12.0219C63.6596 12.1421 63.5997 12.2022 63.5997 12.2623C63.6596 12.3825 63.7194 12.4426 63.6596 12.5028ZM63.959 10.5794C64.0787 10.339 63.959 10.0384 63.7793 9.91823L63.3003 9.67781L62.8812 10.5193L63.3602 10.7597C63.5398 10.94 63.8392 10.8198 63.959 10.5794Z" fill="#737373"/>
<path d="M63.4192 12.8617C63.3593 12.8617 63.2995 12.8617 63.2396 12.8016C63.1797 12.8016 63.1198 12.7415 63.06 12.6213C63.0001 12.5612 63.0001 12.441 63.0001 12.3809C63.0001 12.2006 63.06 12.0203 63.1797 11.7798C63.1797 11.7197 63.1797 11.6596 63.1797 11.6596C63.1797 11.6596 63.1797 11.5995 63.1198 11.5394C63.06 11.4793 63.0001 11.3591 62.9402 11.3591L62.5809 11.1788L62.1618 11.9601C62.0421 12.1405 61.8624 12.2006 61.6828 12.1405C61.6229 12.0804 61.5032 12.0203 61.5032 11.9C61.4433 11.7798 61.5032 11.7197 61.5032 11.5995L62.7007 9.19531C62.7606 9.13521 62.8205 9.01499 62.9402 9.01499C63.06 8.95489 63.1198 9.01499 63.2396 9.01499L63.9581 9.37563C64.1976 9.49584 64.4371 9.73626 64.497 10.0368C64.6168 10.3373 64.5569 10.6378 64.4371 10.8783C64.3174 11.1187 64.0779 11.299 63.8384 11.4192C63.8384 11.4793 63.8384 11.4793 63.8384 11.5394C63.8384 11.7197 63.8384 11.9601 63.7186 12.1405C63.6587 12.2006 63.6587 12.2607 63.6587 12.3208C63.7186 12.3809 63.7186 12.5011 63.7186 12.5612C63.7785 12.7415 63.5989 12.8617 63.4192 12.8617ZM62.5211 10.8182L63.1198 11.1187C63.1797 11.1788 63.2995 11.2389 63.3593 11.3591C63.4192 11.4192 63.4192 11.5394 63.4192 11.5995C63.4192 11.6596 63.4192 11.7798 63.3593 11.8399C63.2396 12.0203 63.2396 12.2006 63.1797 12.3208C63.1797 12.3809 63.1797 12.441 63.2396 12.441C63.2396 12.5011 63.2995 12.5011 63.2995 12.5011C63.3593 12.5011 63.3593 12.5011 63.3593 12.5011C63.4192 12.5011 63.4791 12.441 63.4791 12.3809C63.4791 12.3208 63.4791 12.3208 63.4192 12.2607L63.3593 12.2006V12.1405C63.3593 12.0804 63.4192 11.9601 63.4791 11.8399C63.539 11.7197 63.5989 11.5394 63.539 11.4192C63.539 11.3591 63.539 11.299 63.4791 11.2389L63.4192 11.1187L63.539 11.0586C63.7785 10.9985 64.018 10.8182 64.1377 10.6378C64.3772 10.2171 64.1976 9.67615 63.7785 9.49584L63.06 9.1352C63.0001 9.1352 63.0001 9.1352 62.9402 9.1352C62.8803 9.1352 62.8803 9.19531 62.8803 9.19531L61.6828 11.5995C61.6828 11.6596 61.6828 11.6596 61.6828 11.7197C61.6828 11.7798 61.7427 11.7798 61.7427 11.7798C61.8026 11.8399 61.8624 11.7798 61.9223 11.7197L62.5211 10.8182ZM63.539 10.9384C63.4192 10.9384 63.3593 10.9384 63.2995 10.8783L62.7007 10.5777L63.2396 9.49584L63.8384 9.79636C64.1377 9.91657 64.2575 10.2772 64.0779 10.5777C64.018 10.6979 63.8982 10.8182 63.7186 10.8783C63.6587 10.9384 63.5989 10.9384 63.539 10.9384ZM62.9402 10.5176L63.3593 10.6979C63.4192 10.758 63.539 10.758 63.5989 10.6979C63.6587 10.6979 63.7785 10.6378 63.7785 10.5176C63.8384 10.3373 63.7785 10.157 63.5989 10.0368L63.1797 9.85647L62.9402 10.5176Z" fill="#737373"/>
<path d="M67.0101 14.6671C66.9502 14.7873 66.8304 14.9075 66.7107 14.8474C66.7107 14.8474 66.6508 14.8474 66.5909 14.7873C66.5311 14.7873 66.5311 14.7272 66.4712 14.6671C66.4712 14.607 66.4113 14.5469 66.4113 14.4267C66.4113 14.3065 66.4712 14.1261 66.6508 13.9458C66.7107 13.8857 66.7107 13.8256 66.7107 13.7655C66.7107 13.7054 66.7107 13.6453 66.6508 13.5852C66.5909 13.465 66.5311 13.4049 66.4712 13.3448L66.052 13.0443L65.5132 13.8857C65.4533 14.0059 65.2736 14.0059 65.1539 13.9458C65.0341 13.8857 65.0341 13.7054 65.094 13.5852L66.5909 11.3613C66.6508 11.2411 66.8304 11.2411 66.9502 11.3012L67.6088 11.782C68.0878 12.0826 68.1477 12.6836 67.8483 13.1645C67.6687 13.4049 67.4292 13.5852 67.1298 13.5852C67.1298 13.6453 67.1897 13.7054 67.1897 13.8256C67.1897 14.0059 67.1298 14.1862 67.0101 14.3065C66.9502 14.4267 66.8903 14.4868 66.8903 14.5469C67.0101 14.4868 67.0101 14.5469 67.0101 14.6671ZM67.4891 12.8038C67.6088 12.5634 67.6088 12.2629 67.3693 12.1427L66.8903 11.8421L66.3514 12.6235L66.8304 12.924C67.0699 13.0442 67.3693 12.9841 67.4891 12.8038Z" fill="#737373"/>
<path d="M66.7727 14.9664C66.7128 14.9664 66.7128 14.9664 66.6529 14.9664C66.593 14.9664 66.593 14.9664 66.5332 14.9062C66.4733 14.8461 66.4134 14.786 66.3535 14.7259C66.2937 14.6057 66.2937 14.5456 66.2937 14.4254C66.2937 14.2451 66.4134 14.0648 66.5332 13.8845C66.593 13.8244 66.593 13.7643 66.593 13.7643C66.593 13.7643 66.593 13.7041 66.5332 13.644C66.4733 13.5238 66.4134 13.4637 66.4134 13.4637L66.114 13.2233L65.635 13.9446C65.5153 14.1249 65.2757 14.185 65.0961 14.0648C64.9165 13.9446 64.8566 13.7041 64.9764 13.5238L66.4733 11.2999C66.593 11.1196 66.8325 11.0595 67.0122 11.1797L67.6708 11.6606C68.1498 12.0212 68.3295 12.6824 67.9702 13.1632C67.7906 13.4036 67.5511 13.5839 67.3116 13.644C67.3116 13.7041 67.3116 13.7041 67.3116 13.7643C67.3116 13.9446 67.2517 14.185 67.1319 14.3052C67.072 14.3653 67.072 14.4254 67.0122 14.4855C67.072 14.5456 67.072 14.6658 67.0122 14.7259C67.072 14.8461 66.8924 14.9664 66.7727 14.9664ZM66.0541 12.8627L66.593 13.2233C66.6529 13.2834 66.7128 13.4036 66.7727 13.5238C66.8325 13.644 66.8325 13.7041 66.8325 13.7643C66.8325 13.8244 66.8325 13.9446 66.7727 14.0047C66.6529 14.185 66.593 14.3653 66.5332 14.4855C66.5332 14.5456 66.5332 14.6057 66.5332 14.6057C66.5332 14.6658 66.593 14.6658 66.593 14.7259C66.593 14.7259 66.6529 14.7259 66.6529 14.786C66.7128 14.786 66.7727 14.786 66.8325 14.6658C66.8325 14.6057 66.8325 14.6057 66.8325 14.5456L66.7727 14.4855V14.4254C66.8325 14.3653 66.8325 14.2451 66.8924 14.185C66.9523 14.0648 67.0122 13.8845 67.0122 13.7643C67.0122 13.7041 67.0122 13.644 66.9523 13.5839L66.8924 13.4637H67.0122C67.2517 13.4637 67.4912 13.2834 67.6109 13.1031C67.7307 12.9228 67.7906 12.6824 67.7307 12.4419C67.6708 12.2015 67.5511 12.0212 67.3714 11.901L66.7128 11.4201C66.6529 11.36 66.593 11.36 66.5332 11.4803L65.0362 13.7041C64.9764 13.7643 65.0362 13.8244 65.0961 13.8845C65.156 13.9446 65.2159 13.8845 65.2757 13.8244L66.0541 12.8627ZM67.1319 13.1031C67.0122 13.1031 66.8924 13.043 66.7727 12.9829L66.2338 12.6223L66.8924 11.6606L67.4313 12.0212C67.6708 12.2015 67.7906 12.5621 67.6109 12.8627C67.4912 12.9829 67.3115 13.1031 67.1319 13.1031ZM66.5332 12.5621L66.8924 12.8026C67.072 12.9228 67.2517 12.8627 67.3714 12.6824C67.4912 12.502 67.4313 12.3217 67.2517 12.2015L66.8924 11.9611L66.5332 12.5621Z" fill="#737373"/>
<path d="M68.3255 15.8681L70.0619 13.8245C70.1817 13.7043 70.3014 13.7043 70.4212 13.8245L71.5588 14.7862C71.6786 14.8463 71.6786 15.0266 71.5588 15.1468C71.4391 15.2671 71.3193 15.2671 71.1996 15.1468L70.2416 14.3054L69.7027 14.9665L70.4811 15.6878C70.6008 15.7479 70.6008 15.9282 70.4811 16.0484C70.3613 16.1686 70.2415 16.1686 70.1218 16.0484L69.3434 15.3272L68.8045 15.9883L69.7625 16.8298C69.8823 16.8899 69.8823 17.0702 69.7625 17.1904C69.7027 17.3106 69.523 17.3106 69.4033 17.1904L68.2656 16.2287C68.2656 16.1686 68.2656 15.9883 68.3255 15.8681Z" fill="#737373"/>
<path d="M69.6454 17.3698C69.5855 17.3698 69.4657 17.3097 69.4058 17.3097L68.2682 16.348L68.2083 16.2879C68.1484 16.2278 68.1484 16.1677 68.1484 16.1076C68.1484 15.9874 68.1484 15.9273 68.2682 15.8671L70.0046 13.8236C70.1244 13.6433 70.3639 13.6433 70.5435 13.7635L71.6812 14.7251C71.8608 14.8454 71.8608 15.0858 71.741 15.2661C71.6213 15.4464 71.3818 15.4464 71.2021 15.3262L70.3639 14.6049L69.9447 15.0257L70.6633 15.6267C70.8429 15.7469 70.8429 15.9874 70.7231 16.1677C70.6034 16.348 70.3639 16.348 70.1842 16.2278L69.4657 15.6267L69.0466 16.1076L69.8849 16.8288C69.9447 16.8889 70.0046 17.0091 70.0046 17.0693C70.0046 17.1895 70.0046 17.2496 69.8849 17.3698C69.8849 17.3698 69.7651 17.3698 69.6454 17.3698ZM68.5676 16.2278L69.5855 17.1294C69.5855 17.1294 69.6454 17.1895 69.7052 17.1294C69.7651 17.1294 69.7651 17.1294 69.825 17.0693C69.825 17.0693 69.8849 17.0091 69.8849 16.949C69.8849 16.8889 69.8849 16.8889 69.825 16.8889L68.8071 15.9874L69.5256 15.1459L70.4237 15.9273C70.4836 15.9874 70.5435 15.9874 70.6034 15.9273C70.6633 15.8671 70.6633 15.807 70.6034 15.7469L69.7052 14.9656L70.4237 14.1241L71.4416 15.0257C71.5015 15.0858 71.5614 15.0858 71.6213 15.0257C71.6812 14.9656 71.6812 14.9055 71.6213 14.8454L70.4836 13.8837C70.4237 13.8236 70.4237 13.8236 70.3639 13.8236C70.304 13.8236 70.304 13.8236 70.304 13.8837L68.5676 15.9273C68.5676 15.9273 68.5077 15.9874 68.5077 16.0475V16.1076H68.7472L68.5676 16.2278Z" fill="#737373"/>
<path d="M71.444 18.8122C71.3243 18.9324 71.2045 18.8723 71.0848 18.8122C70.965 18.692 71.0249 18.5718 71.0848 18.4516L73.0607 16.7085C73.1206 16.6484 73.1804 16.6484 73.3002 16.6484C73.4199 16.7085 73.5397 16.8288 73.4798 16.949L72.9409 19.4133L74.3181 18.1511C74.4378 18.091 74.5576 18.091 74.6774 18.1511C74.7971 18.2112 74.7372 18.3915 74.6774 18.5117L72.7014 20.2547C72.5817 20.375 72.4619 20.3149 72.3422 20.2547C72.2823 20.1946 72.2823 20.1345 72.2823 20.0744C72.2823 20.0744 72.2823 20.0744 72.2823 20.0143L72.8212 17.55L71.444 18.8122Z" fill="#737373"/>
<path d="M72.5815 20.4366C72.4618 20.4366 72.4019 20.3765 72.2821 20.3164C72.2223 20.2563 72.1624 20.136 72.2223 20.0158V19.9557L72.7013 17.9122L71.5636 18.9339C71.5037 18.9941 71.384 19.0542 71.3241 19.0542C71.2043 19.0542 71.1445 18.9941 71.0846 18.9339C71.0247 18.8738 70.9648 18.7536 70.9648 18.6935C70.9648 18.5733 71.0247 18.5132 71.0846 18.4531L73.0605 16.7101C73.1204 16.6499 73.3 16.5898 73.4198 16.5898C73.5994 16.6499 73.7192 16.8303 73.7192 17.0106L73.2402 19.1143L74.3778 18.0925C74.4377 18.0324 74.5574 17.9723 74.6173 17.9723C74.7371 17.9723 74.7969 18.0324 74.8568 18.0925C74.9766 18.2728 74.9766 18.4531 74.8568 18.6334L72.8809 20.3765C72.7611 20.4366 72.6414 20.4366 72.5815 20.4366ZM73.0605 17.251L72.4019 20.0759C72.4019 20.136 72.4019 20.1962 72.4019 20.1962C72.4618 20.2563 72.5216 20.2563 72.5815 20.1962L74.5574 18.4531C74.6173 18.393 74.6173 18.3329 74.5574 18.2728L74.4976 18.2127C74.4377 18.2127 74.4377 18.2127 74.3778 18.2728L72.7013 19.7754L73.3599 16.9505C73.3599 16.8904 73.3599 16.8303 73.2402 16.7702C73.1803 16.7702 73.1803 16.7702 73.1204 16.8303L71.1445 18.5733C71.1445 18.5733 71.0846 18.6334 71.0846 18.6935C71.0846 18.7536 71.0846 18.7536 71.1445 18.8137L71.2044 18.8738C71.2642 18.8738 71.2642 18.8738 71.3241 18.8137L73.0605 17.251Z" fill="#737373"/>
<path d="M75.1547 21.0973C75.9331 20.6164 76.951 20.7967 77.43 21.5781C77.6695 21.9387 77.7294 22.2994 77.7294 22.66C77.7294 22.7802 77.6096 22.9004 77.43 22.9004C77.3102 22.9004 77.1905 22.7802 77.1905 22.5999C77.1905 22.3595 77.1306 22.059 77.0108 21.8786C76.8312 21.6382 76.5917 21.4579 76.2923 21.3978C75.9929 21.3377 75.6936 21.3978 75.4541 21.5781C75.2145 21.7584 75.0349 21.9988 74.975 22.2994C74.9152 22.5999 74.975 22.9004 75.1547 23.1408C75.3343 23.3813 75.5139 23.5616 75.7534 23.6217C75.8732 23.6818 75.9331 23.802 75.9331 23.9823C75.8732 24.1025 75.7534 24.1626 75.6337 24.1626C75.2744 24.0424 74.975 23.802 74.7355 23.5015C74.1966 22.66 74.3763 21.5781 75.1547 21.0973Z" fill="#737373"/>
<path d="M75.6341 24.2244C75.5743 24.2244 75.5743 24.2244 75.5144 24.2244C75.1551 24.1042 74.7959 23.8638 74.5564 23.5032C74.0175 22.6617 74.1971 21.5798 75.0354 21.0388C75.8138 20.4979 76.9514 20.7383 77.4903 21.5798C77.7298 21.9404 77.8496 22.3011 77.7897 22.7218C77.7897 22.9021 77.5502 23.0824 77.3706 23.0824C77.1311 23.0824 77.0113 22.9021 77.0113 22.6617C77.0113 22.4213 76.9514 22.1808 76.8317 22.0005C76.7119 21.7601 76.4724 21.6399 76.173 21.5798C75.9335 21.5197 75.6341 21.5798 75.3946 21.7C75.1551 21.8202 75.0354 22.0606 74.9755 22.3612C74.9156 22.6617 74.9755 22.9021 75.1551 23.1425C75.2749 23.3228 75.4545 23.5032 75.694 23.5633C75.8736 23.6234 75.9934 23.8638 75.9335 24.0441C75.9335 24.1042 75.8138 24.2244 75.6341 24.2244ZM75.215 21.1591C74.4965 21.6399 74.3169 22.6016 74.7959 23.3228C74.9755 23.6234 75.2749 23.8638 75.6341 23.984C75.694 23.984 75.8138 23.984 75.8138 23.8638C75.8138 23.8037 75.8138 23.6835 75.7539 23.6835C75.4545 23.6234 75.2749 23.443 75.0952 23.1425C74.9156 22.842 74.8557 22.5415 74.9156 22.1808C74.9755 21.8803 75.1551 21.5798 75.4545 21.3995C75.7539 21.2192 76.0533 21.1591 76.4125 21.2192C76.7718 21.2793 77.0113 21.5197 77.1909 21.7601C77.3706 22.0005 77.4304 22.3011 77.4304 22.6016C77.4304 22.6617 77.4903 22.7218 77.5502 22.7218C77.6101 22.7218 77.6699 22.6617 77.6699 22.6016C77.6699 22.2409 77.6101 21.8803 77.3706 21.5798C76.8317 20.9186 75.8736 20.7383 75.215 21.1591Z" fill="#737373"/>
<path d="M79.7061 26.6889L78.0894 26.4485L77.0117 26.9894C76.8919 27.0495 76.7123 26.9894 76.6524 26.8692C76.5925 26.749 76.6524 26.5687 76.7722 26.5086L77.8499 25.9676L78.5684 24.5852C78.6283 24.465 78.7481 24.4049 78.9277 24.465C79.0475 24.5251 79.1073 24.7054 79.0475 24.8256L78.4487 26.0277L79.766 26.2681C79.8857 26.2681 80.0055 26.4485 79.9456 26.5687C79.9456 26.6288 79.8259 26.6889 79.7061 26.6889Z" fill="#737373"/>
<path d="M76.8912 27.1095C76.7714 27.1095 76.6517 27.0494 76.5918 26.9292C76.5319 26.869 76.5319 26.7488 76.5918 26.6286C76.6517 26.5084 76.7115 26.4483 76.7714 26.3882L77.8492 25.8473L78.5677 24.4648C78.6276 24.4047 78.6875 24.2845 78.7473 24.2845C78.8671 24.2244 78.927 24.2845 79.0467 24.2845C79.1665 24.3446 79.2263 24.4047 79.2263 24.5249C79.2263 24.6452 79.2264 24.7053 79.1665 24.8255L78.6276 25.8473L79.7652 26.0276C79.9449 26.0877 80.1245 26.268 80.0646 26.4483C80.0047 26.6286 79.8251 26.8089 79.6455 26.7488L78.1486 26.5084L77.0708 27.0494C77.0109 27.1095 76.951 27.1095 76.8912 27.1095ZM78.8072 24.5249C78.7473 24.5249 78.6875 24.5851 78.6875 24.5851L77.9689 26.0276L76.8313 26.6286C76.7714 26.6286 76.7714 26.6887 76.7714 26.6887C76.7714 26.7488 76.7714 26.7488 76.7714 26.8089C76.8313 26.869 76.8912 26.9292 76.951 26.869L78.0887 26.268L79.7054 26.5084C79.7652 26.5084 79.8251 26.4483 79.8251 26.3882C79.8251 26.3281 79.7652 26.268 79.7054 26.2079L78.2683 25.9675L78.927 24.6452C78.927 24.5851 78.927 24.5851 78.927 24.5249C78.927 24.5851 78.927 24.5851 78.8072 24.5249C78.8671 24.5249 78.8671 24.5249 78.8072 24.5249Z" fill="#737373"/>
<path d="M27.137 65.4533L28.8135 63.3496C28.8734 63.2294 29.053 63.2294 29.1728 63.2895L30.3104 64.2512C30.4302 64.3113 30.4302 64.4916 30.3703 64.6118C30.3104 64.732 30.1308 64.732 30.0111 64.6719L29.053 63.8905L28.5141 64.5517L29.3524 65.2128C29.4722 65.2729 29.4722 65.4533 29.4123 65.5735C29.3524 65.6937 29.1728 65.6937 29.053 65.6336L28.2148 64.9724L27.6759 65.6336L28.6339 66.4149C28.7537 66.4751 28.7537 66.6554 28.6938 66.7756C28.6339 66.8958 28.4543 66.8958 28.3345 66.8357L27.1969 65.874C27.0771 65.6937 27.0771 65.5735 27.137 65.4533Z" fill="#737373"/>
<path d="M28.5145 66.9572C28.4546 66.9572 28.3348 66.9572 28.275 66.8971L27.0176 65.8753C26.9577 65.7551 26.9577 65.5748 27.0176 65.4546L28.6941 63.3509C28.8139 63.1706 29.0534 63.1706 29.233 63.2908L30.3706 64.2525C30.5503 64.3727 30.5503 64.6131 30.4305 64.7934C30.3707 64.8535 30.2509 64.9136 30.191 64.9136C30.0713 64.9136 30.0114 64.9136 29.8916 64.8535L29.0534 64.1323L28.6941 64.6131L29.4126 65.2142C29.5923 65.3344 29.5923 65.5748 29.4725 65.7551C29.3527 65.9354 29.1132 65.9354 28.9336 65.8152L28.2151 65.2142L27.8558 65.695L28.6941 66.4163C28.754 66.4764 28.8139 66.5966 28.8139 66.6567C28.8139 66.7769 28.8139 66.837 28.754 66.9572C28.6941 66.8971 28.6342 66.8971 28.5145 66.9572ZM27.3768 65.8152L28.4546 66.6567C28.4546 66.6567 28.5145 66.6567 28.5744 66.6567C28.6342 66.6567 28.6342 66.6567 28.6342 66.5966C28.6342 66.5966 28.6941 66.5365 28.6342 66.4764C28.6342 66.4163 28.6342 66.4163 28.5744 66.4163L27.5565 65.5748L28.2151 64.7333L29.1132 65.5147C29.1731 65.5748 29.233 65.5748 29.2929 65.5147C29.3527 65.4546 29.3527 65.3945 29.2929 65.3344L28.3947 64.553L29.0534 63.7115L30.0713 64.553C30.0713 64.553 30.1311 64.553 30.191 64.553C30.2509 64.553 30.2509 64.553 30.3108 64.4929C30.3707 64.4328 30.3707 64.3727 30.3108 64.3126L29.1731 63.3509C29.1132 63.2908 29.1132 63.2908 29.0534 63.2908C28.9935 63.2908 28.9935 63.2908 28.9935 63.3509L27.3169 65.4546C27.2571 65.5147 27.2571 65.5748 27.3169 65.6349H27.5565L27.3768 65.8152Z" fill="#737373"/>
<path d="M33.6044 67.0183L32.2273 67.5592L32.347 69.0017C32.347 69.1219 32.2273 69.2421 32.1075 69.2421C32.0476 69.2421 31.9878 69.2421 31.9279 69.182C31.868 69.1219 31.8081 69.0618 31.8081 69.0017L31.7482 67.6794L30.5507 68.1603C30.4908 68.1603 30.3711 68.1603 30.3112 68.1603C30.2513 68.1603 30.2513 68.1001 30.1915 68.04C30.1316 67.9198 30.1915 67.7395 30.3112 67.7395L31.6884 67.1986L31.5686 65.756C31.5686 65.6358 31.6884 65.5156 31.8081 65.5156C31.9279 65.5156 32.0476 65.5757 32.0476 65.756L32.1674 67.0784L33.3649 66.5975C33.4847 66.5374 33.6643 66.5975 33.6643 66.7177C33.8439 66.8379 33.7242 66.9581 33.6044 67.0183Z" fill="#737373"/>
<path d="M32.1068 69.4231C32.0469 69.4231 31.987 69.4231 31.9271 69.363C31.8074 69.3029 31.7475 69.1827 31.7475 69.0625L31.6876 67.9205L30.6099 68.3412C30.4901 68.4013 30.3703 68.4013 30.2506 68.3412C30.1907 68.2811 30.1308 68.221 30.1308 68.1609C30.071 68.1008 30.071 67.9806 30.1308 67.8604C30.1907 67.7401 30.2506 67.68 30.3105 67.68L31.5679 67.1391L31.4481 65.7567C31.4481 65.5163 31.5679 65.396 31.8074 65.3359C31.9271 65.3359 31.987 65.3359 32.0469 65.396C32.1068 65.4562 32.1666 65.5764 32.1666 65.6365L32.2265 66.7785L33.3043 66.3577C33.4241 66.2976 33.4839 66.2976 33.6037 66.3577C33.6636 66.4178 33.7833 66.4779 33.7833 66.538C33.8432 66.7184 33.7833 66.9588 33.6037 67.0189L32.3463 67.4997L32.466 68.8821C32.466 69.0024 32.4062 69.0625 32.3463 69.1827C32.3463 69.363 32.2265 69.4231 32.1068 69.4231ZM31.8673 67.5598L31.987 69.0024C31.987 69.0024 31.987 69.0625 32.0469 69.1226H32.1068C32.1666 69.1226 32.1666 69.1226 32.1666 69.0625C32.1666 69.0625 32.2265 69.0024 32.2265 68.9422L32.1068 67.3795L33.5438 66.8386C33.6037 66.8386 33.6037 66.7785 33.6037 66.7785C33.6037 66.7785 33.6037 66.7184 33.6037 66.6583C33.6037 66.5981 33.5438 66.5981 33.5438 66.5981C33.4839 66.5981 33.4839 66.5981 33.4241 66.5981L32.0469 67.1391L31.9271 65.6966C31.9271 65.6365 31.9271 65.6365 31.8673 65.5764C31.8673 65.5764 31.8074 65.5163 31.7475 65.5764C31.6876 65.5764 31.6876 65.5764 31.6278 65.6365C31.6278 65.6365 31.5679 65.6966 31.5679 65.7567L31.6876 67.3194L30.2506 67.9205C30.1907 67.9205 30.1907 67.9806 30.1907 67.9806C30.1907 68.0407 30.1907 68.0407 30.1907 68.1008C30.1907 68.1609 30.1907 68.1609 30.2506 68.1609C30.3105 68.1609 30.3105 68.1609 30.3703 68.1609L31.8673 67.5598Z" fill="#737373"/>
<path d="M34.6181 68.817C34.9774 67.9756 35.9953 67.6149 36.8336 68.0357C37.1928 68.216 37.4922 68.4564 37.6718 68.817C37.7317 68.9372 37.6718 69.1176 37.5521 69.1777C37.4323 69.2378 37.2527 69.1777 37.1928 69.0575C37.0731 68.817 36.8934 68.6367 36.6539 68.5165C36.3546 68.3963 36.0552 68.3963 35.7558 68.4564C35.4564 68.5766 35.2768 68.7569 35.0972 69.0575C34.9774 69.358 34.9774 69.6585 35.0972 69.8989C35.2169 70.1995 35.3965 70.3798 35.6959 70.5601C35.9354 70.6803 36.2348 70.6803 36.4743 70.6202C36.5941 70.6202 36.7737 70.6803 36.7737 70.8005C36.7737 70.9207 36.7138 71.101 36.5941 71.101C36.2348 71.1611 35.8755 71.1611 35.5163 70.9808C34.6181 70.6803 34.2589 69.6585 34.6181 68.817Z" fill="#737373"/>
<path d="M36.1758 71.283C35.9363 71.283 35.6369 71.2229 35.3974 71.1027C34.4992 70.682 34.0801 69.6602 34.4992 68.7586C34.9184 67.857 35.9363 67.4964 36.8344 67.9171C37.1937 68.0974 37.4931 68.398 37.7326 68.7586C37.8523 68.9389 37.7326 69.1793 37.5529 69.2995C37.3733 69.4197 37.1338 69.2995 37.014 69.1192C36.8943 68.8788 36.7147 68.7586 36.535 68.6384C36.2955 68.5182 35.9961 68.5182 35.7566 68.5783C35.5171 68.6985 35.2776 68.8788 35.2178 69.1192C35.098 69.3596 35.098 69.6602 35.2178 69.9006C35.3375 70.141 35.5171 70.3814 35.7566 70.5016C35.9961 70.6218 36.2357 70.6218 36.4752 70.5617C36.6548 70.5016 36.8943 70.6218 36.9542 70.8623C37.014 71.0426 36.8943 71.283 36.6548 71.3431C36.4752 71.283 36.2955 71.283 36.1758 71.283ZM34.7387 68.8788C34.3795 69.6602 34.7387 70.5617 35.5171 70.9224C35.8764 71.0426 36.1758 71.1027 36.535 71.0426C36.5949 71.0426 36.6548 70.9224 36.6548 70.8623C36.6548 70.8022 36.535 70.7421 36.4752 70.7421C36.1758 70.8022 35.9363 70.8022 35.6369 70.6819C35.3375 70.5617 35.098 70.3213 34.9782 69.9607C34.8585 69.6602 34.8585 69.2995 34.9782 68.999C35.098 68.6985 35.3375 68.4581 35.6968 68.3378C35.9961 68.2176 36.3554 68.2176 36.6548 68.398C36.9542 68.5182 37.1338 68.6985 37.2536 68.999C37.2536 69.0591 37.3733 69.0591 37.4332 69.0591C37.4931 68.999 37.4931 68.9389 37.4931 68.8788C37.3134 68.5783 37.0739 68.3378 36.7147 68.1575C35.9961 67.7969 35.098 68.1575 34.7387 68.8788Z" fill="#737373"/>
<path d="M38.6943 72.0074L39.4128 69.4229C39.4727 69.3027 39.5925 69.1824 39.7122 69.2425C39.832 69.3027 39.9517 69.4229 39.8919 69.5431L39.5925 70.625L40.7301 70.9255L41.0295 69.8436C41.0894 69.7234 41.2091 69.6032 41.3289 69.6633C41.4486 69.7234 41.5684 69.8436 41.5085 69.9638L40.79 72.5483C40.7301 72.6685 40.6104 72.7287 40.4906 72.7287C40.3709 72.6685 40.2511 72.5483 40.311 72.4281L40.6104 71.3462L39.4727 71.0457L39.1733 72.1276C39.1135 72.2478 38.9937 72.3079 38.874 72.3079C38.6943 72.3079 38.6345 72.1877 38.6943 72.0074Z" fill="#737373"/>
<path d="M40.5514 72.9077C40.4916 72.9077 40.4915 72.9077 40.4317 72.9077C40.252 72.8476 40.1323 72.6673 40.1922 72.4269L40.4317 71.4652L39.5335 71.2248L39.294 72.1865C39.2341 72.3668 39.0545 72.487 38.815 72.4269C38.6953 72.4269 38.6354 72.3067 38.5755 72.2466C38.5156 72.1865 38.5156 72.0663 38.5156 71.946L39.2341 69.3615C39.294 69.1812 39.4736 69.061 39.7132 69.1211C39.8329 69.1211 39.8928 69.1812 39.9527 69.3014C40.0125 69.3615 40.0125 69.4817 40.0125 69.6019L39.773 70.5636L40.6712 70.8041L40.9107 69.8424C40.9107 69.7222 40.9706 69.6621 41.0903 69.6019C41.1502 69.5418 41.2699 69.5418 41.3897 69.5418C41.5094 69.5418 41.5693 69.6621 41.6292 69.7222C41.6891 69.7823 41.6891 69.9025 41.6891 70.0227L40.9706 72.6072C40.8508 72.8476 40.7311 72.9077 40.5514 72.9077ZM39.4138 70.9844L40.7909 71.4051L40.4317 72.5471C40.4317 72.6072 40.4317 72.6072 40.4317 72.6673L40.4915 72.7274C40.5514 72.7274 40.6113 72.7274 40.6712 72.6673L41.3897 70.0828C41.3897 70.0227 41.3897 70.0227 41.3897 69.9626C41.3897 69.9025 41.3298 69.9025 41.3298 69.9025C41.2699 69.9025 41.2699 69.9025 41.2101 69.9025L41.1502 69.9626L40.7909 71.1046L39.4138 70.6838L39.773 69.5418C39.773 69.4817 39.773 69.4817 39.773 69.4216C39.773 69.3615 39.7132 69.3615 39.7132 69.3615C39.6533 69.3615 39.5934 69.3615 39.5335 69.4216L38.815 72.0062C38.815 72.0663 38.815 72.0663 38.815 72.1264L38.8749 72.1865C38.9348 72.1865 38.9946 72.1865 39.0545 72.1264L39.4138 70.9844Z" fill="#737373"/>
<path d="M44.4995 72.8486L43.4217 72.6683L43.1223 73.2093C43.0624 73.3295 42.9427 73.3295 42.8828 73.3295C42.8229 73.3295 42.8229 73.3295 42.8229 73.3295C42.7032 73.2694 42.6433 73.0891 42.7032 72.9688L44.0803 70.4444C44.1402 70.3242 44.26 70.3242 44.3198 70.3242C44.4396 70.3242 44.4995 70.3843 44.5593 70.5045L45.1581 73.3295C45.1581 73.4497 45.0982 73.63 44.9785 73.63H44.9186C44.7989 73.63 44.739 73.5699 44.739 73.4497L44.4995 72.8486ZM44.3797 72.3077L44.1402 71.2859L43.6013 72.1875L44.3797 72.3077Z" fill="#737373"/>
<path d="M44.8584 73.7508H44.7985C44.6189 73.7508 44.4992 73.6306 44.4992 73.4503L44.3794 72.9094L43.4214 72.7892L43.122 73.27C43.0621 73.3902 42.8825 73.4503 42.7627 73.4503C42.7029 73.4503 42.7029 73.4503 42.643 73.3902C42.4634 73.27 42.4035 73.0897 42.5232 72.8493L43.9004 70.3248C43.9603 70.2046 44.1399 70.1445 44.3195 70.1445C44.4393 70.1445 44.6189 70.2647 44.6189 70.4451L45.2177 73.27C45.2776 73.4503 45.0979 73.6907 44.9183 73.6907C44.9183 73.7508 44.9183 73.7508 44.8584 73.7508ZM43.3615 72.5487L44.6189 72.7291L44.7387 73.4503C44.7387 73.5104 44.7985 73.5705 44.8584 73.5705H44.9183C44.9782 73.5705 45.0381 73.5104 45.0381 73.3902L44.4393 70.5653C44.4393 70.5052 44.3794 70.4451 44.3195 70.4451C44.2597 70.4451 44.1998 70.4451 44.1998 70.5052L42.8226 73.0296C42.7627 73.0897 42.8226 73.1498 42.8825 73.2099C42.8825 73.2099 42.8825 73.2099 42.9424 73.2099C43.0023 73.2099 43.0621 73.2099 43.0621 73.1498L43.3615 72.5487ZM44.559 72.4285L43.4813 72.2482L44.2597 70.9259L44.559 72.4285ZM43.8405 72.0679L44.1998 72.128L44.08 71.5871L43.8405 72.0679Z" fill="#737373"/>
<path d="M47.5571 73.5676C47.5571 73.6878 47.4374 73.808 47.3176 73.808C47.1979 73.808 47.0781 73.6878 47.0781 73.5676L47.138 70.9229C47.138 70.8628 47.1979 70.7426 47.2578 70.7426C47.3775 70.6825 47.4973 70.6825 47.617 70.8027L49.0541 72.8463V70.983C49.0541 70.8628 49.1738 70.7426 49.2936 70.7426C49.4133 70.7426 49.5331 70.8628 49.5331 70.983L49.4732 73.6277C49.4732 73.7479 49.3534 73.8681 49.2337 73.8681C49.1738 73.8681 49.1139 73.808 49.0541 73.7479L47.617 71.7043L47.5571 73.5676Z" fill="#737373"/>
<path d="M49.2323 73.99C49.1126 73.99 48.9928 73.9299 48.933 73.8698C48.933 73.8698 48.933 73.8698 48.8731 73.8097L47.6755 72.0666V73.5693C47.6755 73.6895 47.6157 73.7496 47.5558 73.8097C47.4959 73.8698 47.3762 73.9299 47.3163 73.9299C47.1367 73.9299 46.957 73.7496 46.957 73.5693L47.0169 70.9246C47.0169 70.8044 47.0768 70.6842 47.1965 70.6241C47.3762 70.5039 47.6157 70.564 47.7354 70.6842L48.9928 72.4273V70.9246C48.9928 70.8044 49.0527 70.7443 49.1126 70.6842C49.1725 70.6241 49.2922 70.564 49.3521 70.564C49.4718 70.564 49.5317 70.6241 49.5916 70.6842C49.6515 70.7443 49.7114 70.8645 49.7114 70.9246L49.6515 73.5693C49.5916 73.8097 49.4718 73.99 49.2323 73.99ZM47.4959 71.3454L49.1126 73.6895C49.1725 73.7496 49.1725 73.7496 49.2323 73.7496C49.2922 73.7496 49.2922 73.7496 49.3521 73.6895C49.3521 73.6895 49.412 73.6294 49.412 73.5693L49.4718 70.9246C49.4718 70.8645 49.4718 70.8645 49.412 70.8645C49.412 70.8645 49.3521 70.8044 49.2922 70.8044C49.2323 70.8044 49.2323 70.8044 49.2323 70.8645L49.1725 70.9246L49.1126 73.1485L47.436 70.8044C47.3762 70.7443 47.3163 70.7443 47.2564 70.8044C47.1965 70.8044 47.1965 70.8645 47.1965 70.9246L47.1367 73.5693C47.1367 73.6294 47.1965 73.6895 47.2564 73.6895C47.2564 73.6895 47.3163 73.6895 47.3163 73.6294C47.3163 73.6294 47.3762 73.5693 47.3762 73.5092L47.4959 71.3454Z" fill="#737373"/>
<path d="M51.3891 72.125C51.2693 71.2234 51.928 70.3819 52.8261 70.2617C53.1854 70.2016 53.6045 70.3218 53.9039 70.5022C54.0236 70.5623 54.0835 70.7426 54.0236 70.8628C53.9638 70.983 53.7841 71.0431 53.6644 70.9229C53.4249 70.8027 53.1854 70.7426 52.9459 70.7426C52.6465 70.8027 52.3471 70.9229 52.1675 71.1633C51.9878 71.4037 51.8681 71.7043 51.928 72.0048C51.9878 72.3053 52.1076 72.5457 52.3471 72.726C52.5866 72.9064 52.886 72.9665 53.1854 72.9665C53.4249 72.9665 53.6045 72.8463 53.7841 72.726L53.7243 72.125L53.0656 72.1851C52.9459 72.1851 52.7662 72.125 52.7662 71.9447C52.7662 71.8245 52.8261 71.7043 53.0057 71.6441L53.9039 71.5239C54.0236 71.5239 54.2033 71.584 54.2033 71.7644L54.323 72.7861C54.323 72.8462 54.323 72.8462 54.323 72.8462C54.323 72.9064 54.2631 72.9064 54.2631 72.9665C54.0236 73.2069 53.6644 73.3872 53.3051 73.4473C52.407 73.6877 51.5088 73.0266 51.3891 72.125Z" fill="#737373"/>
<path d="M53.0639 73.6875C52.6447 73.6875 52.2855 73.5673 51.9861 73.3268C51.6269 73.0263 51.3873 72.6056 51.3275 72.1848C51.2676 71.704 51.3873 71.2232 51.6867 70.8625C51.9861 70.5019 52.4052 70.2615 52.8843 70.2014C53.3034 70.1413 53.7225 70.2014 54.0219 70.4418C54.0818 70.5019 54.1417 70.562 54.2015 70.6822C54.2015 70.8024 54.2015 70.8625 54.1417 70.9827C54.0818 71.0428 54.0219 71.163 53.9022 71.163C53.7824 71.163 53.7225 71.163 53.6028 71.1029C53.4231 70.9827 53.1836 70.9226 52.9441 70.9827C52.6448 71.0428 52.4052 71.163 52.2855 71.4035C52.1059 71.6439 52.046 71.8843 52.046 72.1247C52.1059 72.3652 52.2256 72.6056 52.4651 72.7859C52.7046 72.9662 52.9441 73.0263 53.2435 72.9662C53.4231 72.9662 53.6028 72.9061 53.7225 72.7859L53.6627 72.3652L53.1238 72.4253C52.9441 72.4253 52.7046 72.305 52.7046 72.1247C52.7046 72.0045 52.7046 71.9444 52.7645 71.8242C52.8244 71.7641 52.9441 71.704 53.004 71.704L53.9022 71.5838C54.1417 71.5237 54.3213 71.704 54.3213 71.8843L54.441 72.9061C54.441 72.9662 54.441 72.9662 54.441 72.9662V73.0263C54.441 73.0864 54.3812 73.1465 54.3213 73.2066C54.0219 73.5072 53.6627 73.6875 53.3034 73.7476C53.2435 73.6875 53.1238 73.6875 53.0639 73.6875ZM53.0639 70.3817C53.004 70.3817 52.9441 70.3817 52.8843 70.3817C52.4651 70.4418 52.1059 70.6221 51.8664 70.9827C51.6268 71.2833 51.5071 71.704 51.567 72.1247C51.6268 72.5455 51.8065 72.9061 52.1657 73.1465C52.4651 73.3869 52.8843 73.5071 53.3034 73.447C53.6627 73.3869 53.962 73.2667 54.2015 72.9662L54.2614 72.9061V72.846L54.1417 71.8242C54.1417 71.7641 54.0818 71.704 53.962 71.704L53.0639 71.8242C53.004 71.8242 53.004 71.8242 52.9441 71.8843C52.9441 71.8843 52.8843 71.9444 52.9441 72.0045C52.9441 72.0646 53.004 72.1247 53.1238 72.1247L53.9022 72.0045L54.0219 72.7859L53.962 72.846C53.7824 73.0263 53.5429 73.0864 53.3034 73.1465C52.9441 73.2066 52.6448 73.0864 52.3454 72.9061C52.1059 72.7258 51.9262 72.4253 51.8664 72.0646C51.8065 71.704 51.9262 71.4035 52.1059 71.163C52.2855 70.9226 52.5849 70.7423 52.9441 70.6822C53.2435 70.6221 53.5429 70.6822 53.7824 70.8625C53.8423 70.8625 53.8423 70.8625 53.9022 70.8625C53.962 70.8625 53.962 70.8024 53.962 70.8024C53.962 70.7423 53.962 70.7423 53.962 70.6822C53.962 70.6221 53.9022 70.6221 53.9022 70.6221C53.6627 70.4418 53.3633 70.3817 53.0639 70.3817Z" fill="#737373"/>
<path d="M56.7188 72.6655L56.0003 70.081C55.9404 69.9608 56.0602 69.7805 56.1799 69.7805L57.617 69.3597C57.7367 69.2996 57.9164 69.4198 57.9164 69.5401C57.9762 69.6603 57.8565 69.8406 57.7367 69.8406L56.5392 70.2012L56.7787 70.9826L57.7966 70.682C57.9164 70.6219 58.096 70.7422 58.096 70.8624C58.1559 70.9826 58.0361 71.1629 57.9164 71.1629L56.8984 71.4634L57.138 72.2448L58.3355 71.8842C58.4552 71.824 58.6349 71.9443 58.6349 72.0645C58.6947 72.1847 58.575 72.365 58.4552 72.365L57.0182 72.7857C56.8985 72.8458 56.7787 72.7857 56.7188 72.6655Z" fill="#737373"/>
<path d="M56.9567 72.9663C56.8968 72.9663 56.8369 72.9062 56.7771 72.9062C56.7172 72.8461 56.6573 72.786 56.5974 72.6658L55.8789 70.0813C55.8789 69.9611 55.8789 69.9009 55.9388 69.7807C55.9987 69.7206 56.0585 69.6605 56.1783 69.6004L57.6153 69.1797C57.7351 69.1797 57.795 69.1797 57.9147 69.2398C57.9746 69.2999 58.0943 69.36 58.0943 69.4802C58.1542 69.6605 58.0345 69.901 57.8548 69.9611L56.7771 70.2616L56.9567 70.8626L57.8548 70.6222C57.9746 70.6222 58.0345 70.6222 58.1542 70.6823C58.2141 70.7424 58.3338 70.8025 58.3338 70.9227C58.3937 71.1031 58.274 71.3435 58.0943 71.4036L57.1962 71.644L57.3758 72.2451L58.4536 71.9445C58.5733 71.9445 58.6332 71.9445 58.753 72.0046C58.8129 72.0647 58.9326 72.1248 58.9326 72.2451C58.9925 72.4254 58.8727 72.6658 58.6931 72.7259L56.9567 72.9663ZM57.6752 69.4201L56.2382 69.8408C56.1783 69.8408 56.1783 69.901 56.1184 69.901C56.1184 69.901 56.1184 69.9611 56.1184 70.0212L56.8369 72.6057C56.8369 72.6658 56.8968 72.6658 56.8968 72.6658H56.9567L57.0764 72.4855L57.1363 72.6658L58.4536 72.3052C58.5135 72.3052 58.5734 72.1849 58.5734 72.1248C58.5734 72.0647 58.5135 72.0647 58.5135 72.0647C58.4536 72.0647 58.4536 72.0647 58.3937 72.0647L57.0764 72.4254L56.7771 71.4036L57.9147 71.1031C57.9746 71.1031 58.0345 70.9828 57.9746 70.9227C57.9746 70.8626 57.9147 70.8626 57.9147 70.8626C57.8548 70.8626 57.8548 70.8626 57.795 70.8626L56.6573 71.1632L56.3579 70.1414L57.7351 69.7206C57.795 69.7206 57.8548 69.6004 57.795 69.5403C57.795 69.4802 57.7351 69.4802 57.7351 69.4802L57.6752 69.4201Z" fill="#737373"/>
<path d="M63.9026 66.8337C63.8427 66.7135 63.8427 66.5332 63.9625 66.4731C64.0822 66.413 64.2619 66.413 64.3217 66.5332L65.6989 68.8773C65.7588 68.9975 65.6989 69.1778 65.5792 69.2379C65.4594 69.298 65.2798 69.298 65.2199 69.1778L63.9026 66.8337Z" fill="#737373"/>
<path d="M65.519 69.3598C65.4591 69.3598 65.4591 69.3598 65.3992 69.3598C65.2794 69.3598 65.2196 69.2997 65.1597 69.1795L63.7825 66.8354C63.7227 66.7753 63.7227 66.6551 63.7227 66.5349C63.7227 66.4147 63.7825 66.3546 63.9023 66.2945C63.9622 66.2344 64.0819 66.2344 64.2017 66.2344C64.3214 66.2344 64.3813 66.2945 64.4412 66.4147L65.8183 68.7588C65.9381 68.9391 65.8782 69.1795 65.6986 69.2997C65.6387 69.3598 65.5788 69.3598 65.519 69.3598ZM64.1418 66.5349H64.0819C64.022 66.5349 64.022 66.595 64.022 66.595C64.022 66.6551 64.022 66.6551 64.022 66.7152L65.3992 69.0593C65.3992 69.1194 65.4591 69.1194 65.4591 69.1194C65.519 69.1194 65.519 69.1194 65.5788 69.1194C65.6387 69.0593 65.6387 68.9992 65.6387 68.9391L64.2615 66.595C64.2615 66.595 64.2017 66.595 64.1418 66.5349Z" fill="#737373"/>
<path d="M67.6715 64.6126L67.0727 65.0333L68.5098 67.0168C68.5697 67.137 68.5697 67.2572 68.4499 67.3774C68.3301 67.4375 68.2104 67.4375 68.0906 67.3173L66.6536 65.3338L66.0548 65.7546C65.9351 65.8147 65.7555 65.8147 65.6956 65.6945C65.6357 65.5742 65.6357 65.454 65.7555 65.3338L67.3122 64.1918C67.432 64.1317 67.5518 64.1317 67.6715 64.2519C67.7913 64.3721 67.7913 64.4923 67.6715 64.6126Z" fill="#737373"/>
<path d="M68.33 67.4978C68.1504 67.4978 68.0905 67.4377 68.0306 67.3175L66.6535 65.4542L66.1745 65.8149C65.9948 65.9351 65.7553 65.875 65.6356 65.7548C65.5158 65.5745 65.5757 65.334 65.6955 65.2138L67.2523 64.0718C67.3121 64.0117 67.4319 64.0117 67.5516 64.0117C67.6714 64.0117 67.7313 64.0718 67.7911 64.1319C67.9109 64.3122 67.851 64.5527 67.7313 64.6729L67.2523 65.0335L68.6294 66.8968C68.6893 66.9569 68.6893 67.0771 68.6893 67.1973C68.6893 67.3175 68.6294 67.3776 68.5695 67.4377C68.4498 67.4978 68.3899 67.4978 68.33 67.4978ZM66.7134 65.1537L68.2103 67.1973L68.2702 67.2574C68.33 67.2574 68.33 67.2574 68.3899 67.2574L68.4498 67.1973C68.4498 67.1372 68.4498 67.1372 68.4498 67.0771L66.9529 65.0335L67.6115 64.5527C67.6714 64.4926 67.6714 64.4325 67.6115 64.3723L67.5516 64.3122C67.4918 64.3122 67.4918 64.3122 67.4319 64.3122L65.8751 65.4542C65.8152 65.5143 65.8152 65.5745 65.8751 65.6346C65.935 65.6947 65.9948 65.6947 66.0547 65.6947L66.7134 65.1537Z" fill="#737373"/>
<path d="M48.9351 80.0004C31.4511 80.0004 15.8233 68.4001 10.6739 51.6909H0.914062V49.8877H11.9912L12.1709 50.5489C16.9011 66.8374 31.99 78.1973 48.9351 78.1973C66.1795 78.1973 81.3283 66.5369 85.8789 49.8877L86.0585 49.2266H97.3752V51.0297H87.4357C82.4659 68.0996 66.7184 80.0004 48.9351 80.0004Z" fill="#737373"/>
<path d="M24.5633 61.008C24.3837 61.008 24.2041 60.9479 24.0843 60.7676C21.6294 57.8825 19.5936 54.6369 18.0967 51.0306C17.9769 50.73 18.0967 50.3694 18.3961 50.2492C18.6954 50.129 19.0547 50.2492 19.1744 50.5497C20.6115 53.9757 22.5874 57.1613 24.9226 59.9261C25.1621 60.1665 25.1022 60.5873 24.8627 60.7676C24.8028 61.008 24.6831 61.008 24.5633 61.008Z" fill="#737373"/>
<path d="M72.4664 61.7871C72.3467 61.7871 72.167 61.727 72.0473 61.6068C71.8078 61.3664 71.8078 61.0058 71.9874 60.7653C74.9214 57.5197 77.1967 53.7931 78.8133 49.5858C78.9331 49.2853 79.2924 49.1049 79.5917 49.2252C79.8911 49.3454 80.0708 49.706 79.951 50.0065C78.2745 54.3341 75.9393 58.1808 72.8856 61.5467C72.7658 61.6669 72.5862 61.7871 72.4664 61.7871Z" fill="#737373"/>
<path d="M56.7135 18.5117H41.5647C40.9061 18.5117 40.3672 19.0527 40.3672 19.7138V26.5057C40.3672 27.1669 40.9061 27.7078 41.5647 27.7078H56.7734C57.432 27.7078 57.9709 27.1669 57.9709 26.5057V19.7138C57.9709 19.0527 57.432 18.5117 56.7135 18.5117ZM57.4919 26.5057C57.4919 26.9264 57.1925 27.227 56.7734 27.227H41.5647C41.1456 27.227 40.8462 26.9264 40.8462 26.5057V19.7138C40.8462 19.2931 41.1456 18.9926 41.5647 18.9926H56.7734C57.1925 18.9926 57.4919 19.2931 57.4919 19.7138V26.5057Z" fill="#737373"/>
<path d="M56.716 27.8271H41.5673C40.8488 27.8271 40.25 27.2261 40.25 26.5048V19.7129C40.25 18.9917 40.8488 18.3906 41.5673 18.3906H56.7759C57.4944 18.3906 58.0932 18.9917 58.0932 19.7129V26.5048C58.0333 27.2261 57.4346 27.8271 56.716 27.8271ZM41.5673 18.5709C40.9685 18.5709 40.4296 19.0518 40.4296 19.7129V26.5048C40.4296 27.1059 40.9086 27.6468 41.5673 27.6468H56.7759C57.3747 27.6468 57.9136 27.166 57.9136 26.5048V19.7129C57.9136 19.1119 57.4346 18.5709 56.7759 18.5709H41.5673ZM56.716 27.3463H41.5673C41.0883 27.3463 40.729 26.9857 40.729 26.5048V19.7129C40.729 19.2321 41.0883 18.8715 41.5673 18.8715H56.7759C57.2549 18.8715 57.6142 19.2321 57.6142 19.7129V26.5048C57.5543 26.9857 57.1951 27.3463 56.716 27.3463ZM41.5673 19.1119C41.208 19.1119 40.9086 19.4124 40.9086 19.773V26.5649C40.9086 26.9256 41.208 27.2261 41.5673 27.2261H56.7759C57.1352 27.2261 57.4346 26.9256 57.4346 26.5649V19.7129C57.4346 19.3523 57.1352 19.0518 56.7759 19.0518H41.5673V19.1119Z" fill="#737373"/>
<path d="M46.4177 25.8434H43.6634C43.5437 25.8434 43.4239 25.7833 43.3042 25.6631L42.2863 24.4009C42.2264 24.3408 42.1665 24.2206 42.1665 24.1004V22.177C42.1665 22.0568 42.2264 21.9366 42.2863 21.8765L43.3042 20.6143C43.364 20.4941 43.5437 20.434 43.6634 20.434H46.4177C46.5375 20.434 46.6573 20.3138 46.6573 20.1935C46.6573 20.0733 46.5375 19.9531 46.4177 19.9531H43.6634C43.364 19.9531 43.1245 20.0733 42.9449 20.3138L41.927 21.576C41.8073 21.7563 41.6875 21.9967 41.6875 22.177V24.1004C41.6875 24.3408 41.7474 24.5211 41.927 24.7014L42.9449 25.9636C43.1245 26.2041 43.4239 26.3243 43.6634 26.3243H46.4177C46.5375 26.3243 46.6573 26.2041 46.6573 26.0839C46.7171 25.9636 46.5974 25.8434 46.4177 25.8434Z" fill="#737373"/>
<path d="M46.4164 26.4445H43.6621C43.3627 26.4445 43.0633 26.3243 42.8238 26.0839L41.8059 24.8216C41.6263 24.6413 41.5664 24.4009 41.5664 24.1605V22.2371C41.5664 21.9967 41.6263 21.7563 41.8059 21.576L42.8238 20.3138C43.0034 20.0733 43.3028 19.9531 43.6022 19.9531H46.3565C46.5362 19.9531 46.7158 20.1334 46.7158 20.3138C46.7158 20.4941 46.5362 20.6744 46.3565 20.6744H43.6022C43.4825 20.6744 43.3627 20.7345 43.3028 20.7946L42.2849 22.0568C42.225 22.1169 42.1652 22.2371 42.1652 22.2972V24.2206C42.1652 24.3408 42.225 24.4009 42.2849 24.461L43.3028 25.7232C43.3627 25.7833 43.4825 25.8434 43.6022 25.8434H46.3565C46.5362 25.8434 46.7158 26.0237 46.7158 26.2041C46.7757 26.2642 46.6559 26.4445 46.4164 26.4445ZM43.6621 20.0132C43.4226 20.0132 43.1831 20.1334 43.0034 20.3138L41.9855 21.6361C41.8658 21.8164 41.8059 21.9967 41.8059 22.2371V24.1605C41.8059 24.3408 41.8658 24.5812 41.9855 24.7014L43.0034 25.9636C43.1831 26.144 43.4226 26.2642 43.6621 26.2642H46.4164C46.4763 26.2642 46.596 26.2041 46.596 26.0839C46.596 26.0237 46.5362 25.9035 46.4164 25.9035H43.6621C43.4825 25.9035 43.3627 25.8434 43.243 25.7232L42.225 24.461C42.1652 24.3408 42.1053 24.2206 42.1053 24.1004V22.177C42.1053 22.0568 42.1652 21.9366 42.225 21.8164L43.243 20.5542C43.3627 20.434 43.4825 20.3739 43.6621 20.3739H46.4164C46.4763 20.3739 46.596 20.3138 46.596 20.1935C46.596 20.1334 46.5362 20.0132 46.4164 20.0132H43.6621Z" fill="#737373"/>
<path d="M55.3373 20.3138C55.1577 20.0733 54.8583 19.9531 54.6188 19.9531H51.8645C51.7447 19.9531 51.625 20.0733 51.625 20.1935C51.625 20.3138 51.7447 20.434 51.8645 20.434H54.6188C54.7386 20.434 54.8583 20.4941 54.9781 20.6143L55.996 21.8765C56.0559 21.9366 56.1157 22.0568 56.1157 22.177V24.1004C56.1157 24.2206 56.0559 24.3408 55.996 24.4009L54.9781 25.6631C54.8583 25.7833 54.7386 25.8434 54.6188 25.8434H51.8645C51.7447 25.8434 51.625 25.9636 51.625 26.0839C51.625 26.2041 51.7447 26.3243 51.8645 26.3243H54.6188C54.9182 26.3243 55.1577 26.2041 55.3373 25.9636L56.3552 24.7014C56.475 24.5211 56.5948 24.2807 56.5948 24.1004V22.177C56.5948 21.9366 56.5349 21.6962 56.3552 21.576L55.3373 20.3138Z" fill="#737373"/>
<path d="M54.6188 26.4436H51.8644C51.6848 26.4436 51.5052 26.2633 51.5052 26.083C51.5052 25.9027 51.6848 25.7223 51.8644 25.7223H54.6188C54.7385 25.7223 54.8583 25.6622 54.9182 25.6021L55.9361 24.3399C55.9959 24.2798 55.9959 24.1596 55.9959 24.0995V22.1761C55.9959 22.0559 55.9361 21.9958 55.8762 21.9357L54.8583 20.6735C54.7984 20.6134 54.6786 20.5533 54.5589 20.5533H51.8046C51.6249 20.5533 51.4453 20.373 51.4453 20.1927C51.4453 20.0123 51.6249 19.832 51.8046 19.832H54.5589C54.8583 19.832 55.1577 19.9522 55.3373 20.1927L56.3552 21.4549C56.5348 21.6352 56.5947 21.8756 56.5947 22.116V24.0394C56.5947 24.2798 56.5348 24.5202 56.3552 24.7006L55.3373 25.9628C55.2175 26.3234 54.9182 26.4436 54.6188 26.4436ZM51.8644 25.9628C51.8046 25.9628 51.6848 26.0229 51.6848 26.1431C51.6848 26.2032 51.7447 26.3234 51.8644 26.3234H54.6188C54.8583 26.3234 55.0978 26.2032 55.2774 26.0229L56.2953 24.7607C56.4151 24.5803 56.4749 24.4 56.4749 24.2197V22.2963C56.4749 22.116 56.4151 21.8756 56.2953 21.6953L55.2774 20.4331C55.0978 20.2528 54.8583 20.1326 54.6188 20.1326H51.8644C51.8046 20.1326 51.6848 20.1927 51.6848 20.3129C51.6848 20.373 51.7447 20.4932 51.8644 20.4932H54.6188C54.7984 20.4932 54.9182 20.5533 55.0379 20.6735L56.0558 21.9357C56.1157 22.0559 56.1756 22.1761 56.1756 22.2963V24.2197C56.1756 24.3399 56.1157 24.4601 56.0558 24.5803L55.0379 25.8425C54.9182 25.9628 54.7984 26.0229 54.6188 26.0229H51.8644V25.9628Z" fill="#737373"/>
<path d="M43.9007 29.2109H42.9426C42.8229 29.2109 42.7031 29.3311 42.7031 29.4514C42.7031 29.5716 42.8229 29.6918 42.9426 29.6918H43.9007C44.0204 29.6918 44.1402 29.5716 44.1402 29.4514C44.1402 29.3311 44.0204 29.2109 43.9007 29.2109Z" fill="#737373"/>
<path d="M43.9032 29.8111H42.9452C42.7656 29.8111 42.5859 29.6308 42.5859 29.4505C42.5859 29.2702 42.7656 29.0898 42.9452 29.0898H43.9032C44.0829 29.0898 44.2625 29.2702 44.2625 29.4505C44.2026 29.6909 44.0829 29.8111 43.9032 29.8111ZM42.8853 29.3303C42.8254 29.3303 42.7057 29.3904 42.7057 29.5106C42.7057 29.5707 42.7656 29.6909 42.8853 29.6909H43.8433C43.9032 29.6909 44.023 29.6308 44.023 29.5106C44.023 29.4505 43.9631 29.3303 43.8433 29.3303H42.8853Z" fill="#737373"/>
<path d="M49.2876 29.2109H44.8567C44.7369 29.2109 44.6172 29.3311 44.6172 29.4514C44.6172 29.5716 44.7369 29.6918 44.8567 29.6918H49.2876C49.4073 29.6918 49.5271 29.5716 49.5271 29.4514C49.5271 29.3311 49.4672 29.2109 49.2876 29.2109Z" fill="#737373"/>
<path d="M49.2901 29.8111H44.8593C44.6796 29.8111 44.5 29.6308 44.5 29.4505C44.5 29.2702 44.6796 29.0898 44.8593 29.0898H49.2901C49.4698 29.0898 49.6494 29.2702 49.6494 29.4505C49.6494 29.6909 49.4698 29.8111 49.2901 29.8111ZM44.8593 29.3303C44.7994 29.3303 44.6796 29.3904 44.6796 29.5106C44.6796 29.5707 44.7395 29.6909 44.8593 29.6909H49.2901C49.35 29.6909 49.4698 29.6308 49.4698 29.5106C49.4698 29.4505 49.4099 29.3303 49.2901 29.3303H44.8593Z" fill="#737373"/>
<path d="M40.854 28.6662C40.854 28.546 40.7343 28.4258 40.6145 28.4258C40.4948 28.4258 40.375 28.546 40.375 28.6662C40.375 28.7864 40.375 28.9667 40.4349 29.0869C40.4948 29.2071 40.5546 29.2673 40.6744 29.2673C40.7343 29.2673 40.7343 29.2673 40.7941 29.2673C40.9139 29.2071 40.9738 29.0869 40.9139 28.9667C40.854 28.7864 40.854 28.7263 40.854 28.6662Z" fill="#737373"/>
<path d="M40.6718 29.2679C40.552 29.2679 40.4323 29.2078 40.3724 29.0275C40.3125 28.9073 40.3125 28.7269 40.3125 28.6067C40.3125 28.4264 40.4921 28.2461 40.6718 28.2461C40.8514 28.2461 41.031 28.4264 41.031 28.6067C41.031 28.6668 41.031 28.7269 41.0909 28.787C41.1508 28.8471 41.1508 28.9674 41.0909 29.0275C41.031 29.0876 40.9711 29.1477 40.9113 29.2078C40.7316 29.2679 40.6718 29.2679 40.6718 29.2679ZM40.6119 28.4865C40.552 28.4865 40.4323 28.5466 40.4323 28.6668C40.4323 28.787 40.4323 28.9073 40.4921 29.0275C40.552 29.0876 40.6119 29.1477 40.6718 29.0876C40.7316 29.0876 40.7316 29.0275 40.7316 29.0275C40.7316 28.9674 40.7316 28.9674 40.7316 28.9072C40.6718 28.8471 40.6718 28.7269 40.6718 28.6668C40.7316 28.5466 40.6718 28.4865 40.6119 28.4865Z" fill="#737373"/>
<path d="M41.9216 29.2109H41.4426C41.3229 29.2109 41.2031 29.3311 41.2031 29.4514C41.2031 29.5716 41.3229 29.6918 41.4426 29.6918H41.9216C42.0414 29.6918 42.1611 29.5716 42.1611 29.4514C42.1611 29.3311 42.0414 29.2109 41.9216 29.2109Z" fill="#737373"/>
<path d="M41.9242 29.8111H41.4452C41.2656 29.8111 41.0859 29.6308 41.0859 29.4505C41.0859 29.2702 41.2656 29.0898 41.4452 29.0898H41.9242C42.1038 29.0898 42.2835 29.2702 42.2835 29.4505C42.2236 29.6909 42.1038 29.8111 41.9242 29.8111ZM41.3853 29.3303C41.3254 29.3303 41.2057 29.3904 41.2057 29.5106C41.2057 29.5707 41.2656 29.6909 41.3853 29.6909H41.8643C41.9242 29.6909 42.044 29.6308 42.044 29.5106C42.044 29.4505 41.9841 29.3303 41.8643 29.3303H41.3853Z" fill="#737373"/>
<path d="M50.7888 29.2109H50.3098C50.1901 29.2109 50.0703 29.3311 50.0703 29.4514C50.0703 29.5716 50.1901 29.6918 50.3098 29.6918H50.7888C50.9086 29.6918 51.0283 29.5716 51.0283 29.4514C51.0283 29.3311 50.9086 29.2109 50.7888 29.2109Z" fill="#737373"/>
<path d="M50.7875 29.8111H50.3085C50.1288 29.8111 49.9492 29.6308 49.9492 29.4505C49.9492 29.2702 50.1288 29.0898 50.3085 29.0898H50.7875C50.9671 29.0898 51.1467 29.2702 51.1467 29.4505C51.1467 29.6909 50.9671 29.8111 50.7875 29.8111ZM50.3085 29.3303C50.2486 29.3303 50.1289 29.3904 50.1289 29.5106C50.1289 29.5707 50.1887 29.6909 50.3085 29.6909H50.7875C50.8474 29.6909 50.9671 29.6308 50.9671 29.5106C50.9671 29.4505 50.9072 29.3303 50.7875 29.3303H50.3085Z" fill="#737373"/>
<path d="M52.7652 29.2109H51.7473C51.6276 29.2109 51.5078 29.3311 51.5078 29.4514C51.5078 29.5716 51.6276 29.6918 51.7473 29.6918H52.7053C52.8251 29.6918 52.9449 29.5716 52.9449 29.4514C53.0047 29.3311 52.885 29.2109 52.7652 29.2109Z" fill="#737373"/>
<path d="M52.7639 29.8111H51.746C51.5663 29.8111 51.3867 29.6308 51.3867 29.4505C51.3867 29.2702 51.5663 29.0898 51.746 29.0898H52.704C52.8836 29.0898 53.0633 29.2702 53.0633 29.4505C53.1231 29.6909 52.9435 29.8111 52.7639 29.8111ZM51.746 29.3303C51.6861 29.3303 51.5663 29.3904 51.5663 29.5106C51.5663 29.5707 51.6262 29.6909 51.746 29.6909H52.704C52.7639 29.6909 52.8836 29.6308 52.8836 29.5106C52.8836 29.4505 52.8238 29.3303 52.704 29.3303H51.746Z" fill="#737373"/>
<path d="M57.7304 28.4258C57.6107 28.4258 57.4909 28.546 57.4909 28.6662C57.4909 28.9667 57.2514 29.2673 56.8921 29.2673H53.7786C53.6588 29.2673 53.5391 29.3875 53.5391 29.5077C53.5391 29.6279 53.6588 29.7481 53.7786 29.7481H56.8921C57.4909 29.7481 57.9699 29.2673 57.9699 28.6662C57.9699 28.4859 57.8502 28.4258 57.7304 28.4258Z" fill="#737373"/>
<path d="M56.8947 29.8088H53.7811C53.6015 29.8088 53.4219 29.6285 53.4219 29.4482C53.4219 29.2679 53.6015 29.0876 53.7811 29.0876H56.8947C57.1941 29.0876 57.3737 28.8471 57.3737 28.6067C57.3737 28.4264 57.5534 28.2461 57.733 28.2461C57.9126 28.2461 58.0922 28.4264 58.0922 28.6067C58.0324 29.2679 57.5534 29.8088 56.8947 29.8088ZM53.7213 29.328C53.6614 29.328 53.5416 29.3881 53.5416 29.5083C53.5416 29.5684 53.6015 29.6886 53.7213 29.6886H56.8348C57.3737 29.6886 57.7929 29.2679 57.7929 28.7269C57.7929 28.6668 57.733 28.5466 57.6132 28.5466C57.5534 28.5466 57.4336 28.6067 57.4336 28.7269C57.4336 29.0876 57.1342 29.3881 56.775 29.3881H53.7213V29.328Z" fill="#737373"/>
<path d="M51.6858 24.402C51.8655 24.0414 51.9852 23.6207 51.9852 23.1398C51.9852 21.5771 50.7278 20.375 49.2309 20.375C47.6741 20.375 46.4766 21.6372 46.4766 23.1398C46.4766 24.7026 47.734 25.9047 49.2309 25.9047C49.4704 25.9047 49.7099 25.9047 49.8895 25.8446C49.9494 25.8446 50.0093 25.7845 50.0692 25.7244C50.129 25.6643 50.129 25.6041 50.0692 25.544C50.0692 25.4839 50.0093 25.4238 50.0093 25.4238C49.9494 25.3637 49.8895 25.3637 49.7698 25.3637C49.5901 25.4238 49.4105 25.4238 49.2309 25.4238C47.9735 25.4238 46.9556 24.402 46.9556 23.1398C46.9556 21.8776 47.9735 20.8558 49.2309 20.8558C50.4883 20.8558 51.5062 21.8776 51.5062 23.1398C51.5062 23.5005 51.4463 23.8611 51.2667 24.1616C51.2667 24.2217 51.0871 24.4622 50.9074 24.5223H50.8476C50.7877 24.5223 50.7877 24.5223 50.7877 24.5223C50.7278 24.4622 50.7278 24.402 50.7278 24.402V24.3419V23.1999C50.7278 22.3585 50.0692 21.6973 49.2908 21.6973C48.5124 21.6973 47.8537 22.3585 47.8537 23.1999C47.8537 24.0414 48.5124 24.7627 49.2908 24.7627C49.65 24.7627 49.9494 24.6425 50.1889 24.402V24.4622C50.1889 24.5824 50.2488 24.7627 50.3087 24.8829C50.3685 24.943 50.5482 25.1233 50.7877 25.1233C50.8476 25.1233 50.9074 25.1233 50.9673 25.1233C51.2068 24.943 51.4463 24.7627 51.6858 24.402ZM49.171 22.118C49.65 22.118 50.0692 22.5989 50.0692 23.1398C50.0692 23.6808 49.65 24.1015 49.171 24.1015C48.692 24.1015 48.2729 23.6808 48.2729 23.1398C48.2729 22.5989 48.692 22.118 49.171 22.118Z" fill="#737373"/>
<path d="M49.1709 26.024C47.6142 26.024 46.2969 24.7017 46.2969 23.139C46.2969 21.5762 47.6142 20.2539 49.1709 20.2539C50.7277 20.2539 52.045 21.5161 52.045 23.139C52.045 23.6198 51.9253 24.0405 51.7456 24.4613V24.5214C51.5061 24.8219 51.2666 25.0623 50.9672 25.1224C50.9074 25.1224 50.8475 25.1224 50.7876 25.1224C50.4882 25.1224 50.3086 24.9421 50.1889 24.8219C50.129 24.7017 50.0691 24.5815 50.0691 24.4613C49.8296 24.6416 49.5302 24.7017 49.2308 24.7017C48.3926 24.7017 47.674 23.9804 47.674 23.0789C47.674 22.1773 48.3926 21.456 49.2308 21.456C50.0691 21.456 50.7876 22.1773 50.7876 23.0789V24.3411C50.7876 24.3411 50.7876 24.3411 50.7876 24.4012H50.8475C50.9672 24.3411 51.1469 24.1607 51.1469 24.1006C51.3265 23.8001 51.3864 23.4395 51.3864 23.0789C51.3864 21.8767 50.4284 20.9151 49.2308 20.9151C48.0333 20.9151 47.0753 21.8767 47.0753 23.0789C47.0753 24.281 48.0333 25.2426 49.2308 25.2426C49.4105 25.2426 49.5901 25.2426 49.7697 25.1825C49.8895 25.1825 50.0092 25.1825 50.0691 25.2426C50.129 25.3027 50.1889 25.3628 50.1889 25.423C50.1889 25.4831 50.1889 25.6033 50.129 25.6634C50.0691 25.7235 50.0092 25.7836 49.8895 25.8437C49.65 25.9639 49.4105 26.024 49.1709 26.024ZM49.1709 20.4342C47.674 20.4342 46.4765 21.6363 46.4765 23.139C46.4765 24.6416 47.674 25.8437 49.1709 25.8437C49.4105 25.8437 49.5901 25.8437 49.8296 25.7836C49.8895 25.7836 49.9493 25.7235 49.9493 25.7235C49.9493 25.6634 49.9493 25.6634 49.9493 25.6033C49.9493 25.5432 49.9493 25.5432 49.8895 25.4831C49.8296 25.4831 49.7697 25.423 49.7098 25.4831C49.5302 25.5432 49.3506 25.5432 49.1111 25.5432C47.7938 25.5432 46.7759 24.4613 46.7759 23.1991C46.7759 21.8767 47.8537 20.855 49.1111 20.855C50.4284 20.855 51.4463 21.9369 51.4463 23.1991C51.4463 23.6198 51.3864 23.9804 51.2067 24.281C51.1469 24.3411 50.9672 24.6416 50.7876 24.7017H50.7277C50.6679 24.7017 50.6679 24.7017 50.608 24.7017L50.5481 24.5214C50.5481 24.4613 50.5481 24.4613 50.5481 24.4012V24.3411V23.1991C50.5481 22.4177 49.9493 21.7565 49.1709 21.7565C48.3926 21.7565 47.7938 22.4177 47.7938 23.1991C47.7938 23.9804 48.3926 24.6416 49.1709 24.6416C49.4703 24.6416 49.7697 24.5214 50.0092 24.281L50.1889 24.1607V24.4613C50.1889 24.5815 50.2487 24.7017 50.3086 24.8219C50.3685 24.882 50.4882 25.0022 50.7277 25.0022C50.7876 25.0022 50.8475 25.0022 50.9074 25.0022C51.1469 24.9421 51.3864 24.7618 51.566 24.4613V24.4012C51.7456 24.0405 51.8654 23.6198 51.8654 23.1991C51.8654 21.6363 50.6679 20.4342 49.1709 20.4342ZM49.1709 24.2208C48.6321 24.2208 48.153 23.74 48.153 23.139C48.153 22.5379 48.5722 22.0571 49.1709 22.0571C49.7098 22.0571 50.1889 22.5379 50.1889 23.139C50.1889 23.74 49.7697 24.2208 49.1709 24.2208ZM49.1709 22.2374C48.6919 22.2374 48.3327 22.6581 48.3327 23.139C48.3327 23.6198 48.6919 24.0405 49.1709 24.0405C49.65 24.0405 50.0092 23.6198 50.0092 23.139C50.0092 22.6581 49.65 22.2374 49.1709 22.2374Z" fill="#737373"/>
<path d="M49.1746 66.1765C39.235 66.1765 29.8943 59.9255 25.4634 50.1885L25.1641 49.5273H33.0678V50.4289H26.5412C30.9721 59.4447 39.7739 65.2749 49.1746 65.2749C59.1141 65.2749 68.0357 59.4447 72.1671 50.4289H65.461V49.5273H73.5443L73.3048 50.1284C69.1134 59.9255 59.653 66.1765 49.1746 66.1765Z" fill="#737373"/>
<path d="M41.6318 61.6687H56.8404C57.499 61.6687 58.0379 61.1278 58.0379 60.4666V53.6748C58.0379 53.0136 57.499 52.4727 56.8404 52.4727H41.6318C40.9731 52.4727 40.4342 53.0136 40.4342 53.6748V60.4666C40.3744 61.1278 40.9132 61.6687 41.6318 61.6687ZM40.8534 53.6748C40.8534 53.254 41.1528 52.9535 41.5719 52.9535H56.7805C57.1997 52.9535 57.499 53.254 57.499 53.6748V60.4666C57.499 60.8874 57.1997 61.1879 56.7805 61.1879H41.6318C41.2126 61.1879 40.9132 60.8874 40.9132 60.4666V53.6748H40.8534Z" fill="#737373"/>
<path d="M56.7785 61.728H41.6298C40.9113 61.728 40.3125 61.1269 40.3125 60.4057V53.6739C40.3125 52.9526 40.9113 52.3516 41.6298 52.3516H56.8384C57.5569 52.3516 58.1557 52.9526 58.1557 53.6739V60.4658C58.0958 61.187 57.4971 61.728 56.7785 61.728ZM41.6298 52.5319C41.031 52.5319 40.4921 53.0127 40.4921 53.6739V60.4658C40.4921 61.0668 40.9711 61.6078 41.6298 61.6078H56.8384C57.4372 61.6078 57.9761 61.1269 57.9761 60.4658V53.6739C57.9761 53.0728 57.4971 52.5319 56.8384 52.5319H41.6298ZM56.7785 61.2471H41.6298C41.1508 61.2471 40.7915 60.8865 40.7915 60.4057V53.6739C40.7915 53.193 41.1508 52.8324 41.6298 52.8324H56.8384C57.3174 52.8324 57.6767 53.193 57.6767 53.6739V60.4658C57.6168 60.8865 57.2576 61.2471 56.7785 61.2471ZM41.6298 53.0127C41.2705 53.0127 40.9711 53.3132 40.9711 53.6739V60.4658C40.9711 60.8264 41.2705 61.1269 41.6298 61.1269H56.8384C57.1977 61.1269 57.4971 60.8264 57.4971 60.4658V53.6739C57.4971 53.3132 57.1977 53.0127 56.8384 53.0127H41.6298Z" fill="#737373"/>
<path d="M51.927 54.3363H54.6813C54.801 54.3363 54.9208 54.3964 55.0405 54.5166L56.0584 55.7788C56.1183 55.8389 56.1782 55.9592 56.1782 56.0794V58.0027C56.1782 58.1229 56.1183 58.2431 56.0584 58.3033L55.0405 59.5655C54.9807 59.6857 54.801 59.7458 54.6813 59.7458H51.927C51.8072 59.7458 51.6875 59.866 51.6875 59.9862C51.6875 60.1064 51.8072 60.2266 51.927 60.2266H54.6813C54.9807 60.2266 55.2202 60.1064 55.3998 59.866L56.4177 58.6038C56.5375 58.4235 56.6572 58.183 56.6572 58.0027V56.0794C56.6572 55.8389 56.5973 55.6586 56.4177 55.4783L55.3998 54.2161C55.2202 53.9757 54.9208 53.8555 54.6813 53.8555H51.927C51.8072 53.8555 51.6875 53.9757 51.6875 54.0959C51.6276 54.2161 51.7473 54.3363 51.927 54.3363Z" fill="#737373"/>
<path d="M54.6214 60.3459H51.8671C51.6874 60.3459 51.5078 60.1656 51.5078 59.9853C51.5078 59.805 51.6874 59.6247 51.8671 59.6247H54.6214C54.7411 59.6247 54.8609 59.5646 54.9208 59.5045L55.9387 58.2423C55.9986 58.1822 56.0584 58.0619 56.0584 58.0018V56.0785C56.0584 55.9583 55.9986 55.8982 55.9387 55.8381L54.9208 54.5758C54.8609 54.5157 54.7411 54.4556 54.6214 54.4556H51.8671C51.6874 54.4556 51.5078 54.2753 51.5078 54.095C51.5078 53.9147 51.6874 53.7344 51.8671 53.7344H54.6214C54.9208 53.7344 55.2202 53.8546 55.3998 54.095L56.4177 55.3572C56.5973 55.5375 56.6572 55.7779 56.6572 56.0184V57.9417C56.6572 58.1822 56.5973 58.4226 56.4177 58.6029L55.3998 59.8651C55.28 60.1656 54.9807 60.3459 54.6214 60.3459ZM51.927 59.805C51.8671 59.805 51.7473 59.8651 51.7473 59.9853C51.7473 60.0454 51.8072 60.1656 51.927 60.1656H54.6813C54.9208 60.1656 55.1603 60.0454 55.3399 59.8651L56.3578 58.6029C56.4776 58.4226 56.5374 58.2423 56.5374 58.0018V56.0785C56.5374 55.8982 56.4776 55.6577 56.3578 55.5375L55.3399 54.2152C55.1603 54.0349 54.9208 53.9147 54.6813 53.9147H51.927C51.8671 53.9147 51.7473 53.9748 51.7473 54.095C51.7473 54.1551 51.8072 54.2753 51.927 54.2753H54.6813C54.8609 54.2753 54.9807 54.3354 55.1004 54.4556L56.1183 55.7178C56.1782 55.8381 56.2381 55.9583 56.2381 56.0785V58.0018C56.2381 58.1221 56.1782 58.2423 56.1183 58.3625L55.1004 59.6247C54.9807 59.7449 54.8609 59.805 54.6813 59.805H51.927Z" fill="#737373"/>
<path d="M43.0074 59.866C43.187 60.1064 43.4864 60.2266 43.7259 60.2266H46.4802C46.6 60.2266 46.7198 60.1064 46.7198 59.9862C46.7198 59.866 46.6 59.7458 46.4802 59.7458H43.7259C43.6062 59.7458 43.4864 59.6857 43.3667 59.5655L42.3488 58.3033C42.2889 58.2431 42.229 58.1229 42.229 58.0027V56.0794C42.229 55.9592 42.2889 55.8389 42.3488 55.7788L43.3667 54.5166C43.4265 54.3964 43.6062 54.3363 43.7259 54.3363H46.4802C46.6 54.3363 46.7198 54.2161 46.7198 54.0959C46.7198 53.9757 46.6 53.8555 46.4802 53.8555H43.7259C43.4265 53.8555 43.187 53.9757 43.0074 54.2161L41.9895 55.4783C41.8697 55.6586 41.75 55.899 41.75 56.0794V58.0027C41.75 58.2431 41.8099 58.4836 41.9895 58.6038L43.0074 59.866Z" fill="#737373"/>
<path d="M46.4776 60.3468H43.7233C43.4239 60.3468 43.1245 60.2266 42.9449 59.9862L41.927 58.724C41.7474 58.5437 41.6875 58.3033 41.6875 58.0628V56.1395C41.6875 55.899 41.7474 55.6586 41.927 55.4783L42.9449 54.2161C43.1245 53.9757 43.4239 53.8555 43.7832 53.8555H46.5375C46.7171 53.8555 46.8968 54.0358 46.8968 54.2161C46.8968 54.3964 46.7171 54.5767 46.5375 54.5767H43.7832C43.6634 54.5767 43.5437 54.6368 43.4838 54.6969L42.4659 55.9592C42.406 56.0193 42.3461 56.1395 42.3461 56.1996V58.1229C42.3461 58.2431 42.406 58.3033 42.4659 58.3634L43.4838 59.6256C43.5437 59.6857 43.6634 59.7458 43.7832 59.7458H46.5375C46.7171 59.7458 46.8968 59.9261 46.8968 60.1064C46.8369 60.1665 46.6573 60.3468 46.4776 60.3468ZM43.0647 59.8059C43.2443 59.9862 43.4838 60.1064 43.7233 60.1064H46.4776C46.5375 60.1064 46.6573 60.0463 46.6573 59.9261C46.6573 59.866 46.5974 59.7458 46.4776 59.7458H43.7233C43.5437 59.7458 43.4239 59.6857 43.3042 59.5655L42.2863 58.3033C42.2264 58.183 42.1665 58.0628 42.1665 57.9426V56.0193C42.1665 55.899 42.2264 55.7788 42.2863 55.6586L43.3042 54.3964C43.4239 54.2762 43.5437 54.2161 43.7233 54.2161H46.4776C46.5375 54.2161 46.6573 54.156 46.6573 54.0358C46.6573 53.9757 46.5974 53.8555 46.4776 53.8555H43.7233C43.4838 53.8555 43.2443 53.9757 43.0647 54.156L42.0468 55.4182C41.927 55.5985 41.8671 55.7788 41.8671 55.9592V57.8825C41.8671 58.0628 41.927 58.3033 42.0468 58.4836L43.0647 59.8059Z" fill="#737373"/>
<path d="M54.4426 50.9105H55.4007C55.5204 50.9105 55.6402 50.7903 55.6402 50.6701C55.6402 50.5499 55.5204 50.4297 55.4007 50.4297H54.4426C54.3229 50.4297 54.2031 50.5499 54.2031 50.6701C54.2031 50.8504 54.3229 50.9105 54.4426 50.9105Z" fill="#737373"/>
<path d="M55.4579 51.0299H54.4999C54.3203 51.0299 54.1406 50.8495 54.1406 50.6692C54.1406 50.4889 54.3203 50.3086 54.4999 50.3086H55.4579C55.6375 50.3086 55.8172 50.4889 55.8172 50.6692C55.7573 50.8495 55.6375 51.0299 55.4579 51.0299ZM54.44 50.549C54.3801 50.549 54.2604 50.6091 54.2604 50.7293C54.2604 50.7894 54.3203 50.9096 54.44 50.9096H55.398C55.4579 50.9096 55.5777 50.8495 55.5777 50.7293C55.5777 50.6692 55.5178 50.549 55.398 50.549H54.44Z" fill="#737373"/>
<path d="M49.052 50.9105H53.4829C53.6026 50.9105 53.7224 50.7903 53.7224 50.6701C53.7224 50.5499 53.6026 50.4297 53.4829 50.4297H49.052C48.9323 50.4297 48.8125 50.5499 48.8125 50.6701C48.8125 50.8504 48.8724 50.9105 49.052 50.9105Z" fill="#737373"/>
<path d="M53.4854 51.0299H49.0546C48.8749 51.0299 48.6953 50.8495 48.6953 50.6692C48.6953 50.4889 48.8749 50.3086 49.0546 50.3086H53.4854C53.6651 50.3086 53.8447 50.4889 53.8447 50.6692C53.7848 50.8495 53.6651 51.0299 53.4854 51.0299ZM49.0546 50.549C48.9947 50.549 48.8749 50.6091 48.8749 50.7293C48.8749 50.7894 48.9348 50.9096 49.0546 50.9096H53.4854C53.5453 50.9096 53.6651 50.8495 53.6651 50.7293C53.6651 50.6692 53.6052 50.549 53.4854 50.549H49.0546Z" fill="#737373"/>
<path d="M57.4935 51.5112C57.4935 51.6314 57.6133 51.7516 57.733 51.7516C57.8528 51.7516 57.9725 51.6314 57.9725 51.5112C57.9725 51.391 57.9725 51.2107 57.9127 51.0905C57.8528 50.9703 57.7929 50.9102 57.6732 50.9102C57.6133 50.9102 57.6133 50.9102 57.5534 50.9102C57.4336 50.9703 57.3738 51.0905 57.4336 51.2107C57.4935 51.391 57.4935 51.4511 57.4935 51.5112Z" fill="#737373"/>
<path d="M57.7336 51.8709C57.5539 51.8709 57.3743 51.6906 57.3743 51.5103C57.3743 51.4502 57.3743 51.3901 57.3144 51.33C57.2546 51.2699 57.2546 51.1497 57.3144 51.0896C57.3743 51.0295 57.4342 50.9694 57.4941 50.9093C57.6737 50.8492 57.8533 50.9093 57.9132 51.0896C57.9731 51.2098 57.9731 51.3901 57.9731 51.5103C58.0928 51.6906 57.9132 51.8709 57.7336 51.8709ZM57.6737 51.0295C57.5539 51.0295 57.5539 51.0896 57.5539 51.1497C57.5539 51.2098 57.5539 51.2098 57.5539 51.2699C57.6138 51.33 57.6138 51.4502 57.6138 51.5103C57.6138 51.5704 57.6737 51.6906 57.7934 51.6906C57.8533 51.6906 57.9731 51.6305 57.9731 51.5103C57.9731 51.3901 57.9731 51.2699 57.9132 51.1497C57.7935 51.0896 57.7336 51.0295 57.6737 51.0295Z" fill="#737373"/>
<path d="M56.4192 50.9105H56.8982C57.018 50.9105 57.1377 50.7903 57.1377 50.6701C57.1377 50.5499 57.018 50.4297 56.8982 50.4297H56.4192C56.2994 50.4297 56.1797 50.5499 56.1797 50.6701C56.1797 50.8504 56.2994 50.9105 56.4192 50.9105Z" fill="#737373"/>
<path d="M56.9555 51.0299H56.4764C56.2968 51.0299 56.1172 50.8495 56.1172 50.6692C56.1172 50.4889 56.2968 50.3086 56.4764 50.3086H56.9555C57.1351 50.3086 57.3147 50.4889 57.3147 50.6692C57.2548 50.8495 57.1351 51.0299 56.9555 51.0299ZM56.4166 50.549C56.3567 50.549 56.2369 50.6091 56.2369 50.7293C56.2369 50.7894 56.2968 50.9096 56.4166 50.9096H56.8956C56.9555 50.9096 57.0752 50.8495 57.0752 50.7293C57.0752 50.6692 57.0153 50.549 56.8956 50.549H56.4166Z" fill="#737373"/>
<path d="M47.552 50.9105H48.031C48.1508 50.9105 48.2705 50.7903 48.2705 50.6701C48.2705 50.5499 48.1508 50.4297 48.031 50.4297H47.552C47.4323 50.4297 47.3125 50.5499 47.3125 50.6701C47.3125 50.8504 47.4323 50.9105 47.552 50.9105Z" fill="#737373"/>
<path d="M48.0336 51.0299H47.5546C47.3749 51.0299 47.1953 50.8495 47.1953 50.6692C47.1953 50.4889 47.3749 50.3086 47.5546 50.3086H48.0336C48.2132 50.3086 48.3928 50.4889 48.3928 50.6692C48.3928 50.8495 48.2132 51.0299 48.0336 51.0299ZM47.5546 50.549C47.4947 50.549 47.3749 50.6091 47.3749 50.7293C47.3749 50.7894 47.4348 50.9096 47.5546 50.9096H48.0336C48.0935 50.9096 48.2132 50.8495 48.2132 50.7293C48.2132 50.6692 48.1533 50.549 48.0336 50.549H47.5546Z" fill="#737373"/>
<path d="M45.5754 50.9105H46.5335C46.6532 50.9105 46.773 50.7903 46.773 50.6701C46.773 50.5499 46.6532 50.4297 46.5335 50.4297H45.5754C45.4557 50.4297 45.3359 50.5499 45.3359 50.6701C45.3359 50.8504 45.4557 50.9105 45.5754 50.9105Z" fill="#737373"/>
<path d="M46.536 51.0299H45.578C45.3984 51.0299 45.2188 50.8495 45.2188 50.6692C45.2188 50.4889 45.3984 50.3086 45.578 50.3086H46.536C46.7157 50.3086 46.8953 50.4889 46.8953 50.6692C46.8953 50.8495 46.7755 51.0299 46.536 51.0299ZM45.578 50.549C45.5181 50.549 45.3984 50.6091 45.3984 50.7293C45.3984 50.7894 45.4583 50.9096 45.578 50.9096H46.536C46.5959 50.9096 46.7157 50.8495 46.7157 50.7293C46.7157 50.6692 46.6558 50.549 46.536 50.549H45.578Z" fill="#737373"/>
<path d="M40.6067 51.7481C40.7264 51.7481 40.8462 51.6279 40.8462 51.5077C40.8462 51.2071 41.0857 50.9066 41.445 50.9066H44.5585C44.6783 50.9066 44.7981 50.7864 44.7981 50.6662C44.7981 50.546 44.6783 50.4258 44.5585 50.4258H41.445C40.8462 50.4258 40.3672 50.9066 40.3672 51.5077C40.3672 51.6279 40.4869 51.7481 40.6067 51.7481Z" fill="#737373"/>
<path d="M40.6093 51.8698C40.4296 51.8698 40.25 51.6895 40.25 51.5092C40.25 50.848 40.7889 50.3672 41.3877 50.3672H44.5012C44.6809 50.3672 44.8605 50.5475 44.8605 50.7278C44.8605 50.9081 44.6809 51.0884 44.5012 51.0884H41.3877C41.0883 51.0884 40.9086 51.3289 40.9086 51.5693C40.9685 51.6895 40.7889 51.8698 40.6093 51.8698ZM41.4475 50.5475C40.9086 50.5475 40.4895 50.9682 40.4895 51.5092C40.4895 51.5693 40.5494 51.6895 40.6691 51.6895C40.729 51.6895 40.8488 51.6294 40.8488 51.5092C40.8488 51.1486 41.1481 50.848 41.5074 50.848H44.621C44.6809 50.848 44.8006 50.7879 44.8006 50.6677C44.8006 50.6076 44.7407 50.4874 44.621 50.4874H41.4475V50.5475Z" fill="#737373"/>
<path d="M46.6588 55.78C46.4791 56.1406 46.3594 56.5613 46.3594 57.0422C46.3594 58.6049 47.6168 59.807 49.1137 59.807C50.6705 59.807 51.868 58.5448 51.868 57.0422C51.868 55.4794 50.6106 54.2773 49.1137 54.2773C48.8742 54.2773 48.6347 54.2773 48.4551 54.3374C48.3952 54.3374 48.3353 54.3976 48.2754 54.4577C48.2155 54.5178 48.2155 54.5779 48.2754 54.638C48.2754 54.6981 48.3353 54.7582 48.3353 54.7582C48.3952 54.8183 48.4551 54.8183 48.5748 54.8183C48.7544 54.7582 48.9341 54.7582 49.1137 54.7582C50.3711 54.7582 51.389 55.78 51.389 57.0422C51.389 58.3044 50.3711 59.3262 49.1137 59.3262C47.8563 59.3262 46.8384 58.3044 46.8384 57.0422C46.8384 56.6816 46.8983 56.3209 47.0779 56.0204C47.0779 55.9603 47.2575 55.7199 47.4372 55.6598H47.497C47.5569 55.6598 47.5569 55.6598 47.5569 55.6598C47.6168 55.7199 47.6168 55.78 47.6168 55.78V55.8401V56.9821C47.6168 57.8235 48.2754 58.4847 49.0538 58.4847C49.8322 58.4847 50.4909 57.8235 50.4909 56.9821C50.4909 56.1406 49.8322 55.4193 49.0538 55.4193C48.6946 55.4193 48.3952 55.5396 48.1557 55.78V55.7199C48.1557 55.5997 48.0958 55.4193 48.0359 55.2991C47.976 55.239 47.7964 55.0587 47.5569 55.0587C47.497 55.0587 47.4372 55.0587 47.3773 55.0587C47.1378 55.239 46.8983 55.4193 46.6588 55.78ZM49.1736 58.0039C48.6946 58.0039 48.2754 57.523 48.2754 56.9821C48.2754 56.4411 48.6946 56.0204 49.1736 56.0204C49.6526 56.0204 50.0717 56.4411 50.0717 56.9821C50.0717 57.5831 49.6526 58.0039 49.1736 58.0039Z" fill="#737373"/>
<path d="M49.1709 59.9272C47.6142 59.9272 46.2969 58.665 46.2969 57.0422C46.2969 56.5613 46.4166 56.1406 46.5963 55.7199V55.6598C46.8358 55.3592 47.0753 55.1188 47.3747 55.0587C47.4345 55.0587 47.4944 55.0587 47.5543 55.0587C47.8537 55.0587 48.0333 55.239 48.153 55.3592C48.2129 55.4794 48.2728 55.5997 48.2728 55.7199C48.5123 55.5395 48.8117 55.4794 49.1111 55.4794C49.9493 55.4794 50.6679 56.2007 50.6679 57.1023C50.6679 58.0039 49.9493 58.7251 49.1111 58.7251C48.2728 58.7251 47.5543 58.0039 47.5543 57.1023V55.8401C47.5543 55.8401 47.5543 55.8401 47.5543 55.78H47.4944C47.3747 55.8401 47.195 56.0204 47.195 56.0805C47.0154 56.381 46.9555 56.7417 46.9555 57.1023C46.9555 58.3044 47.9135 59.2661 49.1111 59.2661C50.3086 59.2661 51.2666 58.3044 51.2666 57.1023C51.2666 55.9002 50.3086 54.9385 49.1111 54.9385C48.9314 54.9385 48.7518 54.9385 48.5722 54.9986C48.4524 54.9986 48.3327 54.9986 48.2728 54.9385C48.2129 54.8784 48.153 54.8183 48.153 54.7582C48.153 54.6981 48.153 54.5779 48.2129 54.5178C48.2728 54.4577 48.3327 54.3976 48.4524 54.3374C48.6919 54.2773 48.9314 54.2773 49.1709 54.2773C50.7277 54.2773 52.045 55.5997 52.045 57.1624C52.045 58.6049 50.7277 59.9272 49.1709 59.9272ZM46.716 55.8401C46.5364 56.2007 46.4166 56.6214 46.4166 57.0422C46.4166 58.5448 47.6142 59.7469 49.1111 59.7469C50.608 59.7469 51.8055 58.5448 51.8055 57.0422C51.8055 55.5396 50.608 54.3374 49.1111 54.3374C48.8716 54.3374 48.6919 54.3374 48.4524 54.3976C48.3926 54.3976 48.3327 54.4577 48.3327 54.4577C48.3327 54.5178 48.3327 54.5178 48.3327 54.5779C48.3327 54.638 48.3327 54.638 48.3926 54.6981C48.4524 54.6981 48.5123 54.7582 48.5722 54.6981C48.7518 54.638 48.9314 54.638 49.1709 54.638C50.4882 54.638 51.5061 55.7199 51.5061 56.9821C51.5061 58.3044 50.4284 59.3262 49.1709 59.3262C47.8537 59.3262 46.8358 58.2443 46.8358 56.9821C46.8358 56.5613 46.9555 56.2007 47.0753 55.9002C47.1351 55.8401 47.3148 55.5396 47.4944 55.4794H47.5543C47.6142 55.4794 47.6142 55.4794 47.674 55.4794V55.5396C47.674 55.5997 47.674 55.5997 47.674 55.6598V55.7199V56.8619C47.674 57.6432 48.2728 58.3044 49.0512 58.3044C49.8296 58.3044 50.4284 57.6432 50.4284 56.8619C50.4284 56.0805 49.8296 55.4193 49.0512 55.4193C48.7518 55.4193 48.4524 55.5396 48.2129 55.78L48.153 56.0805V55.78C48.153 55.6598 48.0932 55.5395 48.0333 55.4193C47.9734 55.3592 47.8537 55.239 47.6142 55.239C47.5543 55.239 47.4944 55.239 47.4345 55.239C47.195 55.2991 46.9555 55.4794 46.716 55.8401ZM49.1709 58.1241C48.6321 58.1241 48.153 57.6432 48.153 57.0422C48.153 56.4411 48.6321 55.9603 49.1709 55.9603C49.7098 55.9603 50.1889 56.4411 50.1889 57.0422C50.129 57.6432 49.7098 58.1241 49.1709 58.1241ZM49.1709 56.1406C48.6919 56.1406 48.3327 56.5613 48.3327 57.0422C48.3327 57.523 48.6919 57.9438 49.1709 57.9438C49.65 57.9438 50.0092 57.523 50.0092 57.0422C49.9493 56.5613 49.5901 56.1406 49.1709 56.1406Z" fill="#737373"/>
</g>
<defs>
<clipPath id="clip0_3768_1623">
<rect width="97" height="80" fill="white" transform="translate(0.851562)"/>
</clipPath>
</defs>
</svg>
