<svg width="109" height="80" viewBox="0 0 109 80" fill="none" xmlns="http://www.w3.org/2000/svg">
<g clip-path="url(#clip0_3768_543)">
<path d="M25.6282 12.3002C25.9326 12.422 26.2371 12.422 26.4806 12.1784C26.785 11.874 26.785 11.387 26.4806 11.1434L24.9585 9.56047C24.8367 9.43871 24.8367 9.25606 24.9585 9.13429C25.0803 9.01253 25.2629 9.01253 25.3847 9.13429L26.9068 10.7172C27.4547 11.2652 27.3938 12.1176 26.8459 12.6655C26.4197 13.0917 25.75 13.1526 25.2629 12.909C25.202 12.7873 25.1412 12.6046 25.202 12.422C25.2629 12.3002 25.4456 12.2393 25.6282 12.3002Z" fill="#737373"/>
<path d="M25.995 13.1517C25.7515 13.1517 25.5079 13.0909 25.2644 12.9691C25.1426 12.9082 25.0818 12.8473 25.0818 12.7256C25.0209 12.6038 25.0818 12.482 25.1426 12.4212C25.2035 12.2994 25.2644 12.2385 25.3862 12.2385C25.5079 12.1776 25.6297 12.2385 25.6906 12.2994C25.9341 12.4212 26.2385 12.3603 26.4212 12.1776C26.5429 12.0559 26.6038 11.9341 26.6038 11.7514C26.6038 11.5688 26.5429 11.447 26.4212 11.3253L24.8991 9.74231C24.8382 9.68143 24.7773 9.55966 24.7773 9.4379C24.7773 9.31613 24.8382 9.19437 24.8991 9.13348C24.96 9.0726 25.0818 9.01172 25.2035 9.01172C25.3253 9.01172 25.4471 9.0726 25.5079 9.13348L27.03 10.7164C27.2735 11.0209 27.4562 11.3861 27.4562 11.7514C27.4562 12.1167 27.2735 12.5429 27.03 12.7865C26.7256 12.9691 26.3603 13.1517 25.995 13.1517ZM25.4471 12.4212C25.3253 12.4212 25.3253 12.482 25.2644 12.5429C25.2644 12.6038 25.2644 12.6038 25.2644 12.6647C25.2644 12.7256 25.3253 12.7256 25.3253 12.7865C25.8124 13.03 26.3603 12.9691 26.7865 12.6038C27.03 12.3603 27.1518 12.0559 27.1518 11.7514C27.1518 11.447 27.03 11.0817 26.7865 10.8991L25.2644 9.31613C25.2035 9.25525 25.2035 9.25525 25.1426 9.25525C25.0818 9.25525 25.0209 9.25525 25.0209 9.31613C24.96 9.37702 24.96 9.37702 24.96 9.4379C24.96 9.49878 24.96 9.49878 25.0209 9.55966L26.5429 11.1426C26.7256 11.3253 26.7865 11.5079 26.7865 11.7514C26.7865 11.995 26.6647 12.1776 26.5429 12.3603C26.2994 12.6038 25.8732 12.6647 25.5079 12.482C25.5079 12.4212 25.5079 12.4212 25.4471 12.4212Z" fill="#737373"/>
<path d="M32.3914 8.52343C31.6 8.94961 30.6867 8.70608 30.2605 7.9146L29.2864 6.20988C29.2255 6.08812 29.2255 5.90547 29.4082 5.7837C29.5299 5.72282 29.7126 5.72282 29.8344 5.90547L30.8085 7.61019C31.052 8.09725 31.6608 8.21901 32.1479 7.97548C32.635 7.73195 32.7567 7.12312 32.5132 6.63606L31.5391 4.93134C31.4782 4.80958 31.5391 4.62693 31.6608 4.50516C31.7826 4.44428 31.9653 4.44428 32.087 4.62693L33.0611 6.33165C33.4264 7.12312 33.1829 8.09725 32.3914 8.52343Z" fill="#737373"/>
<path d="M31.5978 8.82726C30.9889 8.82726 30.441 8.52284 30.1366 7.9749L29.1624 6.27018C29.1016 6.14841 29.1016 6.02665 29.1016 5.96577C29.1016 5.844 29.2233 5.78312 29.2842 5.72223C29.406 5.66135 29.5277 5.66135 29.5886 5.66135C29.7104 5.66135 29.7713 5.78312 29.8322 5.844L30.8063 7.54872C30.928 7.73137 31.1107 7.91402 31.2933 7.9749C31.5369 8.03578 31.7195 8.03578 31.9631 7.91402C32.1457 7.79225 32.3283 7.6096 32.3892 7.42695C32.4501 7.18342 32.3892 7.00077 32.3284 6.75724L31.3542 5.05252C31.2325 4.86987 31.2933 4.56546 31.5369 4.4437C31.7195 4.32193 32.0239 4.38281 32.0848 4.62634L33.0589 6.33106C33.546 7.12254 33.2416 8.15755 32.4501 8.64461C32.2066 8.76637 31.9022 8.82726 31.5978 8.82726ZM29.5277 5.90488C29.4669 5.90488 29.4669 5.90488 29.406 5.90488C29.3451 5.90488 29.3451 5.96577 29.3451 6.02665C29.3451 6.08753 29.3451 6.14841 29.3451 6.14841L30.3192 7.85313C30.7454 8.52284 31.5978 8.76637 32.3284 8.40108C32.9981 7.9749 33.2416 7.12254 32.8763 6.39195L31.9022 4.74811C31.8413 4.68723 31.7195 4.62634 31.6586 4.68723C31.5978 4.74811 31.5369 4.86988 31.5978 4.93076L32.5719 6.63548C32.6936 6.87901 32.7545 7.18342 32.6936 7.48784C32.6328 7.79225 32.4501 8.03578 32.2066 8.15755C31.9631 8.27931 31.6586 8.34019 31.3542 8.27931C31.0498 8.21843 30.8063 8.03578 30.6845 7.79225L29.7104 6.08753C29.7104 5.96577 29.6495 5.96577 29.5277 5.90488C29.5886 5.90488 29.5886 5.90488 29.5277 5.90488Z" fill="#737373"/>
<path d="M38.17 5.60019C38.2309 5.78284 38.1091 5.90461 37.9874 5.96549C37.8047 6.02637 37.6829 5.90461 37.6221 5.78284L36.7088 2.7387C36.6479 2.67782 36.7088 2.55605 36.7697 2.43429C36.8915 2.31252 37.0741 2.25164 37.1959 2.3734L39.6312 4.19989L38.9615 2.06899C38.9006 1.94723 39.0224 1.76458 39.1441 1.70369C39.3268 1.64281 39.4485 1.76458 39.5094 1.88634L40.4227 4.93048C40.4835 5.11313 40.3618 5.2349 40.24 5.29578C40.1791 5.29578 40.0574 5.29578 39.9965 5.2349C39.9965 5.2349 39.9965 5.2349 39.9356 5.2349L37.5612 3.40841L38.17 5.60019Z" fill="#737373"/>
<path d="M37.8646 6.14778C37.682 6.14778 37.4993 6.02602 37.4385 5.84337L36.5252 2.79923C36.4643 2.67746 36.5252 2.49481 36.5861 2.43393C36.7079 2.25128 37.0123 2.1904 37.1949 2.37305L39.3258 3.956L38.7779 2.1904C38.717 2.06863 38.7779 1.94687 38.7779 1.88599C38.8388 1.76422 38.8996 1.70334 39.0214 1.70334C39.2649 1.64245 39.5085 1.76422 39.5694 1.94687L40.4826 4.99101C40.5435 5.23454 40.4217 5.47807 40.1782 5.53895C40.0564 5.59984 39.9347 5.53895 39.8129 5.47807C39.8129 5.47807 39.752 5.47807 39.752 5.41719L37.682 3.83424L38.2299 5.66072C38.2908 5.90425 38.1691 6.14778 37.9864 6.20866C37.9864 6.14778 37.9255 6.14778 37.8646 6.14778ZM36.9514 2.49481C36.8905 2.49481 36.8296 2.49481 36.8296 2.5557C36.7687 2.61658 36.7688 2.67746 36.7688 2.73835L37.682 5.78249C37.682 5.90425 37.8038 5.90425 37.9255 5.90425C37.9864 5.90425 38.0473 5.78249 38.0473 5.66072L37.2558 3.10364L39.9955 5.17366C40.0564 5.17366 40.1173 5.23454 40.1173 5.17366C40.2391 5.17366 40.2391 5.05189 40.2391 4.93013L39.3258 1.88599C39.2649 1.8251 39.2041 1.8251 39.0823 1.8251C39.0214 1.8251 39.0214 1.88599 38.9605 1.88599C38.9605 1.94687 38.9605 1.94687 38.9605 2.00775L39.752 4.50395L37.0123 2.49481H36.9514Z" fill="#737373"/>
<path d="M44.7426 4.01527L44.3164 0.849365C44.3164 0.666716 44.3773 0.544951 44.5599 0.484068C44.7426 0.484068 44.8644 0.605833 44.9252 0.727599L45.1688 2.24967L46.6908 0.240537C46.8126 0.118771 46.9952 0.0578883 47.117 0.179654C47.2388 0.301419 47.2997 0.484068 47.1779 0.605833L46.1429 1.94526L47.5432 3.34556C47.665 3.46733 47.665 3.64997 47.5432 3.77174C47.4823 3.83262 47.4214 3.83262 47.3605 3.8935C47.2997 3.8935 47.1779 3.8935 47.117 3.83262L45.7167 2.4932L45.2296 3.16291L45.3514 3.95439C45.3514 4.13704 45.2905 4.2588 45.1079 4.31968C44.9252 4.2588 44.7426 4.13704 44.7426 4.01527Z" fill="#737373"/>
<path d="M45.0477 4.38151C44.865 4.38151 44.6824 4.19886 44.6215 4.01621L44.1953 0.850306C44.1953 0.72854 44.1953 0.606775 44.2562 0.545892C44.3171 0.424126 44.4388 0.363243 44.5606 0.363243C44.8041 0.302361 44.9868 0.485009 45.0477 0.72854L45.2303 2.00708L46.5089 0.241478C46.6306 0.0588293 46.935 -0.00205351 47.1177 0.180595C47.3003 0.302361 47.3612 0.606775 47.1786 0.789423L46.2044 2.06796L47.5439 3.40738C47.6656 3.40738 47.7265 3.46827 47.7265 3.59003C47.7265 3.7118 47.6656 3.83356 47.6048 3.89445C47.5439 3.95533 47.483 4.01621 47.3612 4.01621C47.2395 4.01621 47.1177 4.01621 47.0568 3.89445L45.7783 2.61591L45.413 3.10297L45.5347 3.83356C45.4739 4.13798 45.3521 4.32063 45.0477 4.38151ZM44.865 3.95533C44.865 4.07709 44.9868 4.13798 45.0477 4.13798C45.1694 4.13798 45.2303 4.01621 45.1694 3.95533L45.0477 3.16385L45.6565 2.37238L47.1177 3.83356C47.1786 3.89445 47.1786 3.89445 47.2395 3.89445C47.3003 3.89445 47.3003 3.89445 47.3612 3.83356C47.483 3.7118 47.483 3.65091 47.483 3.65091C47.483 3.59003 47.483 3.59003 47.4221 3.52915L45.9 2.00708L46.9959 0.606775C47.0568 0.545892 47.0568 0.424126 46.935 0.363243C46.8742 0.302361 46.7524 0.30236 46.6915 0.424126L44.9868 2.67679L44.7433 0.850306C44.7433 0.667657 44.6824 0.606775 44.5606 0.606775C44.4997 0.606775 44.4997 0.667657 44.4388 0.667657C44.4388 0.72854 44.378 0.72854 44.378 0.789423L44.865 3.95533Z" fill="#737373"/>
<path d="M61.488 2.92009C61.6098 2.79832 61.7925 2.79832 61.9142 2.92009C62.1578 3.16362 62.5231 3.40715 62.8884 3.46803C63.1319 3.52891 63.4363 3.46803 63.6189 3.34627C63.8016 3.2245 63.8625 3.10273 63.9234 2.98097C63.9234 2.92009 63.9234 2.8592 63.9234 2.79832C63.9234 2.73744 63.8625 2.67655 63.8016 2.61567C63.6798 2.49391 63.3754 2.37214 63.071 2.25037C62.8275 2.18949 62.5839 2.06773 62.4013 1.94596C62.2186 1.8242 62.036 1.64155 61.9751 1.4589C61.9142 1.33713 61.9142 1.15448 61.9142 0.971836C61.9751 0.667422 62.1578 0.363008 62.4622 0.241242C62.7666 0.119477 63.071 0.0585938 63.4363 0.0585938C63.9842 0.119477 64.2887 0.423891 64.5322 0.667422C64.654 0.789187 64.654 0.971836 64.5322 1.03272C64.4104 1.15448 64.2278 1.15448 64.1669 1.0936C63.9234 0.85007 63.6798 0.667422 63.3145 0.606539C63.071 0.545656 62.8275 0.606539 62.7057 0.728305C62.5231 0.789187 62.4622 0.910953 62.4622 1.03272C62.4622 1.0936 62.4622 1.15448 62.4622 1.21537C62.4622 1.27625 62.5231 1.33713 62.5839 1.39802C62.7057 1.51978 62.9492 1.64155 63.2536 1.70243C63.4972 1.76331 63.7407 1.88508 63.9842 2.00684C64.1669 2.12861 64.3495 2.31126 64.4713 2.55479C64.5322 2.67655 64.5931 2.8592 64.5322 3.04185C64.4713 3.40715 64.2278 3.65068 63.9842 3.83333C63.6798 4.01598 63.3145 4.07686 62.9492 4.01598C62.3404 3.95509 61.9142 3.5898 61.6098 3.28538C61.3663 3.2245 61.4272 3.04185 61.488 2.92009Z" fill="#737373"/>
<path d="M63.0716 4.13942C63.0107 4.13942 62.889 4.13942 62.8281 4.13942C62.2193 4.07854 61.7322 3.71324 61.4278 3.40883C61.2451 3.22618 61.306 2.98265 61.4278 2.86089C61.4887 2.8 61.6104 2.73912 61.7322 2.73912C61.854 2.73912 61.9148 2.8 62.0366 2.86089C62.2193 3.04353 62.5845 3.34795 62.9498 3.34795C63.1934 3.34795 63.4369 3.34795 63.5587 3.22618C63.6804 3.1653 63.7413 3.04353 63.8022 2.98265C63.8022 2.92177 63.8022 2.92177 63.8022 2.86089C63.8022 2.8 63.7413 2.73912 63.6804 2.73912C63.5587 2.61735 63.3151 2.49559 63.0107 2.43471C62.7063 2.31294 62.4628 2.25206 62.2801 2.13029C62.0366 2.00853 61.854 1.82588 61.7931 1.58235C61.7322 1.3997 61.6713 1.21705 61.7322 1.0344C61.7931 0.669104 61.9757 0.425573 62.341 0.182042C62.6454 -0.000606451 63.0107 -0.0614893 63.376 -0.000606447C63.924 0.0602764 64.2893 0.36469 64.5328 0.608222C64.6546 0.669104 64.6546 0.79087 64.6546 0.912636C64.6546 1.0344 64.6546 1.09528 64.5328 1.21705C64.4719 1.27793 64.3501 1.33882 64.2893 1.33882C64.1675 1.33882 64.0457 1.33882 63.9849 1.21705C63.7413 1.0344 63.4978 0.851753 63.1934 0.79087C63.0107 0.79087 62.7672 0.79087 62.6454 0.912636C62.5237 0.973518 62.4628 1.0344 62.4628 1.15617C62.4628 1.21705 62.4628 1.21705 62.4628 1.21705C62.4628 1.21705 62.5237 1.27793 62.5845 1.33882C62.7063 1.46058 62.9498 1.58235 63.1934 1.64323C63.4978 1.76499 63.7413 1.82588 63.924 2.00853C64.1675 2.19117 64.3501 2.37382 64.4719 2.55647C64.5328 2.73912 64.5937 2.92177 64.5328 3.10442C64.4719 3.46971 64.2284 3.77413 63.924 3.95678C63.6804 4.07854 63.376 4.13942 63.0716 4.13942ZM61.6104 2.98265C61.5495 3.04353 61.5495 3.1653 61.6104 3.22618C61.854 3.46971 62.2801 3.83501 62.8281 3.89589C63.1934 3.95678 63.4978 3.89589 63.8022 3.71324C64.1066 3.5306 64.2893 3.28707 64.2893 3.04353C64.2893 2.92177 64.2893 2.73912 64.2284 2.61735C64.1675 2.43471 63.9849 2.31294 63.8022 2.13029C63.6196 2.00853 63.4369 1.94764 63.1325 1.82588C62.8281 1.70411 62.5845 1.58235 62.4019 1.46058C62.341 1.3997 62.2801 1.33882 62.2193 1.27793C62.1584 1.21705 62.1584 1.15617 62.2193 1.0344C62.2193 0.912636 62.2801 0.729987 62.5237 0.608222C62.7063 0.486456 62.9498 0.425573 63.2543 0.486456C63.6196 0.547339 63.8631 0.729987 64.1675 0.973518C64.2284 0.973518 64.2284 1.0344 64.2893 1.0344C64.3501 1.0344 64.3502 1.0344 64.411 0.973518C64.411 0.912636 64.4719 0.912636 64.4719 0.851753C64.4719 0.79087 64.4719 0.79087 64.411 0.729987C64.1675 0.547339 63.8022 0.242925 63.376 0.182042C63.0716 0.121159 62.7063 0.182042 62.4628 0.36469C62.2192 0.486456 62.0366 0.729987 61.9757 1.0344C61.9757 1.15617 61.9757 1.33882 62.0366 1.3997C62.0975 1.58235 62.2801 1.70411 62.4628 1.82588C62.6454 1.94764 62.8281 2.00853 63.1325 2.13029C63.4978 2.25206 63.7413 2.37382 63.924 2.49559C63.9849 2.55647 64.0457 2.61735 64.1066 2.73912C64.1675 2.8 64.1675 2.92177 64.1675 2.98265C64.1675 3.10442 64.1066 3.28707 63.8022 3.40883C63.6196 3.5306 63.3151 3.59148 63.0107 3.5306C62.5845 3.46971 62.2193 3.22618 61.9757 2.92177C61.9757 2.86089 61.9148 2.86089 61.854 2.86089C61.6713 2.98265 61.6104 2.98265 61.6104 2.98265Z" fill="#737373"/>
<path d="M68.5465 3.04295C68.8509 2.00794 69.9468 1.39911 71.0427 1.70352C71.5298 1.82529 71.8951 2.1297 72.1386 2.43412C72.2604 2.55588 72.1995 2.73853 72.0777 2.8603C71.956 2.98206 71.7124 2.92118 71.6515 2.79941C71.4689 2.55588 71.2254 2.37323 70.8601 2.25147C70.4948 2.1297 70.1295 2.19059 69.8251 2.37323C69.5206 2.55588 69.2771 2.79941 69.1553 3.16471C69.0336 3.53001 69.0945 3.8953 69.2771 4.19972C69.4598 4.50413 69.7642 4.74766 70.1295 4.86943C70.4339 4.99119 70.7383 4.93031 71.0427 4.80855C71.1645 4.74766 71.3471 4.80855 71.4689 4.99119C71.5298 5.17384 71.4689 5.35649 71.2862 5.41737C70.8601 5.60002 70.4339 5.60002 69.9468 5.47826C68.9118 5.23473 68.2421 4.13884 68.5465 3.04295Z" fill="#737373"/>
<path d="M70.4952 5.72245C70.3125 5.72245 70.069 5.72245 69.8863 5.66157C68.7904 5.35715 68.1207 4.20038 68.4252 3.04361C68.7296 1.94772 69.9472 1.27801 71.0431 1.6433C71.5302 1.76507 71.8955 2.06948 72.1999 2.43478C72.3216 2.61743 72.2608 2.92184 72.0781 3.04361C71.8955 3.16537 71.5911 3.16537 71.4693 2.98272C71.2866 2.73919 71.0431 2.55654 70.7996 2.49566C70.4952 2.43478 70.1299 2.43478 69.8255 2.61743C69.521 2.80008 69.3384 3.04361 69.2166 3.34802C69.1557 3.65243 69.1557 4.01773 69.3384 4.26126C69.521 4.56568 69.7646 4.74832 70.1299 4.87009C70.4343 4.93097 70.7387 4.93097 70.9822 4.80921C71.2258 4.74832 71.4693 4.87009 71.5302 5.05274C71.5911 5.29627 71.5302 5.5398 71.2866 5.60068C71.0431 5.66157 70.7996 5.72245 70.4952 5.72245ZM68.6687 3.10449C68.3643 4.07861 68.9731 5.11362 69.9472 5.41804C70.3734 5.5398 70.7996 5.5398 71.2258 5.35715C71.2866 5.29627 71.3475 5.1745 71.3475 5.11362C71.2866 4.99186 71.1649 4.99186 71.104 4.99186C70.7996 5.11362 70.4343 5.11362 70.1299 5.05274C69.7646 4.93097 69.3993 4.68744 69.2166 4.32215C69.034 3.95685 68.9731 3.59155 69.0949 3.22626C69.2166 2.86096 69.4602 2.55654 69.8255 2.3739C70.1908 2.19125 70.6169 2.13036 70.9822 2.25213C71.3475 2.3739 71.5911 2.55654 71.8346 2.86096C71.8955 2.92184 72.0172 2.98272 72.0781 2.92184C72.139 2.86096 72.1999 2.73919 72.139 2.67831C71.8955 2.31301 71.5302 2.06948 71.104 1.94772C70.0081 1.58242 68.9731 2.13036 68.6687 3.10449Z" fill="#737373"/>
<path d="M77.1324 7.54687L75.9756 6.93804L75.4277 7.4251C75.3059 7.48598 75.1841 7.54687 75.0624 7.48598C75.0015 7.48598 75.0015 7.4251 75.0015 7.4251C74.8797 7.30334 74.8797 7.12069 75.0015 6.99892L77.5586 4.74626C77.6803 4.68537 77.8021 4.62449 77.9239 4.68537C78.0456 4.74626 78.1065 4.86802 78.1065 4.98979L77.6803 8.39923C77.6803 8.58187 77.4977 8.70364 77.315 8.64276C77.315 8.64276 77.2541 8.64276 77.1933 8.58187C77.0715 8.52099 77.0106 8.39923 77.0106 8.27746L77.1324 7.54687ZM77.1933 6.87716L77.3759 5.6595L76.4627 6.51186L77.1933 6.87716Z" fill="#737373"/>
<path d="M77.3146 8.70413C77.1928 8.70413 77.1319 8.64325 77.1319 8.64325C76.9493 8.58237 76.8884 8.39972 76.8884 8.21707L76.9493 7.54736L75.9143 6.99941L75.4272 7.42559C75.3055 7.54736 75.1228 7.54736 74.9402 7.48648C74.8793 7.48648 74.8793 7.42559 74.8184 7.42559C74.6358 7.24294 74.6966 6.99941 74.8184 6.81676L77.3755 4.50322C77.4972 4.38145 77.7408 4.38145 77.8625 4.44233C77.9843 4.50322 78.1061 4.68587 78.1061 4.86851L77.6799 8.27795C77.6799 8.58237 77.4972 8.70413 77.3146 8.70413ZM75.9143 6.75588L77.2537 7.42559L77.1319 8.27795C77.1319 8.33883 77.1319 8.39972 77.2537 8.4606H77.3146C77.4364 8.4606 77.4972 8.39972 77.4972 8.27795L77.9234 4.86851C77.9234 4.80763 77.8625 4.74675 77.8017 4.68587C77.7408 4.62498 77.619 4.62498 77.5581 4.68587L75.0011 6.93853C74.9402 6.99941 74.9402 7.12118 75.0011 7.18206C75.0011 7.18206 75.001 7.18206 75.0619 7.24294C75.1228 7.30383 75.1837 7.24294 75.2446 7.24294L75.9143 6.75588ZM77.3146 7.0603L76.2187 6.51235L77.5581 5.35558L77.3146 7.0603ZM76.6449 6.45147L77.1319 6.695L77.2537 5.96441L76.6449 6.45147Z" fill="#737373"/>
<path d="M81.2128 11.02C81.091 11.1418 80.9084 11.1418 80.7866 11.02C80.6649 10.8983 80.6649 10.7156 80.7866 10.5939L82.9175 8.21942C82.9784 8.15854 83.1002 8.09766 83.1611 8.09766C83.3437 8.09766 83.4655 8.2803 83.4046 8.40207L83.1002 11.3853L84.6223 9.74149C84.744 9.61973 84.9267 9.61973 85.0484 9.74149C85.1702 9.86326 85.1702 10.0459 85.0484 10.1677L82.9175 12.5421C82.7958 12.6639 82.6131 12.6639 82.4914 12.5421C82.4305 12.4812 82.3696 12.4203 82.3696 12.2986V12.2377L82.674 9.25443L81.2128 11.02Z" fill="#737373"/>
<path d="M82.6735 12.7861C82.5517 12.7861 82.4908 12.7252 82.369 12.6643C82.3082 12.6034 82.2473 12.4817 82.2473 12.3599V12.299L82.5517 9.74194L81.2732 11.1422C81.0905 11.3249 80.847 11.3249 80.6643 11.2031C80.4817 11.0205 80.4817 10.7769 80.6643 10.5943L82.7952 8.21987C82.8561 8.0981 83.0388 8.03722 83.1605 8.0981C83.4041 8.15899 83.5867 8.34163 83.5258 8.58517L83.2214 11.2031L84.4999 9.80282C84.5608 9.74194 84.6826 9.68106 84.8044 9.68106C84.9261 9.68106 85.0479 9.74194 85.1088 9.80282C85.1696 9.8637 85.2305 9.98547 85.2305 10.1072C85.2305 10.229 85.1696 10.3508 85.1088 10.4116L82.9779 12.7861C82.917 12.7252 82.7952 12.7861 82.6735 12.7861ZM82.8561 9.01135L82.4908 12.3599C82.4908 12.4208 82.4908 12.4817 82.5517 12.4817C82.6126 12.5425 82.7343 12.5425 82.7952 12.4817L84.9261 10.1072C84.9261 10.0464 84.987 10.0464 84.987 9.98547C84.987 9.92459 84.987 9.86371 84.9261 9.86371C84.8652 9.80282 84.8652 9.80282 84.8044 9.80282C84.7435 9.80282 84.7435 9.80282 84.6826 9.86371L82.917 11.812L83.2823 8.4634C83.2823 8.34163 83.2214 8.28075 83.0996 8.28075C83.0388 8.28075 82.9779 8.28075 82.9779 8.34163L80.847 10.7161C80.7861 10.7769 80.7861 10.8987 80.847 10.9596C80.9079 11.0205 81.0296 11.0205 81.0905 10.9596L82.8561 9.01135Z" fill="#737373"/>
<path d="M19.178 64.1679L21.8569 62.4023C21.9786 62.2805 22.1613 62.3414 22.2831 62.4632L23.2572 63.9244C23.3181 64.0461 23.3181 64.2288 23.1963 64.3506C23.0745 64.4723 22.8919 64.4114 22.7701 64.2897L21.9178 63.072L21.0654 63.62L21.796 64.655C21.8569 64.7767 21.8569 64.9594 21.7351 65.0812C21.6133 65.2029 21.4307 65.142 21.3089 65.0203L20.5783 63.9853L19.726 64.5332L20.5783 65.7509C20.6392 65.8726 20.6392 66.0553 20.5175 66.177C20.3957 66.2379 20.213 66.2379 20.0913 66.1162L19.1172 64.655C18.9954 64.4114 19.0563 64.2288 19.178 64.1679Z" fill="#737373"/>
<path d="M20.3341 66.2995H20.2732C20.1514 66.2995 20.0905 66.2386 20.0297 66.1169L19.0555 64.6557C18.9338 64.473 18.9947 64.2295 19.1773 64.1077L21.8561 62.3421C21.9779 62.2812 22.0388 62.2813 22.1606 62.2813C22.2823 62.2813 22.3432 62.3421 22.4041 62.4639L23.3782 63.9251C23.5 64.1077 23.4391 64.3513 23.2565 64.5339C23.0738 64.6557 22.7694 64.5948 22.6476 64.4121L21.917 63.2554L21.3082 63.6816L21.9779 64.6557C22.0997 64.8383 22.0388 65.1427 21.8561 65.2645C21.6735 65.3863 21.3691 65.3254 21.2473 65.1427L20.5776 64.1686L19.9688 64.5948L20.6994 65.7516C20.8211 65.9342 20.7603 66.2386 20.5776 66.3604C20.5167 66.2995 20.4558 66.2995 20.3341 66.2995ZM19.2991 64.5948L20.2123 65.9951C20.2123 66.056 20.2732 66.056 20.3341 66.056C20.395 66.056 20.4558 66.056 20.4558 66.056C20.5167 65.9951 20.5776 65.8733 20.5167 65.8124L19.6035 64.473L20.6385 63.8033L21.43 64.9601C21.4908 65.021 21.6126 65.0819 21.6735 65.021C21.7344 64.9601 21.7953 64.8383 21.7344 64.7774L20.9429 63.6207L21.9779 62.951L22.8912 64.2904C22.952 64.3513 23.0738 64.4121 23.1347 64.3513C23.1956 64.2904 23.2565 64.1686 23.1956 64.1077L22.2214 62.6465C22.1606 62.5857 22.1606 62.5857 22.0997 62.5857C22.0388 62.5857 21.9779 62.5857 21.9779 62.5857L19.2991 64.3513C19.2382 64.4121 19.1773 64.473 19.2382 64.5339L19.4817 64.5948H19.2991Z" fill="#737373"/>
<path d="M24.3544 68.4898C24.4762 68.368 24.6588 68.368 24.8415 68.4898L25.572 69.2204C25.6938 69.3421 25.6938 69.5248 25.572 69.7074C25.4503 69.8292 25.2676 69.8292 25.1459 69.7074L24.4153 68.9768C24.2326 68.7942 24.2326 68.6115 24.3544 68.4898Z" fill="#737373"/>
<path d="M25.3286 69.829C25.2069 69.829 25.0851 69.7682 25.0242 69.7073L24.2936 68.9767C24.2328 68.9158 24.1719 68.794 24.1719 68.6723C24.1719 68.5505 24.2328 68.4287 24.2936 68.3679C24.3545 68.307 24.4763 68.2461 24.5981 68.2461C24.7198 68.2461 24.8416 68.307 24.9025 68.3679L25.6331 69.0985C25.8157 69.2811 25.8157 69.5246 25.6331 69.7073C25.5722 69.7682 25.4504 69.829 25.3286 69.829ZM24.5981 68.4896C24.5372 68.4896 24.4763 68.4896 24.4763 68.5505C24.4154 68.6114 24.4154 68.6114 24.4154 68.6723C24.4154 68.7332 24.4154 68.794 24.4763 68.794L25.2069 69.5246C25.2678 69.5855 25.3895 69.5855 25.5113 69.5246C25.5722 69.4637 25.5722 69.342 25.5113 69.2202L24.7807 68.4896C24.6589 68.4896 24.5981 68.4896 24.5981 68.4896Z" fill="#737373"/>
<path d="M32.6933 72.266L31.1103 75.0667C31.0494 75.1884 30.8668 75.2493 30.6841 75.1884C30.5624 75.1275 30.5015 74.9449 30.5624 74.7622L31.7191 72.7531L30.5015 73.3011C30.3797 73.3619 30.3188 73.3619 30.1971 73.3011C30.1362 73.2402 30.0753 73.1793 30.0144 73.0575L29.8927 71.7181L28.7359 73.7272C28.675 73.849 28.4924 73.9099 28.3097 73.849C28.1879 73.7881 28.1271 73.6055 28.1879 73.4228L29.7709 70.6222C29.8318 70.5004 30.0144 70.4396 30.1971 70.5004C30.258 70.5613 30.3188 70.6222 30.3188 70.744L30.5015 72.5705L32.2062 71.779C32.328 71.7181 32.3889 71.7181 32.5106 71.779C32.6933 71.9008 32.7542 72.0834 32.6933 72.266Z" fill="#737373"/>
<path d="M30.8061 75.312C30.7452 75.312 30.6844 75.312 30.6235 75.2511C30.4408 75.1294 30.38 74.8859 30.4408 74.7032L31.415 73.0594L30.5017 73.4855C30.38 73.5464 30.2582 73.5464 30.1364 73.4855C30.0147 73.4247 29.9538 73.3029 29.8929 73.1811L29.7711 72.207L28.797 73.8508C28.7361 73.9726 28.6752 74.0335 28.5535 74.0335C28.4317 74.0335 28.3099 74.0335 28.2491 73.9726C28.1273 73.9117 28.0664 73.8508 28.0664 73.7291C28.0664 73.6073 28.0664 73.4855 28.1273 73.4247L29.7102 70.6241C29.7711 70.5023 29.832 70.4414 29.9538 70.4414C30.0755 70.4414 30.1973 70.4414 30.2582 70.5023C30.38 70.5632 30.4408 70.6849 30.5017 70.8067L30.6844 72.5114L32.2064 71.8417C32.3282 71.7808 32.45 71.7808 32.5717 71.8417C32.7544 71.9635 32.8761 72.207 32.7544 72.4505L31.1714 75.2511C31.1105 75.2511 30.9279 75.312 30.8061 75.312ZM31.9629 72.5114L30.6235 74.825C30.5626 74.8859 30.6235 75.0076 30.6844 75.0685C30.7452 75.1294 30.867 75.0685 30.9279 75.0076L32.5109 72.207C32.5717 72.1461 32.5109 72.0244 32.45 71.9635C32.3891 71.9026 32.3282 71.9026 32.2673 71.9635L30.4408 72.8158L30.2582 70.8067C30.2582 70.7458 30.1973 70.6849 30.1973 70.6849C30.1364 70.6241 30.0755 70.6241 30.0755 70.6849C30.0147 70.6849 30.0147 70.7458 29.9538 70.7458L28.3708 73.5464C28.3708 73.6073 28.3708 73.6073 28.3708 73.6682C28.3708 73.7291 28.4317 73.7291 28.4317 73.79C28.4926 73.79 28.5535 73.8508 28.5535 73.79C28.6144 73.79 28.6144 73.7291 28.6752 73.7291L30.0147 71.4155L30.1973 73.1203C30.1973 73.1811 30.2582 73.242 30.3191 73.242C30.38 73.3029 30.4408 73.3029 30.5017 73.242L31.9629 72.5114Z" fill="#737373"/>
<path d="M37.4411 76.8934L36.1626 76.4672L35.6755 77.0761C35.6146 77.1978 35.432 77.1978 35.3711 77.1978C35.3102 77.1978 35.3102 77.1978 35.2493 77.1369C35.1275 77.0152 35.1275 76.8325 35.1884 76.7108L37.3193 74.0319C37.3802 73.9102 37.5629 73.9102 37.6237 73.9102C37.7455 73.971 37.8064 74.0319 37.8673 74.1537L37.989 77.5631C37.989 77.7458 37.8673 77.8675 37.6846 77.8675C37.6846 77.8675 37.6237 77.8675 37.5629 77.8675C37.4411 77.8067 37.3802 77.7458 37.3802 77.624L37.4411 76.8934ZM37.3802 76.2846L37.3193 75.006L36.5278 75.9802L37.3802 76.2846Z" fill="#737373"/>
<path d="M37.7462 78.1115C37.6853 78.1115 37.6244 78.1115 37.6244 78.1115C37.4417 78.0506 37.32 77.9289 37.32 77.7462L37.2591 77.0765L36.1632 76.7112L35.737 77.2592C35.6153 77.3809 35.4326 77.4418 35.25 77.3809C35.1891 77.3809 35.1891 77.32 35.1282 77.32C34.9455 77.1983 34.8847 76.8939 35.0673 76.7112L37.1982 74.0324C37.32 73.9106 37.5026 73.8497 37.6853 73.9106C37.8679 73.9715 37.9897 74.0933 37.9897 74.2759L38.1115 77.6853C38.1723 77.868 37.9897 78.0506 37.7462 78.1115ZM36.1023 76.3459L37.5026 76.833L37.5635 77.6853C37.5635 77.7462 37.6244 77.8071 37.6853 77.868H37.7462C37.8679 77.868 37.9288 77.8071 37.9288 77.6853L37.807 74.2759C37.807 74.215 37.7462 74.1541 37.6853 74.0932C37.6244 74.0932 37.5026 74.0933 37.5026 74.1541L35.3717 76.833C35.3108 76.8939 35.3108 77.0156 35.4326 77.0765H35.4935C35.5544 77.0765 35.6153 77.0765 35.6761 77.0156L36.1023 76.3459ZM37.5026 76.4677L36.3459 76.1024L37.4417 74.763L37.5026 76.4677ZM36.772 75.9197L37.2591 76.1024L37.1982 75.3718L36.772 75.9197Z" fill="#737373"/>
<path d="M42.8588 75.556C42.8588 75.3734 43.0415 75.3125 43.2241 75.3125C43.4068 75.3125 43.5285 75.4952 43.4677 75.6778L42.8588 78.8437C42.8588 79.0264 42.6762 79.0872 42.4935 79.0872C42.3109 79.0263 42.25 78.9046 42.25 78.7219L42.8588 75.556Z" fill="#737373"/>
<path d="M42.5528 79.2074H42.4919C42.3701 79.2074 42.3093 79.1465 42.2484 79.0247C42.1875 78.903 42.1875 78.8421 42.1875 78.7203L42.7963 75.5544C42.7963 75.4326 42.8572 75.3718 42.979 75.3109C43.1007 75.25 43.1616 75.25 43.2834 75.25C43.4052 75.25 43.466 75.3109 43.5878 75.4327C43.6487 75.5544 43.6487 75.6153 43.6487 75.7371L43.0399 78.903C43.0399 79.0247 42.979 79.0856 42.8572 79.1465C42.7354 79.1465 42.6137 79.2074 42.5528 79.2074ZM43.1616 75.4327C43.1007 75.4327 43.1007 75.4327 43.0399 75.4327C42.979 75.4327 42.979 75.4935 42.979 75.5544L42.3701 78.7203C42.3701 78.7812 42.3701 78.8421 42.3701 78.8421C42.3701 78.903 42.431 78.903 42.4919 78.903C42.5528 78.903 42.6137 78.903 42.6137 78.903C42.6746 78.903 42.6746 78.8421 42.6746 78.7812L43.2834 75.6153C43.2834 75.5544 43.2834 75.4935 43.2834 75.4935C43.2834 75.4935 43.2225 75.4327 43.1616 75.4327Z" fill="#737373"/>
<path d="M47.3632 79.4492L47.6067 76.2224C47.6067 76.0397 47.7894 75.918 47.9111 75.918C48.0938 75.918 48.2155 76.1006 48.2155 76.2224L47.972 79.1448L49.4332 79.2665C49.6158 79.2665 49.7376 79.4492 49.7376 79.5709C49.7376 79.7536 49.555 79.8754 49.4332 79.8754L47.6676 79.7536C47.4241 79.7536 47.3023 79.5709 47.3632 79.4492Z" fill="#737373"/>
<path d="M49.4324 79.9978L47.6059 79.876C47.3623 79.876 47.1797 79.6325 47.1797 79.4498L47.4232 76.2231C47.4232 76.1013 47.4841 75.9795 47.545 75.9186C47.6059 75.8578 47.7276 75.7969 47.8494 75.7969C47.9712 75.7969 48.0929 75.8578 48.1538 75.9186C48.2147 75.9795 48.2756 76.1013 48.2756 76.2231L48.032 79.0237L49.3715 79.1454C49.4932 79.1454 49.5541 79.2063 49.6759 79.2672C49.7368 79.3281 49.7976 79.4498 49.7976 79.5716C49.7976 79.876 49.615 79.9978 49.4324 79.9978ZM47.4841 79.4498C47.4841 79.5716 47.545 79.6325 47.6668 79.6325L49.4324 79.7543C49.5541 79.7543 49.615 79.6934 49.615 79.5716C49.615 79.5107 49.615 79.4498 49.5541 79.4498C49.4932 79.389 49.4932 79.389 49.4324 79.389L47.8494 79.2672L48.0929 76.2231C48.0929 76.1622 48.0929 76.1013 48.032 76.1013C47.9712 76.0404 47.9712 76.0404 47.9103 76.0404C47.8494 76.0404 47.7885 76.0404 47.7885 76.1013C47.7276 76.1622 47.7276 76.1622 47.7276 76.2231L47.4841 79.4498Z" fill="#737373"/>
<path d="M58.6249 77.9902C58.5031 76.8943 59.3555 75.981 60.4514 75.8593C60.9384 75.7984 61.3646 75.9201 61.7299 76.1637C61.8517 76.2854 61.9126 76.4681 61.8517 76.5899C61.7299 76.7116 61.5473 76.7725 61.4255 76.7116C61.182 76.529 60.8775 76.4681 60.5122 76.4681C60.147 76.529 59.7817 76.7116 59.599 76.9552C59.3555 77.1987 59.2337 77.564 59.2946 77.9293C59.3555 78.2946 59.5381 78.599 59.7817 78.8425C60.0861 79.0861 60.3905 79.2078 60.8167 79.1469C61.182 79.0861 61.4255 78.9643 61.669 78.7816C61.7908 78.6599 61.9734 78.6599 62.0952 78.7816C62.217 78.9034 62.217 79.0861 62.0952 79.2078C61.7908 79.5122 61.3646 79.6949 60.8775 79.7558C59.7208 79.8166 58.7466 79.0252 58.6249 77.9902Z" fill="#737373"/>
<path d="M60.634 79.8782C59.5381 79.8782 58.6249 79.0867 58.5031 77.9908C58.3813 76.8341 59.2946 75.8599 60.4514 75.7382C60.9384 75.6773 61.4255 75.7991 61.8517 76.0426C62.0343 76.1644 62.0952 76.4079 61.9734 76.6514C61.8517 76.8341 61.5472 76.8949 61.3646 76.7732C61.1211 76.5905 60.8166 76.5296 60.5122 76.5905C60.2078 76.5905 59.8425 76.7732 59.6599 77.0167C59.4772 77.2602 59.3555 77.5647 59.3555 77.93C59.3555 78.2344 59.5381 78.5388 59.7816 78.7823C60.0252 78.965 60.3905 79.0867 60.6949 79.0867C60.9993 79.0867 61.2428 78.965 61.4864 78.7214C61.669 78.5997 61.9125 78.5997 62.0952 78.7214C62.2778 78.9041 62.217 79.1476 62.0952 79.3303C61.7299 79.6347 61.3037 79.8782 60.8166 79.8782C60.7558 79.8782 60.6949 79.8782 60.634 79.8782ZM58.7466 77.93C58.8684 78.965 59.7816 79.6956 60.8166 79.5738C61.2428 79.5129 61.669 79.3303 61.9734 79.0867C62.0343 79.0258 62.0343 78.9041 61.9734 78.8432C61.9125 78.7823 61.7908 78.7823 61.7299 78.8432C61.4864 79.0867 61.1819 79.2085 60.8166 79.2694C60.4513 79.3303 60.0252 79.2085 59.7208 78.965C59.4163 78.7214 59.2337 78.3561 59.1728 77.9908C59.1119 77.6255 59.2337 77.2602 59.5381 76.8949C59.7816 76.5905 60.1469 76.4079 60.5731 76.347C60.9384 76.2861 61.3037 76.4079 61.5472 76.5905C61.6081 76.6514 61.7299 76.5905 61.7908 76.5296C61.8517 76.4688 61.7908 76.347 61.7299 76.2861C61.3646 76.0426 60.9384 75.9817 60.5122 75.9817C59.4163 76.0426 58.6857 76.9558 58.7466 77.93Z" fill="#737373"/>
<path d="M66.6644 78.5373L65.9338 75.4323C65.8729 75.2497 65.9947 75.1279 66.1773 75.067C66.36 75.0061 66.4818 75.1279 66.5426 75.3105L66.847 76.5891L68.2473 76.2847L67.9429 75.0061C67.8821 74.8235 68.0038 74.7017 68.1865 74.6408C68.3691 74.58 68.4909 74.7017 68.5518 74.8844L69.2824 77.9894C69.3432 78.172 69.2215 78.2938 69.0388 78.3547C68.8562 78.4156 68.7344 78.2938 68.6735 78.1112L68.3691 76.8326L66.9688 77.137L67.2732 78.4156C67.3341 78.5982 67.2123 78.72 67.0297 78.7809C66.847 78.8417 66.7253 78.72 66.6644 78.5373Z" fill="#737373"/>
<path d="M66.9693 78.9007C66.9084 78.9007 66.7866 78.9007 66.7257 78.8398C66.604 78.7789 66.5431 78.6572 66.5431 78.5963L65.8125 75.4913C65.8125 75.3695 65.8125 75.2477 65.8734 75.1868C65.9343 75.0651 66.056 75.0042 66.1169 75.0042C66.3604 74.9433 66.604 75.0651 66.604 75.3086L66.9084 76.4654L68.0652 76.2218L67.7608 75.0651C67.6999 74.8215 67.8216 74.6389 68.0652 74.578C68.3087 74.5171 68.5522 74.6389 68.5522 74.8824L69.2828 77.9875C69.3437 78.231 69.2219 78.4136 68.9784 78.4745C68.8566 78.4745 68.7349 78.4745 68.674 78.4136C68.5522 78.3528 68.4913 78.231 68.4913 78.1701L68.1869 77.0133L67.0302 77.2569L67.3346 78.4136C67.3346 78.5354 67.3346 78.6572 67.2737 78.718C67.2128 78.8398 67.091 78.9007 67.0302 78.9007H66.9693ZM66.2387 75.1868C66.1169 75.1868 66.1169 75.2477 66.056 75.2477C66.056 75.3086 65.9951 75.3086 66.056 75.3695L66.7866 78.4745C66.7866 78.5354 66.8475 78.5354 66.8475 78.5963C66.9084 78.5963 66.9084 78.6572 66.9693 78.5963C67.0302 78.5963 67.091 78.5354 67.091 78.5354C67.091 78.4745 67.1519 78.4745 67.091 78.4136L66.7866 77.0133L68.3696 76.648L68.674 78.0483C68.674 78.1092 68.7349 78.1092 68.7349 78.1701C68.7958 78.1701 68.7958 78.231 68.8566 78.1701C68.9784 78.1701 69.0393 78.0483 68.9784 77.9266L68.2478 74.8215C68.2478 74.6998 68.1261 74.6389 68.0043 74.6998C67.9434 74.6998 67.9434 74.7607 67.8825 74.7607C67.8825 74.8215 67.8216 74.8215 67.8825 74.8824L68.1869 76.2827L66.604 76.648L66.2996 75.2477C66.3604 75.2477 66.2996 75.1868 66.2387 75.1868Z" fill="#737373"/>
<path d="M73.9068 76.4044L72.6283 73.4211C72.5674 73.2385 72.6283 73.1167 72.8109 73.0558L74.4548 72.3861C74.5765 72.3252 74.7592 72.3861 74.8201 72.5688C74.881 72.7514 74.8201 72.9341 74.6374 72.9949L73.298 73.6038L73.6633 74.517L74.8201 74.0299C74.9418 73.9691 75.1245 74.0299 75.1854 74.2126C75.2463 74.3952 75.1854 74.517 75.0027 74.6388L73.846 75.1258L74.2721 76.0391L75.6116 75.4303C75.7333 75.3694 75.916 75.4303 76.0377 75.6129C76.0986 75.7347 76.0377 75.9173 75.8551 75.9782L74.2113 76.6479C74.0895 76.6479 73.9677 76.587 73.9068 76.4044Z" fill="#737373"/>
<path d="M74.2118 76.7093C74.0292 76.7093 73.8465 76.6485 73.7247 76.4658L72.4462 73.4826C72.3244 73.239 72.4462 72.9955 72.6897 72.9346L74.3336 72.204C74.5771 72.0823 74.8206 72.204 74.8815 72.4476C74.9424 72.6911 74.8815 72.9346 74.638 72.9955L73.4203 73.5434L73.7247 74.2132L74.7598 73.787C74.8815 73.7261 75.0033 73.7261 75.0642 73.787C75.1859 73.8479 75.2468 73.9087 75.3077 74.0305C75.4295 74.274 75.3077 74.5176 75.0642 74.5784L74.0292 75.0046L74.3336 75.6743L75.5512 75.1264C75.673 75.0655 75.7948 75.0655 75.8556 75.1264C75.9774 75.1873 76.0383 75.2482 76.0992 75.3699C76.1601 75.4917 76.1601 75.6135 76.0992 75.6743C76.0383 75.7961 75.9774 75.857 75.8556 75.9179L74.2118 76.7093ZM73.9683 76.3441C74.0292 76.4049 74.09 76.4658 74.1509 76.4658L74.2118 76.2223L74.2727 76.4049L75.7948 75.7352C75.8556 75.7352 75.8556 75.6743 75.9165 75.6135C75.9165 75.5526 75.9165 75.4917 75.9165 75.4917C75.9165 75.4308 75.8556 75.4308 75.7948 75.3699C75.7339 75.3699 75.673 75.3699 75.673 75.3699L74.2118 75.9788L73.7247 74.822L75.0033 74.274C75.0642 74.2132 75.1251 74.1523 75.0642 74.0305C75.0642 73.9696 75.0033 73.9696 74.9424 73.9087C74.8815 73.9087 74.8206 73.9087 74.8206 73.9087L73.5421 74.4567L73.055 73.2999L74.5162 72.6911C74.5771 72.6302 74.638 72.5693 74.638 72.4476C74.5771 72.3258 74.4553 72.3258 74.3945 72.3258L72.7506 72.9955C72.6289 73.0564 72.6289 73.1173 72.6289 73.239L73.9683 76.3441Z" fill="#737373"/>
<path d="M79.0228 71.9651C78.4139 71.1127 78.5966 69.8342 79.5098 69.1645C79.8751 68.86 80.3622 68.7383 80.7884 68.7383C80.971 68.7383 81.0928 68.9209 81.0928 69.0427C81.0928 69.2253 80.9101 69.3471 80.7884 69.3471C80.484 69.3471 80.1795 69.408 79.8751 69.6515C79.5707 69.8951 79.3881 70.1995 79.3272 70.5648C79.2663 70.9301 79.3272 71.2954 79.5707 71.5389C79.8142 71.8433 80.1187 72.026 80.484 72.0868C80.8492 72.1477 81.2145 72.026 81.519 71.8433C81.7625 71.6607 81.9451 71.3562 82.0669 71.0518C82.1278 70.9301 82.3104 70.8083 82.4322 70.8692C82.6148 70.9301 82.6757 71.1127 82.6757 71.2345C82.554 71.6607 82.3104 72.026 81.8843 72.3304C80.9101 73.0001 79.6316 72.8783 79.0228 71.9651Z" fill="#737373"/>
<path d="M80.6056 72.8767C79.9359 72.8767 79.327 72.5723 78.9009 72.0243C78.2311 71.1111 78.4747 69.7717 79.3879 69.102C79.8141 68.7975 80.2403 68.6758 80.7273 68.6758C80.9709 68.6758 81.1535 68.8584 81.1535 69.102C81.1535 69.3455 80.9709 69.5281 80.7273 69.5281C80.4229 69.5281 80.1794 69.589 79.9359 69.7717C79.6923 69.9543 79.5097 70.2587 79.4488 70.624C79.3879 70.9284 79.4488 71.2937 79.6923 71.5373C79.875 71.7808 80.1794 71.9635 80.4838 72.0243C80.8491 72.0852 81.1535 71.9635 81.3971 71.7808C81.6406 71.5982 81.8232 71.3546 81.8841 71.1111C81.945 70.8676 82.1885 70.7458 82.4321 70.8067C82.6756 70.8676 82.7974 71.1111 82.7365 71.3546C82.6147 71.8417 82.3103 72.207 81.945 72.5114C81.4579 72.7549 81.0318 72.8767 80.6056 72.8767ZM79.0835 71.9026C79.6923 72.694 80.8491 72.8767 81.7015 72.2679C82.0668 72.0243 82.3103 71.659 82.4321 71.2329C82.4321 71.1111 82.3712 71.0502 82.3103 70.9893C82.1885 70.9893 82.1276 71.0502 82.0668 71.1111C82.0059 71.4155 81.7623 71.7199 81.5188 71.9634C81.2144 72.207 80.7882 72.2679 80.4229 72.2679C80.0576 72.207 79.6923 72.0243 79.4488 71.659C79.2053 71.3546 79.1444 70.9893 79.2053 70.5631C79.2662 70.137 79.5097 69.8326 79.8141 69.589C80.1185 69.3455 80.4229 69.2846 80.7882 69.2846C80.8491 69.2846 80.9709 69.2237 80.9709 69.102C80.9709 68.9802 80.91 68.9193 80.7882 68.9193C80.362 68.9193 79.9359 69.0411 79.5706 69.2846C78.7182 69.8934 78.5356 71.1111 79.0835 71.9026Z" fill="#737373"/>
<path d="M86.2016 67.9438L83.7054 65.9346C83.5836 65.8129 83.5227 65.6302 83.6445 65.5085C83.7663 65.3867 83.9489 65.3867 84.0707 65.4476L85.2883 66.4217L84.9839 63.9255C84.9839 63.7429 85.1057 63.6211 85.2275 63.6211C85.4101 63.6211 85.5319 63.7429 85.5319 63.8646L85.7145 65.5693L87.7236 65.6302C87.9063 65.6302 88.0281 65.752 88.0281 65.9346C88.0281 65.9955 88.0281 66.0564 87.9672 66.1173C87.9063 66.1782 87.8454 66.2391 87.7236 66.2391L85.7754 66.1782L85.8972 66.9696L86.506 67.4567C86.6278 67.5785 86.6886 67.7611 86.5669 67.8829C86.506 68.0655 86.3233 68.0655 86.2016 67.9438Z" fill="#737373"/>
<path d="M86.3855 68.1255C86.2637 68.1255 86.2028 68.0646 86.1419 68.0037L83.6457 65.9946C83.4631 65.8728 83.4631 65.5684 83.5849 65.3858C83.7066 65.2031 84.011 65.2031 84.1937 65.3249L85.1678 66.1163L84.9243 63.9246C84.9243 63.8028 84.9243 63.681 84.9852 63.6202C85.0461 63.5593 85.1678 63.4984 85.2896 63.4375C85.5331 63.4375 85.7158 63.5593 85.7766 63.8028L85.9593 65.3858L87.8467 65.4466C87.9684 65.4466 88.0293 65.5075 88.1511 65.5684C88.212 65.6293 88.2728 65.751 88.2728 65.8728C88.2728 65.9946 88.2728 66.0555 88.212 66.1163C88.1511 66.2381 88.0293 66.2381 87.9075 66.2381L86.0811 66.1772L86.1419 66.7861L86.6899 67.2122C86.7508 67.2731 86.8117 67.3949 86.8725 67.5167C86.8725 67.6384 86.8725 67.7602 86.8117 67.8211C86.629 68.0646 86.5072 68.1255 86.3855 68.1255ZM83.8893 65.5684C83.8284 65.5684 83.7675 65.5684 83.7675 65.6293C83.7066 65.6902 83.7066 65.8119 83.7675 65.8728L86.2637 67.8819C86.3246 67.8819 86.3246 67.9428 86.3855 67.9428C86.4464 67.9428 86.4464 67.9428 86.5072 67.8819C86.5072 67.8211 86.5681 67.8211 86.5681 67.7602C86.5681 67.6993 86.5681 67.6993 86.5072 67.6384L85.8375 67.1514L85.7158 66.1772L87.7858 66.2381C87.8467 66.2381 87.9075 66.2381 87.9075 66.1772C87.9075 66.1163 87.9684 66.1163 87.9684 66.0555C87.9684 65.9946 87.9684 65.9337 87.9075 65.9337C87.8467 65.8728 87.8467 65.8728 87.7858 65.8728L85.6549 65.8119L85.4722 63.9246C85.4722 63.8028 85.3505 63.7419 85.2896 63.7419C85.1678 63.7419 85.1069 63.8637 85.1069 63.9246L85.4113 66.7252L83.9502 65.5684C83.9502 65.5684 83.9502 65.5684 83.8893 65.5684Z" fill="#737373"/>
<path d="M11.0818 54.063C9.07263 54.4283 7.00262 54.8544 4.99348 55.2806C3.77583 46.6353 2.49729 37.7464 1.21875 28.5531C2.31464 28.5531 3.34965 28.5531 4.44554 28.5531C5.54143 36.407 6.63732 44.0782 7.73321 51.5059C7.97674 51.445 8.22027 51.445 8.4638 51.3841C9.62058 43.5302 10.7773 35.9199 11.995 28.4922C13.03 28.4922 14.1259 28.4922 15.1609 28.4922C13.7606 36.8331 12.4212 45.2958 11.0818 54.063Z" fill="#737373"/>
<path d="M4.74806 55.6473L4.68718 55.3428C3.46952 46.7584 2.19098 37.7477 0.912445 28.6153L0.851562 28.3109H4.68718L4.74806 28.5544C5.78307 36.2256 6.87896 43.836 7.97485 51.2028L8.1575 51.1419C9.25339 43.6533 10.471 36.043 11.6278 28.4935L11.6887 28.25H15.4634L15.4026 28.6153C14.0022 37.1389 12.6628 45.7234 11.3843 54.1252L11.3234 54.3078L11.1408 54.3687C9.13162 54.734 7.06161 55.1602 5.05248 55.5864L4.74806 55.6473ZM1.52127 28.8588C2.73893 37.7477 4.01747 46.5148 5.23512 54.8558C7.06161 54.4296 8.94897 54.0643 10.7755 53.699C12.054 45.4798 13.3325 37.078 14.7328 28.7371H12.1758C10.9581 36.2865 9.80133 43.8969 8.70544 51.3855L8.64456 51.629L7.42691 51.8725L7.36602 51.5681C6.33101 44.2622 5.23512 36.5909 4.13923 28.8588H1.52127Z" fill="#737373"/>
<path d="M20.2734 52.3599C20.3343 44.4451 20.3952 36.4695 20.3952 28.5547C23.074 28.5547 20.8214 28.5547 23.5002 28.5547C23.4393 36.3477 23.3785 44.1407 23.3785 51.9337C22.3435 52.0555 21.3084 52.1772 20.2734 52.3599Z" fill="#737373"/>
<path d="M19.9688 52.7249L20.0905 28.25H23.8044L23.6826 52.2378L23.4391 52.2987C22.4041 52.4205 21.3691 52.6031 20.334 52.7249H19.9688ZM20.6993 28.8588L20.5776 52.0552C21.4299 51.9334 22.2823 51.8116 23.0738 51.6899L23.1955 28.8588H20.6993Z" fill="#737373"/>
<path d="M32.5722 50.8362C31.5371 50.9579 30.5021 51.0188 29.4062 51.1406C29.4671 43.5911 29.4671 36.0417 29.528 28.4922C32.0242 28.4922 34.5813 28.4922 37.0775 28.4922C38.4169 29.649 39.6954 30.7449 41.0349 31.8407C41.0349 34.3369 41.0349 36.8331 41.0349 39.3293C40.1216 40.1817 39.1475 41.0949 38.2343 41.9473C39.7563 44.687 41.2784 47.3659 42.8005 50.0447C41.6437 50.1056 40.4869 50.1665 39.3301 50.2273C37.9907 47.8529 36.6513 45.4785 35.3119 43.1041C34.3986 43.1649 33.4854 43.2258 32.5722 43.2867C32.633 45.8438 32.633 48.34 32.5722 50.8362ZM32.633 40.6079C33.668 40.547 34.7031 40.4861 35.7989 40.4252C36.5295 39.7555 37.2601 39.0249 37.9298 38.3552C37.9298 36.5287 37.9298 34.7022 37.9298 32.9366C37.2601 32.3278 36.5295 31.7799 35.8598 31.171C34.8248 31.171 33.7289 31.171 32.6939 31.2319C32.6939 34.3978 32.6939 37.5028 32.633 40.6079Z" fill="#737373"/>
<path d="M29.1602 51.5072L29.2819 28.25H37.2576L37.3185 28.3109C38.6579 29.4677 39.9364 30.5635 41.2758 31.6594L41.3976 31.7812L41.3367 39.5742H41.2758C40.4235 40.3657 39.5102 41.218 38.6579 42.0704C39.9973 44.5057 41.4585 47.0628 43.1023 49.9852L43.3459 50.4113H42.8588C41.702 50.4722 40.5452 50.5331 39.3885 50.594H39.2058L39.0841 50.4113C37.6837 47.9151 36.4052 45.6625 35.1876 43.4707C34.457 43.5316 33.6655 43.5316 32.9349 43.5925L32.874 51.1419H32.5696C31.5346 51.2637 30.4996 51.3246 29.4646 51.4463L29.1602 51.5072ZM29.8908 28.8588L29.769 50.8375C30.6213 50.7766 31.4737 50.6549 32.3261 50.594L32.3869 43.0445H32.6914C33.6046 42.9836 34.5178 42.9228 35.4311 42.8619H35.6137L35.7355 43.0445C36.9532 45.2363 38.2317 47.5498 39.632 49.9852C40.5452 49.9243 41.4585 49.8634 42.4326 49.8025C40.8497 47.0019 39.4494 44.5057 38.1099 42.1313L37.9882 41.9486L38.1708 41.766C39.0841 40.9136 39.9973 40.0613 40.9105 39.2089V31.9639C39.632 30.9288 38.4143 29.833 37.1358 28.7979L29.8908 28.8588ZM32.3261 40.9745L32.3869 30.9897L35.979 30.9288L36.0399 30.9897C36.7096 31.5986 37.4402 32.1465 38.1099 32.7553L38.2317 32.8771V38.6001L38.1099 38.661C37.3793 39.3307 36.7096 40.0004 35.979 40.731L35.9181 40.7919H35.7964C34.7614 40.8527 33.7264 40.9136 32.6914 40.9745H32.3261ZM32.9958 31.5986L32.9349 40.3048C33.8481 40.2439 34.7614 40.2439 35.6137 40.183C36.2834 39.5742 36.9532 38.9045 37.562 38.2957V33.1206C36.9532 32.5727 36.2834 32.0856 35.6746 31.5377L32.9958 31.5986Z" fill="#737373"/>
<path d="M50.2268 28.4961C50.2268 34.2191 50.2268 39.8812 50.2268 45.6042C50.8965 46.213 51.5662 46.7609 52.175 47.3698C52.8447 47.3698 53.5753 47.3698 54.2451 47.3698C54.9148 46.7609 55.5845 46.1521 56.1933 45.6042C56.1933 39.9421 56.1933 34.2191 56.1933 28.557C57.2283 28.557 58.2633 28.557 59.2983 28.557C59.2983 34.5844 59.2983 40.6118 59.2983 46.6392C58.0807 47.7351 56.8021 48.8918 55.5845 49.9877C53.9406 49.9877 52.3577 49.9877 50.7139 50.0486C49.4962 48.9527 48.2177 47.7959 47 46.7001C47 40.6727 47 34.6453 47.0609 28.557C48.1568 28.4961 49.1918 28.4961 50.2268 28.4961Z" fill="#737373"/>
<path d="M50.6504 50.2294L50.5895 50.1685C49.3719 49.0726 48.0933 47.9158 46.8757 46.8199L46.7539 46.759L46.8148 28.1898H50.5286V45.4196L52.2942 47.0026C52.9031 47.0026 53.5119 47.0026 54.1207 47.0026C54.7296 46.4546 55.3384 45.9067 55.8863 45.3587V28.1289H59.6002V28.4333V46.6373L59.4784 46.6982C58.2608 47.7941 57.0431 48.9508 55.7646 50.0467L55.7037 50.1076H55.5819C53.999 50.1076 52.3551 50.1076 50.7113 50.1685L50.6504 50.2294ZM47.3627 46.4546C48.5195 47.4896 49.7372 48.5855 50.8939 49.6205C52.416 49.6205 53.999 49.5597 55.521 49.5597C56.6778 48.4638 57.8955 47.4288 59.0522 46.3329V28.7377H56.556V45.6023L56.4343 45.6632C55.7646 46.272 55.0948 46.8808 54.486 47.4288L54.4251 47.4896H54.3034C53.6337 47.4896 52.9031 47.4896 52.2334 47.4896H52.1116L49.9807 45.5414V28.616H47.4845L47.3627 46.4546Z" fill="#737373"/>
<path d="M68.244 45.906C68.9137 46.5148 69.5835 47.1846 70.314 47.7934C71.0446 47.8543 71.8361 47.9151 72.5667 47.9151C73.2364 47.3672 73.9061 46.8193 74.5758 46.2104C74.5758 45.0537 74.5758 43.8969 74.5758 42.6792C71.4708 40.6701 68.3658 38.7218 65.2608 36.8954C65.2608 35.0689 65.2608 33.3033 65.2608 31.4768C66.4784 30.4418 67.6961 29.3459 68.9137 28.25C70.4967 28.25 72.1405 28.25 73.7235 28.25C74.9411 29.3459 76.2197 30.4418 77.4373 31.5986C77.4373 32.7553 77.4373 33.9121 77.4373 35.008C76.4023 34.9471 75.3673 34.9471 74.3323 34.9471C74.3323 34.1556 74.3323 33.425 74.3323 32.6336C73.6626 32.0247 73.0538 31.4768 72.3841 30.868C71.6535 30.868 70.9229 30.868 70.1923 30.868C69.5835 31.4159 68.9137 32.0247 68.3049 32.5727C68.3049 33.5468 68.3049 34.5818 68.3049 35.5559C71.4099 37.4433 74.4541 39.3916 77.5591 41.4007C77.5591 43.4098 77.5591 45.419 77.62 47.4281C76.3414 48.4631 75.1238 49.4981 73.8453 50.5331C72.2014 50.4113 70.5576 50.2896 68.9137 50.1678C67.6352 48.9502 66.3567 47.7934 65.0781 46.6366C65.0781 45.2972 65.0781 44.0186 65.0781 42.6792C66.1131 42.7401 67.1481 42.7401 68.1831 42.801C68.244 43.9578 68.244 44.9319 68.244 45.906Z" fill="#737373"/>
<path d="M73.9667 51.0208H73.845C72.2011 50.8991 70.5573 50.7773 68.9135 50.6555H68.7917L68.7308 50.5947C67.5132 49.4379 66.2346 48.2811 64.8952 47.0635L64.7734 47.0026V42.619H65.0779C66.1129 42.6799 67.1479 42.6799 68.1829 42.7408H68.4873V45.8458C69.0961 46.3937 69.7049 47.0026 70.3747 47.6114C71.0444 47.6723 71.7141 47.6723 72.4447 47.7332C73.0535 47.2461 73.6623 46.6982 74.2712 46.2111V42.9843C71.4705 41.1578 68.4873 39.3313 65.1387 37.2613L65.017 37.2004V31.4775L65.1387 31.4166C66.3564 30.3816 67.574 29.2857 68.7917 28.1898L68.8526 28.1289H73.9059L73.9667 28.1898C75.1844 29.2857 76.4629 30.3816 77.6806 31.5383L77.8024 31.5992V35.4957H77.4979C76.4629 35.4348 75.4279 35.4348 74.3929 35.4348H74.0885V32.9995C73.4797 32.4516 72.9317 31.9645 72.3229 31.4166H70.3747C69.8267 31.9036 69.2179 32.4516 68.6699 32.9386V35.6175C72.0185 37.6266 75.0017 39.514 77.8024 41.4014L77.9241 41.4622L77.985 47.7941L77.8632 47.9158C76.5847 48.9508 75.367 49.9858 74.0885 51.0208H73.9667ZM69.0961 50.0467C70.6791 50.1685 72.262 50.2294 73.7841 50.412C75.0017 49.4379 76.1585 48.4638 77.3762 47.4896L77.3153 41.7667C74.5147 39.9402 71.5314 38.0528 68.1829 35.9828L68.0611 35.9219V32.6342L68.1829 32.5734C68.7917 32.0254 69.4614 31.4775 70.0702 30.8686L70.1311 30.8077H72.5056L72.5664 30.8686C73.2361 31.4775 73.845 32.0254 74.5147 32.6342L74.6364 32.6951V34.826C75.4888 34.826 76.2803 34.8869 77.1326 34.8869V31.9036C75.9759 30.8077 74.8191 29.7727 73.6014 28.7377H69.0352C67.8785 29.7727 66.7217 30.8077 65.5649 31.7819V36.896C68.9744 38.9052 71.9576 40.7925 74.7582 42.619L74.88 42.6799V46.5155L74.7582 46.6373C74.0885 47.1852 73.4188 47.7332 72.7491 48.342L72.6273 48.4029H72.5056C71.775 48.342 70.9835 48.2811 70.2529 48.2811H70.1311L70.0702 48.2202C69.4005 47.5505 68.7308 46.9417 68.0002 46.3329L67.8785 46.272V43.5323C67.0261 43.4714 66.2346 43.4714 65.3823 43.4714V46.9417C66.7217 47.8549 67.9393 48.9508 69.0961 50.0467Z" fill="#737373"/>
<path d="M82.918 38.7812C85.7186 38.9639 88.5192 39.0857 91.3198 39.3292C91.3198 40.1816 91.3198 41.0339 91.3198 41.8863C88.5192 41.6427 85.7186 41.3992 82.918 41.2166C82.918 40.4251 82.918 39.6336 82.918 38.7812Z" fill="#737373"/>
<path d="M91.6239 42.2529H91.3195C88.5189 42.0094 85.7183 41.7659 82.9177 41.5832H82.6133V38.5391H82.9177C85.7183 38.7217 88.5189 38.8435 91.3195 39.087H91.6239V42.2529ZM83.2221 40.9744C85.7792 41.157 88.3971 41.3397 91.0151 41.5832V39.635C88.458 39.4523 85.8401 39.2697 83.2221 39.1479V40.9744Z" fill="#737373"/>
<path d="M101.117 42.0746C101.057 42.0746 101.057 42.0746 100.996 42.0746C99.6563 46.032 98.3169 49.8676 96.9166 53.5814C95.8207 53.3988 94.7248 53.2161 93.6289 53.0335C95.2727 48.8326 96.8557 44.5708 98.4995 40.0654C97.0992 36.1081 95.7598 32.2724 94.3595 28.5586C95.4554 28.5586 96.6122 28.5586 97.7081 28.5586C98.804 31.7854 99.8998 35.0731 100.996 38.4825C101.057 38.4825 101.057 38.4825 101.117 38.4825C102.153 35.2557 103.248 31.968 104.283 28.5586C105.379 28.5586 106.475 28.5586 107.571 28.5586C106.232 32.6377 104.953 36.656 103.614 40.4916C105.258 45.4231 106.84 50.5982 108.423 55.9559C107.328 55.7123 106.232 55.4688 105.136 55.2253C103.796 50.7199 102.457 46.3364 101.117 42.0746Z" fill="#737373"/>
<path d="M108.85 56.3801L108.363 56.2584C107.267 56.0149 106.171 55.7713 105.075 55.5278L104.893 55.4669L104.832 55.2843C103.614 51.1442 102.275 46.9433 100.996 42.8033C99.7176 46.4563 98.439 50.1092 97.1605 53.6404L97.0996 53.884L96.8561 53.8231C95.7602 53.6404 94.6643 53.4578 93.5684 53.2751L93.2031 53.2142L93.3249 52.8489C94.9687 48.648 96.6126 44.3253 98.1346 40.0027C96.7952 36.2279 95.4558 32.3923 94.0555 28.6176L93.8728 28.1914H97.8911L97.952 28.3741C98.987 31.4182 100.022 34.5232 100.996 37.6282C101.97 34.5841 102.944 31.54 103.919 28.4349L103.979 28.1914H107.876L107.754 28.6176C106.476 32.6359 105.136 36.5932 103.858 40.4289C105.501 45.4821 107.145 50.6572 108.667 55.7713L108.85 56.3801ZM105.38 54.9798C106.232 55.1625 107.084 55.3451 107.937 55.5887C106.415 50.5963 104.893 45.543 103.249 40.6724L103.188 40.5506L103.249 40.4289C104.527 36.715 105.806 32.8185 107.024 28.922H104.406C103.371 32.2097 102.336 35.4365 101.301 38.6024L101.24 38.8459L100.631 38.785L100.57 38.6024C99.5349 35.3756 98.4391 32.0879 97.404 28.8611H94.7252C96.0646 32.575 97.4649 36.2888 98.7435 39.9418L98.8043 40.0636L98.7435 40.1853C97.2214 44.4471 95.5776 48.648 93.9946 52.7881C94.9078 52.9098 95.7602 53.0925 96.6734 53.2751C98.0129 49.5613 99.3523 45.7865 100.631 42.0118L100.692 41.7683L101.24 41.8292L101.301 42.0118C102.762 46.2736 104.101 50.6572 105.38 54.9798Z" fill="#737373"/>
<path d="M37.1975 21.3114H27.1518C26.7865 21.3114 26.543 21.0679 26.543 20.7026C26.543 20.3373 26.7865 20.0938 27.1518 20.0938H37.1975C37.5628 20.0938 37.8063 20.3373 37.8063 20.7026C37.8063 21.007 37.5628 21.3114 37.1975 21.3114Z" fill="#737373"/>
<path d="M82.1857 21.3114H72.1401C71.7748 21.3114 71.5312 21.0679 71.5312 20.7026C71.5312 20.3373 71.7748 20.0938 72.1401 20.0938H82.1857C82.551 20.0938 82.7946 20.3373 82.7946 20.7026C82.7946 21.007 82.551 21.3114 82.1857 21.3114Z" fill="#737373"/>
<path d="M63.8621 10.2299C63.8013 10.169 63.8013 10.169 63.7404 10.1081L55.2781 4.50687C54.9129 4.26334 54.4258 4.26334 54.0606 4.50687L45.5983 10.1081L45.5374 10.169C45.5374 10.169 45.5374 10.169 45.5374 10.2299C45.5374 10.2907 45.4766 10.2907 45.4766 10.3516V20.9452C45.4766 21.2496 45.5983 21.5541 45.8418 21.7976C46.0854 22.0411 46.3289 22.1629 46.6941 22.1629H62.7663C63.0707 22.1629 63.3751 22.0411 63.6186 21.7976C63.8013 21.5541 63.9839 21.3105 63.9839 20.9452V10.4125C63.8621 10.3516 63.8621 10.2907 63.8621 10.2299ZM54.4258 5.05481C54.5476 4.93305 54.7911 4.93305 54.9129 5.05481L62.9489 10.3516L55.0346 15.4049C54.7911 15.5267 54.4867 15.5267 54.3041 15.4049L46.3898 10.3516L54.4258 5.05481ZM46.6333 21.4932L51.9907 16.0137C52.1124 15.892 52.1124 15.7093 51.9907 15.5267C51.8689 15.4049 51.6863 15.4049 51.5036 15.5267L46.0854 20.9452V20.8843V10.9604L53.9388 15.9528C54.1823 16.0746 54.4258 16.1355 54.6693 16.1355C54.9129 16.1355 55.1564 16.0746 55.3999 15.9528L63.2533 10.9604V20.9452V21.0061L57.8351 15.5875C57.7133 15.4658 57.5307 15.4658 57.348 15.5875C57.2263 15.7093 57.2263 15.892 57.348 16.0746L62.7663 21.4932H62.7054H46.6333Z" fill="#737373"/>
<path d="M53.2712 9.80227H56.1327C56.1936 9.80227 56.3154 9.74138 56.3763 9.6805L57.2286 8.82814L57.7766 11.994C57.7766 12.1767 57.9592 12.2376 58.081 12.2376H58.1419C58.3245 12.1767 58.4463 12.0549 58.3854 11.8723L57.7157 8.09755C57.7157 7.97578 57.5939 7.85402 57.4722 7.85402C57.3504 7.79313 57.2286 7.85402 57.1678 7.9149L55.9501 9.13255H53.393L52.0536 7.79313C51.9927 7.73225 51.8101 7.67137 51.7492 7.73225C51.6274 7.79313 51.5665 7.85402 51.5056 7.97578L50.8359 11.8723C50.8359 12.0549 50.8968 12.2376 51.0795 12.2376C51.2621 12.2376 51.4448 12.1767 51.4448 11.994L51.9927 8.70637L52.9668 9.6805C53.0886 9.80226 53.2104 9.80227 53.2712 9.80227Z" fill="#737373"/>
<path d="M53.2705 11.8125C53.3314 11.8734 53.3923 11.8734 53.4532 11.8734C53.5749 11.8734 53.6358 11.8125 53.7576 11.7516C53.8793 11.6299 53.8184 11.3863 53.6358 11.3255L52.9661 10.8993C52.8443 10.7775 52.6008 10.8384 52.5399 11.0211C52.4181 11.1428 52.479 11.3863 52.6617 11.4472L53.2705 11.8125Z" fill="#737373"/>
<path d="M56.374 10.8398L55.7042 11.266C55.5825 11.3878 55.5216 11.5704 55.5825 11.6922C55.6434 11.8139 55.7651 11.8139 55.8869 11.8139C55.9478 11.8139 56.0087 11.8139 56.0695 11.7531L56.7393 11.3269C56.861 11.2051 56.9219 11.0225 56.861 10.9007C56.7393 10.7789 56.4957 10.718 56.374 10.8398Z" fill="#737373"/>
<path d="M55.3397 13.5776V13.9429C55.3397 14.1255 55.4614 14.2473 55.6441 14.2473C55.8267 14.2473 55.9485 14.1255 55.9485 13.9429V13.5776H56.3747C56.5573 13.5776 56.6791 13.4558 56.6791 13.2732C56.6791 13.0905 56.5573 12.9688 56.3747 12.9688H52.8435C52.6608 12.9688 52.5391 13.0905 52.5391 13.2732C52.5391 13.4558 52.6608 13.5776 52.8435 13.5776H53.2697V13.9429C53.2697 14.1255 53.3914 14.2473 53.5741 14.2473C53.7567 14.2473 53.8785 14.1255 53.8785 13.9429V13.5776H55.3397Z" fill="#737373"/>
<path d="M36.5886 59.3622H27.1518C26.7865 59.3622 26.543 59.1187 26.543 58.7534C26.543 58.3881 26.7865 58.1445 27.1518 58.1445H36.5886C36.9539 58.1445 37.1975 58.3881 37.1975 58.7534C37.1975 59.1187 36.893 59.3622 36.5886 59.3622Z" fill="#737373"/>
<path d="M82.1863 59.3622H72.7495C72.3842 59.3622 72.1406 59.1187 72.1406 58.7534C72.1406 58.3881 72.3842 58.1445 72.7495 58.1445H82.1863C82.5516 58.1445 82.7951 58.3881 82.7951 58.7534C82.7951 59.1187 82.5516 59.3622 82.1863 59.3622Z" fill="#737373"/>
<path d="M43.4085 58.0222V58.631H42.1909V60.1531H43.7129V60.7619H41.582V55.7695C42.3735 55.7695 42.7997 55.7695 43.5912 55.7695V56.3784H42.13V57.9613H43.4085V58.0222Z" fill="#737373"/>
<path d="M43.8354 60.943H41.4609V55.707H43.7136V56.5594H42.2524V57.8988H43.4701V58.7512H42.2524V60.0297H43.7745V60.943H43.8354ZM41.7045 60.6994H43.5918V60.3341H42.0698V58.5076H43.2874V58.1423H42.0698V56.3159H43.4701V55.9506H41.7045V60.6994Z" fill="#737373"/>
<path d="M45.24 59.8441L45.6053 60.2703H46.0315L46.3968 59.8441V59.0526L44.6312 57.835V56.6173L45.3618 55.8867H46.275L47.0056 56.6173V57.4088H46.3968V56.9217L46.0315 56.5564H45.6053L45.24 56.9217V57.5914L47.0056 58.8091V60.1485L46.275 60.94H45.3009L44.5703 60.1485V59.2353H45.1791V59.8441H45.24Z" fill="#737373"/>
<path d="M46.3343 60.9407H45.2993L44.5078 60.0883V59.0533H45.3602V59.7839L45.6646 60.1492H45.969L46.2734 59.7839V59.1142L44.5078 57.8965V56.5571L45.2993 55.7656H46.3343L47.1258 56.5571V57.4703H46.2734V56.8615L45.969 56.5571H45.6646L45.3602 56.8615V57.4703L47.1258 58.688V60.1492L46.3343 60.9407ZM45.4211 60.6971H46.2734L46.9431 60.0274V58.8098L45.1775 57.5921V56.8006L45.6037 56.3136H46.1517L46.5778 56.8006V57.2268H46.9431V56.618L46.2734 55.9483H45.4211L44.8122 56.618V57.7748L46.5778 58.9924V59.9057L46.0908 60.3927H45.5428L45.0558 59.9057V59.2968H44.6905V60.0274L45.4211 60.6971Z" fill="#737373"/>
<path d="M48.7703 56.3761H47.918V55.8281H50.2924V56.3761H49.44V60.8205H48.8312V56.3761H48.7703Z" fill="#737373"/>
<path d="M49.4391 60.943H48.5867V56.4985H47.7344V55.707H50.3523V56.4985H49.5V60.943H49.4391ZM48.8911 60.6994H49.2564V56.255H50.1088V55.9506H47.9779V56.255H48.8303V60.6994H48.8911Z" fill="#737373"/>
<path d="M51.1992 55.8281H52.7822L53.5128 56.5587V60.029L52.7822 60.7596C52.2342 60.7596 51.7472 60.7596 51.1992 60.7596V55.8281ZM52.5386 60.2117L52.9039 59.8464V56.8631L52.5386 56.4978H51.808V60.2726H52.5386V60.2117Z" fill="#737373"/>
<path d="M52.8437 60.9407H51.0781V55.7656H52.8437L53.6352 56.5571V60.1492L52.8437 60.9407ZM51.3217 60.6971H52.722L53.3917 60.0274V56.618L52.722 55.9483H51.3217V60.6971ZM52.6002 60.3318H51.687V56.3136H52.6002L53.0873 56.7397V59.7839L52.6002 60.3318ZM51.9305 60.0883H52.4784L52.7828 59.7839V56.9224L52.4784 56.618H51.9305V60.0883Z" fill="#737373"/>
<path d="M57.3495 55.8281V60.2726H58.0801V60.8205H55.9492V60.2726H56.6798V56.437H56.0101V55.8281H57.3495Z" fill="#737373"/>
<path d="M58.2026 60.943H55.8281V60.1515H56.5587V56.5594H55.889V55.707H57.472V60.0906H58.2026V60.943ZM56.1325 60.6994H58.0199V60.395H57.2893V56.0114H56.2543V56.3767H56.8631V60.4559H56.1325V60.6994Z" fill="#737373"/>
<path d="M59.6017 58.7521L58.8711 58.0215V56.6212L59.6017 55.8906H60.5149L61.2455 56.6212V60.1524L60.5149 60.883H59.6017L58.932 60.1524V59.4827H59.5408V59.9089L59.8452 60.2742H60.2714L60.6367 59.9089V58.813H59.6017V58.7521ZM60.6976 58.1433V56.8039L60.3323 56.3777H59.9061L59.5408 56.8039V57.7171L59.9061 58.1433H60.6976Z" fill="#737373"/>
<path d="M60.5765 60.942H59.5415L58.8109 60.1505V59.2982H59.6632V59.7852L59.9068 60.0288H60.2112L60.5156 59.7244V58.7502H59.5415L58.75 57.8979V56.3758L59.5415 55.5234H60.5765L61.368 56.3758V59.9679L60.5765 60.942ZM59.6632 60.6985H60.5156L61.1853 60.0288V56.6193L60.5156 55.9496H59.6632L58.9935 56.6193V57.8979L59.6632 58.5676H60.7591V59.8461L60.333 60.2723H59.785L59.3588 59.8461V59.4808H58.9935V59.9679L59.6632 60.6985ZM60.82 58.2632H59.8459L59.4197 57.7761V56.7411L59.8459 56.254H60.3938L60.82 56.7411V58.2632ZM59.9068 58.0196H60.5156V56.8629L60.2112 56.5584H59.9068L59.6024 56.8629V57.7152L59.9068 58.0196Z" fill="#737373"/>
<path d="M63.1329 58.7521L62.4023 58.0215V56.6212L63.1329 55.8906H64.0462L64.7768 56.6212V60.1524L64.0462 60.883H63.1329L62.4632 60.1524V59.4827H63.0721V59.9089L63.3765 60.2742H63.8026L64.1679 59.9089V58.813H63.1329V58.7521ZM64.1679 58.1433V56.8039L63.8026 56.3777H63.3765L63.0112 56.8039V57.7171L63.3765 58.1433H64.1679Z" fill="#737373"/>
<path d="M64.1077 60.942H63.0727L62.3421 60.1505V59.2982H63.1945V59.7852L63.438 60.0288H63.7424L64.0469 59.7244V58.7502H63.0727L62.2812 57.8979V56.3758L63.0727 55.5234H64.1077L64.8992 56.3758V59.9679L64.1077 60.942ZM63.1945 60.6985H64.0469L64.7166 60.0288V56.6193L64.0469 55.9496H63.1945L62.5248 56.6193V57.8979L63.1945 58.5676H64.2904V59.8461L63.8642 60.2723H63.3163L62.8901 59.8461V59.4808H62.5248V59.9679L63.1945 60.6985ZM64.2904 58.2632H63.3163L62.8901 57.7761V56.7411L63.3163 56.254H63.8642L64.2904 56.7411V58.2632ZM63.438 58.0196H64.0469V56.8629L63.7424 56.5584H63.438L63.1336 56.8629V57.7152L63.438 58.0196Z" fill="#737373"/>
<path d="M67.3352 56.6219V56.3784H66.3002V56.8654H65.6914V55.7695H67.9441V56.6828L66.6046 60.7619H65.9958L67.3352 56.6219Z" fill="#737373"/>
<path d="M66.7271 60.943H65.8138L67.2141 56.6203V56.5594H66.4227V57.0465H65.5703V55.707H68.0665V56.742L66.7271 60.943ZM66.1183 60.6994H66.4836L67.7621 56.742V56.0114H65.753V56.8638H66.1183V56.3767H67.3968V56.742L66.1183 60.6994Z" fill="#737373"/>
</g>
<defs>
<clipPath id="clip0_3768_543">
<rect width="108" height="80" fill="white" transform="translate(0.851562)"/>
</clipPath>
</defs>
</svg>
