<svg width="86" height="80" viewBox="0 0 86 80" fill="none" xmlns="http://www.w3.org/2000/svg">
<g clip-path="url(#clip0_3768_1171)">
<path d="M83.3685 80H82.3875C76.617 80 70.9041 79.9417 65.1336 79.9417C53.1886 79.9417 41.0127 79.9417 29.2409 79.9417C20.9313 79.9417 12.564 80 4.25443 80H3.27344L3.79279 79.1253C4.25443 78.3673 4.65837 77.551 5.12001 76.793L6.101 77.3761C5.81247 77.8425 5.52395 78.3673 5.29313 78.8338C13.3142 78.8338 21.2775 78.8338 29.2986 78.7755C41.0704 78.7755 53.1886 78.7172 65.1913 78.7755C70.6156 78.7755 76.0399 78.8338 81.4642 78.8338C81.2911 78.5422 81.118 78.2507 81.0026 77.9591L80.714 77.4927L81.695 76.9096L81.9836 77.3761C82.2721 77.8425 82.5029 78.309 82.7914 78.7755C82.8491 78.8921 82.9068 78.9504 82.9646 79.1253L83.3685 80Z" fill="#737373"/>
<path d="M8.18304 28.2227C8.93321 28.2227 9.45256 28.3976 9.79879 28.6891C10.2604 29.0973 10.4913 29.5638 10.4913 30.2052V33.4122C10.4913 34.1702 10.2604 34.695 9.79879 34.9282C9.8565 34.9282 10.0296 35.1614 10.2604 35.6279C10.3758 35.9194 10.4913 36.211 10.4913 36.5025V39.7678C10.4913 40.5259 10.145 41.0506 9.39486 41.4588C9.10633 41.5754 8.8178 41.6337 8.52928 41.6337H6.625V28.2227H8.18304ZM7.31746 28.9807V34.6367H8.47157C9.10633 34.6367 9.51027 34.3451 9.74109 33.7037L9.79879 33.2955V30.2635C9.79879 29.6221 9.51027 29.2139 8.87551 28.9807L8.47157 28.9224H7.31746V28.9807ZM7.31746 35.3364V40.9923H8.58698C9.04862 40.9923 9.39486 40.7008 9.68338 40.176C9.74109 40.0011 9.74109 39.8262 9.74109 39.6512V36.6192C9.74109 36.0361 9.45256 35.6279 8.87551 35.3947C8.7601 35.3364 8.52928 35.3364 8.18304 35.3364H7.31746Z" fill="#737373"/>
<path d="M8.52874 41.9825H6.62446C6.56676 41.9825 6.45135 41.9241 6.39364 41.9241C6.33594 41.8658 6.33594 41.8075 6.33594 41.6909V28.2798C6.33594 28.1049 6.45135 27.9883 6.62446 27.9883H8.18251C9.04809 27.9883 9.62514 28.1632 9.97138 28.5131C10.4907 28.9212 10.7793 29.5043 10.7793 30.204V33.411C10.7793 34.1107 10.6061 34.6355 10.2022 34.9854C10.2599 35.102 10.3753 35.2769 10.4907 35.5101C10.6638 35.86 10.7215 36.2099 10.7215 36.5597V39.825C10.7215 40.6997 10.3176 41.341 9.50973 41.8075C9.22121 41.8658 8.87497 41.9825 8.52874 41.9825ZM6.91299 41.3994H8.58645C8.81727 41.3994 9.10579 41.341 9.33662 41.2244C9.97138 40.8746 10.2599 40.4081 10.2599 39.7667V36.5014C10.2599 36.2682 10.2022 35.9766 10.0868 35.7434C9.85596 35.3352 9.74055 35.2186 9.74055 35.1603C9.68285 35.102 9.62514 35.0437 9.62514 34.9271C9.62514 34.8104 9.68285 34.6938 9.79826 34.6355C10.1445 34.4606 10.3176 34.0524 10.3176 33.411V30.204C10.3176 29.6792 10.1445 29.2711 9.74055 28.9212C9.45203 28.6297 8.99038 28.5131 8.35563 28.5131H7.08611L6.91299 41.3994ZM8.58645 41.2244H7.31693C7.14381 41.2244 7.0284 41.1078 7.0284 40.9329V35.2769C7.0284 35.102 7.14381 34.9854 7.31693 34.9854H8.24021C8.75956 34.9854 8.93268 35.0437 9.04809 35.102C9.74055 35.3352 10.0868 35.86 10.0868 36.618V39.6501C10.0868 39.825 10.0868 40.0583 10.0291 40.2332C9.56744 41.0495 8.99038 41.2244 8.58645 41.2244ZM7.60546 40.6413H8.58645C8.81727 40.6413 9.1635 40.583 9.39432 39.9999C9.39432 39.9416 9.45203 39.7667 9.45203 39.6501V36.618C9.45203 36.1515 9.22121 35.86 8.75956 35.6851C8.75956 35.6851 8.64415 35.6268 8.18251 35.6268H7.54775V40.6413H7.60546ZM8.47104 34.8687H7.31693C7.14381 34.8687 7.0284 34.7521 7.0284 34.5772V28.9212C7.0284 28.7463 7.14381 28.6297 7.31693 28.6297H8.47104L8.87497 28.688C9.68285 28.9212 10.0868 29.446 10.0868 30.2623V33.2944L10.0291 33.7026C9.74055 34.5189 9.22121 34.8687 8.47104 34.8687ZM7.60546 34.2857H8.47104C8.99038 34.2857 9.27891 34.0524 9.45203 33.5276L9.50973 33.1778V30.204C9.50973 29.6792 9.27891 29.3877 8.75956 29.2128L8.41333 29.1545H7.60546V34.2857Z" fill="#737373"/>
<path d="M17.3008 28.2812H17.9932V41.6923H17.3008V28.2812Z" fill="#737373"/>
<path d="M17.9927 41.9825H17.3002C17.1271 41.9825 17.0117 41.8658 17.0117 41.6909V28.2798C17.0117 28.1049 17.1271 27.9883 17.3002 27.9883H17.9927C18.1658 27.9883 18.2812 28.1049 18.2812 28.2798V41.6909C18.2812 41.8075 18.1658 41.9825 17.9927 41.9825ZM17.5888 41.3994H17.7042V28.5714H17.5888V41.3994Z" fill="#737373"/>
<path d="M29.1289 28.281V29.039H27.5708V41.7504H26.8784V28.9807H25.3203V28.2227H29.1289V28.281Z" fill="#737373"/>
<path d="M27.5703 41.9822H26.8778C26.7047 41.9822 26.5893 41.8655 26.5893 41.6906V29.2708H25.3198C25.1467 29.2708 25.0312 29.1542 25.0312 28.9792V28.2212C25.0312 28.0463 25.1467 27.9297 25.3198 27.9297H29.1283C29.3014 27.9297 29.4169 28.0463 29.4169 28.2212V28.9792C29.4169 29.1542 29.3014 29.2708 29.1283 29.2708H27.8588V41.6906C27.8588 41.8072 27.7434 41.9822 27.5703 41.9822ZM27.1663 41.3991H27.2818V28.9792C27.2818 28.8043 27.3972 28.6877 27.5703 28.6877H28.8398V28.5711H25.5506V28.746H26.8201C26.9932 28.746 27.1086 28.8626 27.1086 29.0376V41.3991H27.1663Z" fill="#737373"/>
<path d="M37.7285 28.2812H37.8439C38.5941 28.2812 39.1711 28.6894 39.5751 29.5057C39.6328 29.6807 39.6905 29.9139 39.6905 30.2054V30.497H38.998V30.2054C38.998 29.6807 38.7672 29.3308 38.2478 29.0976C38.0747 29.0393 37.9016 28.981 37.7862 28.981C37.3246 28.981 36.9783 29.2142 36.7475 29.6224C36.6321 29.7973 36.5744 30.0305 36.5744 30.2638V39.7098C36.5744 40.2929 36.9206 40.7011 37.5554 40.9343C37.6131 40.9343 37.6708 40.9343 37.7862 40.9343H37.9016C38.3633 40.9343 38.7095 40.7011 38.9403 40.1763C38.998 40.0014 39.0557 39.7681 39.0557 39.4183H39.7482V39.7098C39.7482 40.4678 39.402 40.9926 38.6518 41.4008C38.3633 41.5174 38.0747 41.5757 37.7862 41.5757C36.9783 41.5757 36.4013 41.1675 35.9973 40.4095C35.8819 40.2346 35.8242 39.8264 35.8242 39.2434V30.497C35.8242 29.6807 35.9973 29.0976 36.3436 28.806C36.7475 28.4562 37.2091 28.2812 37.7285 28.2812Z" fill="#737373"/>
<path d="M37.7866 41.9825C36.8633 41.9825 36.2285 41.516 35.7669 40.6413C35.6515 40.4081 35.5938 39.9999 35.5938 39.3585V30.6122C35.5938 29.6792 35.8246 29.0378 36.2285 28.688C36.6324 28.2215 37.1518 27.9883 37.7866 27.9883H37.902C38.7675 27.9883 39.46 28.4548 39.9216 29.3877C40.0371 29.6209 40.0948 29.9125 40.0948 30.204V30.4956C40.0948 30.6705 39.9794 30.7871 39.8062 30.7871H39.1138C38.9407 30.7871 38.8253 30.6705 38.8253 30.4956V30.204C38.8253 29.7959 38.6521 29.5626 38.1905 29.3294C38.0174 29.2711 37.902 29.2711 37.8443 29.2711C37.498 29.2711 37.2672 29.446 37.0364 29.7959C36.9787 29.9125 36.921 30.0874 36.921 30.2623V39.7084C36.921 40.1749 37.1518 40.4664 37.6711 40.6413C37.6711 40.6413 37.6711 40.6413 37.7288 40.6413C37.7288 40.6413 37.7866 40.6413 37.8443 40.6413H37.9597C38.1905 40.6413 38.479 40.583 38.7675 40.0583C38.8252 39.9416 38.8253 39.7084 38.8253 39.4752C38.8253 39.3002 38.9407 39.1836 39.1138 39.1836H39.8062C39.9794 39.1836 40.0948 39.3002 40.0948 39.4752V39.7667C40.0948 40.6413 39.6908 41.2827 38.883 41.7492C38.479 41.8658 38.1328 41.9825 37.7866 41.9825ZM37.7288 28.5714C37.2672 28.5714 36.921 28.7463 36.5747 29.0962C36.2862 29.3294 36.1131 29.8542 36.1131 30.6122V39.3585C36.1131 40.0583 36.2285 40.2915 36.2285 40.3498C36.6324 41.0495 37.0941 41.3994 37.7866 41.3994C38.0174 41.3994 38.3059 41.341 38.5367 41.2244C39.1715 40.8746 39.46 40.4081 39.46 39.7667H39.3446C39.3446 39.9416 39.2869 40.1166 39.2292 40.2915C38.8252 41.1078 38.3059 41.2827 37.902 41.2827H37.7866C37.6134 41.2827 37.5557 41.2827 37.4403 41.2244C36.517 40.9329 36.2862 40.2332 36.2862 39.7667V30.2623C36.2862 29.9708 36.3439 29.6792 36.4593 29.5043C36.8056 28.9795 37.2095 28.688 37.7866 28.688C37.9597 28.688 38.1328 28.7463 38.3059 28.8046C39.1138 29.2128 39.2869 29.7959 39.2869 30.204H39.4023C39.4023 29.9708 39.3446 29.7959 39.2869 29.6209C38.9407 28.9212 38.479 28.5714 37.7866 28.5714H37.7288Z" fill="#737373"/>
<path d="M48.2901 28.2227H48.4055C49.2134 28.2227 49.7904 28.6891 50.1944 29.5638L50.2521 30.0885V39.6512C50.2521 40.5259 49.7904 41.1673 48.9249 41.5171C48.694 41.5754 48.5209 41.6337 48.2901 41.6337C47.4822 41.6337 46.9052 41.2256 46.5012 40.4676C46.3858 40.2926 46.3281 39.8845 46.3281 39.3014V30.555C46.3281 29.7387 46.5012 29.1556 46.8475 28.8641C47.3091 28.4559 47.7708 28.2227 48.2901 28.2227ZM47.136 30.2052V39.6512C47.136 40.2343 47.4245 40.6425 48.0593 40.8757C48.117 40.8757 48.1747 40.8757 48.2901 40.8757H48.4055C48.8672 40.8757 49.2134 40.6425 49.4442 40.1177L49.5596 39.7095V29.9719C49.5596 29.6221 49.3865 29.3305 49.0403 29.039C48.8095 28.9224 48.5786 28.8641 48.3478 28.8641C47.8862 28.8641 47.5399 29.0973 47.3091 29.5055C47.1937 29.797 47.136 29.9719 47.136 30.2052Z" fill="#737373"/>
<path d="M48.3451 41.9825C47.4219 41.9825 46.7871 41.516 46.3255 40.6413C46.2101 40.4081 46.1523 39.9999 46.1523 39.3585V30.6122C46.1523 29.6792 46.3832 29.0378 46.7871 28.688C47.191 28.2215 47.7104 27.9883 48.3451 27.9883H48.4606C49.3838 27.9883 50.0763 28.5131 50.538 29.5043V29.5626L50.5957 30.0874V39.7084C50.5957 40.6997 50.0763 41.3994 49.0953 41.8075C48.8068 41.9241 48.576 41.9825 48.3451 41.9825ZM48.2874 28.5131C47.8258 28.5131 47.4796 28.688 47.1333 29.0378C46.8448 29.2711 46.6717 29.7959 46.6717 30.5539V39.3002C46.6717 39.9999 46.7871 40.2332 46.7871 40.2915C47.1333 40.9912 47.6527 41.3411 48.2874 41.3411C48.4606 41.3411 48.6337 41.2827 48.8068 41.2244C49.557 40.9329 49.9032 40.4081 49.9032 39.6501V30.1457L49.8455 29.6792C49.4993 28.9212 48.9799 28.5131 48.3451 28.5131H48.2874ZM48.4606 41.2244H48.3451C48.172 41.2244 48.0566 41.2244 47.9989 41.1661C47.0756 40.8746 46.9025 40.1749 46.9025 39.7084V30.204C46.9025 29.9125 46.9602 29.6792 47.0756 29.446C47.4219 28.9212 47.8258 28.6297 48.4029 28.6297C48.6914 28.6297 48.9799 28.688 49.2107 28.8629C49.6724 29.2128 49.9032 29.6209 49.9032 30.0291V39.7667V39.825L49.7878 40.2332V40.2915C49.3838 41.0495 48.8068 41.2244 48.4606 41.2244ZM48.3451 29.2128C47.9989 29.2128 47.7681 29.3877 47.5373 29.7376C47.4796 29.8542 47.4219 30.0291 47.4219 30.204V39.6501C47.4219 40.1166 47.6527 40.4081 48.172 40.583C48.172 40.583 48.2297 40.583 48.3451 40.583H48.4606C48.6914 40.583 48.9799 40.5247 49.2684 39.9999L49.3261 39.6501V29.9708C49.3261 29.7376 49.2107 29.5043 48.9222 29.2711C48.6914 29.2711 48.5183 29.2128 48.3451 29.2128Z" fill="#737373"/>
<path d="M57.0586 28.2812H57.7511V41.6923H57.0586V28.2812Z" fill="#737373"/>
<path d="M57.8091 41.9825H57.1167C56.9435 41.9825 56.8281 41.8658 56.8281 41.6909V28.2798C56.8281 28.1049 56.9435 27.9883 57.1167 27.9883H57.8091C57.9822 27.9883 58.0976 28.1049 58.0976 28.2798V41.6909C58.0976 41.8075 57.9245 41.9825 57.8091 41.9825ZM57.3475 41.3994H57.4629V28.5714H57.3475V41.3994Z" fill="#737373"/>
<path d="M65.7706 31.4297V41.6337H65.0781V28.2227H65.7129L68.2519 38.4267V28.281H68.9444V41.692H68.6559H68.3673L65.7706 31.4297Z" fill="#737373"/>
<path d="M68.5976 41.9822H68.3091C68.1937 41.9822 68.0783 41.8655 68.0206 41.7489L66.0586 33.8189V41.6323C66.0586 41.8072 65.9432 41.9239 65.7701 41.9239H65.0776C64.9045 41.9239 64.7891 41.8072 64.7891 41.6323V28.2212C64.7891 28.0463 64.9045 27.9297 65.0776 27.9297H65.7123C65.8278 27.9297 65.9432 28.0463 66.0009 28.1629L67.9629 36.0346V28.2795C67.9629 28.1046 68.0783 27.988 68.2514 27.988H68.9438C69.117 27.988 69.2324 28.1046 69.2324 28.2795V41.6906C69.2324 41.8655 69.117 41.9822 68.9438 41.9822H68.713C68.6553 41.9822 68.6553 41.9822 68.5976 41.9822ZM68.5399 41.3991C68.5976 41.3991 68.6553 41.3991 68.6553 41.3991V28.5711H68.5399V38.4836C68.5399 38.6586 68.4245 38.7752 68.3091 38.7752C68.1937 38.7752 68.0206 38.7169 68.0206 38.5419L65.4815 28.5711H65.3661V41.3991H65.4815V31.4865C65.4815 31.3116 65.5969 31.195 65.7123 31.195C65.8855 31.195 66.0009 31.2533 66.0009 31.4282L68.5399 41.3991Z" fill="#737373"/>
<path d="M77.5449 28.2812H77.6603C78.4105 28.2812 78.9875 28.6894 79.3915 29.5057C79.5069 29.6807 79.5069 29.9139 79.5069 30.2054V30.497H78.8144V30.2054C78.8144 29.6807 78.5836 29.3308 78.0642 29.0976C77.8911 29.0393 77.718 28.981 77.6026 28.981C77.141 28.981 76.7947 29.2142 76.5639 29.6224C76.4485 29.7973 76.3908 30.0305 76.3908 30.2638V33.3541C76.3908 33.6457 76.5062 33.9372 76.737 34.2288C77.0256 34.462 77.4295 34.6369 78.0065 34.6952C78.4682 34.7536 78.8144 34.9868 79.2184 35.395C79.4492 35.7448 79.5646 36.153 79.5646 36.5611V39.7681C79.5646 40.5261 79.2184 41.0509 78.4682 41.4591C78.1797 41.5757 77.8911 41.634 77.6026 41.634C76.7947 41.634 76.16 41.2259 75.8137 40.3512C75.756 40.1763 75.6983 39.9431 75.6983 39.7098V39.36H76.3908V39.6515C76.3908 40.1763 76.6793 40.5261 77.1987 40.8177C77.3141 40.876 77.4295 40.876 77.5449 40.876H77.6603C78.122 40.876 78.4682 40.5845 78.7567 40.0597C78.8144 39.8847 78.8144 39.7098 78.8144 39.5349V36.6194C78.8144 35.978 78.5836 35.5116 78.0642 35.3366C77.5449 35.2783 77.2564 35.1617 77.0833 35.1617C76.7947 35.1034 76.4485 34.8702 76.0446 34.5203C75.756 34.1705 75.6406 33.6457 75.6406 33.0043V30.497C75.6406 29.6807 75.8137 29.0976 76.16 28.806C76.5639 28.4562 77.0255 28.2812 77.5449 28.2812Z" fill="#737373"/>
<path d="M77.6021 41.9822C76.6788 41.9822 75.9863 41.5157 75.5247 40.5244C75.4093 40.2912 75.4093 40.058 75.4093 39.7664V39.4166C75.4093 39.2416 75.5247 39.125 75.6978 39.125H76.3903C76.5634 39.125 76.6788 39.2416 76.6788 39.4166V39.7081C76.6788 40.1163 76.9096 40.4078 77.3135 40.5827C77.3135 40.5827 77.4289 40.5827 77.5444 40.5827H77.6598C77.8906 40.5827 78.1791 40.5244 78.4676 39.9413C78.4676 39.883 78.5254 39.7081 78.5254 39.5915V36.676C78.5254 35.9763 78.1791 35.7431 77.9483 35.6848C77.4867 35.6265 77.1404 35.5682 77.025 35.5099C76.6788 35.3932 76.2748 35.16 75.8709 34.7518C75.5247 34.2854 75.3516 33.7023 75.3516 33.0609V30.5536C75.3516 29.6206 75.5824 28.9792 75.9863 28.6294C76.3903 28.1629 76.9096 27.9297 77.5444 27.9297H77.6598C78.5254 27.9297 79.2178 28.3962 79.6795 29.3291C79.7949 29.5623 79.8526 29.8539 79.8526 30.1454V30.437C79.8526 30.6119 79.7372 30.7285 79.564 30.7285H78.8716C78.6985 30.7285 78.5831 30.6119 78.5831 30.437V30.1454C78.5831 29.7373 78.4099 29.504 77.9483 29.2708C77.7752 29.2125 77.6598 29.2125 77.6021 29.2125C77.2558 29.2125 77.025 29.3874 76.7942 29.7373C76.7365 29.8539 76.6788 30.0288 76.6788 30.2037V33.2941C76.6788 33.5274 76.7365 33.7606 76.9096 33.9355C77.1404 34.1104 77.4867 34.2854 77.9483 34.3437C78.4677 34.402 78.9293 34.6935 79.3332 35.1017C79.6218 35.5682 79.7949 36.0346 79.7949 36.4428V39.6498C79.7949 40.5244 79.3909 41.1658 78.5831 41.6323C78.2945 41.8655 77.9483 41.9822 77.6021 41.9822ZM75.9863 39.7081C75.9863 39.9413 76.044 40.1163 76.1017 40.2329C76.448 40.9909 76.9096 41.3408 77.6598 41.3408C77.8906 41.3408 78.1791 41.2825 78.4099 41.1658C79.0447 40.816 79.3332 40.3495 79.3332 39.7081V36.5011C79.3332 36.1513 79.2178 35.8014 78.987 35.5099C78.6985 35.2183 78.3522 35.0434 78.006 34.9851C77.429 34.9268 76.9096 34.7518 76.6211 34.4603C76.3326 34.1104 76.2171 33.7606 76.2171 33.4107V30.3204C76.2171 30.0288 76.2748 29.7373 76.3903 29.5623C76.7365 29.0376 77.1404 28.746 77.7175 28.746C77.8906 28.746 78.0637 28.8043 78.2368 28.8626C79.0447 29.2708 79.2178 29.8539 79.2178 30.262H79.3332C79.3332 30.0288 79.2755 29.8539 79.2178 29.679C78.8716 28.9793 78.4099 28.6294 77.7175 28.6294H77.6021C77.1404 28.6294 76.7942 28.8043 76.448 29.1542C76.1594 29.3874 75.9863 29.9122 75.9863 30.6702V33.1775C75.9863 33.7606 76.1017 34.1688 76.3326 34.5186C76.6211 34.8102 76.9096 34.9851 77.1981 35.1017C77.3135 35.1017 77.5444 35.16 78.1214 35.2766C78.5831 35.4516 79.1024 35.8597 79.1024 36.851V39.7664C79.1024 39.9413 79.1024 40.1746 79.0447 40.3495C78.6408 41.2241 78.1214 41.3991 77.7175 41.3991H77.6021C77.429 41.3991 77.2558 41.3991 77.1404 41.3408C76.3325 40.9909 76.1594 40.3495 76.1594 39.9413H75.9863V39.7081Z" fill="#737373"/>
<path d="M55.384 23.3819L43.3236 2.33236L31.3208 23.3819L30.3398 22.7988L43.3236 0L56.365 22.7988L55.384 23.3819Z" fill="#737373"/>
<path d="M24.6294 51.0195V51.1945H23.8216V52.6522H24.2255V52.8271H23.8216V54.2848H24.6294V54.4598H23.6484V51.0195H24.6294Z" fill="#737373"/>
<path d="M24.6277 54.5758H23.6467C23.589 54.5758 23.5312 54.5175 23.5312 54.4592V51.019C23.5312 50.9607 23.589 50.9023 23.6467 50.9023H24.6277C24.6854 50.9023 24.7431 50.9607 24.7431 51.019V51.1939C24.7431 51.2522 24.6854 51.3105 24.6277 51.3105H23.9352V52.535H24.2237C24.2814 52.535 24.3391 52.5933 24.3391 52.6516V52.8265C24.3391 52.8848 24.2814 52.9432 24.2237 52.9432H23.9352V54.1676H24.6277C24.6854 54.1676 24.7431 54.226 24.7431 54.2843V54.4592C24.7431 54.5175 24.6854 54.5758 24.6277 54.5758Z" fill="#737373"/>
<path d="M26.8787 51.0195C27.1095 51.0195 27.225 51.1361 27.3404 51.3111C27.3404 51.3694 27.3981 51.4277 27.3981 51.486V51.5443H27.225V51.486C27.225 51.3694 27.1673 51.2528 27.0518 51.1945C26.9941 51.1945 26.9941 51.1945 26.9364 51.1945C26.821 51.1945 26.7633 51.2528 26.6479 51.3694C26.6479 51.4277 26.5902 51.486 26.5902 51.5443V52.3606C26.5902 52.4189 26.5902 52.5356 26.6479 52.5939C26.7056 52.6522 26.821 52.7105 26.9941 52.7105C27.1095 52.7105 27.225 52.7688 27.2827 52.8854C27.3404 53.002 27.3981 53.0603 27.3981 53.177V53.9933C27.3981 54.1682 27.2827 54.3431 27.1095 54.4598C27.0518 54.5181 26.9941 54.5181 26.8787 54.5181C26.6479 54.5181 26.5325 54.4015 26.4171 54.1682C26.4171 54.1099 26.3594 54.0516 26.3594 53.9933V53.935H26.5325V53.9933C26.5325 54.1099 26.5902 54.2265 26.7633 54.2848C26.7633 54.2848 26.821 54.2848 26.8787 54.2848C26.9941 54.2848 27.1095 54.2265 27.1672 54.0516C27.1672 53.9933 27.1672 53.9933 27.1672 53.935V53.177C27.1672 53.002 27.1095 52.8854 26.9941 52.8271C26.8787 52.8271 26.7633 52.7688 26.7633 52.7688C26.7056 52.7688 26.5902 52.7105 26.5325 52.5939C26.4748 52.4773 26.4171 52.3606 26.4171 52.1857V51.5443C26.4171 51.3111 26.4748 51.1945 26.5325 51.1361C26.5902 51.0778 26.7056 51.0195 26.8787 51.0195Z" fill="#737373"/>
<path d="M26.8769 54.5761C26.6461 54.5761 26.4153 54.4595 26.2999 54.1679C26.2999 54.1096 26.2422 54.0513 26.2422 53.9347V53.8764C26.2422 53.8181 26.2999 53.7598 26.3576 53.7598H26.5307C26.5884 53.7598 26.6461 53.8181 26.6461 53.8764V53.9347C26.6461 53.993 26.6461 54.0513 26.7615 54.1096C26.7615 54.1096 26.7615 54.1096 26.8192 54.1096C26.8769 54.1096 26.9347 54.1096 26.9924 53.993V53.9347V53.1767C26.9924 53.0018 26.9347 53.0018 26.8769 52.9434C26.7615 52.9434 26.7038 52.8851 26.6461 52.8851C26.5307 52.8851 26.473 52.7685 26.3576 52.7102C26.2999 52.5936 26.2422 52.477 26.2422 52.302V51.6606C26.2422 51.4274 26.2999 51.2525 26.4153 51.1359C26.5307 51.0192 26.6461 50.9609 26.8192 50.9609C26.9924 50.9609 27.2232 51.0192 27.3963 51.3691C27.454 51.4274 27.454 51.4857 27.454 51.6023V51.6606C27.454 51.719 27.3963 51.7773 27.3386 51.7773H27.1655C27.1078 51.7773 27.0501 51.719 27.0501 51.6606V51.6023C27.0501 51.544 27.0501 51.4857 26.9347 51.4274C26.8769 51.4274 26.8769 51.4274 26.8769 51.4274C26.8192 51.4274 26.7615 51.4274 26.7038 51.544C26.7038 51.544 26.7038 51.6023 26.7038 51.6606V52.477C26.7038 52.5353 26.7038 52.5936 26.7615 52.5936C26.8192 52.6519 26.8769 52.6519 26.9924 52.6519C27.1078 52.6519 27.2809 52.7685 27.3963 52.8851C27.5117 53.0018 27.5117 53.1184 27.5117 53.235V54.0513C27.5117 54.2845 27.3963 54.4595 27.1655 54.5761C27.0501 54.5761 26.9924 54.5761 26.8769 54.5761Z" fill="#737373"/>
<path d="M30.0513 51.0195V51.1945H29.6474V54.4598H29.4742V51.1945H29.0703V51.0195H30.0513Z" fill="#737373"/>
<path d="M29.6456 54.5758H29.4725C29.4148 54.5758 29.3571 54.5175 29.3571 54.4592V51.3105H29.0685C29.0108 51.3105 28.9531 51.2522 28.9531 51.1939V51.019C28.9531 50.9607 29.0108 50.9023 29.0685 50.9023H30.0495C30.1072 50.9023 30.1649 50.9607 30.1649 51.019V51.1939C30.1649 51.2522 30.1072 51.3105 30.0495 51.3105H29.761V54.4592C29.761 54.5175 29.761 54.5758 29.6456 54.5758Z" fill="#737373"/>
<path d="M32.1891 51.0192C32.4199 51.0192 32.5353 51.0776 32.593 51.1359C32.7084 51.2525 32.7661 51.3691 32.7661 51.4857V53.9347C32.7661 54.1679 32.6507 54.2846 32.4199 54.4012C32.3622 54.4012 32.3045 54.4012 32.2468 54.4012H31.7852V50.9609H32.1891V51.0192ZM31.9583 51.2525V54.2846H32.3045C32.4199 54.2846 32.4776 54.2262 32.593 54.1096C32.593 54.0513 32.593 54.0513 32.593 53.993V51.4857C32.593 51.3691 32.5353 51.3108 32.4199 51.1942C32.3622 51.1942 32.3045 51.1942 32.2468 51.1942H31.9583V51.2525Z" fill="#737373"/>
<path d="M32.3036 54.5758H31.842C31.7843 54.5758 31.7266 54.5175 31.7266 54.4592V51.019C31.7266 50.9607 31.7843 50.9023 31.842 50.9023H32.2459C32.4767 50.9023 32.6498 50.9607 32.7653 51.0773C32.8807 51.1939 32.9384 51.3688 32.9384 51.5437V53.9927C32.9384 54.1676 32.8807 54.4009 32.5344 54.5758C32.419 54.5758 32.3613 54.5758 32.3036 54.5758ZM32.0728 54.1676H32.3036C32.3613 54.1676 32.419 54.1676 32.4767 54.051V53.9927V51.4854C32.4767 51.4271 32.4767 51.3688 32.3613 51.3105C32.3613 51.3105 32.3036 51.3105 32.2459 51.3105H32.0728V54.1676Z" fill="#737373"/>
<path d="M55.2147 51.0195C55.4455 51.0195 55.5609 51.0778 55.6763 51.2528C55.734 51.3111 55.734 51.4277 55.734 51.486C55.734 51.5443 55.734 51.6609 55.6763 51.7776L54.9838 54.2265H55.6763V54.4015H54.6953L55.5609 51.486V51.4277C55.5609 51.3111 55.5032 51.1945 55.3878 51.1361C55.3301 51.1361 55.2724 51.1361 55.2724 51.1361C55.157 51.1361 55.0992 51.1945 55.0415 51.3111C54.9838 51.3694 54.9838 51.4277 54.9838 51.4277V51.5443H54.8107C54.8107 51.3111 54.9261 51.1361 55.0992 51.0195C55.0992 51.0778 55.157 51.0195 55.2147 51.0195Z" fill="#737373"/>
<path d="M55.6745 54.5758H54.6935C54.6358 54.5758 54.6358 54.5758 54.5781 54.5175C54.5781 54.4592 54.5781 54.4592 54.5781 54.4009L55.386 51.4854C55.386 51.4271 55.386 51.3688 55.2706 51.3105C55.2129 51.3105 55.1552 51.2522 55.0398 51.4271V51.4854V51.6021C55.0398 51.6604 54.9821 51.7187 54.9244 51.7187H54.7512C54.6935 51.7187 54.6358 51.6604 54.6358 51.6021C54.6358 51.3105 54.7512 51.1356 54.9821 50.9607C55.0975 50.9023 55.1552 50.9023 55.2706 50.9023H55.3283C55.5014 50.9023 55.6745 51.019 55.8476 51.1939C55.9054 51.3105 55.9631 51.4271 55.9631 51.5437C55.9631 51.6021 55.9631 51.7187 55.9054 51.8936L55.0975 54.1676H55.6745C55.7322 54.1676 55.7899 54.226 55.7899 54.2843V54.4592C55.7899 54.5175 55.7322 54.5758 55.6745 54.5758Z" fill="#737373"/>
<path d="M57.9256 51.0195C58.1564 51.0195 58.2718 51.1361 58.3872 51.3694V51.486V53.935C58.3872 54.1682 58.2718 54.3431 58.041 54.4015C57.9833 54.4015 57.9256 54.4015 57.8679 54.4015C57.6948 54.4015 57.5217 54.2848 57.4062 54.1099C57.4062 54.1099 57.4062 53.9933 57.4062 53.8767V51.6026C57.4062 51.3694 57.464 51.2528 57.5217 51.1945C57.6371 51.0778 57.7525 51.0195 57.9256 51.0195ZM57.5794 51.5443V53.935C57.5794 54.1099 57.6371 54.2265 57.7525 54.2848C57.8102 54.2848 57.8102 54.2848 57.8679 54.2848C58.041 54.2848 58.1564 54.1682 58.1564 54.0516V53.9933V51.6026C58.1564 51.4277 58.0987 51.3111 57.9256 51.2528C57.8679 51.2528 57.8679 51.2528 57.8679 51.2528C57.7525 51.2528 57.6948 51.3111 57.5794 51.4277C57.5794 51.4277 57.5794 51.486 57.5794 51.5443Z" fill="#737373"/>
<path d="M57.8661 54.5758C57.693 54.5758 57.4622 54.5175 57.3468 54.226C57.2891 54.1093 57.2891 53.9927 57.2891 53.8761V51.6021C57.2891 51.3688 57.3468 51.1939 57.4622 51.0773C57.5776 50.9607 57.7507 50.9023 57.9238 50.9023C58.0969 50.9023 58.3278 50.9607 58.5009 51.3105C58.5009 51.3105 58.5009 51.3105 58.5009 51.3688V51.4854V53.9927C58.4432 54.4009 58.2701 54.5175 58.0969 54.5758C57.9815 54.5758 57.9238 54.5758 57.8661 54.5758ZM57.8661 51.3105C57.8084 51.3105 57.7507 51.3105 57.693 51.4271C57.693 51.4271 57.693 51.4854 57.693 51.5437V53.9344C57.693 54.051 57.7507 54.1093 57.8084 54.1676H57.8661C57.9815 54.1676 58.0392 54.1093 58.0392 53.9927V53.9344V51.6021C58.0969 51.4271 58.0392 51.3688 57.8661 51.3105C57.9238 51.3105 57.9238 51.3105 57.8661 51.3105Z" fill="#737373"/>
<path d="M60.6317 51.0195V54.4598H60.4586V51.5443C60.4009 51.6026 60.2855 51.6026 60.0547 51.6026V51.4277H60.1124C60.2278 51.4277 60.2855 51.3694 60.4009 51.2528C60.4009 51.1945 60.4586 51.1361 60.4586 51.1361V51.0195H60.6317Z" fill="#737373"/>
<path d="M60.6339 54.5758H60.4608C60.4031 54.5758 60.3453 54.5175 60.3453 54.4592V51.7187C60.2876 51.7187 60.1722 51.7187 60.0568 51.7187C59.9991 51.7187 59.9414 51.6604 59.9414 51.6021V51.4271C59.9414 51.3688 59.9991 51.3105 60.0568 51.3105H60.1145C60.1722 51.3105 60.2299 51.3105 60.2876 51.1939V51.1356V51.019C60.2876 50.9607 60.3453 50.9023 60.403 50.9023H60.5762C60.6339 50.9023 60.6916 50.9607 60.6916 51.019V54.4592C60.7493 54.5175 60.6916 54.5758 60.6339 54.5758ZM60.4608 51.4271C60.5185 51.4271 60.5185 51.4271 60.5185 51.4271V51.3105C60.5185 51.3688 60.4608 51.3688 60.4608 51.4271Z" fill="#737373"/>
<path d="M62.9442 51.0195V54.4598H62.7711V51.5443C62.7134 51.6026 62.598 51.6026 62.3672 51.6026V51.4277H62.4249C62.5403 51.4277 62.598 51.3694 62.7134 51.2528C62.7134 51.1945 62.7711 51.1361 62.7711 51.1361V51.0195H62.9442Z" fill="#737373"/>
<path d="M62.9425 54.5758H62.7693C62.7116 54.5758 62.6539 54.5175 62.6539 54.4592V51.7187C62.5962 51.7187 62.4808 51.7187 62.3654 51.7187C62.3077 51.7187 62.25 51.6604 62.25 51.6021V51.4271C62.25 51.3688 62.3077 51.3105 62.3654 51.3105H62.4231C62.4808 51.3105 62.5385 51.3105 62.5962 51.1939V51.1356V51.019C62.5962 50.9607 62.6539 50.9023 62.7116 50.9023H62.8848C62.9425 50.9023 63.0002 50.9607 63.0002 51.019V54.4592C63.0579 54.5175 63.0002 54.5758 62.9425 54.5758ZM62.7693 51.4271C62.8271 51.4271 62.8271 51.4271 62.8271 51.4271V51.3105C62.7693 51.3688 62.7693 51.3688 62.7693 51.4271Z" fill="#737373"/>
<path d="M21.9148 66.0078C22.0879 66.0078 22.261 66.0661 22.3187 66.1244C22.4341 66.2411 22.4918 66.3577 22.4918 66.5326V67.3489C22.4918 67.5238 22.4341 67.6988 22.3187 67.7571C22.3187 67.7571 22.3764 67.8154 22.4341 67.932C22.4918 67.9903 22.4918 68.1069 22.4918 68.1652V68.9816C22.4918 69.1565 22.3764 69.3314 22.2033 69.448C22.1456 69.5064 22.0879 69.5064 21.9725 69.5064H21.4531V66.0661H21.9148V66.0078ZM21.6839 66.1827V67.6405H21.9725C22.1456 67.6405 22.261 67.5822 22.3187 67.4072V67.2906V66.5326C22.3187 66.3577 22.261 66.2411 22.0879 66.1827H21.9725H21.6839ZM21.6839 67.8154V69.2731H22.0302C22.1456 69.2731 22.261 69.2148 22.3187 69.0399C22.3187 68.9816 22.3187 68.9816 22.3187 68.9233V68.1652C22.3187 67.9903 22.261 67.932 22.0879 67.8737C22.0879 67.8737 22.0302 67.8737 21.9148 67.8737H21.6839V67.8154Z" fill="#737373"/>
<path d="M22.0293 69.5641H21.5099C21.4522 69.5641 21.4522 69.5641 21.4522 69.5058L21.3945 69.4475V66.0072C21.3945 65.9489 21.4522 65.8906 21.5099 65.8906H21.9139C22.1447 65.8906 22.3178 65.9489 22.3755 66.0656C22.4909 66.1822 22.6063 66.3571 22.6063 66.532V67.3484C22.6063 67.5233 22.5486 67.6399 22.4909 67.7565C22.4909 67.7565 22.5486 67.8148 22.5486 67.8731C22.6063 67.9898 22.6063 68.0481 22.6063 68.1647V68.981C22.6063 69.2142 22.4909 69.3892 22.2601 69.5058C22.2024 69.5058 22.087 69.5641 22.0293 69.5641ZM21.7985 69.1559H22.0293C22.087 69.1559 22.1447 69.1559 22.2024 69.0393V68.981V68.223C22.2024 68.1064 22.1447 68.0481 22.0293 67.9897C22.0293 67.9897 21.9716 67.9897 21.9139 67.9897H21.7985V69.1559ZM22.1447 67.6982C22.1447 67.6982 22.2024 67.6982 22.2024 67.7565C22.2024 67.7565 22.2024 67.7565 22.2024 67.6982H22.1447ZM21.7985 67.5233H21.9716C22.087 67.5233 22.1447 67.465 22.2024 67.3484V67.29V66.532C22.2024 66.4154 22.1447 66.3571 22.0293 66.2988H21.9716H21.7985V67.5233Z" fill="#737373"/>
<path d="M25.2076 66.0078V66.1827H24.3997V67.6405H24.8036V67.8154H24.3997V69.2731H25.2076V69.448H24.2266V66.0078H25.2076Z" fill="#737373"/>
<path d="M25.2058 69.5641H24.2248C24.1671 69.5641 24.1094 69.5058 24.1094 69.4475V66.0072C24.1094 65.9489 24.1671 65.8906 24.2248 65.8906H25.2058C25.2635 65.8906 25.3212 65.9489 25.3212 66.0072V66.1822C25.3212 66.2405 25.2635 66.2988 25.2058 66.2988H24.5133V67.5233H24.8018C24.8595 67.5233 24.9173 67.5816 24.9173 67.6399V67.8148C24.9173 67.8731 24.8595 67.9314 24.8018 67.9314H24.5133V69.1559H25.2058C25.2635 69.1559 25.3212 69.2142 25.3212 69.2726V69.4475C25.3212 69.5058 25.2635 69.5641 25.2058 69.5641Z" fill="#737373"/>
<path d="M27.3983 66.0078C27.6291 66.0078 27.7445 66.1244 27.8599 66.2994C27.8599 66.3577 27.9176 66.416 27.9176 66.4743V66.5326H27.7445V66.4743C27.7445 66.3577 27.6868 66.2411 27.5714 66.1827C27.5137 66.1827 27.5137 66.1827 27.456 66.1827C27.3405 66.1827 27.2828 66.2411 27.1674 66.3577C27.1674 66.416 27.1097 66.4743 27.1097 66.5326V67.3489C27.1097 67.4072 27.1097 67.5239 27.1674 67.5822C27.2251 67.6405 27.3406 67.6988 27.5137 67.6988C27.6291 67.6988 27.7445 67.7571 27.8022 67.8737C27.8599 67.9903 27.9176 68.0486 27.9176 68.1652V68.9816C27.9176 69.1565 27.8022 69.3314 27.6291 69.448C27.5714 69.5064 27.5137 69.5064 27.3983 69.5064C27.1674 69.5064 27.052 69.3897 26.9366 69.1565C26.9366 69.0982 26.8789 69.0399 26.8789 68.9816V68.9233H27.052V68.9816C27.052 69.0982 27.1097 69.2148 27.2828 69.2731C27.2828 69.2731 27.3406 69.2731 27.3983 69.2731C27.5137 69.2731 27.6291 69.2148 27.6868 69.0399C27.6868 68.9816 27.6868 68.9816 27.6868 68.9233V68.1652C27.6868 67.9903 27.6291 67.8737 27.5137 67.8154C27.3983 67.8154 27.2828 67.7571 27.2828 67.7571C27.2251 67.7571 27.1097 67.6988 27.052 67.5822C26.9943 67.4655 26.9366 67.3489 26.9366 67.174V66.5326C26.9366 66.2994 26.9943 66.1827 27.052 66.1244C27.1674 66.0661 27.2828 66.0078 27.3983 66.0078Z" fill="#737373"/>
<path d="M27.4551 69.5641C27.2242 69.5641 26.9934 69.4475 26.878 69.1559C26.878 69.0976 26.8203 69.0393 26.8203 68.9227V68.8644C26.8203 68.8061 26.878 68.7478 26.9357 68.7478H27.1088C27.1665 68.7478 27.2243 68.8061 27.2243 68.8644V68.9227C27.2243 68.981 27.2243 69.0393 27.3397 69.0976C27.3397 69.0976 27.3397 69.0976 27.3974 69.0976C27.4551 69.0976 27.5128 69.0976 27.5705 68.981V68.9227V68.1647C27.5705 67.9898 27.5128 67.9898 27.4551 67.9314C27.3397 67.9314 27.282 67.8731 27.2243 67.8731C27.1088 67.8731 27.0511 67.7565 26.9357 67.6982C26.8203 67.5816 26.8203 67.4067 26.8203 67.2317V66.5903C26.8203 66.3571 26.878 66.1822 26.9934 66.0656C27.1088 65.9489 27.2243 65.8906 27.3974 65.8906C27.5705 65.8906 27.8013 65.9489 27.9744 66.2988C28.0321 66.3571 28.0321 66.4154 28.0321 66.532V66.5903C28.0321 66.6486 27.9744 66.707 27.9167 66.707H27.7436C27.6859 66.707 27.6282 66.6486 27.6282 66.5903V66.4737C27.6282 66.4154 27.6282 66.3571 27.5128 66.2988C27.4551 66.2988 27.4551 66.2988 27.4551 66.2988C27.3974 66.2988 27.3397 66.2988 27.282 66.4154C27.282 66.4154 27.282 66.4737 27.282 66.532V67.3484C27.282 67.4067 27.282 67.465 27.3397 67.465C27.3974 67.5233 27.4551 67.5233 27.5705 67.5233C27.6859 67.5233 27.859 67.6399 27.9744 67.7565C28.0898 67.8731 28.0898 67.9898 28.0898 68.1064V68.9227C28.0898 69.1559 27.9744 69.3309 27.7436 69.4475C27.6282 69.5058 27.5128 69.5641 27.4551 69.5641Z" fill="#737373"/>
<path d="M30.6294 66.0078V66.1827H30.2255V69.448H30.0524V66.1827H29.6484V66.0078H30.6294Z" fill="#737373"/>
<path d="M30.2237 69.5641H30.0506C29.9929 69.5641 29.9352 69.5058 29.9352 69.4475V66.2988H29.6467C29.589 66.2988 29.5312 66.2405 29.5312 66.1822V66.0072C29.5312 65.9489 29.589 65.8906 29.6467 65.8906H30.6277C30.6854 65.8906 30.7431 65.9489 30.7431 66.0072V66.1822C30.7431 66.2405 30.6854 66.2988 30.6277 66.2988H30.3391V69.4475C30.3391 69.5058 30.2814 69.5641 30.2237 69.5641Z" fill="#737373"/>
<path d="M35.3622 66.0078C35.593 66.0078 35.7084 66.1244 35.8239 66.2994C35.8239 66.3577 35.8816 66.416 35.8816 66.4743V66.5326H35.7084V66.4743C35.7084 66.3577 35.6507 66.2411 35.5353 66.1827C35.4776 66.1827 35.4776 66.1827 35.4199 66.1827C35.3045 66.1827 35.2468 66.2411 35.1314 66.3577C35.1314 66.416 35.0737 66.4743 35.0737 66.5326V68.9233C35.0737 69.0982 35.1314 69.1565 35.3045 69.2148C35.3045 69.2148 35.3045 69.2148 35.3622 69.2148C35.4776 69.2148 35.593 69.1565 35.6507 69.0399C35.6507 68.9816 35.6507 68.9233 35.6507 68.865H35.8239V68.9233C35.8239 69.0982 35.7084 69.2731 35.5353 69.3897C35.4776 69.448 35.4199 69.448 35.3045 69.448C35.1314 69.448 34.9583 69.3314 34.8429 69.1565C34.7852 69.0982 34.7852 68.9816 34.7852 68.865V66.6492C34.7852 66.416 34.8429 66.2994 34.9006 66.241C35.0737 66.0661 35.1891 66.0078 35.3622 66.0078Z" fill="#737373"/>
<path d="M35.3613 69.5644C35.1305 69.5644 34.8997 69.4478 34.7843 69.2145C34.7266 69.1562 34.7266 69.0396 34.7266 68.8647V66.6489C34.7266 66.4157 34.7843 66.2408 34.8997 66.1241C35.0151 66.0075 35.1305 65.9492 35.3036 65.9492C35.4767 65.9492 35.7076 66.0075 35.8807 66.3574C35.9384 66.4157 35.9384 66.474 35.9384 66.5906V66.6489C35.9384 66.7072 35.8807 66.7655 35.823 66.7655H35.6498C35.5921 66.7655 35.5344 66.7072 35.5344 66.6489V66.474C35.5344 66.4157 35.5344 66.3574 35.419 66.2991C35.3613 66.2991 35.3613 66.2991 35.3613 66.2991C35.3036 66.2991 35.2459 66.2991 35.1882 66.4157C35.1882 66.4157 35.1882 66.474 35.1882 66.5323V68.923C35.1882 68.9813 35.1882 69.0979 35.3613 69.0979H35.419C35.4767 69.0979 35.5344 69.0979 35.5921 68.9813C35.5921 68.9813 35.5921 68.923 35.5921 68.8647C35.5921 68.8064 35.6498 68.7481 35.7076 68.7481H35.8807C35.9384 68.7481 35.9961 68.8064 35.9961 68.8647V68.923C35.9961 69.1562 35.8807 69.3311 35.6498 69.4478C35.5344 69.5061 35.4767 69.5644 35.3613 69.5644Z" fill="#737373"/>
<path d="M38.1864 67.8157L38.5904 69.4483H38.5327L38.4172 69.5066L38.0133 67.874H37.7825V69.5066H37.6094V66.0664H38.0133C38.2441 66.0664 38.3595 66.1247 38.475 66.183C38.5327 66.2413 38.5904 66.2996 38.5904 66.358C38.5904 66.4163 38.6481 66.4746 38.6481 66.5329V67.4075C38.6481 67.5241 38.5904 67.6407 38.475 67.7574C38.3018 67.7574 38.2441 67.8157 38.1864 67.8157ZM37.7825 66.183V67.6407H38.071C38.2441 67.6407 38.3595 67.5824 38.4172 67.4075V67.3492V66.5329C38.4172 66.3579 38.3595 66.2996 38.1864 66.2413H38.071H37.7825V66.183Z" fill="#737373"/>
<path d="M38.4185 69.5638C38.3608 69.5638 38.3608 69.5638 38.4185 69.5638C38.3608 69.5055 38.3031 69.5055 38.3031 69.4472L37.8991 67.8728H37.8414V69.3889C37.8414 69.4472 37.7837 69.5055 37.726 69.5055H37.5529C37.4952 69.5055 37.4375 69.4472 37.4375 69.3889V65.9486C37.4375 65.8903 37.4952 65.832 37.5529 65.832H37.9568C38.1877 65.832 38.3608 65.8903 38.4762 66.007C38.5339 66.0653 38.5916 66.1236 38.6493 66.1819C38.707 66.2985 38.707 66.3568 38.707 66.4151V67.2898C38.707 67.4647 38.6493 67.5813 38.5339 67.6979C38.4762 67.7562 38.4185 67.8145 38.3608 67.8145L38.707 69.3306C38.707 69.3889 38.707 69.3889 38.707 69.4472C38.707 69.4472 38.6493 69.5055 38.5916 69.5055H38.5339L38.4185 69.5638ZM37.8991 67.523H38.0723C38.1877 67.523 38.2454 67.4647 38.3031 67.3481C38.3031 67.3481 38.3031 67.3481 38.3031 67.2898V66.4734C38.3031 66.4151 38.3031 66.2985 38.13 66.2985H38.0723H37.8991V67.523Z" fill="#737373"/>
<path d="M40.782 67.3489L41.1282 66.0078H41.3013L40.8974 67.7571V69.448H40.7242V67.7571L40.3203 66.0078H40.4934L40.782 67.3489Z" fill="#737373"/>
<path d="M40.8995 69.5641H40.7264C40.6687 69.5641 40.611 69.5058 40.611 69.4475V67.7565L40.207 66.0656C40.207 66.0072 40.207 66.0072 40.207 65.9489C40.207 65.9489 40.2647 65.8906 40.3224 65.8906H40.4956C40.5533 65.8906 40.611 65.9489 40.611 66.0072L40.8418 66.8819L41.0726 66.0072C41.0726 65.9489 41.1303 65.8906 41.188 65.8906H41.3611C41.4188 65.8906 41.4188 65.8906 41.4766 65.9489C41.4766 65.9489 41.5343 66.0072 41.4766 66.0656L41.0726 67.8148V69.5058C41.0149 69.5058 40.9572 69.5641 40.8995 69.5641ZM40.7841 67.465L40.8418 67.6399L40.8995 67.465C40.8418 67.465 40.8418 67.465 40.7841 67.465Z" fill="#737373"/>
<path d="M42.9766 66.0078H43.3805C43.6113 66.0078 43.7267 66.0661 43.7844 66.1244C43.8998 66.2411 43.9576 66.3577 43.9576 66.5326V67.3489C43.9576 67.5822 43.8421 67.6988 43.6113 67.8154C43.5536 67.8154 43.4959 67.8154 43.4959 67.8154H43.1497V69.448H42.9766V66.0078ZM43.1497 66.1827V67.6405H43.4382C43.6113 67.6405 43.7267 67.5822 43.7844 67.4072V67.3489V66.4743C43.7844 66.3577 43.7267 66.2994 43.6113 66.1827C43.5536 66.1827 43.4959 66.1827 43.4382 66.1827H43.1497Z" fill="#737373"/>
<path d="M43.1479 69.5641H42.9748C42.9171 69.5641 42.8594 69.5058 42.8594 69.4475V66.0072C42.8594 65.9489 42.9171 65.8906 42.9748 65.8906H43.3787C43.6095 65.8906 43.7827 65.9489 43.8981 66.0656C44.0135 66.1822 44.1289 66.3571 44.1289 66.532V67.3484C44.1289 67.5233 44.0712 67.7565 43.725 67.9314C43.6095 67.9314 43.6095 67.9897 43.5518 67.9897H43.321V69.5058C43.2633 69.5058 43.2633 69.5641 43.1479 69.5641ZM43.2633 67.5233H43.4364C43.5518 67.5233 43.6095 67.465 43.6672 67.3484V67.29V66.4737C43.6672 66.4154 43.6672 66.3571 43.5518 66.2988C43.5518 66.2988 43.4941 66.2988 43.4364 66.2988H43.2633V67.5233Z" fill="#737373"/>
<path d="M46.6685 66.0078V66.1827H46.2646V69.448H46.0914V66.1827H45.6875V66.0078H46.6685Z" fill="#737373"/>
<path d="M46.2628 69.5641H46.0897C46.032 69.5641 45.9742 69.5058 45.9742 69.4475V66.2988H45.6857C45.628 66.2988 45.5703 66.2405 45.5703 66.1822V66.0072C45.5703 65.9489 45.628 65.8906 45.6857 65.8906H46.6667C46.7244 65.8906 46.7821 65.9489 46.7821 66.0072V66.1822C46.7821 66.2405 46.7244 66.2988 46.6667 66.2988H46.3782V69.4475C46.3782 69.5058 46.3205 69.5641 46.2628 69.5641Z" fill="#737373"/>
<path d="M48.8622 66.0078C49.093 66.0078 49.2661 66.1244 49.3239 66.3577V66.4743V68.9233C49.3239 69.1565 49.2084 69.3314 48.9776 69.3897C48.9199 69.3897 48.8622 69.3897 48.8045 69.3897C48.6314 69.3897 48.4583 69.2731 48.3429 69.0982C48.2852 69.0399 48.2852 68.9233 48.2852 68.8066V66.5326C48.2852 66.2994 48.3429 66.1827 48.4006 66.1244C48.6314 66.0661 48.7468 66.0078 48.8622 66.0078ZM48.5737 66.5326V68.9816C48.5737 69.1565 48.6314 69.2148 48.8045 69.2731H48.8622C48.9776 69.2731 49.093 69.2148 49.1507 69.0982V68.9816V66.4743C49.1507 66.416 49.093 66.2994 49.0353 66.241C48.9776 66.1827 48.9199 66.1827 48.8622 66.1827C48.7468 66.1827 48.6891 66.2411 48.5737 66.3577C48.6314 66.416 48.5737 66.4743 48.5737 66.5326Z" fill="#737373"/>
<path d="M48.9199 69.5641C48.6891 69.5641 48.4583 69.4475 48.3429 69.2142C48.2852 69.1559 48.2852 69.0393 48.2852 68.8644V66.5903C48.2852 66.3571 48.3429 66.1822 48.4583 66.0656C48.5737 65.9489 48.6891 65.8906 48.8622 65.8906C49.0353 65.8906 49.2661 65.9489 49.4393 66.2988C49.4393 66.2988 49.4393 66.2988 49.4393 66.3571V66.4737V68.9227C49.4393 69.2142 49.3239 69.3892 49.0353 69.5058C49.0353 69.5641 48.9776 69.5641 48.9199 69.5641ZM48.9199 66.2988C48.8622 66.2988 48.8045 66.2988 48.7468 66.4154C48.7468 66.4154 48.7468 66.4737 48.7468 66.532V68.981C48.7468 69.0393 48.7468 69.1559 48.9199 69.1559C48.9776 69.1559 49.0353 69.1559 49.093 69.0393V68.981V66.532C49.093 66.532 49.093 66.4737 48.9776 66.4154C48.9776 66.2988 48.9199 66.2988 48.9199 66.2988Z" fill="#737373"/>
<path d="M54.1726 68.6317L54.5188 66.0078H54.6919L54.288 69.448H54.1149L53.7109 66.0078H53.8841L54.1726 68.6317Z" fill="#737373"/>
<path d="M54.2315 69.5638H54.0584C54.0007 69.5638 53.943 69.5055 53.943 69.4472L53.5391 66.007C53.5391 65.9486 53.5391 65.9486 53.5391 65.8903L53.5968 65.832H53.7699C53.8276 65.832 53.8853 65.8903 53.8853 65.9486L54.1161 67.6396L54.3469 65.9486C54.3469 65.8903 54.4046 65.832 54.4623 65.832H54.6355C54.6932 65.832 54.6932 65.832 54.6932 65.8903C54.6932 65.8903 54.7509 65.9486 54.6932 66.007L54.2892 69.4472C54.3469 69.5055 54.2892 69.5638 54.2315 69.5638ZM54.1161 68.7475L54.1738 69.214L54.2315 68.7475C54.1738 68.7475 54.1738 68.7475 54.1161 68.7475Z" fill="#737373"/>
<path d="M56.8288 66.0078C57.0019 66.0078 57.1174 66.0661 57.2328 66.1827C57.3482 66.2994 57.3482 66.416 57.3482 66.5909V69.5064H57.1751V67.8737H56.5403V69.5064H56.3672V66.5909C56.3672 66.3577 56.4826 66.2411 56.7134 66.1244C56.7134 66.0078 56.7711 66.0078 56.8288 66.0078ZM56.5403 66.5909V67.6405H57.1751V66.4743C57.1751 66.3577 57.1174 66.2411 56.9442 66.1827C56.8865 66.1827 56.8865 66.1827 56.8288 66.1827C56.7134 66.1827 56.598 66.2411 56.5403 66.416C56.5403 66.416 56.5403 66.4743 56.5403 66.5909Z" fill="#737373"/>
<path d="M57.3464 69.5641H57.1733C57.1156 69.5641 57.0579 69.5058 57.0579 69.4475V67.9314H56.6539V69.4475C56.6539 69.5058 56.5962 69.5641 56.5385 69.5641H56.3654C56.3077 69.5641 56.25 69.5058 56.25 69.4475V66.532C56.25 66.3571 56.3077 66.1239 56.6539 65.9489C56.7693 65.9489 56.7693 65.8906 56.8271 65.8906H56.8848C57.0579 65.8906 57.1733 65.9489 57.2887 66.0656C57.4041 66.1822 57.4618 66.3571 57.4618 66.532V69.4475C57.4618 69.5058 57.4041 69.5641 57.3464 69.5641ZM56.6539 67.5233H57.0579V66.4737C57.0579 66.4154 57.0579 66.3571 56.8848 66.2988C56.8271 66.2988 56.7116 66.2988 56.6539 66.4154C56.6539 66.4154 56.6539 66.4737 56.6539 66.532V67.5233Z" fill="#737373"/>
<path d="M59.0764 66.0075H59.2495V68.8647C59.2495 69.0396 59.3072 69.1562 59.4226 69.2145C59.4803 69.2145 59.4803 69.2145 59.538 69.2145C59.6534 69.2145 59.7688 69.1562 59.8265 68.9813C59.8265 68.923 59.8265 68.923 59.8265 68.8647V65.9492H59.9996V68.8647C59.9996 69.1562 59.8842 69.3311 59.6534 69.3895C59.5957 69.3895 59.538 69.3895 59.4803 69.3895C59.3072 69.3895 59.1341 69.2728 59.0186 69.0979C59.0186 69.0396 58.9609 68.9813 58.9609 68.923V66.0075H59.0764Z" fill="#737373"/>
<path d="M59.5371 69.5641C59.3063 69.5641 59.1332 69.4475 58.96 69.2142C58.9023 69.0976 58.9023 69.0393 58.9023 68.981V66.0656C58.9023 66.0072 58.9601 65.9489 59.0178 65.9489H59.1909C59.2486 65.9489 59.3063 66.0072 59.3063 66.0656V68.9227C59.3063 69.0976 59.364 69.1559 59.4217 69.1559C59.4794 69.1559 59.4794 69.1559 59.4794 69.1559C59.5948 69.1559 59.6525 69.1559 59.7102 68.981C59.7102 68.981 59.7102 68.981 59.7102 68.9227V66.0072C59.7102 65.9489 59.7679 65.8906 59.8256 65.8906H59.9987C60.0565 65.8906 60.1142 65.9489 60.1142 66.0072V68.9227C60.1142 69.2142 59.941 69.4475 59.6525 69.5641C59.6525 69.5641 59.5948 69.5641 59.5371 69.5641Z" fill="#737373"/>
<path d="M61.7921 66.0078H61.8498L61.9075 66.0661V69.2731H62.6577L62.7154 69.3314V69.3897L62.6577 69.448H61.7344L61.7921 66.0078Z" fill="#737373"/>
<path d="M62.6559 69.5641H61.7326C61.6749 69.5641 61.6172 69.5058 61.6172 69.4475V66.0656C61.6172 66.0072 61.6172 66.0072 61.6749 65.9489L61.7326 65.8906H61.7903H61.848H61.9057L61.9634 65.9489C61.9634 65.9489 62.0211 66.0072 62.0211 66.0656V69.1559H62.6559C62.7136 69.1559 62.7136 69.1559 62.7136 69.2142L62.7713 69.2726L62.829 69.3309V69.3892C62.829 69.4475 62.829 69.4475 62.7713 69.4475L62.7136 69.5058C62.7136 69.5641 62.7136 69.5641 62.6559 69.5641Z" fill="#737373"/>
<path d="M65.0747 66.0078V66.1827H64.6708V69.448H64.4977V66.1827H64.0938V66.0078H65.0747Z" fill="#737373"/>
<path d="M64.6729 69.5641H64.4998C64.4421 69.5641 64.3844 69.5058 64.3844 69.4475V66.2988H64.0959C64.0382 66.2988 63.9805 66.2405 63.9805 66.1822V66.0072C63.9805 65.9489 64.0382 65.8906 64.0959 65.8906H65.0769C65.1346 65.8906 65.1923 65.9489 65.1923 66.0072V66.1822C65.1923 66.2405 65.1346 66.2988 65.0769 66.2988H64.7883V69.4475C64.7883 69.5058 64.7306 69.5641 64.6729 69.5641Z" fill="#737373"/>
<path d="M22.4348 17.5508H20.9922V18.717H22.4348V17.5508Z" fill="#737373"/>
<path d="M61.4421 18.717H58.6722V17.5508H61.4421V18.717ZM55.9024 18.717H53.1325V17.5508H55.9024V18.717ZM50.305 18.717H47.5351V17.5508H50.305V18.717ZM44.7075 18.717H41.9377V17.5508H44.7075V18.717ZM39.1678 18.717H36.398V17.5508H39.1678V18.717ZM33.5704 18.717H30.8005V17.5508H33.5704V18.717ZM27.973 18.717H25.2031V17.5508H27.973V18.717Z" fill="#737373"/>
<path d="M65.7161 17.5508H64.2734V18.717H65.7161V17.5508Z" fill="#737373"/>
<path d="M85.8516 74.345H0.851562L16.2589 47.4062L17.2399 47.9893L2.87125 73.1788H83.8319L69.4055 47.9893L70.4442 47.4062L85.8516 74.345Z" fill="#737373"/>
<path d="M21.5129 60.6992H20.0703V61.8654H21.5129V60.6992Z" fill="#737373"/>
<path d="M62.1954 61.8654H59.3102V60.6992H62.1954V61.8654ZM56.3672 61.8654H53.4819V60.6992H56.3672V61.8654ZM50.539 61.8654H47.6537V60.6992H50.539V61.8654ZM44.7107 61.8654H41.8255V60.6992H44.7107V61.8654ZM38.9402 61.8654H36.0549V60.6992H38.9402V61.8654ZM33.1119 61.8654H30.2267V60.6992H33.1119V61.8654ZM27.2837 61.8654H24.3984V60.6992H27.2837V61.8654Z" fill="#737373"/>
<path d="M66.5208 60.6992H65.0781V61.8654H66.5208V60.6992Z" fill="#737373"/>
<path d="M41.6497 48.6901C41.5343 48.6901 41.4766 48.6318 41.4766 48.5152V46.9991C41.4766 46.8825 41.5343 46.8242 41.6497 46.8242C41.7651 46.8242 41.8228 46.8825 41.8228 46.9991V48.5152C41.8228 48.6318 41.7074 48.6901 41.6497 48.6901Z" fill="#737373"/>
<path d="M41.5941 48.7481C41.4787 48.7481 41.3633 48.6315 41.3633 48.5149V46.9989C41.3633 46.8822 41.4787 46.7656 41.5941 46.7656C41.7095 46.7656 41.8249 46.8822 41.8249 46.9989V48.5149C41.8826 48.6315 41.7672 48.7481 41.5941 48.7481ZM41.5941 46.8822C41.5364 46.8822 41.4787 46.9406 41.4787 46.9989V48.5149C41.4787 48.5732 41.5364 48.6315 41.5941 48.6315C41.6518 48.6315 41.7095 48.5732 41.7095 48.5149V46.9989C41.7672 46.9406 41.7095 46.8822 41.5941 46.8822Z" fill="#737373"/>
<path d="M39.9194 48.6901C39.4 48.6901 38.9961 48.2819 38.9961 47.7572C38.9961 47.2324 39.4 46.8242 39.9194 46.8242C40.4387 46.8242 40.8427 47.2324 40.8427 47.7572C40.8427 48.2819 40.4387 48.6901 39.9194 48.6901ZM39.9194 47.2324C39.6309 47.2324 39.3423 47.4656 39.3423 47.8155C39.3423 48.107 39.5731 48.3986 39.9194 48.3986C40.2079 48.3986 40.4964 48.1653 40.4964 47.8155C40.4387 47.4656 40.2079 47.2324 39.9194 47.2324Z" fill="#737373"/>
<path d="M39.9185 48.7481C39.3991 48.7481 38.9375 48.2817 38.9375 47.7569C38.9375 47.2321 39.3991 46.7656 39.9185 46.7656C40.4378 46.7656 40.8995 47.2321 40.8995 47.7569C40.8995 48.34 40.4378 48.7481 39.9185 48.7481ZM39.9185 46.8822C39.4568 46.8822 39.0529 47.2904 39.0529 47.7569C39.0529 48.2234 39.4568 48.6315 39.9185 48.6315C40.3801 48.6315 40.7841 48.2234 40.7841 47.7569C40.7841 47.2904 40.3801 46.8822 39.9185 46.8822ZM39.9185 48.3983C39.5723 48.3983 39.2837 48.1067 39.2837 47.7569C39.2837 47.407 39.5723 47.1155 39.9185 47.1155C40.2647 47.1155 40.5533 47.407 40.5533 47.7569C40.4955 48.1067 40.2647 48.3983 39.9185 48.3983ZM39.9185 47.2904C39.63 47.2904 39.3991 47.5236 39.3991 47.8152C39.3991 48.1067 39.63 48.34 39.9185 48.34C40.207 48.34 40.4378 48.1067 40.4378 47.8152C40.3801 47.5236 40.1493 47.2904 39.9185 47.2904Z" fill="#737373"/>
<path d="M45.0559 48.6901C44.9405 48.6901 44.8828 48.6318 44.8828 48.5152V46.9991C44.8828 46.8825 44.9405 46.8242 45.0559 46.8242C45.1713 46.8242 45.229 46.8825 45.229 46.9991V48.5152C45.229 48.6318 45.1713 48.6901 45.0559 48.6901Z" fill="#737373"/>
<path d="M45.055 48.7481C44.9396 48.7481 44.8242 48.6315 44.8242 48.5149V46.9989C44.8242 46.8822 44.9396 46.7656 45.055 46.7656C45.1705 46.7656 45.2859 46.8822 45.2859 46.9989V48.5149C45.2859 48.6315 45.1705 48.7481 45.055 48.7481ZM45.055 46.8822C44.9973 46.8822 44.9396 46.9406 44.9396 46.9989V48.5149C44.9396 48.5732 44.9973 48.6315 45.055 48.6315C45.1127 48.6315 45.1705 48.5732 45.1705 48.5149V46.9989C45.1705 46.9406 45.1127 46.8822 45.055 46.8822Z" fill="#737373"/>
<path d="M43.3256 48.6901C42.8063 48.6901 42.4023 48.2819 42.4023 47.7572C42.4023 47.2324 42.8063 46.8242 43.3256 46.8242C43.845 46.8242 44.2489 47.2324 44.2489 47.7572C44.2489 48.2819 43.845 48.6901 43.3256 48.6901ZM43.3256 47.2324C43.0371 47.2324 42.7486 47.4656 42.7486 47.8155C42.7486 48.107 42.9794 48.3986 43.3256 48.3986C43.6142 48.3986 43.9027 48.1653 43.9027 47.8155C43.9027 47.4656 43.6719 47.2324 43.3256 47.2324Z" fill="#737373"/>
<path d="M43.3247 48.7481C42.8054 48.7481 42.3438 48.2817 42.3438 47.7569C42.3438 47.2321 42.8054 46.7656 43.3247 46.7656C43.8441 46.7656 44.3057 47.2321 44.3057 47.7569C44.3057 48.34 43.9018 48.7481 43.3247 48.7481ZM43.3247 46.8822C42.8631 46.8822 42.4592 47.2904 42.4592 47.7569C42.4592 48.2234 42.8631 48.6315 43.3247 48.6315C43.7864 48.6315 44.1903 48.2234 44.1903 47.7569C44.1903 47.2904 43.7864 46.8822 43.3247 46.8822ZM43.3247 48.3983C42.9785 48.3983 42.69 48.1067 42.69 47.7569C42.69 47.407 42.9785 47.1155 43.3247 47.1155C43.671 47.1155 43.9595 47.407 43.9595 47.7569C43.9595 48.1067 43.671 48.3983 43.3247 48.3983ZM43.3247 47.2904C43.0362 47.2904 42.8054 47.5236 42.8054 47.8152C42.8054 48.1067 43.0362 48.34 43.3247 48.34C43.6133 48.34 43.8441 48.1067 43.8441 47.8152C43.8441 47.5236 43.6133 47.2904 43.3247 47.2904Z" fill="#737373"/>
<path d="M46.7866 48.6901C46.2672 48.6901 45.8633 48.2819 45.8633 47.7572C45.8633 47.2324 46.2672 46.8242 46.7866 46.8242C47.3059 46.8242 47.7099 47.2324 47.7099 47.7572C47.7099 48.2819 47.3059 48.6901 46.7866 48.6901ZM46.7866 47.2324C46.498 47.2324 46.2095 47.4656 46.2095 47.8155C46.2095 48.107 46.4403 48.3986 46.7866 48.3986C47.0751 48.3986 47.3636 48.1653 47.3636 47.8155C47.3059 47.4656 47.0751 47.2324 46.7866 47.2324Z" fill="#737373"/>
<path d="M46.7857 48.7481C46.2663 48.7481 45.8047 48.2817 45.8047 47.7569C45.8047 47.2321 46.2663 46.7656 46.7857 46.7656C47.305 46.7656 47.7667 47.2321 47.7667 47.7569C47.7667 48.34 47.305 48.7481 46.7857 48.7481ZM46.7857 46.8822C46.324 46.8822 45.9201 47.2904 45.9201 47.7569C45.9201 48.2234 46.324 48.6315 46.7857 48.6315C47.2473 48.6315 47.6513 48.2234 47.6513 47.7569C47.6513 47.2904 47.2473 46.8822 46.7857 46.8822ZM46.7857 48.3983C46.4394 48.3983 46.1509 48.1067 46.1509 47.7569C46.1509 47.407 46.4394 47.1155 46.7857 47.1155C47.1319 47.1155 47.4204 47.407 47.4204 47.7569C47.3627 48.1067 47.1319 48.3983 46.7857 48.3983ZM46.7857 47.2904C46.4972 47.2904 46.2663 47.5236 46.2663 47.8152C46.2663 48.1067 46.4972 48.34 46.7857 48.34C47.0742 48.34 47.305 48.1067 47.305 47.8152C47.2473 47.5236 47.0165 47.2904 46.7857 47.2904Z" fill="#737373"/>
<path d="M39.9192 50.0317C39.8038 50.0317 39.7461 49.9734 39.7461 49.8568V49.507C39.7461 49.3903 39.8038 49.332 39.9192 49.332C40.0346 49.332 40.0923 49.3903 40.0923 49.507V49.8568C40.0923 49.9151 40.0346 50.0317 39.9192 50.0317Z" fill="#737373"/>
<path d="M39.9183 50.0898C39.8029 50.0898 39.6875 49.9731 39.6875 49.8565V49.5067C39.6875 49.3901 39.8029 49.2734 39.9183 49.2734C40.0337 49.2734 40.1491 49.3901 40.1491 49.5067V49.8565C40.1491 49.9731 40.0337 50.0898 39.9183 50.0898ZM39.9183 49.3317C39.8606 49.3317 39.8029 49.3901 39.8029 49.4484V49.7982C39.8029 49.8565 39.8606 49.9148 39.9183 49.9148C39.976 49.9148 40.0337 49.8565 40.0337 49.7982V49.4484C40.0337 49.3901 39.976 49.3317 39.9183 49.3317Z" fill="#737373"/>
<path d="M38.1889 51.1393C37.6696 51.1393 37.2656 50.7312 37.2656 50.2064C37.2656 49.6816 37.6696 49.2734 38.1889 49.2734C38.7083 49.2734 39.1122 49.6816 39.1122 50.2064C39.1122 50.7312 38.7083 51.1393 38.1889 51.1393ZM38.1889 49.6233C37.9004 49.6233 37.6119 49.8565 37.6119 50.2064C37.6119 50.4979 37.8427 50.7895 38.1889 50.7895C38.4774 50.7895 38.766 50.5562 38.766 50.2064C38.766 49.9148 38.4774 49.6233 38.1889 49.6233Z" fill="#737373"/>
<path d="M38.188 51.1974C37.6687 51.1974 37.207 50.7309 37.207 50.2061C37.207 49.6813 37.6687 49.2148 38.188 49.2148C38.7074 49.2148 39.169 49.6813 39.169 50.2061C39.169 50.7309 38.7074 51.1974 38.188 51.1974ZM38.188 49.3315C37.7264 49.3315 37.3224 49.7396 37.3224 50.2061C37.3224 50.6726 37.7264 51.0807 38.188 51.0807C38.6497 51.0807 39.0536 50.6726 39.0536 50.2061C39.0536 49.7396 38.6497 49.3315 38.188 49.3315ZM38.188 50.7892C37.8418 50.7892 37.5533 50.4976 37.5533 50.1478C37.5533 49.7979 37.8418 49.5064 38.188 49.5064C38.5343 49.5064 38.8228 49.7979 38.8228 50.1478C38.8228 50.556 38.5343 50.7892 38.188 50.7892ZM38.188 49.6813C37.8995 49.6813 37.6687 49.9146 37.6687 50.2061C37.6687 50.4976 37.8995 50.7309 38.188 50.7309C38.4765 50.7309 38.7074 50.4976 38.7074 50.2061C38.7074 49.9146 38.4765 49.6813 38.188 49.6813Z" fill="#737373"/>
<path d="M46.7864 50.0317C46.671 50.0317 46.6133 49.9734 46.6133 49.8568V49.507C46.6133 49.3903 46.671 49.332 46.7864 49.332C46.9018 49.332 46.9595 49.3903 46.9595 49.507V49.8568C46.9595 49.9151 46.9018 50.0317 46.7864 50.0317Z" fill="#737373"/>
<path d="M46.7855 50.0898C46.6701 50.0898 46.5547 49.9731 46.5547 49.8565V49.5067C46.5547 49.3901 46.6701 49.2734 46.7855 49.2734C46.9009 49.2734 47.0163 49.3901 47.0163 49.5067V49.8565C47.0163 49.9731 46.9009 50.0898 46.7855 50.0898ZM46.7855 49.3317C46.7278 49.3317 46.6701 49.3901 46.6701 49.4484V49.7982C46.6701 49.8565 46.7278 49.9148 46.7855 49.9148C46.8432 49.9148 46.9009 49.8565 46.9009 49.7982V49.4484C46.9009 49.3901 46.8432 49.3317 46.7855 49.3317Z" fill="#737373"/>
<path d="M48.517 51.1393C47.9977 51.1393 47.5938 50.7312 47.5938 50.2064C47.5938 49.6816 47.9977 49.2734 48.517 49.2734C49.0364 49.2734 49.4403 49.6816 49.4403 50.2064C49.3826 50.7312 48.9787 51.1393 48.517 51.1393ZM48.517 49.6233C48.2285 49.6233 47.94 49.8565 47.94 50.2064C47.94 50.4979 48.1708 50.7895 48.517 50.7895C48.8056 50.7895 49.0941 50.5562 49.0941 50.2064C49.0364 49.9148 48.8056 49.6233 48.517 49.6233Z" fill="#737373"/>
<path d="M48.5161 51.1974C47.9968 51.1974 47.5352 50.7309 47.5352 50.2061C47.5352 49.6813 47.9968 49.2148 48.5161 49.2148C49.0355 49.2148 49.4971 49.6813 49.4971 50.2061C49.4394 50.7309 49.0355 51.1974 48.5161 51.1974ZM48.5161 49.3315C48.0545 49.3315 47.6506 49.7396 47.6506 50.2061C47.6506 50.6726 48.0545 51.0807 48.5161 51.0807C48.9778 51.0807 49.3817 50.6726 49.3817 50.2061C49.324 49.7396 48.9778 49.3315 48.5161 49.3315ZM48.5161 50.7892C48.1699 50.7892 47.8814 50.4976 47.8814 50.1478C47.8814 49.7979 48.1699 49.5064 48.5161 49.5064C48.8624 49.5064 49.1509 49.7979 49.1509 50.1478C49.0932 50.556 48.8047 50.7892 48.5161 50.7892ZM48.5161 49.6813C48.2276 49.6813 47.9968 49.9146 47.9968 50.2061C47.9968 50.4976 48.2276 50.7309 48.5161 50.7309C48.8047 50.7309 49.0355 50.4976 49.0355 50.2061C48.9778 49.9146 48.747 49.6813 48.5161 49.6813Z" fill="#737373"/>
<path d="M38.9394 52.8303H37.2083C37.0929 52.8303 37.0352 52.772 37.0352 52.6554C37.0352 52.5388 37.0929 52.4805 37.2083 52.4805H38.9394C39.0548 52.4805 39.1126 52.5388 39.1126 52.6554C39.1126 52.7137 39.0548 52.8303 38.9394 52.8303Z" fill="#737373"/>
<path d="M38.9385 52.8883H37.2074C37.092 52.8883 36.9766 52.7717 36.9766 52.6551C36.9766 52.5385 37.092 52.4219 37.2074 52.4219H38.9385C39.054 52.4219 39.1694 52.5385 39.1694 52.6551C39.1694 52.7717 39.054 52.8883 38.9385 52.8883ZM37.2074 52.4802C37.1497 52.4802 37.092 52.5385 37.092 52.5968C37.092 52.6551 37.1497 52.7134 37.2074 52.7134H38.9385C38.9963 52.7134 39.054 52.6551 39.054 52.5968C39.054 52.5385 38.9963 52.4802 38.9385 52.4802H37.2074Z" fill="#737373"/>
<path d="M36.4584 53.53C35.9391 53.53 35.5352 53.1218 35.5352 52.597C35.5352 52.0722 35.9391 51.6641 36.4584 51.6641C36.9778 51.6641 37.3817 52.0722 37.3817 52.597C37.3817 53.1218 36.9778 53.53 36.4584 53.53ZM36.4584 52.0722C36.1699 52.0722 35.8814 52.3055 35.8814 52.6553C35.8814 52.9469 36.1122 53.2384 36.4584 53.2384C36.747 53.2384 37.0355 53.0052 37.0355 52.6553C37.0355 52.3055 36.8047 52.0722 36.4584 52.0722Z" fill="#737373"/>
<path d="M36.4576 53.588C35.9382 53.588 35.4766 53.1215 35.4766 52.5967C35.4766 52.0719 35.9382 51.6055 36.4576 51.6055C36.9769 51.6055 37.4385 52.0719 37.4385 52.5967C37.4385 53.1798 37.0346 53.588 36.4576 53.588ZM36.4576 51.7221C35.9959 51.7221 35.592 52.1302 35.592 52.5967C35.592 53.0632 35.9959 53.4714 36.4576 53.4714C36.9192 53.4714 37.3231 53.0632 37.3231 52.5967C37.3231 52.1302 36.9192 51.7221 36.4576 51.7221ZM36.4576 53.2381C36.1113 53.2381 35.8228 52.9466 35.8228 52.5967C35.8228 52.2469 36.1113 51.9553 36.4576 51.9553C36.8038 51.9553 37.0923 52.2469 37.0923 52.5967C37.0923 52.9466 36.8038 53.2381 36.4576 53.2381ZM36.4576 52.1303C36.169 52.1303 35.9382 52.3635 35.9382 52.655C35.9382 52.9466 36.169 53.1798 36.4576 53.1798C36.7461 53.1798 36.9769 52.9466 36.9769 52.655C36.9769 52.3635 36.7461 52.1303 36.4576 52.1303Z" fill="#737373"/>
<path d="M49.4394 52.8303H47.7083C47.5929 52.8303 47.5352 52.772 47.5352 52.6554C47.5352 52.5388 47.5929 52.4805 47.7083 52.4805H49.4394C49.5548 52.4805 49.6125 52.5388 49.6125 52.6554C49.6703 52.7137 49.5548 52.8303 49.4394 52.8303Z" fill="#737373"/>
<path d="M49.4385 52.8883H47.7074C47.592 52.8883 47.4766 52.7717 47.4766 52.6551C47.4766 52.5385 47.592 52.4219 47.7074 52.4219H49.4385C49.554 52.4219 49.6694 52.5385 49.6694 52.6551C49.7271 52.7717 49.6117 52.8883 49.4385 52.8883ZM47.7651 52.4802C47.7074 52.4802 47.6497 52.5385 47.6497 52.5968C47.6497 52.6551 47.7074 52.7134 47.7651 52.7134H49.4963C49.554 52.7134 49.6117 52.6551 49.6117 52.5968C49.6117 52.5385 49.554 52.4802 49.4963 52.4802H47.7651Z" fill="#737373"/>
<path d="M50.1928 53.53C49.6735 53.53 49.2695 53.1218 49.2695 52.597C49.2695 52.0722 49.6735 51.6641 50.1928 51.6641C50.7122 51.6641 51.1161 52.0722 51.1161 52.597C51.1161 53.1218 50.7122 53.53 50.1928 53.53ZM50.1928 52.0722C49.9043 52.0722 49.6158 52.3055 49.6158 52.6553C49.6158 52.9469 49.8466 53.2384 50.1928 53.2384C50.4813 53.2384 50.7699 53.0052 50.7699 52.6553C50.7699 52.3055 50.539 52.0722 50.1928 52.0722Z" fill="#737373"/>
<path d="M50.1919 53.588C49.6726 53.588 49.2109 53.1215 49.2109 52.5967C49.2109 52.0719 49.6726 51.6055 50.1919 51.6055C50.7113 51.6055 51.1729 52.0719 51.1729 52.5967C51.1729 53.1798 50.769 53.588 50.1919 53.588ZM50.1919 51.7221C49.7303 51.7221 49.3263 52.1302 49.3263 52.5967C49.3263 53.0632 49.7303 53.4714 50.1919 53.4714C50.6536 53.4714 51.0575 53.0632 51.0575 52.5967C51.0575 52.1302 50.6536 51.7221 50.1919 51.7221ZM50.1919 53.2381C49.8457 53.2381 49.5572 52.9466 49.5572 52.5967C49.5572 52.2469 49.8457 51.9553 50.1919 51.9553C50.5382 51.9553 50.8267 52.2469 50.8267 52.5967C50.8267 52.9466 50.5382 53.2381 50.1919 53.2381ZM50.1919 52.1303C49.9034 52.1303 49.6726 52.3635 49.6726 52.655C49.6726 52.9466 49.9034 53.1798 50.1919 53.1798C50.4805 53.1798 50.7113 52.9466 50.7113 52.655C50.7113 52.3635 50.4805 52.1303 50.1919 52.1303Z" fill="#737373"/>
<path d="M41.6497 58.3698C41.5343 58.3698 41.4766 58.3115 41.4766 58.1949V56.6788C41.4766 56.5622 41.5343 56.5039 41.6497 56.5039C41.7651 56.5039 41.8228 56.5622 41.8228 56.6788V58.1949C41.8228 58.3115 41.7074 58.3698 41.6497 58.3698Z" fill="#737373"/>
<path d="M41.5941 58.4278C41.4787 58.4278 41.3633 58.3112 41.3633 58.1946V56.6785C41.3633 56.5619 41.4787 56.4453 41.5941 56.4453C41.7095 56.4453 41.8249 56.5619 41.8249 56.6785V58.1946C41.8826 58.3112 41.7672 58.4278 41.5941 58.4278ZM41.5941 56.5619C41.5364 56.5619 41.4787 56.6202 41.4787 56.6785V58.1946C41.4787 58.2529 41.5364 58.3112 41.5941 58.3112C41.6518 58.3112 41.7095 58.2529 41.7095 58.1946V56.6785C41.7672 56.6202 41.7095 56.5619 41.5941 56.5619Z" fill="#737373"/>
<path d="M39.9194 58.3698C39.4 58.3698 38.9961 57.9616 38.9961 57.4368C38.9961 56.9121 39.4 56.5039 39.9194 56.5039C40.4387 56.5039 40.8427 56.9121 40.8427 57.4368C40.8427 57.9616 40.4387 58.3698 39.9194 58.3698ZM39.9194 56.9121C39.6309 56.9121 39.3423 57.1453 39.3423 57.4952C39.3423 57.845 39.5731 58.0782 39.9194 58.0782C40.2079 58.0782 40.4964 57.845 40.4964 57.4952C40.4964 57.1453 40.2079 56.9121 39.9194 56.9121Z" fill="#737373"/>
<path d="M39.9185 58.4278C39.3991 58.4278 38.9375 57.9613 38.9375 57.4366C38.9375 56.9118 39.3991 56.4453 39.9185 56.4453C40.4378 56.4453 40.8995 56.9118 40.8995 57.4366C40.8995 58.0197 40.4378 58.4278 39.9185 58.4278ZM39.9185 56.5619C39.4568 56.5619 39.0529 56.9701 39.0529 57.4366C39.0529 57.903 39.4568 58.3112 39.9185 58.3112C40.3801 58.3112 40.7841 57.903 40.7841 57.4366C40.7841 56.9701 40.3801 56.5619 39.9185 56.5619ZM39.9185 58.078C39.5723 58.078 39.2837 57.7864 39.2837 57.4366C39.2837 57.0867 39.5723 56.7952 39.9185 56.7952C40.2647 56.7952 40.5533 57.0867 40.5533 57.4366C40.5533 57.7864 40.2647 58.078 39.9185 58.078ZM39.9185 56.9701C39.63 56.9701 39.3991 57.2033 39.3991 57.4949C39.3991 57.7864 39.63 58.0197 39.9185 58.0197C40.207 58.0197 40.4378 57.7864 40.4378 57.4949C40.3801 57.2033 40.1493 56.9701 39.9185 56.9701Z" fill="#737373"/>
<path d="M45.0559 58.3698C44.9405 58.3698 44.8828 58.3115 44.8828 58.1949V56.6788C44.8828 56.5622 44.9405 56.5039 45.0559 56.5039C45.1713 56.5039 45.229 56.5622 45.229 56.6788V58.1949C45.229 58.3115 45.1713 58.3698 45.0559 58.3698Z" fill="#737373"/>
<path d="M45.055 58.4278C44.9396 58.4278 44.8242 58.3112 44.8242 58.1946V56.6785C44.8242 56.5619 44.9396 56.4453 45.055 56.4453C45.1705 56.4453 45.2859 56.5619 45.2859 56.6785V58.1946C45.2859 58.3112 45.1705 58.4278 45.055 58.4278ZM45.055 56.5619C44.9973 56.5619 44.9396 56.6202 44.9396 56.6785V58.1946C44.9396 58.2529 44.9973 58.3112 45.055 58.3112C45.1127 58.3112 45.1705 58.2529 45.1705 58.1946V56.6785C45.1705 56.6202 45.1127 56.5619 45.055 56.5619Z" fill="#737373"/>
<path d="M43.3256 58.3698C42.8063 58.3698 42.4023 57.9616 42.4023 57.4368C42.4023 56.9121 42.8063 56.5039 43.3256 56.5039C43.845 56.5039 44.2489 56.9121 44.2489 57.4368C44.2489 57.9616 43.845 58.3698 43.3256 58.3698ZM43.3256 56.9121C43.0371 56.9121 42.7486 57.1453 42.7486 57.4952C42.7486 57.845 42.9794 58.0782 43.3256 58.0782C43.6142 58.0782 43.9027 57.845 43.9027 57.4952C43.9027 57.1453 43.6719 56.9121 43.3256 56.9121Z" fill="#737373"/>
<path d="M43.3247 58.4278C42.8054 58.4278 42.3438 57.9613 42.3438 57.4366C42.3438 56.9118 42.8054 56.4453 43.3247 56.4453C43.8441 56.4453 44.3057 56.9118 44.3057 57.4366C44.3057 58.0197 43.9018 58.4278 43.3247 58.4278ZM43.3247 56.5619C42.8631 56.5619 42.4592 56.9701 42.4592 57.4366C42.4592 57.903 42.8631 58.3112 43.3247 58.3112C43.7864 58.3112 44.1903 57.903 44.1903 57.4366C44.1903 56.9701 43.7864 56.5619 43.3247 56.5619ZM43.3247 58.078C42.9785 58.078 42.69 57.7864 42.69 57.4366C42.69 57.0867 42.9785 56.7952 43.3247 56.7952C43.671 56.7952 43.9595 57.0867 43.9595 57.4366C43.9595 57.7864 43.671 58.078 43.3247 58.078ZM43.3247 56.9701C43.0362 56.9701 42.8054 57.2033 42.8054 57.4949C42.8054 57.7864 43.0362 58.0197 43.3247 58.0197C43.6133 58.0197 43.8441 57.7864 43.8441 57.4949C43.8441 57.2033 43.6133 56.9701 43.3247 56.9701Z" fill="#737373"/>
<path d="M46.7866 58.3698C46.2672 58.3698 45.8633 57.9616 45.8633 57.4368C45.8633 56.9121 46.2672 56.5039 46.7866 56.5039C47.3059 56.5039 47.7099 56.9121 47.7099 57.4368C47.7099 57.9616 47.3059 58.3698 46.7866 58.3698ZM46.7866 56.9121C46.498 56.9121 46.2095 57.1453 46.2095 57.4952C46.2095 57.845 46.4403 58.0782 46.7866 58.0782C47.0751 58.0782 47.3636 57.845 47.3636 57.4952C47.3636 57.1453 47.0751 56.9121 46.7866 56.9121Z" fill="#737373"/>
<path d="M46.7857 58.4278C46.2663 58.4278 45.8047 57.9613 45.8047 57.4366C45.8047 56.9118 46.2663 56.4453 46.7857 56.4453C47.305 56.4453 47.7667 56.9118 47.7667 57.4366C47.7667 58.0197 47.305 58.4278 46.7857 58.4278ZM46.7857 56.5619C46.324 56.5619 45.9201 56.9701 45.9201 57.4366C45.9201 57.903 46.324 58.3112 46.7857 58.3112C47.2473 58.3112 47.6513 57.903 47.6513 57.4366C47.6513 56.9701 47.2473 56.5619 46.7857 56.5619ZM46.7857 58.078C46.4394 58.078 46.1509 57.7864 46.1509 57.4366C46.1509 57.0867 46.4394 56.7952 46.7857 56.7952C47.1319 56.7952 47.4204 57.0867 47.4204 57.4366C47.4204 57.7864 47.1319 58.078 46.7857 58.078ZM46.7857 56.9701C46.4972 56.9701 46.2663 57.2033 46.2663 57.4949C46.2663 57.7864 46.4972 58.0197 46.7857 58.0197C47.0742 58.0197 47.305 57.7864 47.305 57.4949C47.2473 57.2033 47.0165 56.9701 46.7857 56.9701Z" fill="#737373"/>
<path d="M39.9192 55.9807C39.8038 55.9807 39.7461 55.9224 39.7461 55.8057V55.3976C39.7461 55.281 39.8038 55.2227 39.9192 55.2227C40.0346 55.2227 40.0923 55.281 40.0923 55.3976V55.7474C40.0923 55.8641 40.0346 55.9807 39.9192 55.9807Z" fill="#737373"/>
<path d="M39.9183 56.0387C39.8029 56.0387 39.6875 55.9221 39.6875 55.8055V55.3973C39.6875 55.2807 39.8029 55.1641 39.9183 55.1641C40.0337 55.1641 40.1491 55.2807 40.1491 55.3973V55.7472C40.1491 55.9221 40.0337 56.0387 39.9183 56.0387ZM39.9183 55.2807C39.8606 55.2807 39.8029 55.339 39.8029 55.3973V55.7472C39.8029 55.8055 39.8606 55.8638 39.9183 55.8638C39.976 55.8638 40.0337 55.8055 40.0337 55.7472V55.3973C40.0337 55.339 39.976 55.2807 39.9183 55.2807Z" fill="#737373"/>
<path d="M38.1889 55.9792C37.6696 55.9792 37.2656 55.571 37.2656 55.0462C37.2656 54.5214 37.6696 54.1133 38.1889 54.1133C38.7083 54.1133 39.1122 54.5214 39.1122 55.0462C39.1122 55.571 38.7083 55.9792 38.1889 55.9792ZM38.1889 54.4631C37.9004 54.4631 37.6119 54.6964 37.6119 55.0462C37.6119 55.3378 37.8427 55.6293 38.1889 55.6293C38.4774 55.6293 38.766 55.3961 38.766 55.0462C38.766 54.7547 38.4774 54.4631 38.1889 54.4631Z" fill="#737373"/>
<path d="M38.188 56.0372C37.6687 56.0372 37.207 55.5707 37.207 55.0459C37.207 54.5212 37.6687 54.0547 38.188 54.0547C38.7074 54.0547 39.169 54.5212 39.169 55.0459C39.169 55.5707 38.7074 56.0372 38.188 56.0372ZM38.188 54.1713C37.7264 54.1713 37.3224 54.5795 37.3224 55.0459C37.3224 55.5124 37.7264 55.9206 38.188 55.9206C38.6497 55.9206 39.0536 55.5124 39.0536 55.0459C39.0536 54.5795 38.6497 54.1713 38.188 54.1713ZM38.188 55.629C37.8418 55.629 37.5533 55.3375 37.5533 54.9876C37.5533 54.6378 37.8418 54.3462 38.188 54.3462C38.5343 54.3462 38.8228 54.6378 38.8228 54.9876C38.8228 55.3375 38.5343 55.629 38.188 55.629ZM38.188 54.5212C37.8995 54.5212 37.6687 54.7544 37.6687 55.0459C37.6687 55.3375 37.8995 55.5707 38.188 55.5707C38.4765 55.5707 38.7074 55.3375 38.7074 55.0459C38.7074 54.7544 38.4765 54.5212 38.188 54.5212Z" fill="#737373"/>
<path d="M46.7864 55.9807C46.671 55.9807 46.6133 55.9224 46.6133 55.8057V55.3976C46.6133 55.281 46.671 55.2227 46.7864 55.2227C46.9018 55.2227 46.9595 55.281 46.9595 55.3976V55.7474C46.9595 55.8641 46.9018 55.9807 46.7864 55.9807Z" fill="#737373"/>
<path d="M46.7855 56.0387C46.6701 56.0387 46.5547 55.9221 46.5547 55.8055V55.3973C46.5547 55.2807 46.6701 55.1641 46.7855 55.1641C46.9009 55.1641 47.0163 55.2807 47.0163 55.3973V55.7472C47.0163 55.9221 46.9009 56.0387 46.7855 56.0387ZM46.7855 55.2807C46.7278 55.2807 46.6701 55.339 46.6701 55.3973V55.7472C46.6701 55.8055 46.7278 55.8638 46.7855 55.8638C46.8432 55.8638 46.9009 55.8055 46.9009 55.7472V55.3973C46.9009 55.339 46.8432 55.2807 46.7855 55.2807Z" fill="#737373"/>
<path d="M48.5209 55.9792C48.0016 55.9792 47.5977 55.571 47.5977 55.0462C47.5977 54.5214 48.0016 54.1133 48.5209 54.1133C49.0403 54.1133 49.4442 54.5214 49.4442 55.0462C49.3865 55.571 48.9826 55.9792 48.5209 55.9792ZM48.5209 54.4631C48.2324 54.4631 47.9439 54.6964 47.9439 55.0462C47.9439 55.3378 48.1747 55.6293 48.5209 55.6293C48.8095 55.6293 49.098 55.3961 49.098 55.0462C49.0403 54.7547 48.8095 54.4631 48.5209 54.4631Z" fill="#737373"/>
<path d="M48.5201 56.0372C48.0007 56.0372 47.5391 55.5707 47.5391 55.0459C47.5391 54.5212 48.0007 54.0547 48.5201 54.0547C49.0394 54.0547 49.501 54.5212 49.501 55.0459C49.4433 55.5707 49.0394 56.0372 48.5201 56.0372ZM48.5201 54.1713C48.0584 54.1713 47.6545 54.5795 47.6545 55.0459C47.6545 55.5124 48.0584 55.9206 48.5201 55.9206C48.9817 55.9206 49.3856 55.5124 49.3856 55.0459C49.3856 54.5795 48.9817 54.1713 48.5201 54.1713ZM48.5201 55.629C48.1738 55.629 47.8853 55.3375 47.8853 54.9876C47.8853 54.6378 48.1738 54.3462 48.5201 54.3462C48.8663 54.3462 49.1548 54.6378 49.1548 54.9876C49.1548 55.3375 48.8086 55.629 48.5201 55.629ZM48.5201 54.5212C48.2315 54.5212 48.0007 54.7544 48.0007 55.0459C48.0007 55.3375 48.2315 55.5707 48.5201 55.5707C48.8086 55.5707 49.0394 55.3375 49.0394 55.0459C48.9817 54.7544 48.7509 54.5212 48.5201 54.5212Z" fill="#737373"/>
<path d="M43.326 56.3268C41.3063 56.3268 39.6328 54.6359 39.6328 52.5951C39.6328 50.5542 41.3063 48.8633 43.326 48.8633C45.3456 48.8633 47.0191 50.5542 47.0191 52.5951C47.0191 54.6359 45.3456 56.3268 43.326 56.3268ZM43.326 49.2714C41.4794 49.2714 40.0368 50.7875 40.0368 52.5951C40.0368 54.4609 41.5371 55.9187 43.326 55.9187C45.1725 55.9187 46.6152 54.4026 46.6152 52.5951C46.6729 50.7875 45.1725 49.2714 43.326 49.2714Z" fill="#737373"/>
<path d="M43.3251 56.3849C41.2477 56.3849 39.5742 54.6939 39.5742 52.5948C39.5742 50.4956 41.2477 48.8047 43.3251 48.8047C45.4025 48.8047 47.0759 50.4956 47.0759 52.5948C47.0759 54.6939 45.4025 56.3849 43.3251 56.3849ZM43.3251 48.9796C41.3054 48.9796 39.6896 50.6123 39.6896 52.6531C39.6896 54.6939 41.3054 56.3266 43.3251 56.3266C45.3448 56.3266 46.9605 54.6939 46.9605 52.6531C46.9605 50.6123 45.3448 48.9796 43.3251 48.9796ZM43.3251 56.035C41.4785 56.035 39.9782 54.519 39.9782 52.6531C39.9782 50.7872 41.4785 49.2712 43.3251 49.2712C45.1716 49.2712 46.672 50.7872 46.672 52.6531C46.672 54.519 45.1716 56.035 43.3251 56.035ZM43.3251 49.3295C41.5362 49.3295 40.0936 50.7872 40.0936 52.5948C40.0936 54.4024 41.5362 55.8601 43.3251 55.8601C45.1139 55.8601 46.5566 54.4024 46.5566 52.5948C46.6143 50.7872 45.1139 49.3295 43.3251 49.3295Z" fill="#737373"/>
<path d="M44.2487 52.363C44.4796 52.1298 44.595 51.8383 44.595 51.5467C44.595 51.0802 44.2487 50.6138 43.7871 50.4972V50.089C43.7871 49.9724 43.7294 49.9141 43.614 49.9141C43.4986 49.9141 43.4409 49.9724 43.4409 50.089V50.4972H43.0946V50.089C43.0946 49.9724 43.0369 49.9141 42.9215 49.9141C42.8061 49.9141 42.7484 49.9724 42.7484 50.089V50.4972H42.0559C41.9405 50.4972 41.8828 50.5555 41.8828 50.6721C41.8828 50.7887 41.9405 50.847 42.0559 50.847H42.4022V54.4622H42.0559C41.9405 54.4622 41.8828 54.5205 41.8828 54.6371C41.8828 54.7537 41.9405 54.812 42.0559 54.812H42.7484V55.1619C42.7484 55.2785 42.8061 55.3368 42.9215 55.3368C43.0369 55.3368 43.0946 55.2785 43.0946 55.1619V54.812H43.4409V55.1619C43.4409 55.2785 43.4986 55.3368 43.614 55.3368C43.7294 55.3368 43.7871 55.2785 43.7871 55.1619V54.812C44.4796 54.812 44.9989 54.2289 44.9989 53.5875C44.9989 53.0044 44.7104 52.5963 44.2487 52.363ZM42.8061 52.3047V50.847H43.5563C43.9602 50.847 44.2487 51.1969 44.2487 51.5467C44.2487 51.9549 43.9025 52.2464 43.5563 52.2464H42.8061V52.3047ZM44.6527 53.5292C44.6527 53.9957 44.2487 54.4039 43.7871 54.4039H42.7484V52.6546H43.7871C44.2487 52.6546 44.6527 53.0628 44.6527 53.5292Z" fill="#737373"/>
<path d="M43.6131 55.3945C43.4977 55.3945 43.3823 55.2779 43.3823 55.1613V54.8115H43.1514V55.103C43.1514 55.2196 43.036 55.3362 42.9206 55.3362C42.8052 55.3362 42.6898 55.2196 42.6898 55.103V54.8115H42.055C41.9396 54.8115 41.8242 54.6948 41.8242 54.5782C41.8242 54.4616 41.9396 54.345 42.055 54.345H42.3436V50.8464H42.055C41.9396 50.8464 41.8242 50.7298 41.8242 50.6132C41.8242 50.4966 41.9396 50.38 42.055 50.38H42.6898V50.0301C42.6898 49.9135 42.8052 49.7969 42.9206 49.7969C43.036 49.7969 43.1514 49.9135 43.1514 50.0301V50.38H43.3823V50.0301C43.3823 49.9135 43.4977 49.7969 43.6131 49.7969C43.7285 49.7969 43.8439 49.9135 43.8439 50.0301V50.4383C44.3055 50.6132 44.6518 51.0214 44.6518 51.5461C44.6518 51.8377 44.5364 52.1292 44.3056 52.3625C44.7672 52.5957 45.0557 53.0039 45.0557 53.5287C45.0557 54.2284 44.5364 54.8115 43.8439 54.8115V55.103C43.8439 55.2779 43.7862 55.3945 43.6131 55.3945ZM43.036 54.6948H43.4977V55.103C43.4977 55.1613 43.5554 55.2196 43.6131 55.2196C43.6708 55.2196 43.7285 55.1613 43.7285 55.103V54.6948H43.7862C44.421 54.6948 44.9403 54.1701 44.9403 53.5287C44.9403 53.0622 44.6518 52.5957 44.1901 52.4208H44.1324L44.1901 52.3625C44.421 52.1875 44.5364 51.896 44.5364 51.6045C44.5364 51.138 44.2478 50.7298 43.7862 50.6132H43.7285V50.1467C43.7285 50.0884 43.6708 50.0301 43.6131 50.0301C43.5554 50.0301 43.4977 50.0884 43.4977 50.1467V50.6132H43.036V50.1467C43.036 50.0884 42.9783 50.0301 42.9206 50.0301C42.8629 50.0301 42.8052 50.0884 42.8052 50.1467V50.6132H42.055C41.9973 50.6132 41.9396 50.6715 41.9396 50.7298C41.9396 50.7881 41.9973 50.8464 42.055 50.8464H42.459V54.5782H42.055C41.9973 54.5782 41.9396 54.6365 41.9396 54.6948C41.9396 54.7531 41.9973 54.8115 42.055 54.8115H42.8052V55.2196C42.8052 55.2779 42.8629 55.3362 42.9206 55.3362C42.9783 55.3362 43.036 55.2779 43.036 55.2196V54.6948ZM43.7862 54.4616H42.6898V52.5957H43.7862C44.3056 52.5957 44.7095 53.0039 44.7095 53.5287C44.7095 54.0534 44.3056 54.4616 43.7862 54.4616ZM42.8629 54.345H43.8439C44.3055 54.345 44.6518 53.9951 44.6518 53.5287C44.6518 53.0622 44.3055 52.7123 43.8439 52.7123H42.8629V54.345ZM43.5554 52.3625H42.7475V50.7881H43.5554C43.9593 50.7881 44.3056 51.138 44.3056 51.5461C44.3056 52.0126 43.9593 52.3625 43.5554 52.3625ZM42.8629 52.2459H43.5554C43.9016 52.2459 44.1901 51.9543 44.1901 51.6045C44.1901 51.2546 43.9016 50.9631 43.5554 50.9631H42.8629V52.2459Z" fill="#737373"/>
</g>
<defs>
<clipPath id="clip0_3768_1171">
<rect width="85" height="80" fill="white" transform="translate(0.851562)"/>
</clipPath>
</defs>
</svg>
