<svg width="139" height="80" viewBox="0 0 139 80" fill="none" xmlns="http://www.w3.org/2000/svg">
<g clip-path="url(#clip0_3768_2044)">
<path d="M29.3803 9.75615C29.1551 9.90738 29.0049 10.0586 28.8548 10.2098C28.7046 10.3611 28.6295 10.5879 28.5544 10.8148C28.4794 11.0416 28.4794 11.3441 28.5544 11.6465C28.6295 11.949 28.7046 12.327 28.9299 12.7807C29.1551 13.3856 29.4554 14.0662 29.8308 14.8979C30.2062 15.7297 30.5816 16.5614 30.9571 17.3932C31.3325 18.3006 31.7079 19.1323 32.0833 19.9641C32.4587 20.7958 32.759 21.4764 32.9843 22.0813C33.3597 22.9887 33.8102 23.518 34.2606 23.7448C34.7111 23.9717 35.1616 23.9717 35.6121 23.8204C35.9875 23.6692 36.2879 23.4424 36.5131 23.2155C36.7383 22.9887 36.9636 22.6862 37.0387 22.3838C37.1138 22.0813 37.1888 21.7032 37.1137 21.2495C37.0387 20.7958 36.8885 20.3422 36.6633 19.8129L36.438 19.2836L36.8885 19.0567L37.339 20.1153C37.7144 21.0227 37.7895 21.8544 37.5642 22.535C37.2639 23.2155 36.7383 23.8204 35.8374 24.1985C35.3869 24.4253 34.9364 24.501 34.4108 24.4253C33.8852 24.4253 33.3597 24.2741 32.9092 23.9717C32.6089 23.8204 32.3836 23.518 32.0833 23.2155C31.858 22.9131 31.6328 22.535 31.3325 22.0813C31.1072 21.6276 30.8069 21.0227 30.5066 20.3422C30.2062 19.6616 29.8308 18.9055 29.4554 17.9981C28.9299 16.7883 28.4794 15.8053 28.179 14.9735C27.8787 14.1418 27.5784 13.4613 27.5033 12.932C27.3531 12.4783 27.3531 12.0246 27.4282 11.5709C27.5033 11.1172 27.6535 10.7391 27.8787 10.3611C28.2541 9.83177 28.7046 9.45369 29.2302 9.15124C29.3053 9.15124 29.3803 9.07562 29.4554 9.07562C29.5305 9.07562 29.6056 9.00001 29.6807 9.00001H29.6056C29.6807 9.00001 29.7558 9.00001 29.7558 9.00001C30.1312 8.92439 30.4315 8.92439 30.6567 8.92439C30.882 8.92439 31.1072 8.92439 31.2574 8.92439C31.4075 8.92439 31.4826 8.84878 31.5577 8.77316C31.7079 8.62194 31.7079 8.39509 31.5577 8.09263H31.6328C31.6328 8.09263 31.6328 8.09263 31.7079 8.09263L32.0833 7.94141L33.66 11.5709L33.1344 11.8734C33.0593 11.6465 32.9092 11.4197 32.759 11.1928C32.6089 11.0416 32.5338 10.8148 32.3836 10.5879C32.2334 10.3611 32.0833 10.2098 31.858 9.98299C31.783 9.90738 31.7079 9.83177 31.5577 9.75615C31.4075 9.68054 31.2574 9.60492 31.0321 9.52931C30.8069 9.45369 30.5817 9.45369 30.2813 9.45369C29.981 9.52931 29.6807 9.60492 29.3803 9.75615Z" fill="#737373"/>
<path d="M34.4854 24.8023C34.4104 24.8023 34.4104 24.8023 34.3353 24.8023C33.7346 24.8023 33.2091 24.5755 32.7586 24.273C32.4582 24.0462 32.1579 23.8193 31.8576 23.5169C31.6323 23.2144 31.332 22.7607 31.1068 22.307C30.8815 21.8533 30.5812 21.2484 30.2809 20.5679L29.2297 18.1482C28.7042 16.9384 28.2537 15.9554 27.9533 15.1237C27.5779 14.2919 27.3527 13.6114 27.2025 13.0065C27.0524 12.5528 27.0524 12.0235 27.1274 11.5698C27.2025 11.1161 27.3527 10.6624 27.653 10.2843C28.0284 9.67942 28.554 9.30135 29.1546 8.99889L29.3799 8.92328H29.455C29.455 8.84766 29.5301 8.84766 29.6051 8.84766C29.6802 8.84766 29.6802 8.84766 29.7553 8.84766C30.1307 8.77205 30.5061 8.69644 30.7314 8.77205H31.332H31.4071C31.4071 8.77205 31.4822 8.62082 31.4071 8.39398C31.332 8.24275 31.4071 8.09152 31.5573 8.01591C31.6323 8.01591 31.6323 8.01591 31.7074 7.94029L32.0828 7.78906C32.1579 7.78906 32.233 7.78906 32.3081 7.78906C32.3832 7.78906 32.4582 7.86468 32.4582 7.94029L34.035 11.5698C34.035 11.6454 34.035 11.721 34.035 11.7966C34.035 11.8722 33.9599 11.9479 33.8848 11.9479L33.2091 12.0991C33.0589 12.1747 32.9087 12.0991 32.8336 11.9479C32.7586 11.721 32.6084 11.4942 32.4582 11.2673C32.3832 11.1161 32.233 10.8893 32.0828 10.6624C31.9327 10.4356 31.7825 10.2843 31.5573 10.1331C31.4822 10.0575 31.4071 10.0575 31.2569 9.90627C31.1068 9.83065 30.9566 9.75504 30.8064 9.67942C30.6563 9.60381 30.431 9.60381 30.1307 9.60381C29.9055 9.60381 29.6802 9.67942 29.455 9.83065C29.3048 9.90626 29.0796 10.0575 29.0045 10.2087C28.8543 10.36 28.7792 10.5112 28.7042 10.738C28.6291 10.9649 28.6291 11.1917 28.7042 11.4942C28.7792 11.7966 28.8543 12.1747 29.0045 12.5528C29.2297 13.1577 29.5301 13.8382 29.9055 14.67C30.2809 15.5017 30.6563 16.3335 31.0317 17.1652C31.4071 18.0726 31.7825 18.9044 32.1579 19.6605C32.5333 20.4923 32.8336 21.1728 33.0589 21.7777C33.4343 22.6095 33.8097 23.1388 34.1851 23.29C34.5605 23.5169 34.9359 23.5169 35.3113 23.3656C35.6117 23.2144 35.912 23.0632 36.1372 22.8363C36.3625 22.6095 36.5126 22.3826 36.5877 22.1558C36.6628 21.8533 36.7379 21.5509 36.6628 21.1728C36.5877 20.7947 36.4376 20.341 36.2123 19.8117L36.1372 19.4337C36.0622 19.2824 36.1372 19.1312 36.2874 19.0556L36.7379 18.8288C36.813 18.8288 36.8881 18.8288 36.9631 18.8288C37.0382 18.8288 37.1133 18.9044 37.1133 18.98L37.5638 20.0386C38.0143 21.0216 38.0894 21.8533 37.789 22.6851C37.4887 23.4412 36.8881 24.0462 35.912 24.4998C35.4615 24.6511 35.011 24.8023 34.4854 24.8023ZM29.6802 9.37696C29.6051 9.37696 29.6051 9.37696 29.6802 9.37696C29.6051 9.37696 29.5301 9.37696 29.5301 9.45258L29.3048 9.52819C28.7792 9.75504 28.4038 10.1331 28.0284 10.5868C27.8032 10.8893 27.653 11.2673 27.653 11.6454C27.5779 12.0235 27.5779 12.4772 27.7281 12.8552C27.8783 13.4601 28.1035 14.1407 28.4038 14.8968C28.7042 15.7286 29.1546 16.7116 29.6802 17.9214L30.7314 20.2654C31.0317 20.946 31.332 21.4753 31.5573 21.929C31.7825 22.3826 32.0077 22.7607 32.233 23.0632C32.4582 23.3656 32.6835 23.5925 32.9838 23.7437C33.4343 24.0462 33.8848 24.1218 34.3353 24.1974C34.5605 24.1974 34.7858 24.1974 35.011 24.1218C34.7107 24.1218 34.4104 24.0462 34.035 23.8949C33.5094 23.5925 33.0589 23.0632 32.6835 22.0802C32.4582 21.4753 32.0828 20.7947 31.7825 19.963C31.4071 19.1312 31.0317 18.2995 30.6563 17.3921C30.2809 16.5603 29.9055 15.7286 29.5301 14.8968C29.1546 14.0651 28.8543 13.3845 28.6291 12.7796C28.4038 12.3259 28.3287 11.9479 28.2537 11.5698C28.1786 11.1917 28.1786 10.8893 28.2537 10.5868C28.3287 10.2843 28.4789 10.0575 28.6291 9.83065C28.7792 9.67942 29.0045 9.45258 29.2297 9.37696C29.3799 9.45258 29.5301 9.45258 29.6802 9.37696ZM36.9631 20.0386C37.1133 20.4923 37.2635 20.8703 37.2635 21.2484C37.3385 21.7021 37.2635 22.0802 37.1884 22.4583C37.0382 22.8363 36.8881 23.1388 36.5877 23.3656C36.8881 23.1388 37.1133 22.7607 37.2635 22.4583C37.4887 21.7777 37.4136 21.0972 37.1133 20.2654L36.9631 20.0386ZM30.356 9.22574C30.5812 9.22574 30.8064 9.22574 31.0317 9.30135C31.2569 9.37696 31.4822 9.45258 31.6323 9.60381C31.7825 9.67942 31.9327 9.75504 31.9327 9.83065C32.1579 9.98188 32.3832 10.2087 32.5333 10.4356C32.6835 10.6624 32.8336 10.8893 32.9087 11.0405C32.9838 11.1917 33.0589 11.2673 33.134 11.4186L31.7825 8.39398H31.7074C31.7825 8.69644 31.7074 8.92328 31.5573 8.99889C31.4822 9.07451 31.332 9.22574 31.1068 9.22574H30.5061C30.5061 9.22574 30.431 9.22574 30.356 9.22574ZM29.6802 9.30135C29.6802 9.37696 29.6802 9.37696 29.6802 9.30135C29.6802 9.30135 29.7553 9.30135 29.8304 9.30135C29.8304 9.30135 29.7553 9.30135 29.6802 9.30135C29.7553 9.30135 29.7553 9.30135 29.6802 9.30135Z" fill="#737373"/>
<path d="M50.9274 17.6187C51.0025 17.8455 51.1527 17.9211 51.2278 17.9968C51.3779 18.0724 51.453 18.0724 51.6032 18.0724C51.7533 18.0724 51.8284 17.9968 51.9786 17.9968L52.1288 18.5261L48.9002 19.4334L48.7501 18.9041C48.9002 18.9041 48.9753 18.8285 49.1255 18.8285C49.2006 18.7529 49.2757 18.6773 49.2757 18.6017C49.2757 18.5261 49.2757 18.3748 49.2006 18.148C49.2006 18.148 49.0504 17.8455 48.9002 17.3918C48.675 16.9382 48.3747 16.3332 48.0743 15.5015L45.2963 16.2576C45.3714 17.0894 45.4465 17.7699 45.5216 18.2992C45.5967 18.8285 45.5967 19.0554 45.5967 19.131C45.5967 19.3578 45.6717 19.509 45.7468 19.5847C45.8219 19.6603 45.897 19.7359 45.9721 19.7359C46.0471 19.7359 46.1973 19.7359 46.3475 19.6603L46.4976 20.1896L44.3953 20.7945L44.2452 20.2652C44.3953 20.2652 44.5455 20.1896 44.6206 20.1896C44.6957 20.114 44.8458 20.0383 44.9209 19.9627C44.996 19.8115 44.996 19.6603 44.996 19.4334C44.996 19.4334 44.996 19.2066 44.9209 18.7529C44.8458 18.2992 44.8458 17.7699 44.7708 17.0138C44.6957 16.3332 44.6206 15.5015 44.5455 14.5941C44.4704 13.6867 44.3953 12.7794 44.3203 11.7964L43.6445 4.23494L44.6206 3.78125C45.7468 6.35214 46.798 8.62057 47.774 10.6622C48.1494 11.4939 48.5248 12.4013 48.9002 13.233C49.2757 14.0648 49.576 14.8209 49.8763 15.4259C50.1766 16.1064 50.4019 16.6357 50.6271 17.0138C50.8524 17.3918 50.9274 17.5431 50.9274 17.6187ZM45.2212 15.6527L47.8491 14.8966C47.6239 14.2916 47.3235 13.6867 47.0232 13.0818C46.7229 12.4013 46.4226 11.7964 46.1222 11.1158C45.8219 10.4353 45.5216 9.8304 45.2212 9.14987C44.9209 8.54496 44.6957 7.94004 44.3953 7.41074C44.4704 8.01566 44.4704 8.62057 44.5455 9.3011C44.6206 9.98163 44.6957 10.7378 44.7708 11.4183C44.8458 12.1744 44.9209 12.855 44.996 13.6111C45.0711 14.3673 45.1462 15.0478 45.2212 15.6527Z" fill="#737373"/>
<path d="M44.3198 20.946C44.2447 20.946 44.2447 20.946 44.1696 20.946C44.0946 20.946 44.0946 20.8704 44.0195 20.7948L43.8693 20.2655C43.8693 20.1898 43.8693 20.1142 43.9444 20.0386C44.0195 19.963 44.0946 19.963 44.1696 19.963C44.2447 19.963 44.3949 19.963 44.47 19.8874C44.5451 19.8874 44.6201 19.8118 44.6201 19.7362C44.6201 19.7362 44.6952 19.5849 44.6952 19.3581C44.6952 19.3581 44.6952 19.4337 44.6201 18.6776C44.5451 18.2239 44.5451 17.6946 44.47 16.9384C44.3949 16.2579 44.3198 15.4261 44.2447 14.5188C44.1696 13.6114 44.0946 12.704 44.0195 11.721L43.3438 4.1596C43.3438 4.00837 43.4188 3.93276 43.569 3.85715L44.6952 3.55469C44.8454 3.55469 44.9205 3.55469 44.9955 3.70592C46.1218 6.2768 47.1729 8.54524 48.149 10.5868C48.5244 11.4186 48.8998 12.326 49.2752 13.1577C49.6506 13.9895 49.9509 14.7456 50.2513 15.3505C50.5516 16.0311 50.7768 16.5604 51.0021 16.9384C51.2273 17.3921 51.3024 17.5433 51.3024 17.5433C51.3775 17.6946 51.4526 17.7702 51.4526 17.7702C51.5276 17.8458 51.6027 17.8458 51.6778 17.8458C51.7529 17.8458 51.828 17.8458 51.9781 17.7702C52.0532 17.7702 52.1283 17.6946 52.2034 17.7702C52.2785 17.7702 52.3535 17.8458 52.3535 17.9214L52.5037 18.4507C52.5037 18.5263 52.5037 18.6019 52.5037 18.6776C52.5037 18.7532 52.4286 18.7532 52.3535 18.8288L49.05 19.6605C48.9749 19.6605 48.8998 19.6605 48.8247 19.6605C48.7496 19.6605 48.7496 19.5849 48.6745 19.5093L48.5244 18.9044C48.5244 18.8288 48.5244 18.7532 48.5995 18.6776C48.6745 18.6019 48.7496 18.6019 48.8247 18.6019C48.8998 18.6019 48.9749 18.6019 49.05 18.5263C49.05 18.5263 49.05 18.5263 49.05 18.4507C49.05 18.4507 49.05 18.3751 48.9749 18.2239C48.9749 18.1483 48.8247 17.9214 48.6745 17.4677C48.4493 17.014 48.2241 16.4847 47.9237 15.8042L45.5962 16.4847C45.6713 17.2409 45.7464 17.8458 45.7464 18.2995C45.8214 18.7532 45.8214 19.0556 45.8214 19.0556C45.8214 19.2825 45.8965 19.3581 45.8965 19.3581L45.9716 19.4337C45.9716 19.4337 46.0467 19.4337 46.1969 19.3581C46.2719 19.3581 46.347 19.2825 46.4221 19.3581C46.4972 19.3581 46.5723 19.4337 46.5723 19.5093L46.7224 20.0386C46.7975 20.1898 46.6473 20.3411 46.5723 20.3411L44.3198 20.946C44.3949 20.946 44.3949 20.946 44.3198 20.946ZM44.5451 20.3411L46.1218 19.8874C46.0467 19.8874 45.9716 19.8874 45.9716 19.8874C45.8214 19.8874 45.6713 19.8118 45.5962 19.6605C45.446 19.5093 45.371 19.3581 45.371 19.0556C45.371 19.0556 45.371 19.0556 45.2959 18.2239C45.2208 17.6946 45.1457 17.014 45.0706 16.1823C45.0706 16.0311 45.1457 15.9554 45.2959 15.8798L48.0739 15.1237C48.2241 15.1237 48.2991 15.1237 48.3742 15.2749C48.7496 16.0311 48.9749 16.636 49.2001 17.0897C49.5004 17.8458 49.5755 17.8458 49.5755 17.8458C49.6506 18.0726 49.7257 18.2995 49.6506 18.4507C49.5755 18.6019 49.5004 18.7532 49.4254 18.8288C49.3503 18.8288 49.2752 18.9044 49.2752 18.9044L51.9781 18.1483C51.9031 18.1483 51.828 18.1483 51.7529 18.1483C51.6027 18.1483 51.4526 18.1483 51.2273 17.997C51.0772 17.9214 50.927 17.7702 50.7768 17.4677C50.7768 17.3921 50.6267 17.2409 50.4765 16.8628C50.2513 16.4847 50.026 15.9554 49.7257 15.2749C49.4254 14.5944 49.125 13.9139 48.7496 13.0821C48.3742 12.2503 47.9988 11.4186 47.6234 10.5112C46.7224 8.54524 45.7464 6.35242 44.6201 3.85715L43.9444 4.08399L44.6201 11.4186C44.6952 12.4016 44.7703 13.3089 44.8454 14.2163C44.9205 15.1237 44.9955 15.9554 45.0706 16.636C45.1457 17.3165 45.2208 17.9214 45.2208 18.3751C45.2959 18.7532 45.2959 18.98 45.2959 19.0556C45.2959 19.3581 45.2959 19.5849 45.1457 19.7362C45.0706 19.8874 44.9205 20.0386 44.7703 20.1142C44.6201 20.3411 44.5451 20.3411 44.5451 20.3411ZM45.2208 15.9554C45.1457 15.9554 45.1457 15.9554 45.0706 15.8798C44.9955 15.8042 44.9955 15.7286 44.9205 15.653L44.6952 13.6114C44.6201 12.8553 44.5451 12.1747 44.47 11.4186L44.2447 9.30138C44.1696 8.62085 44.0946 7.94032 44.0946 7.41102C44.0946 7.25979 44.1697 7.18418 44.3198 7.10856C44.47 7.10856 44.5451 7.10856 44.6201 7.25979C44.8454 7.78909 45.1457 8.39401 45.446 8.99892C45.7464 9.60384 46.0467 10.2844 46.347 10.9649L47.248 12.9309C47.5483 13.6114 47.8486 14.2163 48.0739 14.7456C48.0739 14.8212 48.0739 14.8968 48.0739 14.9725C48.0739 15.0481 47.9988 15.1237 47.9237 15.1237L45.2208 15.9554ZM44.7703 8.84769C44.7703 8.99892 44.7703 9.15015 44.8454 9.30138L45.0706 11.4186C45.1457 12.1747 45.2208 12.8553 45.2959 13.6114L45.446 15.3505L47.4732 14.7456C47.248 14.2163 47.0228 13.7626 46.7975 13.1577L45.8965 11.1917C45.5962 10.5112 45.2959 9.90629 44.9955 9.22576C44.9205 9.15015 44.8454 8.99892 44.7703 8.84769Z" fill="#737373"/>
<path d="M65.6439 0.830082C65.4938 0.830082 65.4187 0.830082 65.3436 0.830082C65.2685 0.830082 65.2685 0.905696 65.1934 1.05692C65.1184 1.13254 65.1184 1.35938 65.1184 1.58623L66.3947 15.348C66.3947 15.5749 66.4698 15.7261 66.5449 15.8017C66.62 15.8773 66.6951 15.953 66.7702 15.953C66.8452 15.953 66.9954 15.953 67.0705 15.953L67.1456 16.5579L64.4426 16.7847L64.3675 16.1798C64.5177 16.1798 64.5928 16.1798 64.6679 16.1798C64.7429 16.1798 64.818 16.1042 64.8931 15.953C64.9682 15.8773 64.9682 15.7261 64.9682 15.4993L63.7669 3.0229C63.5416 4.6108 63.3164 6.04747 63.0912 7.33292C63.0161 7.86222 62.941 8.39152 62.8659 8.92082C62.7908 9.45012 62.7157 9.90381 62.6407 10.3575C62.5656 10.8112 62.4905 11.1136 62.4905 11.3405C62.4905 11.5673 62.4154 11.7186 62.4154 11.7942L61.4394 11.8698C61.2892 11.5673 61.139 11.1136 60.9889 10.7356C60.8387 10.2819 60.6885 9.82819 60.5384 9.37451C60.3882 8.92082 60.2381 8.46713 60.0128 8.01345C59.8626 7.55976 59.7125 7.10607 59.5623 6.65239C59.1869 5.59379 58.8115 4.53519 58.4361 3.47658L59.6374 15.8773C59.6374 16.1042 59.7125 16.2554 59.7876 16.331C59.8626 16.4066 59.9377 16.4823 60.0128 16.4823C60.0879 16.4823 60.238 16.4823 60.3131 16.4823L60.3882 17.0872L58.5112 17.2384L58.361 16.6335C58.5112 16.6335 58.5863 16.6335 58.6613 16.6335C58.7364 16.6335 58.8115 16.5579 58.8866 16.4066C58.9617 16.331 58.9617 16.1798 58.9617 15.953L57.6102 2.26675C57.6102 2.03991 57.5351 1.88868 57.46 1.81307C57.3849 1.73745 57.3099 1.66184 57.2348 1.66184C57.1597 1.66184 57.0846 1.66184 56.9345 1.66184L56.8594 1.13254L59.0367 0.905696L62.04 9.29889L63.3915 0.527624L65.4938 0.300781L65.6439 0.830082Z" fill="#737373"/>
<path d="M58.3597 17.5425C58.2095 17.5425 58.1344 17.4669 58.1344 17.3157L58.0594 16.7108C58.0594 16.6352 58.0594 16.5595 58.1344 16.4839C58.2095 16.4083 58.2846 16.4083 58.3597 16.4083C58.4348 16.4083 58.4348 16.4083 58.4348 16.4083C58.4348 16.4083 58.4348 16.4083 58.5099 16.4083C58.5099 16.4083 58.5099 16.4083 58.5849 16.3327C58.5849 16.3327 58.66 16.2571 58.5849 16.0302L57.3085 2.26843C57.3085 2.04159 57.2335 1.96597 57.2335 1.96597C57.1584 1.89036 57.1584 1.89036 57.1584 1.81474C57.1584 1.81474 57.1584 1.81474 57.0833 1.81474C57.0082 1.81474 56.9331 1.81474 56.8581 1.81474C56.783 1.73913 56.783 1.66352 56.7079 1.5879L56.6328 1.0586C56.6328 0.982987 56.6328 0.907372 56.7079 0.831758C56.783 0.756144 56.783 0.756144 56.8581 0.756144L59.0354 0.529301C59.1856 0.529301 59.2607 0.604915 59.3357 0.680529L62.0387 8.09074L63.24 0.302457C63.24 0.151229 63.3902 0.0756144 63.4652 0.0756144L65.5675 0C65.6426 0 65.7177 0 65.7928 0.0756144C65.8678 0.151229 65.8678 0.151229 65.8678 0.226843L65.9429 0.756144C65.9429 0.831758 65.9429 0.907372 65.8678 0.982987C65.7928 1.0586 65.7177 1.0586 65.6426 1.0586C65.5675 1.0586 65.4924 1.0586 65.4924 1.0586C65.4924 1.0586 65.4924 1.0586 65.4174 1.13422C65.4174 1.13422 65.3423 1.20983 65.4174 1.51229L66.6937 15.2741C66.6937 15.5009 66.7688 15.5766 66.7688 15.5766C66.7688 15.6522 66.8439 15.6522 66.8439 15.6522C66.919 15.6522 66.919 15.6522 66.9941 15.6522C67.0692 15.6522 67.1442 15.6522 67.2193 15.6522C67.2944 15.7278 67.3695 15.8034 67.3695 15.879L67.4446 16.4839C67.4446 16.5595 67.4446 16.6352 67.3695 16.7108C67.2944 16.7864 67.2944 16.7864 67.2193 16.7864L64.5164 17.0132C64.3662 17.0132 64.2161 16.9376 64.2161 16.7864L64.141 16.1815C64.141 16.1059 64.141 16.0302 64.2161 15.9546C64.2911 15.879 64.3662 15.879 64.4413 15.879C64.5164 15.879 64.5164 15.879 64.5164 15.879C64.5164 15.879 64.5164 15.879 64.5915 15.879C64.5915 15.879 64.5915 15.879 64.6665 15.8034C64.6665 15.8034 64.7416 15.7278 64.6665 15.5009L63.6905 5.14178C63.5403 5.89792 63.4652 6.65406 63.3151 7.33459C63.24 7.86389 63.1649 8.3932 63.0898 8.9225C63.0147 9.4518 62.9397 9.90548 62.8646 10.3592C62.7895 10.7372 62.7144 11.1153 62.7144 11.3422C62.7144 11.569 62.6393 11.7202 62.6393 11.7202C62.6393 11.7958 62.6393 11.8715 62.5643 11.8715C62.4892 11.9471 62.4892 11.9471 62.4141 11.9471L61.438 12.0227C61.2879 12.0227 61.2128 11.9471 61.1377 11.8715C60.9875 11.569 60.8374 11.1153 60.6872 10.7372C60.5371 10.2836 60.3869 9.82987 60.1616 9.37618L59.6361 8.01512C59.4859 7.56144 59.3357 7.10775 59.1856 6.65406C59.0354 6.27599 58.8853 5.89792 58.8102 5.51985L59.8613 15.879C59.8613 16.1059 59.9364 16.1815 59.9364 16.1815L60.0115 16.2571C60.0115 16.2571 60.0115 16.2571 60.0866 16.2571C60.1616 16.1815 60.2367 16.1815 60.3118 16.2571C60.3869 16.3327 60.462 16.4083 60.462 16.4839L60.5371 17.0888C60.5371 17.2401 60.462 17.3913 60.3118 17.3913L58.3597 17.5425C58.4348 17.5425 58.4348 17.5425 58.3597 17.5425ZM58.66 16.9376L60.0866 16.862V16.7864C60.0115 16.7864 60.0115 16.7864 59.9364 16.7864C59.8613 16.7864 59.7112 16.7108 59.561 16.5595C59.4859 16.4083 59.4108 16.2571 59.4108 15.9546L58.2095 3.47826C58.2095 3.32703 58.2846 3.25142 58.4348 3.1758C58.5849 3.1758 58.66 3.25142 58.7351 3.32703C59.1105 4.38563 59.4859 5.44423 59.8613 6.50284C60.0115 6.95652 60.1616 7.41021 60.3118 7.86389L60.8374 9.22495C60.9875 9.67864 61.1377 10.1323 61.2879 10.586C61.438 10.9641 61.5131 11.2665 61.6633 11.569L62.1888 11.4934C62.1888 11.4178 62.1888 11.3422 62.1888 11.2665C62.1888 11.0397 62.2639 10.6616 62.339 10.2079C62.4141 9.82987 62.4892 9.30057 62.5643 8.77127C62.6393 8.24197 62.7144 7.71267 62.7895 7.18336C63.0147 6.04915 63.24 4.53686 63.4652 2.94896C63.4652 2.79773 63.6154 2.72212 63.7656 2.72212C63.9157 2.72212 63.9908 2.79773 63.9908 2.94896L65.117 15.4253C65.117 15.7278 65.117 15.879 65.042 16.0302C64.9669 16.1815 64.8167 16.2571 64.7416 16.3327L64.6665 16.4083V16.4839L66.8439 16.2571C66.7688 16.2571 66.6937 16.2571 66.6937 16.1815C66.6187 16.1815 66.4685 16.1059 66.3934 15.9546C66.3183 15.8034 66.2433 15.6522 66.2433 15.3497L64.8918 1.5879C64.8918 1.28544 64.8918 1.13422 64.9669 0.982987C65.042 0.831758 65.117 0.756144 65.1921 0.680529C65.2672 0.680529 65.2672 0.604915 65.3423 0.604915L63.6905 0.756144L62.4141 9.30057C62.4141 9.4518 62.2639 9.52741 62.1888 9.52741C62.0387 9.52741 61.9636 9.4518 61.8885 9.37618L58.8853 1.20983L57.1584 1.28544C57.2335 1.28544 57.2335 1.28544 57.3085 1.28544C57.3836 1.28544 57.5338 1.43667 57.684 1.51229C57.8341 1.66352 57.8341 1.81474 57.9092 2.1172L59.1856 15.879C59.1856 16.1815 59.1856 16.3327 59.1105 16.4839C59.0354 16.6352 58.9603 16.7108 58.8102 16.7864C58.7351 16.9376 58.66 16.9376 58.66 16.9376Z" fill="#737373"/>
<path d="M80.1376 14.8173L79.9123 17.1614L73.6055 16.6321L73.6805 16.0272C73.8307 16.1028 73.9058 16.1028 73.9809 16.0272C74.056 16.0272 74.131 15.9516 74.2061 15.8759C74.2812 15.8003 74.3563 15.6491 74.3563 15.4223L75.7078 1.66044C75.7078 1.4336 75.7078 1.28237 75.6327 1.13114C75.5576 1.05553 75.4825 0.979915 75.4074 0.904301C75.3323 0.904301 75.2573 0.828686 75.1071 0.904301L75.1822 0.375L81.489 0.979915L81.1887 3.39957L80.5881 3.32396C80.5881 2.94589 80.5881 2.64343 80.513 2.41659C80.4379 2.18974 80.3628 1.9629 80.2126 1.73606C80.0625 1.50922 79.8372 1.35799 79.5369 1.35799L77.2094 1.13114L76.4586 8.46574L78.0353 8.61696C78.2605 8.61696 78.4107 8.61696 78.4858 8.46574C78.6359 8.39012 78.711 8.23889 78.711 8.16328C78.7861 8.01205 78.8612 7.78521 78.8612 7.63398L79.3868 7.70959L79.0864 10.5073L78.5609 10.4317C78.5609 10.2049 78.5609 10.0536 78.5609 9.90241C78.5609 9.75118 78.4858 9.59995 78.4107 9.44872C78.3356 9.29749 78.1854 9.22188 77.9602 9.22188L76.3835 9.07065L75.7078 16.3296L78.0353 16.5565C78.3356 16.5565 78.5609 16.4809 78.7861 16.3296C79.0113 16.1784 79.0864 15.9516 79.2366 15.7247C79.3117 15.4223 79.3867 15.1198 79.4618 14.8173H80.1376Z" fill="#737373"/>
<path d="M79.8368 17.4655L73.5299 16.8606C73.3798 16.8606 73.3047 16.7094 73.3047 16.5581L73.3798 15.9532C73.3798 15.8776 73.4549 15.802 73.5299 15.7264C73.605 15.6508 73.6801 15.6508 73.7552 15.7264C73.8303 15.7264 73.8303 15.7264 73.8303 15.7264C73.8303 15.7264 73.8303 15.7264 73.9053 15.7264C73.9053 15.7264 73.9053 15.7264 73.9804 15.6508C73.9804 15.6508 74.0555 15.5752 74.0555 15.3483L75.407 1.58651C75.407 1.35966 75.407 1.28405 75.407 1.20843C75.3319 1.13282 75.3319 1.13282 75.3319 1.13282C75.3319 1.13282 75.3319 1.13282 75.2568 1.13282C75.1817 1.13282 75.1066 1.13282 75.0316 1.05721C74.9565 0.981591 74.9565 0.905977 74.9565 0.830362L75.0316 0.301062C75.0316 0.225447 75.1066 0.149833 75.1066 0.149833C75.1817 0.0742188 75.2568 0.0742188 75.3319 0.0742188L81.6387 0.679134C81.7889 0.679134 81.864 0.830362 81.864 0.981591L81.6387 3.32564C81.6387 3.47687 81.4886 3.55248 81.3384 3.55248L80.7378 3.47687C80.5876 3.47687 80.5125 3.32564 80.5125 3.17441C80.5125 2.87195 80.5125 2.56949 80.4374 2.26704C80.3624 2.11581 80.2873 1.88896 80.1371 1.66212C80.062 1.51089 79.8368 1.43528 79.6115 1.43528L77.5093 1.20843L76.8335 8.01373L78.1099 8.16496C78.2601 8.16496 78.3352 8.16496 78.4102 8.08934C78.4853 8.01373 78.5604 7.93811 78.5604 7.8625C78.6355 7.71127 78.6355 7.56004 78.7106 7.40881C78.7106 7.3332 78.7856 7.25758 78.7856 7.25758C78.8607 7.18197 78.9358 7.18197 79.0109 7.18197L79.5365 7.25758C79.6115 7.25758 79.6866 7.3332 79.6866 7.3332C79.7617 7.40881 79.7617 7.48443 79.7617 7.56004L79.4614 10.3578C79.4614 10.509 79.3112 10.5846 79.1611 10.5846L78.6355 10.509C78.5604 10.509 78.4853 10.4334 78.4853 10.4334C78.4102 10.3578 78.4102 10.2822 78.4102 10.2065C78.4102 10.0553 78.4102 9.90409 78.4102 9.75286C78.4102 9.60163 78.3352 9.52601 78.2601 9.4504C78.2601 9.4504 78.185 9.37478 78.0348 9.37478L76.7584 9.22356L76.0827 15.9532L78.185 16.1801C78.4102 16.1801 78.5604 16.1801 78.7106 16.0288C78.8607 15.8776 79.0109 15.7264 79.086 15.4995C79.1611 15.2727 79.2361 14.9702 79.3112 14.6678C79.3112 14.5166 79.4614 14.4409 79.6115 14.4409L80.2122 14.5166C80.3624 14.5166 80.4374 14.6678 80.4374 14.819L80.2122 17.1631C80.2122 17.2387 80.1371 17.3143 80.1371 17.3143C79.987 17.4655 79.9119 17.4655 79.8368 17.4655ZM73.9053 16.3313L79.6866 16.9362L79.8368 15.1215H79.7617C79.6866 15.4239 79.6115 15.6508 79.5365 15.8776C79.3863 16.1801 79.2361 16.4069 79.0109 16.5581C78.7856 16.785 78.4853 16.8606 78.1099 16.785L75.7824 16.5581C75.6322 16.5581 75.5571 16.4069 75.5571 16.2557L76.2329 8.99671C76.2329 8.9211 76.308 8.84548 76.308 8.84548C76.383 8.76987 76.4581 8.76987 76.5332 8.76987L78.1099 8.9211C78.4102 8.9211 78.5604 9.07233 78.7106 9.22356C78.8607 9.37479 78.9358 9.52601 78.9358 9.75286C78.9358 9.82847 79.0109 9.9797 79.0109 10.1309L79.2361 7.8625C79.2361 8.01373 79.1611 8.16496 79.086 8.24057C79.0109 8.3918 78.9358 8.54303 78.7856 8.69426C78.6355 8.84548 78.4102 8.9211 78.1099 8.84548L76.5332 8.69426C76.383 8.69426 76.308 8.54303 76.308 8.3918L77.0588 1.05721C77.0588 0.981591 77.1338 0.905977 77.2089 0.830362L75.4821 0.679134C75.5571 0.679134 75.5571 0.679134 75.6322 0.754748C75.7073 0.830362 75.8575 0.905977 75.9325 1.05721C76.0076 1.20843 76.0827 1.43528 76.0076 1.73773L74.6562 15.4995C74.6562 15.802 74.5811 15.9532 74.4309 16.1045C74.3558 16.2557 74.2057 16.3313 74.0555 16.3313C73.9804 16.3313 73.9053 16.3313 73.9053 16.3313ZM80.8879 3.09879H80.963L81.1132 1.28405L79.8368 1.13282C80.062 1.20843 80.2873 1.35966 80.4374 1.58651C80.5876 1.81335 80.7378 2.11581 80.8128 2.34265C80.8879 2.56949 80.8879 2.79634 80.8879 3.09879Z" fill="#737373"/>
<path d="M92.8984 19.6592C92.9735 19.6592 93.0486 19.6592 93.1237 19.6592C93.1988 19.6592 93.2738 19.6592 93.3489 19.5835L93.1988 20.0372C93.1237 20.1128 92.9735 20.1128 92.8233 20.1885C92.6732 20.1885 92.523 20.1885 92.2978 20.1128C92.0725 20.0372 91.9224 19.9616 91.7722 19.886C91.622 19.7348 91.4719 19.5835 91.3217 19.3567C91.1715 19.1299 91.0965 18.903 91.0965 18.6006C91.0214 18.2981 91.0965 17.9956 91.1716 17.6176L92.1476 13.9881C92.2227 13.6856 92.2227 13.3832 92.2227 13.1563C92.2227 12.9295 92.1476 12.7783 91.9974 12.627C91.9224 12.4758 91.7722 12.4002 91.622 12.3246C91.4719 12.249 91.3217 12.1733 91.1716 12.0977L90.2706 11.8709L88.7689 17.6176C88.6939 17.8444 88.6939 17.9956 88.7689 18.0713C88.7689 18.1469 88.844 18.2225 88.9191 18.2981C88.9942 18.3737 89.0693 18.3737 89.2194 18.3737L89.0693 18.9786L86.4414 18.2981L86.5916 17.6932C86.6666 17.7688 86.7417 17.7688 86.8168 17.7688C86.8919 17.7688 86.967 17.7688 87.0421 17.6932C87.1171 17.6176 87.1922 17.4663 87.2673 17.2395L90.7961 3.85576C90.8712 3.62891 90.8712 3.47768 90.7961 3.40207C90.7211 3.25084 90.7211 3.17523 90.646 3.17523C90.5709 3.17523 90.4958 3.09961 90.4207 3.09961L90.5709 2.57031L93.7243 3.40207C94.2499 3.5533 94.7004 3.78014 95.0758 4.0826C95.4512 4.38506 95.7515 4.68751 95.9017 5.06559C96.1269 5.44366 96.202 5.82173 96.2771 6.27542C96.3522 6.7291 96.2771 7.10717 96.202 7.48525L95.6014 9.90491C95.4512 10.5098 95.1509 10.9635 94.7004 11.4928C94.2499 11.9465 93.7243 12.249 93.0486 12.3246C93.7994 12.8539 94.0247 13.61 93.7994 14.593L92.8984 18.1469C92.8233 18.5249 92.7483 18.8274 92.7483 19.1299C92.4479 19.4323 92.5981 19.5835 92.8984 19.6592ZM92.3729 3.70453L90.4207 11.3416L91.622 11.644C91.7722 11.644 91.9224 11.644 92.1476 11.644C92.3729 11.644 92.523 11.5684 92.7483 11.4172C92.9735 11.266 93.1987 11.1147 93.3489 10.8879C93.5742 10.661 93.7243 10.3586 93.7994 9.98052L94.7004 6.65349C94.7755 6.27542 94.8505 5.97296 94.7755 5.6705C94.7004 5.36804 94.6253 5.06559 94.5502 4.91436C94.4001 4.68751 94.325 4.53629 94.0997 4.38506C93.9496 4.23383 93.7994 4.15821 93.6492 4.15821L92.3729 3.70453Z" fill="#737373"/>
<path d="M92.674 20.4924C92.5238 20.4924 92.3737 20.4924 92.2235 20.4168C91.9982 20.3412 91.773 20.2656 91.6228 20.1144C91.3976 19.9631 91.2474 19.8119 91.0973 19.5095C90.9471 19.2826 90.872 18.9802 90.7969 18.6777C90.7219 18.3752 90.7969 17.9972 90.872 17.5435L91.8481 13.914C91.9232 13.6115 91.9232 13.3847 91.9232 13.2335C91.9232 13.0822 91.8481 12.931 91.773 12.7798C91.6979 12.7042 91.5478 12.5529 91.4727 12.5529C91.3225 12.4773 91.1723 12.4017 91.0973 12.4017L90.4966 12.2505L89.0701 17.7703C88.995 17.9972 88.995 18.0728 89.0701 18.0728C89.0701 18.1484 89.0701 18.1484 89.0701 18.1484H89.1451C89.2202 18.1484 89.2953 18.1484 89.3704 18.224C89.4455 18.2996 89.4455 18.3752 89.4455 18.4508L89.2953 19.0558C89.2953 19.207 89.1451 19.2826 88.995 19.207L86.3671 18.5265C86.292 18.5265 86.217 18.4508 86.217 18.3752C86.217 18.2996 86.1419 18.224 86.217 18.1484L86.3671 17.5435C86.3671 17.4679 86.4422 17.3922 86.5173 17.3922C86.5924 17.3922 86.6675 17.3922 86.7425 17.4679C86.7425 17.4679 86.8176 17.4679 86.8927 17.4679C86.8927 17.4679 86.8927 17.4679 86.9678 17.3922C86.9678 17.3922 87.0429 17.3166 87.1179 17.0898L90.6468 3.70605C90.7219 3.47921 90.7219 3.40359 90.6468 3.40359C90.6468 3.32798 90.5717 3.25236 90.5717 3.25236C90.5717 3.25236 90.4966 3.25236 90.4215 3.25236C90.3465 3.25236 90.2714 3.17675 90.2714 3.10113C90.1963 3.02552 90.1963 2.94991 90.2714 2.87429L90.4215 2.34499C90.4215 2.26938 90.4966 2.19376 90.5717 2.19376C90.6468 2.19376 90.7219 2.11815 90.7969 2.19376L93.9504 3.02552C94.551 3.17675 95.0015 3.40359 95.3769 3.70605C95.7523 4.00851 96.0527 4.38658 96.2779 4.76465C96.5031 5.14272 96.6533 5.59641 96.6533 6.0501C96.7284 6.50378 96.6533 6.95747 96.5031 7.41115L95.9025 9.83081C95.7523 10.4357 95.452 11.0406 94.9264 11.4943C94.551 11.8724 94.1005 12.1749 93.65 12.3261C94.1756 12.931 94.3258 13.6115 94.1005 14.5189L93.1996 18.0728C93.1245 18.4508 93.0494 18.7533 93.0494 19.0558C93.0494 19.207 93.0494 19.2826 93.2746 19.2826C93.3497 19.2826 93.4248 19.2826 93.4248 19.2826L93.65 19.207C93.7251 19.207 93.8002 19.207 93.8753 19.2826C93.9504 19.3582 93.9504 19.4338 93.9504 19.5095L93.8002 19.9631C93.8002 20.0388 93.7251 20.1144 93.65 20.1144C93.4999 20.19 93.3497 20.19 93.1996 20.2656C92.8241 20.4924 92.7491 20.4924 92.674 20.4924ZM90.1963 11.7212C90.2714 11.7212 90.2714 11.7212 90.1963 11.7212L91.1724 11.948C91.3225 12.0236 91.4727 12.0992 91.6228 12.1749C91.773 12.2505 91.9983 12.4017 92.0733 12.5529C92.2235 12.7042 92.2986 12.931 92.3737 13.2335C92.4487 13.4603 92.3737 13.7628 92.2986 14.1408L91.3225 17.7703C91.2474 18.1484 91.2474 18.4509 91.2474 18.6777C91.2474 18.9045 91.3225 19.1314 91.4727 19.2826C91.5478 19.4338 91.6979 19.5851 91.8481 19.6607C91.9982 19.7363 92.1484 19.8119 92.2986 19.8875C92.4487 19.9631 92.5989 19.9631 92.7491 19.8875C92.8241 19.8875 92.8992 19.8875 92.8992 19.8119C92.8241 19.8119 92.8241 19.8119 92.7491 19.8119C92.3737 19.7363 92.1484 19.4338 92.1484 18.9802C92.1484 18.6777 92.2235 18.2996 92.3737 17.9215L93.2746 14.3677C93.4999 13.5359 93.2746 12.8554 92.5989 12.4017C92.5238 12.3261 92.4487 12.2505 92.5238 12.0992C92.5238 12.0236 92.5989 11.948 92.7491 11.8724C93.3497 11.7968 93.8753 11.4943 94.2507 11.1163C94.6261 10.6626 94.9264 10.2089 95.0766 9.67958L95.6773 7.25993C95.7523 6.88185 95.8274 6.50378 95.7523 6.12571C95.7523 5.74764 95.6022 5.36957 95.452 5.06711C95.3018 4.76465 95.0015 4.46219 94.7012 4.15974C94.4009 3.85728 93.9504 3.70605 93.4248 3.55482L90.5717 2.79868C90.5717 2.79868 90.5717 2.79868 90.6468 2.79868C90.7969 2.87429 90.872 3.02552 90.9471 3.17675C91.0222 3.32798 91.0222 3.55482 90.9471 3.78166L87.4934 17.3922C87.4183 17.6191 87.3432 17.8459 87.193 17.9215C87.0429 17.9972 86.9678 18.0728 86.8176 18.0728H86.7425V18.1484L88.8448 18.6777C88.7697 18.6777 88.7697 18.6021 88.6947 18.6021C88.6196 18.6021 88.5445 18.4509 88.4694 18.2996C88.3943 18.1484 88.3943 17.9215 88.4694 17.6947L89.971 11.948C90.0461 11.7968 90.1212 11.7212 90.1963 11.7212ZM91.773 11.948C91.6979 11.948 91.5478 11.948 91.4727 11.948L90.2714 11.6456C90.1963 11.6456 90.1212 11.5699 90.1212 11.4943C90.1212 11.4187 90.0461 11.3431 90.1212 11.2675L92.1484 3.63044C92.1484 3.47921 92.2986 3.40359 92.4487 3.47921L93.65 3.78166C93.8002 3.85728 94.0255 3.93289 94.1756 4.08412C94.3258 4.23535 94.551 4.46219 94.6261 4.68904C94.7763 4.91588 94.8514 5.21834 94.9264 5.59641C95.0015 5.97448 94.9264 6.27694 94.8513 6.73062L93.9504 10.0577C93.8753 10.4357 93.65 10.8138 93.4248 11.1163C93.1996 11.3431 92.9743 11.5699 92.7491 11.7212C92.5238 11.8724 92.2986 11.948 91.9983 12.0236C91.9983 11.948 91.9232 11.948 91.773 11.948ZM90.7219 11.1919L91.6228 11.4187C91.6979 11.4187 91.773 11.4187 91.9983 11.4187C92.1484 11.4187 92.3737 11.3431 92.5238 11.1919C92.674 11.1163 92.8992 10.8894 93.0494 10.7382C93.1996 10.5113 93.3497 10.2845 93.4248 9.90643L94.3258 6.5794C94.4009 6.27694 94.4009 5.97448 94.4009 5.67202C94.3258 5.36957 94.2507 5.14272 94.1756 4.99149C94.1005 4.76465 93.9504 4.61342 93.8002 4.53781C93.65 4.38658 93.4999 4.38658 93.4999 4.31096L92.5989 4.08412L90.7219 11.1919Z" fill="#737373"/>
<path d="M106.336 24.1215C106.261 24.3483 106.261 24.4995 106.336 24.6508C106.411 24.802 106.486 24.8776 106.561 24.9532C106.636 25.0289 106.786 25.1045 106.937 25.1045L106.711 25.6338L103.633 24.2727L103.858 23.7434C103.933 23.819 104.083 23.8946 104.159 23.8946C104.234 23.8946 104.309 23.8946 104.384 23.819C104.459 23.7434 104.534 23.5922 104.609 23.4409C104.609 23.4409 104.684 23.1385 104.834 22.6848C104.984 22.1555 105.135 21.5506 105.36 20.7188L102.732 19.5846C102.281 20.2651 101.906 20.8701 101.606 21.3237C101.305 21.7774 101.155 22.0043 101.155 22.0043C101.005 22.1555 101.005 22.3067 101.005 22.458C101.005 22.5336 101.08 22.6092 101.08 22.6848C101.155 22.7604 101.23 22.7604 101.38 22.836L101.155 23.3653L99.2031 22.458L99.4284 21.9287C99.5035 22.0043 99.6536 22.0799 99.8038 22.0799C99.9539 22.0799 100.029 22.0799 100.179 22.0799C100.329 22.0043 100.404 21.9287 100.555 21.7774C100.555 21.7774 100.705 21.5506 100.93 21.1725C101.155 20.7944 101.456 20.3408 101.906 19.7358C102.281 19.1309 102.732 18.4504 103.258 17.6943C103.783 16.9381 104.309 16.182 104.834 15.3502L109.039 9.07422L110.09 9.52791C109.414 12.25 108.738 14.6697 108.213 16.7869C107.988 17.6943 107.762 18.6016 107.537 19.509C107.312 20.4164 107.087 21.1725 106.937 21.853C106.786 22.5336 106.636 23.1385 106.486 23.5166C106.411 23.8946 106.336 24.1215 106.336 24.1215ZM103.107 18.9797L105.585 20.1139C105.735 19.509 105.885 18.8285 106.111 18.1479C106.261 17.4674 106.486 16.7113 106.636 16.0307C106.786 15.3502 107.012 14.6697 107.162 13.9892C107.312 13.3086 107.462 12.7037 107.612 12.0988C107.237 12.5525 106.937 13.0818 106.561 13.6867C106.186 14.2916 105.81 14.8209 105.36 15.5014C104.984 16.1064 104.534 16.7113 104.159 17.3162C103.858 17.8455 103.483 18.4504 103.107 18.9797Z" fill="#737373"/>
<path d="M106.713 25.861H106.638L103.56 24.4999C103.409 24.4243 103.334 24.2731 103.409 24.1218L103.635 23.5925C103.635 23.5169 103.71 23.4413 103.785 23.4413C103.86 23.4413 103.935 23.4413 104.01 23.5169C104.085 23.5925 104.16 23.5925 104.235 23.5925C104.235 23.5925 104.235 23.5925 104.31 23.5169C104.31 23.5169 104.385 23.4413 104.385 23.2901C104.385 23.2145 104.46 22.9876 104.611 22.5339C104.761 22.0802 104.911 21.4753 105.061 20.7948L102.809 19.8118C102.433 20.4167 102.058 20.946 101.833 21.3241C101.607 21.7022 101.457 21.929 101.382 22.0046C101.232 22.2315 101.232 22.3071 101.232 22.3071C101.232 22.3827 101.232 22.3827 101.232 22.3827C101.232 22.3827 101.307 22.4583 101.457 22.4583C101.532 22.4583 101.607 22.5339 101.607 22.6095C101.607 22.6852 101.682 22.7608 101.607 22.8364L101.382 23.3657C101.382 23.4413 101.307 23.5169 101.232 23.5169C101.157 23.5169 101.082 23.5169 101.007 23.5169L99.0546 22.6095C98.9045 22.5339 98.8294 22.3827 98.9045 22.2315L99.1297 21.7022C99.1297 21.6266 99.2048 21.5509 99.2799 21.5509C99.3549 21.5509 99.43 21.5509 99.5051 21.6266C99.5802 21.7022 99.6553 21.7022 99.8054 21.7778C99.8805 21.7778 99.9556 21.7778 100.031 21.7778C100.106 21.7778 100.181 21.7022 100.256 21.5509C100.256 21.5509 100.256 21.5509 100.631 21.0216C100.857 20.6436 101.157 20.1899 101.607 19.585C101.983 18.9801 102.433 18.2995 102.959 17.5434C103.484 16.7872 104.01 16.0311 104.536 15.1993L108.74 8.92334C108.815 8.84773 108.965 8.77211 109.04 8.84773L110.092 9.30141C110.242 9.37703 110.242 9.45264 110.242 9.60387C109.566 12.326 108.89 14.7456 108.365 16.8628C108.139 17.7702 107.914 18.6776 107.689 19.585C107.464 20.4923 107.239 21.2485 107.088 21.929C106.938 22.6095 106.788 23.2145 106.638 23.5925C106.488 24.0462 106.488 24.1974 106.488 24.2731C106.413 24.4999 106.488 24.5755 106.488 24.5755C106.488 24.6511 106.563 24.7267 106.638 24.8024C106.713 24.878 106.788 24.878 106.938 24.9536C107.013 24.9536 107.088 25.0292 107.088 25.1048C107.088 25.1804 107.163 25.256 107.088 25.3317L106.863 25.861C106.863 25.9366 106.788 26.0122 106.713 26.0122C106.788 25.861 106.788 25.861 106.713 25.861ZM104.01 24.1218L106.563 25.256C106.488 25.256 106.413 25.1804 106.413 25.1804C106.262 25.1048 106.187 24.9536 106.112 24.8024C106.037 24.6511 106.037 24.4243 106.112 24.1218C106.112 24.0462 106.187 23.895 106.262 23.4413C106.338 22.9876 106.488 22.4583 106.713 21.7778C106.863 21.0973 107.088 20.2655 107.314 19.4337C107.539 18.5264 107.764 17.6946 107.989 16.7116C108.515 14.5944 109.116 12.2504 109.791 9.60387L109.116 9.30141L105.061 15.4262C104.536 16.2579 104.01 17.0141 103.484 17.7702C102.959 18.5264 102.508 19.2069 102.133 19.8118C101.758 20.4167 101.382 20.8704 101.157 21.2485C100.932 21.5509 100.781 21.7778 100.781 21.7778C100.631 22.0046 100.406 22.1559 100.256 22.2315C100.106 22.3071 99.9556 22.3071 99.7303 22.3071C99.6553 22.3071 99.5802 22.3071 99.5051 22.2315L101.007 22.912C100.932 22.912 100.932 22.8364 100.857 22.8364C100.781 22.7608 100.706 22.6095 100.631 22.4583C100.631 22.3071 100.706 22.0802 100.857 21.8534C100.857 21.8534 100.857 21.8534 101.307 21.1729C101.607 20.7192 101.983 20.1899 102.433 19.4337C102.508 19.3581 102.659 19.2825 102.734 19.3581L105.361 20.4923C105.512 20.568 105.512 20.6436 105.512 20.7948C105.286 21.6266 105.136 22.2315 104.986 22.7608C104.761 23.5169 104.761 23.5925 104.761 23.5925C104.686 23.8194 104.611 24.0462 104.46 24.1218C104.31 24.1974 104.16 24.2731 104.085 24.2731C104.16 24.1218 104.085 24.1218 104.01 24.1218ZM105.587 20.3411H105.512L103.034 19.2069C102.959 19.2069 102.884 19.1313 102.884 19.0557C102.884 18.9801 102.884 18.9044 102.884 18.8288L104.01 17.1653C104.385 16.5604 104.836 15.9555 105.211 15.3506L106.413 13.5358C106.788 12.9309 107.163 12.4016 107.464 11.9479C107.539 11.8723 107.689 11.7967 107.764 11.8723C107.914 11.9479 107.914 12.0235 107.914 12.1748C107.764 12.7041 107.614 13.3846 107.464 13.9895C107.314 14.67 107.088 15.3506 106.938 16.0311L106.413 18.1483C106.262 18.8288 106.037 19.5094 105.887 20.1143C105.887 20.1899 105.812 20.2655 105.737 20.2655C105.662 20.3411 105.662 20.3411 105.587 20.3411ZM103.484 18.8288L105.437 19.6606C105.587 19.1313 105.737 18.602 105.887 17.9971L106.413 15.8799C106.563 15.1993 106.788 14.5188 106.938 13.8383C106.938 13.687 107.013 13.5358 107.013 13.3846C106.938 13.5358 106.863 13.6114 106.788 13.7627L105.587 15.5774C105.211 16.1823 104.761 16.7872 104.385 17.3921L103.484 18.8288Z" fill="#737373"/>
<path d="M39.8956 57.6189L41.9229 58.5263L41.6976 59.0556C41.6225 58.9799 41.4724 58.9043 41.3222 58.9043C41.172 58.9043 41.097 58.9043 40.9468 58.9043C40.7966 58.9799 40.7215 59.0556 40.5714 59.2068C40.5714 59.2068 40.4212 59.4336 40.196 59.8117C39.9707 60.1898 39.5953 60.6435 39.2199 61.2484C38.8445 61.8533 38.394 62.5338 37.8684 63.29C37.3429 64.0461 36.8173 64.8022 36.2917 65.5584C35.0153 67.3731 33.5888 69.4903 32.0121 71.7588L30.9609 71.3051L32.9881 64.0461C33.2134 63.1387 33.4386 62.2314 33.739 61.3996C33.9642 60.4922 34.1894 59.7361 34.4147 59.0556C34.5649 58.375 34.7901 57.7701 34.8652 57.392C35.0153 56.9384 35.0153 56.7115 35.0904 56.7115C35.1655 56.4847 35.1655 56.3334 35.0904 56.1822C35.0153 56.031 34.9403 55.9554 34.8652 55.8797C34.7901 55.8041 34.6399 55.7285 34.4898 55.7285L34.715 55.1992L37.7934 56.5603L37.5681 57.0896C37.493 57.014 37.3429 56.9384 37.2678 56.9384C37.1927 56.9384 37.0425 56.9384 36.9675 57.014C36.8924 57.0896 36.8173 57.2408 36.7422 57.392C36.7422 57.392 36.6671 57.6189 36.5921 57.9969C36.517 58.375 36.3668 58.8287 36.1416 59.5092C35.9914 60.1142 35.7662 60.7947 35.5409 61.6264C35.3157 62.3826 35.0904 63.2143 34.8652 64.0461C34.6399 64.8779 34.4147 65.7096 34.1894 66.5414C33.9642 67.3731 33.739 68.0537 33.5888 68.7342C33.9642 68.2049 34.4147 67.5244 34.9403 66.8438C35.3908 66.1633 35.9163 65.4072 36.3668 64.7266C36.8173 64.0461 37.3429 63.29 37.7934 62.6094C38.2439 61.9289 38.6193 61.324 38.9947 60.7947C39.3701 60.2654 39.6704 59.8117 39.8206 59.5092C39.8206 59.1312 39.8956 58.9799 39.8956 58.9799C40.0458 58.8287 40.0458 58.6775 40.0458 58.5263C40.0458 58.375 39.9707 58.2994 39.9707 58.2994C39.8956 58.2238 39.7455 58.1482 39.6704 58.1482L39.8956 57.6189Z" fill="#737373"/>
<path d="M31.8623 72.0613H31.7872L30.7361 71.6076C30.5859 71.532 30.5859 71.4564 30.5859 71.3052L32.6131 64.0462C32.8384 63.1388 33.0636 62.2314 33.364 61.3997L34.0397 59.0556C34.1899 58.3751 34.4151 57.7702 34.4902 57.3921C34.6403 56.7116 34.7154 56.7116 34.7154 56.7116C34.7154 56.5604 34.7154 56.4848 34.7154 56.4091C34.7154 56.3335 34.6403 56.2579 34.5653 56.1823C34.34 55.9555 34.2649 55.9555 34.1899 55.9555C34.1148 55.9555 34.0397 55.8798 34.0397 55.8042C34.0397 55.7286 34.0397 55.653 34.0397 55.5774L34.2649 55.0481C34.34 54.8969 34.4902 54.8212 34.6403 54.8969L37.7187 56.2579C37.8689 56.3335 37.9439 56.4848 37.8689 56.636L37.6436 57.1653C37.6436 57.2409 37.5685 57.3165 37.4934 57.3165C37.4184 57.3165 37.3433 57.3165 37.2682 57.2409C37.1931 57.1653 37.118 57.1653 37.043 57.1653C37.043 57.1653 36.9679 57.1653 36.9679 57.2409C36.9679 57.2409 36.8928 57.3165 36.8928 57.4677C36.8928 57.5434 36.8177 57.6946 36.7426 58.0727C36.6675 58.4507 36.5174 58.9044 36.2921 59.5849C36.142 60.1899 35.9167 60.8704 35.6915 61.7021C35.4662 62.4583 35.241 63.29 35.0158 64.1218C34.7905 64.9536 34.5653 65.7853 34.34 66.6171C34.2649 66.9195 34.1899 67.1464 34.1148 67.4488C34.2649 67.222 34.4151 66.9952 34.5653 66.7683C35.0158 66.0878 35.5413 65.3316 35.9918 64.6511C36.4423 63.9706 36.9679 63.2144 37.4184 62.5339L38.6197 60.7192C38.9951 60.1899 39.2203 59.7362 39.4456 59.4337C39.6708 59.1313 39.7459 58.98 39.7459 58.9044C39.8961 58.6776 39.8961 58.602 39.8961 58.602C39.8961 58.5263 39.8961 58.5263 39.8961 58.5263C39.8961 58.5263 39.821 58.4507 39.6708 58.4507C39.5957 58.4507 39.5206 58.3751 39.5206 58.2995C39.5206 58.2239 39.4456 58.1483 39.5206 58.0727L39.7459 57.5434C39.821 57.3921 39.9711 57.3165 40.1213 57.3921L42.1485 58.2995C42.2236 58.2995 42.2987 58.3751 42.2987 58.4507C42.2987 58.5263 42.2987 58.602 42.2987 58.6776L42.0734 59.2069C42.0734 59.2825 41.9983 59.3581 41.9233 59.3581C41.8482 59.3581 41.7731 59.3581 41.698 59.2825C41.6229 59.2069 41.5479 59.2069 41.3977 59.1313C41.3226 59.1313 41.2475 59.1313 41.1724 59.1313C41.0974 59.1313 41.0223 59.2069 40.9472 59.3581C40.9472 59.3581 40.9472 59.3581 40.5718 59.963C40.3465 60.3411 39.9711 60.7948 39.5957 61.3997C39.2203 62.0046 38.7698 62.6851 38.2443 63.4413C37.7187 64.1974 37.1931 64.9536 36.6675 65.7097C35.3912 67.5245 33.9646 69.6417 32.3879 71.9101C32.0125 72.0613 31.9374 72.0613 31.8623 72.0613ZM31.1115 71.1539L31.7872 71.4564C33.364 69.188 34.7154 67.222 35.9918 65.4072C36.5174 64.6511 37.043 63.895 37.5685 63.1388C38.0941 62.3827 38.5446 61.7021 38.92 61.0972C39.2954 60.4923 39.6708 60.0386 39.8961 59.6606C40.1213 59.3581 40.2715 59.1313 40.2715 59.1313C40.4216 58.9044 40.5718 58.7532 40.797 58.6776C40.9472 58.602 41.1724 58.602 41.3226 58.602C41.3977 58.602 41.4728 58.602 41.5479 58.6776L40.0462 57.997C40.1213 57.997 40.1213 58.0727 40.1964 58.0727C40.3465 58.2239 40.3465 58.2995 40.4216 58.5263C40.4216 58.6776 40.3465 58.9044 40.1964 59.1313C40.1964 59.1313 40.1213 59.2069 39.8961 59.6606C39.6708 59.963 39.3705 60.4167 39.0702 60.946L37.7187 62.7607C37.2682 63.4413 36.8177 64.1218 36.2921 64.8779C35.8417 65.5585 35.3161 66.3146 34.8656 66.9951C34.4151 67.6757 33.9646 68.3562 33.5141 68.8855C33.439 68.9611 33.2889 69.0367 33.2138 68.9611C33.0636 68.8855 33.0636 68.8099 33.0636 68.6587C33.2138 67.9781 33.439 67.2976 33.6643 66.4659C33.8895 65.6341 34.1148 64.8023 34.34 63.9706C34.5653 63.1388 34.7905 62.3071 35.0158 61.5509C35.241 60.7948 35.4662 60.0386 35.6164 59.4337C35.7666 58.8288 35.9167 58.2995 36.0669 57.9214C36.2171 57.5434 36.2171 57.3165 36.2921 57.3165C36.3672 57.0897 36.4423 56.8628 36.5925 56.7872C36.7426 56.7116 36.8928 56.636 37.043 56.636C37.118 56.636 37.1931 56.636 37.1931 56.7116L34.6403 55.5018C34.7154 55.5018 34.7905 55.5774 34.7905 55.5774C34.9407 55.653 35.0158 55.8042 35.0908 56.0311C35.1659 56.1823 35.1659 56.4091 35.0908 56.7116C35.0908 56.7872 35.0158 57.0141 34.8656 57.3921C34.7154 57.8458 34.5653 58.3751 34.4151 59.0556L33.7394 61.3997C33.5141 62.3071 33.2889 63.1388 32.9885 64.0462L31.1115 71.1539Z" fill="#737373"/>
<path d="M45.7494 75.3899C45.6743 75.6167 45.6743 75.768 45.7494 75.8436C45.8245 75.9192 45.8245 75.9948 45.8996 76.0704C45.9746 76.146 46.0497 76.146 46.1999 76.146L46.0497 76.751L43.4219 75.9948L43.572 75.3899C43.6471 75.4655 43.7973 75.4655 43.8724 75.4655C43.9474 75.4655 44.0225 75.3899 44.0976 75.3143C44.1727 75.2387 44.2478 75.0874 44.3229 74.8606L47.9268 61.5525C48.0019 61.3256 48.0019 61.1744 47.9268 61.0232C47.8517 60.9475 47.8517 60.7963 47.7766 60.7963C47.7015 60.7207 47.6264 60.7207 47.4763 60.7207L47.6264 60.1914L50.2543 60.9475L50.1041 61.4769C50.0291 61.4012 49.8789 61.4012 49.8038 61.4012C49.7287 61.4012 49.6536 61.4769 49.5786 61.5525C49.5035 61.6281 49.4284 61.7793 49.3533 62.0062L45.7494 75.3899Z" fill="#737373"/>
<path d="M45.9763 77.0532L43.2734 76.2971C43.1232 76.2215 43.0481 76.1458 43.1232 75.9946L43.2734 75.3897C43.2734 75.3141 43.3485 75.2385 43.4235 75.2385C43.4986 75.2385 43.5737 75.2385 43.6488 75.2385L43.7239 75.3141C43.7239 75.3141 43.7239 75.3141 43.7989 75.2385C43.7989 75.2385 43.874 75.1629 43.9491 74.936L47.553 61.6279C47.6281 61.401 47.6281 61.3254 47.553 61.2498C47.553 61.1742 47.553 61.1742 47.4779 61.0986C47.4779 61.0986 47.4029 61.0986 47.3278 61.0986C47.2527 61.0986 47.1776 61.023 47.1025 61.023C47.0274 60.9474 47.0274 60.8717 47.0274 60.7961L47.1776 60.2668C47.2527 60.1156 47.3278 60.04 47.4779 60.1156L50.1058 60.8717C50.1809 60.8717 50.256 60.9474 50.256 61.023C50.256 61.0986 50.331 61.1742 50.256 61.2498L50.4061 61.6279C50.4061 61.7035 50.331 61.7791 50.256 61.7791C50.1809 61.7791 50.1058 61.7791 50.0307 61.7791C49.9556 61.7035 49.9556 61.7035 49.8806 61.7035C49.8806 61.7035 49.8055 61.7035 49.8055 61.7791C49.8055 61.7791 49.7304 61.8547 49.6553 62.0816L46.0514 75.3897C45.9763 75.6165 46.0514 75.6922 46.0514 75.6922C46.0514 75.7678 46.1265 75.7678 46.1265 75.7678H46.2016C46.2766 75.7678 46.3517 75.7678 46.4268 75.8434C46.5019 75.919 46.5019 75.9946 46.5019 76.0702L46.3517 76.6751C46.2016 76.9776 46.1265 77.0532 45.9763 77.0532ZM43.7239 75.8434L45.8261 76.4483C45.7511 76.4483 45.7511 76.3727 45.676 76.3727C45.6009 76.2971 45.5258 76.2215 45.4507 76.0702C45.3757 75.919 45.3757 75.6922 45.4507 75.4653L49.1297 62.006C49.2048 61.7035 49.2799 61.5523 49.4301 61.401C49.5802 61.3254 49.6553 61.2498 49.8055 61.1742C49.8805 61.1742 49.8806 61.1742 49.9556 61.1742L47.8533 60.5693C47.9284 60.5693 47.9284 60.6449 48.0035 60.6449C48.0035 60.6449 48.0786 60.6449 48.0786 60.7205C48.1537 60.7961 48.1537 60.8717 48.2288 61.023C48.3038 61.1742 48.3038 61.401 48.2288 61.7035L44.6248 75.0116C44.5498 75.2385 44.4747 75.4653 44.3245 75.5409C44.1743 75.6922 44.0993 75.6922 43.9491 75.6922C43.7989 75.8434 43.7239 75.8434 43.7239 75.8434Z" fill="#737373"/>
<path d="M60.8446 77.052L60.5443 79.396L54.3125 78.5643L54.3876 77.9594C54.5377 78.035 54.6128 78.035 54.6879 77.9594C54.763 77.9594 54.8381 77.8838 54.9132 77.8081C54.9882 77.7325 55.0633 77.5813 55.0633 77.3545L56.8653 63.6683C56.8653 63.4414 56.8653 63.2902 56.7902 63.139C56.7151 63.0633 56.64 62.9877 56.5649 62.9121C56.4899 62.8365 56.4148 62.8365 56.2646 62.9121L56.3397 62.3828L62.5715 63.2146L62.2712 65.5586L61.6705 65.483C61.6705 65.1049 61.6705 64.8025 61.6705 64.5756C61.5954 64.3488 61.5203 64.1219 61.3702 63.8951C61.22 63.6683 60.9948 63.517 60.6944 63.517L58.3669 63.2146L57.3909 70.5492L58.9676 70.776C59.1928 70.776 59.343 70.776 59.4181 70.7004C59.5682 70.6248 59.6433 70.4735 59.7184 70.3979C59.7935 70.2467 59.8685 70.0199 59.8685 69.8686L60.3941 69.9442L60.0938 72.5908L59.5682 72.5151C59.5682 72.2883 59.5682 72.1371 59.5682 71.9858C59.5682 71.8346 59.4931 71.6834 59.4181 71.5322C59.343 71.3809 59.1928 71.3053 58.9676 71.3053L57.3909 71.0785L56.4899 78.2618L58.8174 78.5643C59.1177 78.6399 59.343 78.5643 59.5682 78.4131C59.7935 78.2618 59.9436 78.035 60.0187 77.8081C60.0938 77.5813 60.2439 77.2788 60.2439 76.9008L60.8446 77.052Z" fill="#737373"/>
<path d="M60.5438 79.6246L54.237 78.7928C54.1619 78.7928 54.0868 78.7172 54.0868 78.7172C54.0117 78.6416 54.0117 78.566 54.0117 78.4904L54.0868 77.8854C54.0868 77.8098 54.1619 77.7342 54.237 77.6586C54.312 77.583 54.3871 77.583 54.4622 77.6586C54.5373 77.6586 54.5373 77.6586 54.5373 77.6586C54.5373 77.6586 54.5373 77.6586 54.6124 77.6586C54.6124 77.6586 54.6124 77.6586 54.6874 77.583C54.6874 77.583 54.7625 77.5074 54.7625 77.2805L56.5645 63.5943C56.5645 63.3675 56.5645 63.2919 56.5645 63.2162C56.4894 63.1406 56.4894 63.1406 56.4894 63.1406C56.4894 63.1406 56.4894 63.1406 56.4143 63.1406C56.3392 63.1406 56.2642 63.1406 56.1891 63.065C56.114 62.9894 56.114 62.9138 56.114 62.8382L56.1891 62.3089C56.1891 62.1576 56.3392 62.082 56.4894 62.082L62.7212 62.9138C62.7963 62.9138 62.8713 62.9894 62.8713 62.9894C62.9464 63.065 62.9464 63.1406 62.9464 63.2162L62.6461 65.5603C62.6461 65.6359 62.571 65.7115 62.571 65.7115C62.4959 65.7871 62.4209 65.7871 62.3458 65.7871H61.7451C61.595 65.7871 61.5199 65.6359 61.5199 65.4847C61.5199 65.1822 61.5199 64.8798 61.5199 64.5773C61.5199 64.4261 61.3697 64.1992 61.2946 63.9724C61.2196 63.8212 61.0694 63.7455 60.8441 63.6699L58.6668 63.5187L57.7658 70.324L59.0422 70.4752C59.1923 70.4752 59.2674 70.4752 59.3425 70.3996C59.4176 70.324 59.4927 70.2484 59.5678 70.1728C59.6428 70.0215 59.7179 69.8703 59.7179 69.7191C59.7179 69.6435 59.793 69.5679 59.793 69.5679C59.8681 69.4922 59.9432 69.4922 60.0182 69.4922L60.5438 69.5679C60.694 69.5679 60.7691 69.7191 60.7691 69.8703L60.3937 72.5924C60.3937 72.7437 60.2435 72.8193 60.0933 72.8193L59.5678 72.7437C59.4176 72.7437 59.3425 72.5924 59.3425 72.4412C59.3425 72.29 59.3425 72.1387 59.3425 71.9875C59.3425 71.8363 59.2674 71.7607 59.1923 71.6851C59.1923 71.6851 59.1173 71.6094 58.9671 71.5338L57.6907 71.3826L56.7897 78.0367L58.892 78.3391C59.1173 78.3391 59.2674 78.3391 59.4176 78.1879C59.5678 78.0367 59.7179 77.8854 59.793 77.7342C59.8681 77.5074 59.9432 77.2049 60.0182 76.9024C60.0182 76.7512 60.1684 76.6756 60.3186 76.6756L60.9192 76.7512C60.9943 76.7512 61.0694 76.8268 61.0694 76.8268C61.1445 76.9024 61.1445 76.9781 61.1445 77.0537L60.8441 79.3977C60.8441 79.4733 60.7691 79.5489 60.7691 79.5489C60.694 79.6246 60.6189 79.6246 60.5438 79.6246ZM54.6124 78.3391L60.3186 79.0953L60.5438 77.2805H60.4687C60.3937 77.5074 60.3186 77.8098 60.2435 77.961C60.0933 78.2635 59.9432 78.4903 59.7179 78.6416C59.4927 78.8684 59.1173 78.944 58.7419 78.8684L56.4143 78.566C56.3392 78.566 56.2642 78.4904 56.2642 78.4904C56.1891 78.4147 56.1891 78.3391 56.1891 78.2635L57.1651 71.0801C57.1651 70.9289 57.3153 70.8533 57.4655 70.8533L59.0422 71.0801C59.3425 71.0801 59.4927 71.2314 59.6428 71.3826C59.793 71.5338 59.793 71.6851 59.8681 71.9119C59.8681 71.9875 59.9432 72.1387 59.9432 72.29L60.2435 70.0215C60.2435 70.1728 60.1684 70.2484 60.0933 70.3996C60.0182 70.5508 59.8681 70.7021 59.7179 70.8533C59.5678 71.0045 59.3425 71.0045 59.0422 71.0045L57.4655 70.7777C57.3153 70.7777 57.2402 70.6265 57.2402 70.4752L58.2163 63.1406C58.2163 63.065 58.2914 62.9894 58.3664 62.9138L56.6396 62.7626C56.7147 62.7626 56.7147 62.7626 56.7897 62.8382C56.8648 62.9138 57.015 62.9894 57.0901 63.1406C57.1651 63.2919 57.1651 63.5187 57.1651 63.8212L55.3632 77.5074C55.3632 77.8098 55.2881 77.9611 55.1379 78.1123C55.0629 78.2635 54.9127 78.3391 54.7625 78.3391C54.6875 78.2635 54.6124 78.2635 54.6124 78.3391ZM62.0454 65.3335H62.1205L62.3458 63.5187L61.0694 63.3675C61.2946 63.4431 61.5199 63.5943 61.67 63.8212C61.8202 64.048 61.9704 64.3505 61.9704 64.5773C62.0454 64.8042 62.0454 65.031 62.0454 65.3335Z" fill="#737373"/>
<path d="M78.3387 63.0614L80.5161 62.9102V63.5151C80.3659 63.5151 80.2158 63.5151 80.0656 63.5151C79.9155 63.5907 79.8404 63.5907 79.7653 63.7419C79.6902 63.8175 79.6151 64.0444 79.6151 64.1956C79.6151 64.1956 79.6151 64.4224 79.54 64.8761C79.465 65.3298 79.465 65.9347 79.3148 66.6153C79.2397 67.2958 79.1646 68.1276 79.0145 69.0349C78.9394 69.9423 78.7892 70.8497 78.7141 71.8327C78.4889 74.0255 78.1886 76.5964 77.8882 79.3941L76.6869 79.4697C76.5368 78.6379 76.3115 77.8062 76.0863 76.9744C75.9361 76.2183 75.7109 75.3865 75.4856 74.4035C75.2604 73.4962 75.0351 72.5132 74.8099 71.5302C74.6597 72.5132 74.5847 73.4962 74.4345 74.4792C74.3594 75.4621 74.2092 76.2939 74.1342 77.05C74.0591 77.9574 73.9089 78.7892 73.8338 79.6209L72.6325 79.6965L70.9807 72.2863C70.7555 71.379 70.6053 70.4716 70.3801 69.5642C70.1548 68.6569 70.0047 67.9007 69.8545 67.1446C69.7044 66.464 69.5542 65.8591 69.4791 65.481C69.404 65.0274 69.3289 64.8005 69.3289 64.8005C69.2539 64.5737 69.1788 64.4224 69.1037 64.3468C69.1788 64.3468 69.1037 64.2712 68.9535 64.2712C68.8034 64.2712 68.6532 64.2712 68.5781 64.2712V63.6663L71.8817 63.4395V64.0444C71.7316 64.0444 71.6565 64.0444 71.5063 64.0444C71.4312 64.0444 71.3561 64.12 71.2811 64.2712C71.206 64.3468 71.206 64.4981 71.2811 64.7249C71.2811 64.7249 71.3561 64.9517 71.4312 65.3298C71.5063 65.7079 71.5814 66.2372 71.7316 66.8421C71.8817 67.447 72.0319 68.2032 72.182 68.9593C72.3322 69.7911 72.5575 70.5472 72.7076 71.4546C72.9329 72.2863 73.083 73.1181 73.2332 73.9499C73.3834 74.7816 73.6086 75.5378 73.7588 76.1427C73.8338 75.2353 73.984 74.2523 74.1342 73.1181C74.2843 71.9839 74.3594 70.8497 74.5096 69.7911C74.3594 69.1105 74.2092 68.43 74.0591 67.8251C73.9089 67.2202 73.8338 66.6909 73.6837 66.1616C73.6086 65.7079 73.4584 65.3298 73.4584 65.0274C73.3833 64.7249 73.3833 64.5737 73.3833 64.5737C73.3083 64.3468 73.2332 64.1956 73.1581 64.12C73.083 64.0444 72.9329 63.9688 72.8578 63.9688C72.7076 63.9688 72.5575 63.9688 72.4824 63.9688V63.3638L75.786 63.137V63.7419C75.6358 63.7419 75.4856 63.7419 75.4106 63.7419C75.3355 63.7419 75.2604 63.8175 75.1853 63.9688C75.1102 64.0444 75.1102 64.1956 75.1853 64.4224C75.1853 64.4224 75.2604 64.6493 75.3355 65.0274C75.4106 65.4054 75.5607 65.9347 75.6358 66.5396C75.786 67.1446 75.9361 67.9007 76.0863 68.6569C76.2364 69.4886 76.4617 70.2448 76.6119 71.1521C76.762 71.9839 76.9873 72.8156 77.1374 73.6474C77.2876 74.4792 77.5128 75.2353 77.663 75.8402C77.7381 75.1597 77.8132 74.4035 77.9633 73.5718C78.0384 72.74 78.1886 71.9083 78.2637 71.0009C78.3387 70.1691 78.4138 69.3374 78.564 68.5056C78.6391 67.6739 78.7141 66.9933 78.7892 66.3128C78.8643 65.6323 78.9394 65.1786 78.9394 64.8005C79.0145 64.4224 79.0145 64.1956 79.0145 64.1956C79.0145 63.9688 79.0145 63.8175 78.9394 63.7419C78.8643 63.6663 78.7892 63.5907 78.7141 63.5907C78.6391 63.5907 78.4889 63.5907 78.3387 63.5907V63.0614Z" fill="#737373"/>
<path d="M72.8573 79.9996C72.7072 79.9996 72.6321 79.924 72.6321 79.7727L70.9803 72.3625C70.755 71.4551 70.6049 70.5478 70.3796 69.6404C70.1544 68.8086 70.0042 68.0525 69.779 67.2964C69.6288 66.6158 69.4786 66.0109 69.4036 65.6328C69.2534 64.9523 69.2534 64.9523 69.2534 64.8767C69.1783 64.7255 69.1783 64.6499 69.1032 64.5742C69.0282 64.4986 68.9531 64.4986 68.878 64.4986C68.8029 64.4986 68.6527 64.4986 68.5777 64.4986C68.5026 64.4986 68.4275 64.4986 68.3524 64.423C68.2773 64.3474 68.2773 64.2718 68.2773 64.1962V63.5912C68.2773 63.44 68.3524 63.2888 68.5026 63.2888L71.8062 63.0619C71.9563 63.0619 72.1065 63.1376 72.1065 63.2888V63.8937C72.1065 63.9693 72.1065 64.0449 72.0314 64.1206C71.9563 64.1962 71.8813 64.1962 71.8062 64.1962C71.7311 64.1962 71.656 64.1962 71.5809 64.1962C71.5809 64.1962 71.5809 64.1962 71.5058 64.2718C71.5058 64.2718 71.5058 64.3474 71.5058 64.5742C71.5058 64.6499 71.5809 64.8767 71.656 65.1791C71.7311 65.5572 71.8062 66.0865 71.9563 66.6914C72.1065 67.2963 72.2567 68.0525 72.4068 68.8086C72.557 69.6404 72.7822 70.3965 72.9324 71.3039C73.1576 72.1357 73.3078 72.9674 73.458 73.7992C73.5331 74.1016 73.6081 74.3285 73.6081 74.5553C73.6832 74.026 73.7583 73.5723 73.7583 72.9674C73.9085 71.8332 73.9835 70.7746 74.1337 69.6404C73.9835 68.9599 73.8334 68.2793 73.6832 67.6744L73.0826 64.8767C73.0075 64.5742 73.0075 64.423 73.0075 64.423C73.0075 64.3474 72.9324 64.1962 72.8573 64.1962C72.9324 64.3474 72.8573 64.2718 72.7822 64.2718C72.7072 64.2718 72.6321 64.2718 72.4819 64.2718C72.4068 64.2718 72.3317 64.2718 72.2567 64.1962C72.1816 64.1962 72.1816 64.1205 72.1816 64.0449V63.44C72.1816 63.3644 72.1816 63.2888 72.2567 63.2132C72.3317 63.1376 72.3318 63.1376 72.4068 63.1376L75.7104 62.9107C75.8606 62.9107 76.0107 62.9863 76.0107 63.1376V63.7425C76.0107 63.8181 76.0107 63.8937 75.9357 63.9693C75.8606 64.0449 75.7855 64.0449 75.7104 64.0449C75.5603 64.0449 75.4852 64.0449 75.4852 64.0449C75.4852 64.0449 75.4852 64.0449 75.4101 64.1206C75.4101 64.1206 75.4101 64.1962 75.4101 64.423C75.4101 64.4986 75.4852 64.6498 75.5603 65.0279L75.8606 66.5402C76.0107 67.1451 76.1609 67.9013 76.3111 68.6574C76.4612 69.4892 76.6865 70.2453 76.8366 71.1527C76.9868 71.9844 77.2121 72.8162 77.3622 73.648C77.4373 73.9504 77.5124 74.1773 77.5124 74.4797C77.5124 74.1773 77.5875 73.9504 77.5875 73.648L77.8878 71.0771C77.9629 70.2453 78.038 69.4136 78.1881 68.5818L78.4134 66.389C78.4884 65.7085 78.5635 65.2548 78.5635 64.8011C78.6386 64.423 78.6386 64.2718 78.6386 64.1962C78.6386 63.9693 78.6386 63.8937 78.6386 63.8937C78.6386 63.8181 78.5635 63.8181 78.5635 63.8181C78.5635 63.8181 78.4884 63.8181 78.3383 63.8181C78.2632 63.8181 78.1881 63.8181 78.113 63.7425C78.038 63.6669 78.038 63.5912 78.038 63.5156V62.9107C78.038 62.8351 78.038 62.7595 78.113 62.6839C78.1881 62.6083 78.1881 62.6083 78.2632 62.6083L80.4406 62.457C80.5907 62.457 80.7409 62.5326 80.7409 62.6839V63.2888C80.7409 63.3644 80.7409 63.44 80.6658 63.5156C80.5907 63.5912 80.5156 63.5912 80.4406 63.5912C80.2904 63.5912 80.2153 63.5912 80.1402 63.5912C80.0652 63.5912 79.9901 63.6669 79.915 63.7425C79.8399 63.8181 79.8399 63.8937 79.7648 64.1206C79.7648 64.1206 79.7648 64.1962 79.6897 64.8011C79.6147 65.2548 79.6147 65.8597 79.4645 66.5402L79.1642 68.9599C79.0891 69.8672 78.9389 70.7746 78.8638 71.7576C78.6386 73.9504 78.3383 76.5213 78.038 79.319C78.038 79.4703 77.8878 79.5459 77.8127 79.5459L76.6114 79.6215C76.4612 79.6215 76.3862 79.5459 76.3111 79.3946C76.1609 78.6385 75.9357 77.7311 75.7104 76.8994C75.5603 76.1432 75.335 75.3115 75.1098 74.3285C75.0347 73.8748 74.8845 73.4211 74.8094 72.9674L74.6593 74.3285C74.5842 75.3115 74.434 76.1432 74.359 76.8994C74.2839 77.8067 74.1337 78.6385 74.0586 79.4703C74.0586 79.6215 73.9085 79.6971 73.8334 79.6971L72.8573 79.9996ZM68.8029 63.9693C68.878 63.9693 68.9531 63.9693 68.9531 63.9693C69.1032 63.9693 69.2534 64.0449 69.4036 64.1962C69.5537 64.3474 69.6288 64.4986 69.7039 64.8011C69.7039 64.8767 69.779 65.1035 69.8541 65.4816C69.9291 65.9353 70.0793 66.4646 70.2295 67.1451C70.3796 67.8257 70.5298 68.6574 70.755 69.5648C70.9803 70.4722 71.1304 71.3795 71.3557 72.2869L72.9324 79.4703L73.6832 79.3946C73.7583 78.6385 73.8334 77.8824 73.9835 77.0506C74.0586 76.2945 74.1337 75.3871 74.2839 74.4797L74.6593 71.5308C74.6593 71.3795 74.8094 71.3039 74.8845 71.3039C75.0347 71.3039 75.1098 71.3795 75.1848 71.5308C75.4101 72.5137 75.6353 73.4967 75.8606 74.4041C76.0858 75.3115 76.236 76.2188 76.4612 76.975C76.6865 77.8068 76.8366 78.5629 76.9868 79.2434L77.7376 79.1678C78.038 76.4457 78.3383 74.026 78.5635 71.8332C78.6386 70.9258 78.7888 69.9429 78.8638 69.0355L79.1642 66.6158C79.2393 65.9353 79.3143 65.3304 79.3894 64.8767C79.4645 64.4986 79.4645 64.2718 79.4645 64.1962C79.5396 63.8937 79.6147 63.6669 79.6897 63.5156C79.8399 63.3644 79.9901 63.2888 80.1402 63.2132C80.2153 63.2132 80.2904 63.2132 80.3655 63.1376L78.7137 63.2132C78.7888 63.2132 78.8638 63.2132 78.8638 63.2132C79.014 63.2888 79.1642 63.3644 79.2393 63.5156C79.3143 63.6669 79.3894 63.8937 79.3143 64.1206C79.3143 64.1206 79.3143 63.9693 79.2393 64.7255C79.1642 65.1035 79.1642 65.6328 79.0891 66.2377L78.8638 68.4306C78.7888 69.2623 78.7137 70.0941 78.5635 70.9258L78.2632 73.4967C78.1881 74.3285 78.0379 75.0846 77.9629 75.7652C77.9629 75.9164 77.8127 75.992 77.7376 75.992C77.5875 75.992 77.5124 75.9164 77.4373 75.7652C77.2871 75.0846 77.137 74.3285 76.9117 73.4967C76.7616 72.665 76.5363 71.8332 76.3862 71.0015C76.236 70.1697 76.0107 69.3379 75.8606 68.5062C75.7104 67.6744 75.5603 66.9939 75.4101 66.389L75.1098 64.8767C74.9596 64.2718 74.9596 64.2718 74.9596 64.2718C74.8845 64.0449 74.8845 63.8181 74.9596 63.6669C75.0347 63.5156 75.1848 63.3644 75.335 63.2888C75.4101 63.2888 75.4852 63.2888 75.4852 63.2132L72.7072 63.3644C72.7822 63.3644 72.8573 63.3644 72.9324 63.3644C73.0826 63.3644 73.2327 63.44 73.3829 63.5912C73.5331 63.7425 73.6832 63.8937 73.6832 64.1962C73.6832 64.2718 73.7583 64.423 73.7583 64.6498L74.359 67.4476C74.5091 68.0525 74.6593 68.733 74.8094 69.4136V69.4892C74.7344 70.6234 74.5842 71.682 74.434 72.8162C74.2839 73.9504 74.2088 74.9334 74.0586 75.8408C74.0586 75.992 73.9085 76.0676 73.8334 76.0676C73.6832 76.0676 73.6081 75.992 73.5331 75.8408C73.3829 75.1602 73.2327 74.4041 73.0075 73.5723C72.8573 72.7406 72.6321 71.9088 72.4819 71.0771C72.2567 70.2453 72.1065 69.4136 71.9563 68.5818C71.8062 67.75 71.656 67.0695 71.5058 66.4646C71.3557 65.8597 71.2806 65.3304 71.2055 64.9523C71.0554 64.3474 71.0554 64.3474 71.0554 64.3474C70.9803 64.1205 70.9803 63.8937 71.0554 63.7425C71.1304 63.5913 71.2806 63.44 71.4308 63.44C71.5059 63.44 71.5809 63.44 71.5809 63.3644L68.8029 63.9693Z" fill="#737373"/>
<path d="M95.8322 73.5726L96.4329 75.9167L90.3513 77.5046L90.2011 76.8997C90.3513 76.8997 90.4264 76.8997 90.4264 76.8241C90.5014 76.8241 90.5765 76.7484 90.5765 76.5972C90.6516 76.5216 90.5765 76.2948 90.5765 76.1435L87.1228 62.7598C87.0477 62.5329 86.9726 62.3817 86.8975 62.3061C86.8224 62.2305 86.7474 62.1549 86.6723 62.1549C86.5972 62.1549 86.5221 62.1549 86.447 62.2305L86.2969 61.7012L92.3785 60.1133L92.9791 62.4573L92.3785 62.6086C92.3034 62.3061 92.1532 62.0036 92.0031 61.7768C91.8529 61.55 91.7027 61.3987 91.4775 61.2475C91.2523 61.0963 91.027 61.0207 90.7267 61.0963L88.4742 61.7012L90.3513 68.8089L91.8529 68.4309C92.0782 68.3552 92.1532 68.2796 92.2283 68.1284C92.3034 67.9772 92.3785 67.8259 92.3785 67.7503C92.3785 67.5991 92.3785 67.3723 92.3034 67.1454L92.829 66.9942L93.5047 69.7163L92.9791 69.8675C92.9041 69.6407 92.829 69.4895 92.7539 69.3382C92.6788 69.187 92.5286 69.1114 92.4536 69.0358C92.3034 68.9602 92.1532 68.9602 92.0031 68.9602L90.5014 69.3382L92.3034 76.3704L94.5559 75.7655C94.8562 75.6898 95.0814 75.5386 95.1565 75.3118C95.3067 75.0849 95.3818 74.8581 95.3818 74.6312C95.3818 74.3288 95.3818 74.0263 95.3067 73.7239L95.8322 73.5726Z" fill="#737373"/>
<path d="M90.35 77.7317C90.1998 77.7317 90.1247 77.6561 90.1247 77.5049L89.9746 76.9C89.9746 76.8243 89.9746 76.7487 90.0496 76.6731C90.1247 76.5975 90.1998 76.5975 90.2749 76.5975C90.35 76.5975 90.35 76.5975 90.35 76.5975C90.35 76.5975 90.35 76.5975 90.425 76.5219C90.425 76.5219 90.425 76.5219 90.425 76.4463C90.425 76.4463 90.425 76.3707 90.425 76.1438L86.9713 62.7601C86.8962 62.5332 86.8211 62.4576 86.8211 62.4576C86.746 62.382 86.746 62.382 86.671 62.382C86.671 62.382 86.671 62.382 86.5959 62.4576C86.5208 62.5332 86.4457 62.5332 86.3706 62.4576C86.2956 62.4576 86.2205 62.382 86.2205 62.3064L86.0703 61.7771C86.0703 61.6258 86.1454 61.4746 86.2956 61.4746L92.3772 59.8867C92.5273 59.8867 92.6775 59.9623 92.6775 60.038L93.2781 62.382C93.2781 62.4576 93.2781 62.5332 93.2781 62.6088C93.2781 62.6845 93.2031 62.6845 93.128 62.7601L92.5273 62.9113C92.3772 62.9113 92.227 62.8357 92.227 62.7601C92.1519 62.4576 92.0018 62.1552 91.8516 61.9283C91.7765 61.7771 91.6264 61.6259 91.4011 61.4746C91.2509 61.399 91.1008 61.3234 90.8755 61.399L88.8483 61.9283L90.5752 68.5824L91.8516 68.2799C92.0018 68.2043 92.0768 68.1287 92.0768 68.1287C92.1519 68.0531 92.1519 67.9018 92.1519 67.8262C92.1519 67.675 92.1519 67.5238 92.0768 67.3725C92.0768 67.2969 92.0768 67.2213 92.0768 67.1457C92.0768 67.0701 92.1519 67.0701 92.227 66.9945L92.7526 66.8432C92.8277 66.8432 92.9027 66.8432 92.9778 66.8432C93.0529 66.8432 93.0529 66.9189 93.128 66.9945L93.8037 69.7166C93.8037 69.8678 93.7286 70.019 93.5785 70.019L93.0529 70.1703C92.9778 70.1703 92.9027 70.1703 92.8277 70.1703C92.7526 70.1703 92.7526 70.0947 92.6775 70.019C92.6024 69.8678 92.6024 69.7166 92.5273 69.641C92.4522 69.4897 92.3772 69.4141 92.3021 69.4141C92.3021 69.4141 92.227 69.3385 92.0018 69.4141L90.7254 69.7166L92.4522 76.2194L94.4795 75.6901C94.7047 75.6145 94.8549 75.5389 94.9299 75.3877C95.005 75.2364 95.0801 75.0096 95.0801 74.7828C95.0801 74.5559 95.0801 74.2535 95.005 73.951C95.005 73.7998 95.0801 73.6485 95.2303 73.6485L95.8309 73.4973C95.906 73.4973 95.9811 73.4973 96.0562 73.4973C96.1313 73.4973 96.1312 73.5729 96.2063 73.6485L96.807 75.9926C96.807 76.1438 96.7319 76.295 96.5817 76.295L90.35 77.7317C90.425 77.7317 90.425 77.7317 90.35 77.7317ZM90.5752 77.1268L96.2063 75.6901L95.7558 73.8754H95.6808C95.7558 74.1778 95.7558 74.4047 95.7558 74.6315C95.7558 74.934 95.6808 75.2364 95.5306 75.4633C95.3804 75.7657 95.0801 75.917 94.7798 76.0682L92.5273 76.6731C92.4522 76.6731 92.3772 76.6731 92.3021 76.6731C92.227 76.6731 92.227 76.5975 92.1519 76.5219L90.35 69.4897C90.35 69.4141 90.35 69.3385 90.35 69.2629C90.35 69.1873 90.425 69.1873 90.5001 69.1117L92.0018 68.7336C92.227 68.658 92.5273 68.658 92.6775 68.8092C92.8277 68.8848 92.9778 69.0361 93.0529 69.1873C93.128 69.2629 93.2031 69.4141 93.2031 69.4897L92.6024 67.2969C92.6024 67.4482 92.6024 67.5994 92.6024 67.675C92.6024 67.8262 92.5273 68.0531 92.4522 68.2043C92.3772 68.4311 92.1519 68.5068 91.9267 68.5824L90.425 68.9604C90.2749 68.9604 90.1247 68.8848 90.1247 68.7336L88.2477 61.6259C88.2477 61.5502 88.2477 61.4746 88.2477 61.399C88.2477 61.399 88.2477 61.3234 88.3228 61.3234L86.5959 61.7771C86.671 61.7771 86.671 61.7771 86.746 61.7771C86.8211 61.7771 86.9713 61.8527 87.1215 62.0039C87.2716 62.1552 87.3467 62.3064 87.4218 62.6088L90.8755 75.9926C90.9506 76.2194 90.9506 76.4463 90.8755 76.5975C90.8005 76.7487 90.7254 76.9 90.6503 76.9C90.6503 77.0512 90.5752 77.1268 90.5752 77.1268ZM91.0257 60.7941C91.2509 60.7941 91.4762 60.8697 91.6264 61.0209C91.8516 61.1722 92.0768 61.399 92.227 61.6259C92.3772 61.8527 92.4522 62.0795 92.5273 62.3064H92.6024L92.1519 60.4916L91.0257 60.7941Z" fill="#737373"/>
<path d="M110.771 69.6427C110.846 69.5671 110.921 69.5671 110.996 69.4914C111.071 69.4158 111.071 69.4158 111.146 69.3402L111.371 69.7939C111.296 69.8695 111.221 70.0207 111.146 70.0964C111.071 70.2476 110.921 70.3232 110.696 70.3988C110.546 70.4744 110.32 70.55 110.095 70.55C109.87 70.55 109.645 70.55 109.419 70.4744C109.194 70.3988 108.969 70.2476 108.744 70.0964C108.518 69.8695 108.368 69.6427 108.143 69.2646L106.566 65.862C106.416 65.5595 106.266 65.3327 106.116 65.1814C105.966 65.0302 105.74 64.9546 105.59 64.879C105.44 64.879 105.215 64.879 105.065 64.879C104.914 64.879 104.764 64.9546 104.614 65.0302L103.788 65.4083L106.266 70.8525C106.341 71.0793 106.416 71.155 106.566 71.2306C106.641 71.3062 106.716 71.3062 106.792 71.3062C106.867 71.3062 107.017 71.2306 107.092 71.155L107.317 71.6843L104.839 72.8185L104.614 72.2892C104.764 72.2892 104.839 72.2136 104.839 72.1379C104.914 72.0623 104.914 71.9867 104.99 71.9111C104.99 71.7599 104.99 71.6086 104.914 71.4574L99.1332 58.981C99.0581 58.7542 98.983 58.6786 98.8328 58.603C98.7578 58.5274 98.6076 58.5274 98.5325 58.5274C98.4574 58.5274 98.3824 58.603 98.3073 58.6786L98.082 58.1493L101.01 56.7882C101.536 56.5614 101.986 56.4102 102.437 56.4102C102.887 56.4102 103.338 56.4858 103.713 56.637C104.089 56.7882 104.464 57.0151 104.764 57.3175C105.065 57.62 105.29 57.9224 105.44 58.3761L106.491 60.6446C106.716 61.1739 106.867 61.7788 106.792 62.3837C106.716 62.9886 106.491 63.5935 106.041 64.1228C106.942 64.0472 107.617 64.5009 108.068 65.4083L109.57 68.7353C109.72 69.1134 109.87 69.4158 110.095 69.6427C110.32 69.7183 110.546 69.7939 110.771 69.6427ZM100.334 57.6956L103.638 64.879L104.764 64.3497C104.914 64.2741 104.99 64.1984 105.14 64.0472C105.29 63.896 105.365 63.6691 105.44 63.4423C105.515 63.2155 105.59 62.913 105.59 62.6105C105.59 62.3081 105.515 62.0056 105.365 61.6275L103.938 58.5274C103.788 58.1493 103.563 57.9224 103.338 57.6956C103.112 57.4688 102.887 57.3175 102.662 57.2419C102.437 57.1663 102.212 57.0907 101.986 57.0907C101.761 57.0907 101.611 57.0907 101.461 57.1663L100.334 57.6956Z" fill="#737373"/>
<path d="M104.914 73.1957H104.839C104.764 73.1957 104.689 73.1201 104.689 73.0445L104.464 72.5152C104.464 72.4396 104.464 72.364 104.464 72.2883C104.539 72.2127 104.614 72.1371 104.689 72.1371L104.764 72.0615C104.764 72.0615 104.764 72.0615 104.764 71.9859C104.764 71.9859 104.764 71.9103 104.689 71.6834L98.9075 59.1314C98.8324 58.9046 98.7573 58.9046 98.6822 58.829C98.6071 58.7534 98.5321 58.7534 98.5321 58.7534C98.5321 58.7534 98.5321 58.7534 98.3819 58.829C98.3068 58.9046 98.2317 58.9046 98.1567 58.829C98.0816 58.829 98.0065 58.7534 98.0065 58.6778L97.7812 58.1485C97.7812 58.0728 97.7812 57.9972 97.7812 57.9216C97.7812 57.846 97.8563 57.7704 97.9314 57.7704L100.86 56.4093C101.385 56.1825 101.911 56.0312 102.436 56.0312C102.962 56.0312 103.412 56.1069 103.788 56.2581C104.238 56.4093 104.614 56.6362 104.914 57.0142C105.214 57.3167 105.515 57.6948 105.665 58.1485L106.716 60.4169C107.016 61.0218 107.091 61.6267 107.091 62.3072C107.091 62.8365 106.866 63.2902 106.566 63.7439C107.317 63.8195 107.917 64.3488 108.293 65.1806L109.794 68.5076C109.944 68.8857 110.095 69.1125 110.245 69.3394C110.32 69.4906 110.395 69.4906 110.545 69.415C110.62 69.3394 110.62 69.3394 110.62 69.3394L110.77 69.1881C110.845 69.1125 110.921 69.1125 110.996 69.1125C111.071 69.1125 111.146 69.1881 111.221 69.2638L111.446 69.7174C111.446 69.7931 111.446 69.8687 111.446 69.9443C111.371 70.0955 111.296 70.1711 111.221 70.3224C111.071 70.4736 110.921 70.6248 110.695 70.7004C110.47 70.7761 110.245 70.8517 110.02 70.8517C109.794 70.8517 109.494 70.8517 109.269 70.7004C109.043 70.6248 108.743 70.4736 108.518 70.2468C108.293 70.0199 108.067 69.7174 107.842 69.3394L106.265 65.9367C106.115 65.6343 106.04 65.483 105.89 65.3318C105.74 65.1806 105.59 65.1806 105.515 65.105C105.364 65.105 105.214 65.105 105.139 65.105C104.989 65.105 104.839 65.1806 104.689 65.1806L104.088 65.483L106.491 70.6248C106.566 70.8517 106.641 70.8517 106.641 70.9273C106.716 70.9273 106.716 70.9273 106.716 71.0029C106.791 71.0029 106.791 71.0029 106.791 70.9273C106.866 70.8517 106.941 70.8517 107.016 70.8517C107.091 70.8517 107.166 70.9273 107.242 71.0029L107.467 71.5322C107.542 71.6834 107.467 71.8347 107.317 71.9103L104.839 73.0445C104.989 73.1201 104.989 73.1957 104.914 73.1957ZM105.064 72.5152L107.091 71.6078C107.016 71.6078 107.016 71.6078 106.941 71.6078C106.866 71.6078 106.716 71.6078 106.566 71.4566C106.416 71.381 106.341 71.2297 106.19 70.9273L103.713 65.5587C103.638 65.4074 103.713 65.2562 103.863 65.1806L104.689 64.8025C104.839 64.7269 104.989 64.7269 105.214 64.6513C105.44 64.5757 105.59 64.5757 105.815 64.6513C106.04 64.7269 106.265 64.8025 106.416 64.9537C106.641 65.105 106.791 65.4074 106.941 65.7099L108.518 69.1125C108.668 69.415 108.818 69.6418 109.043 69.8687C109.269 70.0199 109.419 70.1711 109.644 70.2468C109.794 70.3224 110.02 70.3224 110.17 70.3224C110.32 70.3224 110.545 70.2468 110.62 70.1711C110.77 70.0955 110.921 70.0199 110.996 69.9443C111.071 69.8687 111.071 69.8687 111.071 69.7931L110.996 69.8687C110.62 70.0199 110.245 69.9443 110.02 69.6418C109.869 69.415 109.644 69.1125 109.494 68.7345L107.992 65.4074C107.617 64.6513 107.016 64.2732 106.265 64.2732C106.19 64.2732 106.04 64.1976 106.04 64.122C105.965 64.0464 106.04 63.8951 106.115 63.8195C106.566 63.3658 106.791 62.8365 106.791 62.2316C106.791 61.6267 106.716 61.0974 106.491 60.5681L105.44 58.2997C105.289 57.9216 105.064 57.6192 104.764 57.3167C104.464 57.0142 104.163 56.863 103.863 56.7118C103.487 56.5606 103.112 56.4849 102.662 56.4849C102.211 56.4849 101.761 56.6362 101.31 56.863L98.457 58.2241H98.5321C98.7573 58.2241 98.8324 58.2241 98.9825 58.3753C99.1327 58.4509 99.2829 58.6021 99.358 58.9046L105.139 71.4566C105.289 71.6834 105.289 71.9103 105.289 72.0615C105.289 72.2127 105.214 72.364 105.064 72.4396C105.139 72.4396 105.064 72.5152 105.064 72.5152ZM103.638 65.1806C103.563 65.1806 103.412 65.105 103.412 65.0294L100.109 57.846C100.109 57.7704 100.109 57.6948 100.109 57.6192C100.109 57.5435 100.184 57.4679 100.259 57.4679L101.385 56.9386C101.535 56.863 101.685 56.863 101.986 56.863C102.211 56.863 102.511 56.9386 102.737 57.0142C102.962 57.0899 103.262 57.2411 103.487 57.4679C103.713 57.6948 103.938 57.9972 104.163 58.3753L105.59 61.4755C105.74 61.8536 105.89 62.2316 105.89 62.6097C105.89 62.9122 105.815 63.2902 105.74 63.5171C105.665 63.7439 105.515 63.9708 105.364 64.1976C105.214 64.3488 105.064 64.5001 104.914 64.5757L103.788 65.105C103.713 65.105 103.638 65.1806 103.638 65.1806ZM100.634 57.846L103.713 64.5001L104.614 64.122C104.689 64.122 104.764 64.0464 104.914 63.8951C105.064 63.7439 105.139 63.5927 105.214 63.3658C105.289 63.139 105.289 62.9122 105.289 62.6097C105.289 62.3072 105.214 62.0048 105.064 61.7023L103.638 58.6021C103.487 58.2997 103.337 58.0728 103.112 57.846C102.887 57.6948 102.662 57.5435 102.511 57.4679C102.286 57.3923 102.136 57.3167 101.911 57.3167C101.685 57.3167 101.61 57.3167 101.535 57.3923L100.634 57.846Z" fill="#737373"/>
<path d="M107.167 38.6406C106.566 38.6406 105.891 38.8675 105.891 39.4724C105.891 40.1529 106.566 40.3798 107.092 40.3798C107.542 40.3798 107.918 40.2285 108.143 40.0017C108.293 39.8505 108.368 39.6992 108.368 39.4724C108.443 38.8675 107.768 38.6406 107.167 38.6406Z" fill="#737373"/>
<path d="M138.851 33.4219H89.5977C90.3485 35.0854 90.7239 37.7319 90.7239 40.5296C90.7239 43.3274 90.3485 45.9739 89.5977 47.6374H138.851L132.169 40.5296L138.851 33.4219ZM102.211 43.781H99.0579V42.5712H99.9589V38.7905H98.9829V37.505H101.31V42.6468H102.136V43.781H102.211ZM109.795 41.8151C109.795 43.2517 108.443 43.9323 107.167 43.9323C105.89 43.9323 104.539 43.403 104.539 42.0419V41.8907H105.965V42.0419C105.965 42.4956 106.566 42.7224 107.167 42.7224C107.767 42.7224 108.443 42.42 108.443 41.8151V41.2858C108.068 41.5882 107.542 41.7395 107.167 41.7395C105.89 41.7395 104.539 41.2102 104.539 39.6223C104.539 38.1856 105.89 37.505 107.167 37.505C108.518 37.505 109.795 38.2612 109.795 39.6979V41.8151ZM117.528 41.8151C117.528 43.2517 116.177 43.9323 114.9 43.9323C113.624 43.9323 112.272 43.403 112.272 42.0419V41.8907H113.699V42.0419C113.699 42.4956 114.3 42.7224 114.9 42.7224C115.501 42.7224 116.177 42.42 116.177 41.8151V41.2858C115.801 41.5882 115.276 41.7395 114.9 41.7395C113.624 41.7395 112.272 41.2102 112.272 39.6223C112.272 38.1856 113.624 37.505 114.9 37.505C116.252 37.505 117.528 38.2612 117.528 39.6979V41.8151ZM124.661 38.2612L121.883 43.781H120.306L122.784 38.7905H119.931V37.4294H124.586L124.661 38.2612Z" fill="#737373"/>
<path d="M114.901 38.6406C114.301 38.6406 113.625 38.8675 113.625 39.4724C113.625 40.1529 114.301 40.3798 114.826 40.3798C115.277 40.3798 115.652 40.2285 115.877 40.0017C116.028 39.8505 116.103 39.6992 116.103 39.4724C116.178 38.8675 115.502 38.6406 114.901 38.6406Z" fill="#737373"/>
<path d="M39.22 38.7891H38.0938V42.4186H39.22C39.7455 42.4186 40.196 42.2673 40.4964 41.9649C40.7967 41.6624 41.0219 41.1331 40.9469 40.6038C40.9469 39.6964 40.4964 38.7891 39.22 38.7891Z" fill="#737373"/>
<path d="M50.1051 33.4219H0.851562L7.53383 40.5296L0.851562 47.5618H50.1051C49.3543 45.8982 48.9789 43.2517 48.9789 40.454C48.9789 37.6563 49.4294 35.0098 50.1051 33.4219ZM19.2466 38.8661H15.8679V40.0003H19.1715V41.2858H15.8679V42.42H19.2466V43.781H14.4413V37.4294H19.2466V38.8661ZM24.3521 43.9323C22.9256 43.9323 22.0246 43.403 21.5741 42.3444L21.499 42.2688L22.7003 41.6638L22.7754 41.8151C23.0006 42.3444 23.6013 42.7224 24.3521 42.7224C24.6524 42.7224 25.6285 42.6468 25.6285 41.9663C25.6285 41.6638 25.4783 41.2858 24.3521 41.2102C23.1508 41.0589 21.8744 40.6809 21.8744 39.2442C21.8744 37.9587 23.0757 37.3538 24.3521 37.3538C25.5534 37.3538 26.4544 37.8075 26.8298 38.6393L26.9049 38.7149L25.7787 39.3198L25.7036 39.2442C25.5534 38.9417 25.0278 38.6393 24.3521 38.6393C23.6764 38.6393 23.2259 38.8661 23.2259 39.3198C23.2259 39.6979 23.7515 39.8491 24.4272 39.9247C25.7787 40.0759 26.98 40.454 26.98 41.9663C27.055 43.403 25.6285 43.9323 24.3521 43.9323ZM34.413 38.7905H32.4609V43.8567H31.0344V38.7905H29.0822V37.505H34.338V38.7905H34.413ZM41.4707 42.9493C40.9451 43.5542 40.1192 43.8567 39.2183 43.8567H36.7406V37.505H39.2183C41.3205 37.505 42.3717 39.093 42.3717 40.6052C42.3717 41.5126 42.0714 42.3444 41.4707 42.9493Z" fill="#737373"/>
<path d="M79.5379 55.3491C79.0874 55.3491 71.8045 55.2735 69.8524 49.9805H69.6271C69.3268 49.9805 69.1016 49.7536 69.1016 49.4512C69.1016 49.1487 69.3268 48.9219 69.6271 48.9219H70.2278C70.453 48.9219 70.6783 49.0731 70.7534 49.2999C72.255 54.2149 79.3877 54.2905 79.4628 54.2905C79.7631 54.2905 79.9884 54.5173 79.9884 54.8198C80.0635 55.1223 79.8382 55.3491 79.5379 55.3491Z" fill="#737373"/>
<path d="M79.5396 55.4992C79.2393 55.4992 71.8062 55.4236 69.779 50.1306H69.6289C69.2535 50.1306 68.9531 49.8281 68.9531 49.4501C68.9531 49.2988 69.0282 49.072 69.1784 48.9964C69.3285 48.8451 69.4787 48.7695 69.6289 48.7695H70.2295C70.5298 48.7695 70.7551 48.9964 70.8302 49.2232C71.4308 51.2648 73.0826 52.6259 75.6354 53.4576C77.5875 54.0625 79.4646 54.0625 79.4646 54.0625C79.84 54.0625 80.1403 54.365 80.1403 54.7431C80.1403 54.8943 80.0652 55.1211 79.915 55.1968C79.915 55.4236 79.6898 55.4992 79.5396 55.4992ZM69.9292 49.9037C71.8813 55.1968 79.1642 55.2724 79.5396 55.2724C79.6898 55.2724 79.7649 55.1968 79.84 55.1211C79.915 55.0455 79.9901 54.8943 79.9901 54.8187C79.9901 54.5918 79.7649 54.365 79.5396 54.365C79.5396 54.365 77.6626 54.365 75.6354 53.6845C73.0075 52.9283 71.2807 51.416 70.68 49.2988C70.6049 49.1476 70.4548 48.9964 70.2295 48.9964H69.6289C69.4787 48.9964 69.4036 49.072 69.3285 49.1476C69.2535 49.2232 69.1784 49.3744 69.1784 49.4501C69.1784 49.6769 69.4036 49.9037 69.6289 49.9037H69.9292Z" fill="#737373"/>
<path d="M60.3897 55.3488C60.0894 55.3488 59.7891 55.122 59.7891 54.8195C59.7891 54.5171 60.0143 54.2902 60.3146 54.2902C60.4648 54.2902 67.5225 54.2146 69.0241 49.2997C69.0992 48.9972 69.3995 48.846 69.6998 48.9216C70.0002 48.9972 70.1503 49.2997 70.0752 49.6021C68.4234 55.2732 60.9153 55.3488 60.3897 55.3488Z" fill="#737373"/>
<path d="M60.3906 55.5017C60.0152 55.5017 59.7148 55.1993 59.7148 54.8212C59.7148 54.4431 60.0152 54.1407 60.3906 54.1407C60.3906 54.1407 62.2676 54.1407 64.2197 53.5358C66.7725 52.704 68.4243 51.2673 69.025 49.3013C69.1 49.1501 69.1751 48.9989 69.3253 48.9233C69.4754 48.8477 69.6256 48.8477 69.8509 48.8477C70.2263 48.9233 70.3764 49.3013 70.3013 49.6794C68.4994 55.4261 60.6909 55.5017 60.3906 55.5017ZM69.6256 48.9989C69.5505 48.9989 69.4755 48.9989 69.4004 49.0745C69.3253 49.1501 69.2502 49.2257 69.1751 49.3013C68.5745 51.3429 66.8476 52.8552 64.2197 53.687C62.1925 54.2919 60.3155 54.3675 60.3155 54.3675C60.0902 54.3675 59.865 54.5943 59.865 54.8212C59.865 55.048 60.0902 55.2749 60.3155 55.2749C60.6158 55.2749 68.2741 55.1993 70.001 49.6038C70.0761 49.377 69.9259 49.1501 69.7007 49.0745C69.7007 48.9989 69.7007 48.9989 69.6256 48.9989Z" fill="#737373"/>
<path d="M69.9251 50.0543C64.369 50.0543 59.7891 45.4419 59.7891 39.8464V31.0751C59.7891 25.4797 64.369 20.8672 69.9251 20.8672C75.4811 20.8672 80.0611 25.4797 80.0611 31.0751V39.8464C80.0611 45.4419 75.5562 50.0543 69.9251 50.0543ZM69.9251 22.0014C64.9697 22.0014 60.9153 26.0846 60.9153 31.0751V39.8464C60.9153 44.8369 64.9697 48.9201 69.9251 48.9201C74.8805 48.9201 78.9349 44.8369 78.9349 39.8464V31.0751C79.01 26.0846 74.9556 22.0014 69.9251 22.0014Z" fill="#737373"/>
<path d="M69.9259 50.1313C64.2948 50.1313 59.7148 45.5189 59.7148 39.8478V31.0765C59.7148 25.4054 64.2948 20.793 69.9259 20.793C75.5571 20.793 80.137 25.4054 80.137 31.0765V39.8478C80.2121 45.5189 75.6321 50.1313 69.9259 50.1313ZM69.9259 21.0198C64.3699 21.0198 59.9401 25.5567 59.9401 31.0765V39.8478C59.9401 45.3676 64.445 49.9045 69.9259 49.9045C75.482 49.9045 79.9118 45.3676 79.9118 39.8478V31.0765C79.9869 25.4811 75.482 21.0198 69.9259 21.0198ZM69.9259 48.9971C64.8955 48.9971 60.766 44.8383 60.766 39.7722V31.0765C60.766 26.0104 64.8955 21.8516 69.9259 21.8516C74.9564 21.8516 79.0859 26.0104 79.0859 31.0765V39.8478C79.0859 44.914 74.9564 48.9971 69.9259 48.9971ZM69.9259 22.0784C65.0456 22.0784 60.9912 26.086 60.9912 31.0765V39.8478C60.9912 44.7627 64.9706 48.8459 69.9259 48.8459C74.8813 48.8459 78.8607 44.8383 78.8607 39.8478V31.0765C78.8607 26.1616 74.8813 22.0784 69.9259 22.0784Z" fill="#737373"/>
<path d="M69.9223 36.8226C66.5436 36.8226 63.7656 34.0249 63.7656 30.6223C63.7656 27.2196 66.5436 24.4219 69.9223 24.4219C73.301 24.4219 76.079 27.2196 76.079 30.6223C76.079 34.0249 73.3761 36.8226 69.9223 36.8226ZM69.9223 25.4805C67.1443 25.4805 64.8918 27.7489 64.8918 30.5466C64.8918 33.3444 67.1443 35.6128 69.9223 35.6128C72.7003 35.6128 74.9528 33.3444 74.9528 30.5466C75.0279 27.8245 72.7003 25.4805 69.9223 25.4805Z" fill="#737373"/>
<path d="M69.924 36.8985C66.4703 36.8985 63.6172 34.1008 63.6172 30.5469C63.6172 27.0687 66.3952 24.1953 69.924 24.1953C73.3778 24.1953 76.2309 26.993 76.2309 30.5469C76.2309 34.1008 73.3778 36.8985 69.924 36.8985ZM69.924 24.4978C66.6205 24.4978 63.8424 27.2199 63.8424 30.6225C63.8424 33.9496 66.5454 36.7473 69.924 36.7473C73.2276 36.7473 76.0057 34.0252 76.0057 30.6225C76.0057 27.2199 73.3027 24.4978 69.924 24.4978ZM69.924 35.8399C67.0709 35.8399 64.7434 33.4959 64.7434 30.6225C64.7434 27.7492 67.0709 25.4051 69.924 25.4051C72.7771 25.4051 75.1047 27.7492 75.1047 30.6225C75.1047 33.4959 72.7771 35.8399 69.924 35.8399ZM69.924 25.632C67.2211 25.632 64.9687 27.9004 64.9687 30.6225C64.9687 33.3447 67.2211 35.6131 69.924 35.6131C72.627 35.6131 74.8794 33.3447 74.8794 30.6225C74.8794 27.8248 72.7021 25.632 69.924 25.632Z" fill="#737373"/>
<path d="M69.9265 33.3455C68.4248 33.3455 67.1484 32.1356 67.1484 30.5477C67.1484 29.0354 68.3497 27.75 69.9265 27.75C71.4281 27.75 72.7045 28.9598 72.7045 30.5477C72.7045 32.1356 71.5032 33.3455 69.9265 33.3455ZM69.9265 28.9598C69.0255 28.9598 68.2747 29.716 68.2747 30.6233C68.2747 31.5307 69.0255 32.2869 69.9265 32.2869C70.8274 32.2869 71.5782 31.5307 71.5782 30.6233C71.5782 29.716 70.8274 28.9598 69.9265 28.9598Z" fill="#737373"/>
<path d="M69.9273 33.4967C68.3506 33.4967 67.0742 32.2112 67.0742 30.6233C67.0742 29.0354 68.3506 27.75 69.9273 27.75C71.504 27.75 72.7804 29.0354 72.7804 30.6233C72.8555 32.2112 71.504 33.4967 69.9273 33.4967ZM69.9273 27.9012C68.5008 27.9012 67.2995 29.1111 67.2995 30.5477C67.2995 31.9844 68.5008 33.1942 69.9273 33.1942C71.3539 33.1942 72.5552 31.9844 72.5552 30.5477C72.6303 29.1111 71.429 27.9012 69.9273 27.9012ZM69.9273 32.3625C68.9513 32.3625 68.1254 31.5307 68.1254 30.5477C68.1254 29.5647 68.9513 28.733 69.9273 28.733C70.9034 28.733 71.7293 29.5647 71.7293 30.5477C71.7293 31.6063 70.9034 32.3625 69.9273 32.3625ZM69.9273 29.0354C69.1014 29.0354 68.3506 29.716 68.3506 30.6233C68.3506 31.4551 69.0263 32.2112 69.9273 32.2112C70.7532 32.2112 71.504 31.5307 71.504 30.6233C71.504 29.716 70.8283 29.0354 69.9273 29.0354Z" fill="#737373"/>
<path d="M69.9295 44.9141C69.4039 44.9141 68.9534 44.7629 68.578 44.536C68.2777 44.3848 68.2026 44.0823 68.3528 43.7799C68.5029 43.4774 68.8033 43.4018 69.1036 43.553C69.3288 43.7043 69.6292 43.7799 69.9295 43.7799C70.2298 43.7799 70.5302 43.7043 70.7554 43.553C70.9806 43.4018 71.356 43.4774 71.5062 43.7799C71.6564 44.0067 71.5813 44.3848 71.281 44.536C70.9056 44.7629 70.4551 44.9141 69.9295 44.9141ZM67.7521 42.7213C67.4518 42.7213 67.2266 42.4944 67.2266 42.192C67.2266 41.209 67.7521 40.3016 68.578 39.7723C68.8033 39.6211 69.1787 39.6967 69.3288 39.9992C69.479 40.226 69.4039 40.6041 69.1036 40.7553C68.578 41.0578 68.2777 41.5871 68.2777 42.192C68.2777 42.4188 68.0525 42.7213 67.7521 42.7213ZM72.1819 42.6457C71.8816 42.6457 71.6564 42.4188 71.6564 42.1164C71.6564 41.5115 71.356 40.9822 70.8305 40.6797C70.5301 40.5285 70.4551 40.1504 70.6052 39.9236C70.7554 39.6211 71.0557 39.5455 71.3561 39.6967C72.1819 40.1504 72.7075 41.1334 72.7075 42.1164C72.7075 42.4188 72.4823 42.6457 72.1819 42.6457Z" fill="#737373"/>
<path d="M69.9273 45.0668C69.3267 45.0668 68.8762 44.9156 68.5008 44.6887C68.3506 44.6131 68.2004 44.4619 68.2004 44.3106C68.1254 44.1594 68.2004 43.9326 68.2755 43.7814C68.3506 43.6301 68.5008 43.4789 68.6509 43.4789C68.8011 43.4033 69.0263 43.4789 69.1765 43.5545C69.627 43.857 70.2276 43.7813 70.6781 43.5545C70.8283 43.4789 70.9785 43.4033 71.2037 43.4789C71.3539 43.5545 71.504 43.6301 71.5791 43.7814C71.7293 44.0838 71.6542 44.5375 71.3539 44.6887C70.9785 44.9156 70.4529 45.0668 69.9273 45.0668ZM68.8762 43.6301C68.8011 43.6301 68.8011 43.6301 68.726 43.6301C68.5759 43.6301 68.5008 43.7057 68.4257 43.857C68.4257 43.9326 68.4257 44.0838 68.4257 44.1594C68.4257 44.235 68.5008 44.3863 68.6509 44.4619C69.0263 44.6887 69.4018 44.7643 69.9273 44.84C70.3778 44.84 70.8283 44.6887 71.2788 44.4619C71.504 44.3106 71.5791 44.0838 71.429 43.857C71.3539 43.7814 71.2788 43.7057 71.1286 43.6301C70.9785 43.6301 70.9034 43.6301 70.8283 43.7057C70.3027 44.0082 69.627 44.0082 69.1014 43.7057C69.0263 43.6301 68.9513 43.6301 68.8762 43.6301ZM67.75 42.7984C67.3745 42.7984 67.0742 42.4959 67.0742 42.1178C67.0742 41.0592 67.5998 40.0762 68.5008 39.6226C68.6509 39.5469 68.8011 39.4713 69.0263 39.5469C69.1765 39.6226 69.3267 39.6982 69.4018 39.8494C69.4768 40.0006 69.5519 40.1519 69.4768 40.3787C69.4018 40.5299 69.3267 40.6812 69.1765 40.7568C68.726 41.0592 68.4257 41.5129 68.4257 42.1178C68.4257 42.4959 68.1254 42.7984 67.75 42.7984ZM68.8762 39.7738C68.8011 39.7738 68.726 39.7738 68.6509 39.8494C67.825 40.3031 67.2995 41.2105 67.2995 42.1178C67.2995 42.4203 67.5247 42.5715 67.75 42.5715C67.9752 42.5715 68.2004 42.3447 68.2004 42.1178C68.2004 41.5129 68.5008 40.908 69.1014 40.6055C69.1765 40.5299 69.2516 40.4543 69.3267 40.3031C69.3267 40.1519 69.3267 40.0762 69.2516 40.0006C69.1765 39.925 69.1014 39.8494 68.9513 39.7738H68.8762ZM72.1798 42.7984C71.8044 42.7984 71.504 42.4959 71.504 42.1178C71.504 41.5885 71.2037 41.0592 70.7532 40.7568C70.4529 40.6055 70.3027 40.1519 70.528 39.8494C70.6031 39.6982 70.7532 39.5469 70.9034 39.5469C71.0535 39.4713 71.2788 39.5469 71.429 39.6226C72.3299 40.1519 72.8555 41.0592 72.8555 42.1178C72.8555 42.4959 72.5552 42.7984 72.1798 42.7984ZM71.0535 39.7738C70.9785 39.7738 70.9785 39.7738 70.9034 39.7738C70.8283 39.7738 70.6781 39.8494 70.6031 40.0006C70.4529 40.2275 70.528 40.4543 70.7532 40.6055C71.2788 40.908 71.6542 41.5129 71.6542 42.1178C71.6542 42.3447 71.8794 42.5715 72.1047 42.5715C72.3299 42.5715 72.5552 42.3447 72.5552 42.1178C72.5552 41.1348 72.0296 40.3031 71.2037 39.8494C71.2037 39.7738 71.1286 39.7738 71.0535 39.7738Z" fill="#737373"/>
</g>
<defs>
<clipPath id="clip0_3768_2044">
<rect width="138" height="80" fill="white" transform="translate(0.851562)"/>
</clipPath>
</defs>
</svg>
