<svg width="163" height="80" viewBox="0 0 163 80" fill="none" xmlns="http://www.w3.org/2000/svg">
<g clip-path="url(#clip0_3768_2201)">
<path d="M48.0834 66.2025H0.851562V13.8008H48.0834V15.5475H2.59443V64.4558H48.0834V66.2025Z" fill="#737373"/>
<path d="M162.852 66.2025H55.3164V64.4558H161.109V15.5475H55.3164V13.8008H162.852V66.2025Z" fill="#737373"/>
<path d="M34.7491 54.8464H18.889C16.7976 54.8464 15.0547 53.0997 15.0547 51.0036V35.1084C15.0547 33.0124 16.7976 31.2656 18.889 31.2656H34.7491C36.8406 31.2656 38.5835 33.0124 38.5835 35.1084V51.0036C38.5835 53.0997 36.8406 54.8464 34.7491 54.8464ZM19.1504 32.8377C17.7561 32.8377 16.6233 33.973 16.6233 35.3704V50.7416C16.6233 52.139 17.7561 53.2744 19.1504 53.2744H34.4877C35.882 53.2744 37.0149 52.139 37.0149 50.7416V35.4578C37.0149 34.0604 35.882 32.925 34.4877 32.925H19.1504V32.8377Z" fill="#737373"/>
<path d="M34.6624 31.8759H33.4424C33.4424 28.2078 30.4795 25.2383 26.8195 25.2383C23.1595 25.2383 20.1966 28.2078 20.1966 31.8759H18.9766C18.9766 27.5091 22.4623 24.0156 26.8195 24.0156C31.1767 24.0156 34.6624 27.5964 34.6624 31.8759Z" fill="#737373"/>
<path d="M26.8184 42.4428C25.1626 42.4428 23.8555 41.1327 23.8555 39.4733C23.8555 37.814 25.1626 36.5039 26.8184 36.5039C28.4741 36.5039 29.7812 37.814 29.7812 39.4733C29.7812 41.0454 28.4741 42.4428 26.8184 42.4428ZM26.8184 37.6393C25.8598 37.6393 25.0755 38.4253 25.0755 39.386C25.0755 40.3467 25.8598 41.1327 26.8184 41.1327C27.7769 41.1327 28.5612 40.3467 28.5612 39.386C28.6484 38.4253 27.7769 37.6393 26.8184 37.6393Z" fill="#737373"/>
<path d="M25.3369 49.9538H24.4655C24.1169 49.9538 23.8555 49.6918 23.8555 49.3424C23.8555 48.9931 24.1169 48.7311 24.4655 48.7311H25.3369C25.8598 48.7311 26.2955 48.2944 26.2955 47.7704V41.7442C26.2955 41.3948 26.5569 41.1328 26.9055 41.1328C27.2541 41.1328 27.5155 41.3948 27.5155 41.7442V47.7704C27.4284 48.9931 26.4698 49.9538 25.3369 49.9538Z" fill="#737373"/>
<path d="M28.7381 46.1993H26.8209C26.4724 46.1993 26.2109 45.9373 26.2109 45.5879C26.2109 45.2386 26.4724 44.9766 26.8209 44.9766H28.7381C29.0867 44.9766 29.3481 45.2386 29.3481 45.5879C29.3481 45.9373 29.0867 46.1993 28.7381 46.1993Z" fill="#737373"/>
<path d="M52.528 0H50.7852V80H52.528V0Z" fill="#737373"/>
<path d="M66.1184 33.5366C65.7699 33.5366 65.5084 33.4493 65.247 33.1873C64.9856 32.9253 64.8984 32.6633 64.8984 32.3139V26.3751C64.8984 26.0257 64.9856 25.7637 65.247 25.5017C65.5084 25.2397 65.7699 25.1523 66.1184 25.1523H69.6913V26.3751H66.1184V32.3139H69.6913V33.5366H66.1184Z" fill="#737373"/>
<path d="M69.6925 33.6226H66.0325C65.6839 33.6226 65.3354 33.5352 65.1611 33.2732C64.8996 33.0112 64.8125 32.7492 64.8125 32.3999V26.461C64.8125 26.1116 64.8996 25.8496 65.1611 25.5876C65.4225 25.3256 65.6839 25.2383 66.0325 25.2383H69.6925V26.6357H66.2068V32.3999H69.6925V33.6226ZM66.1197 25.3256C65.7711 25.3256 65.5096 25.413 65.3354 25.675C65.1611 25.8496 64.9868 26.1116 64.9868 26.461V32.3125C64.9868 32.6619 65.0739 32.9239 65.3354 33.0985C65.5096 33.2732 65.7711 33.4479 66.1197 33.4479H69.6054V32.3999H66.0325V26.2863H69.6054V25.3256H66.1197Z" fill="#737373"/>
<path d="M75.9616 33.5366V29.9558L74.2188 26.3751V25.1523H75.4388V26.3751L76.6588 28.7331L77.8788 26.3751V25.1523H79.0988V26.3751L77.3559 29.9558V33.5366H75.9616Z" fill="#737373"/>
<path d="M77.184 33.6254H75.7897V29.9572L74.0469 26.3764V25.0664H75.4412V26.2891L76.574 28.4725L77.7069 26.2891V25.0664H79.1012V26.3764L77.3583 29.9572V33.6254H77.184ZM76.0512 33.4507H77.0969V29.9572L78.8398 26.3764V25.3284H77.7941V26.4638L76.574 28.9965L75.2669 26.4638V25.3284H74.2212V26.3764L75.964 29.9572V33.4507H76.0512Z" fill="#737373"/>
<path d="M83.375 33.5352V25.2383H86.9479C87.2965 25.2383 87.5579 25.3256 87.8193 25.5876C88.0808 25.8496 88.1679 26.1116 88.1679 26.461V28.2077C88.1679 28.5571 88.0808 28.8191 87.8193 29.0811C87.8193 29.0811 87.8193 29.0811 87.7322 29.1684C87.7322 29.1684 87.7322 29.1684 87.8193 29.2557C88.0808 29.5178 88.1679 29.7798 88.1679 30.1291V32.3125C88.1679 32.6619 88.0808 32.9239 87.8193 33.1859C87.5579 33.4479 87.2965 33.5352 86.9479 33.5352H83.375ZM86.9479 28.8191V26.461H84.595V28.8191H86.9479ZM86.9479 32.3125V29.9544H84.595V32.3125H86.9479Z" fill="#737373"/>
<path d="M86.9491 33.624H83.2891V25.1523H86.9491C87.2977 25.1523 87.5591 25.2397 87.8205 25.5017C88.082 25.7637 88.1691 26.0257 88.1691 26.3751V28.1218C88.1691 28.4711 88.082 28.7331 87.8205 28.9951C88.082 29.2571 88.1691 29.5192 88.1691 29.8685V32.3139C88.1691 32.6633 88.082 33.0126 87.8205 33.1873C87.5591 33.5366 87.2977 33.624 86.9491 33.624ZM83.4634 33.4493H86.9491C87.2977 33.4493 87.472 33.362 87.7334 33.0999C87.9948 32.9253 88.082 32.6633 88.082 32.3139V29.9558C88.082 29.6065 87.9948 29.4318 87.7334 29.1698L87.5591 28.9951L87.6462 28.9078C87.9077 28.7331 87.9948 28.4711 87.9948 28.1218V26.3751C87.9948 26.0257 87.9077 25.851 87.6462 25.589C87.472 25.327 87.2105 25.2397 86.8619 25.2397H83.3762V33.4493H83.4634ZM87.0362 32.4013H84.5091V29.8685H87.0362V32.4013ZM84.6834 32.2266H86.8619V30.0432H84.6834V32.2266ZM87.0362 28.9078H84.5091V26.3751H87.0362V28.9078ZM84.6834 28.7331H86.8619V26.5497H84.6834V28.7331Z" fill="#737373"/>
<path d="M92.6094 33.5352V25.2383H97.3151V26.461H93.7422V28.8191H96.0951V30.0418H93.7422V32.3125H97.3151V33.5352H92.6094Z" fill="#737373"/>
<path d="M97.4894 33.624H92.6094V25.1523H97.4894V26.5497H93.9165V28.7331H96.2694V30.1305H93.9165V32.3139H97.4894V33.624ZM92.6965 33.4493H97.228V32.4013H93.6551V29.8685H96.008V28.8205H93.6551V26.2877H97.228V25.327H92.6965V33.4493Z" fill="#737373"/>
<path d="M101.848 33.5352V25.2383H105.421C105.769 25.2383 106.031 25.3256 106.292 25.5876C106.553 25.8496 106.641 26.1116 106.641 26.461V28.8191C106.641 29.1684 106.553 29.4304 106.292 29.6924C106.031 29.9544 105.769 30.0418 105.421 30.0418H104.811L106.553 33.6226H105.421L103.678 30.0418H103.068V33.6226H101.848V33.5352ZM105.421 28.8191V26.461H103.068V28.8191H105.421Z" fill="#737373"/>
<path d="M106.728 33.624H105.421V33.5366L103.678 30.0432H103.242V33.624H101.848V25.1523H105.508C105.856 25.1523 106.118 25.2397 106.379 25.5017C106.641 25.7637 106.728 26.0257 106.728 26.3751V28.8205C106.728 29.1698 106.641 29.5192 106.379 29.6938C106.118 29.9558 105.856 30.0432 105.508 30.0432H105.072L106.728 33.624ZM105.508 33.4493H106.466L104.723 29.8685H105.421C105.769 29.8685 105.943 29.7812 106.205 29.5192C106.466 29.3445 106.553 29.0825 106.553 28.7331V26.3751C106.553 26.0257 106.466 25.851 106.205 25.589C106.031 25.327 105.769 25.2397 105.421 25.2397H101.935V33.362H102.981V29.7812H103.678V29.8685L105.508 33.4493ZM105.508 28.9078H102.981V26.3751H105.508V28.9078ZM103.155 28.7331H105.333V26.5497H103.155V28.7331Z" fill="#737373"/>
<path d="M118.579 33.5366C118.231 33.5366 117.969 33.4493 117.708 33.1873C117.447 32.9253 117.359 32.6633 117.359 32.3139V31.0912H118.579V32.3139H120.932V29.9558H118.579C118.231 29.9558 117.969 29.8685 117.708 29.6065C117.447 29.3445 117.359 29.0825 117.359 28.7331V26.3751C117.359 26.0257 117.447 25.7637 117.708 25.5017C117.969 25.2397 118.231 25.1523 118.579 25.1523H120.932C121.281 25.1523 121.542 25.2397 121.804 25.5017C122.065 25.7637 122.152 26.0257 122.152 26.3751V27.5978H120.932V26.3751H118.579V28.8205H120.932C121.281 28.8205 121.542 28.9078 121.804 29.1698C122.065 29.4318 122.152 29.6938 122.152 30.0432V32.3139C122.152 32.6633 122.065 32.9253 121.804 33.1873C121.542 33.4493 121.281 33.5366 120.932 33.5366H118.579Z" fill="#737373"/>
<path d="M120.932 33.6226H118.579C118.231 33.6226 117.882 33.5352 117.708 33.2732C117.447 33.0112 117.359 32.7492 117.359 32.3999V31.0898H118.754V32.3125H120.932V30.1291H118.667C118.318 30.1291 117.969 30.0418 117.795 29.7798C117.534 29.5178 117.447 29.2557 117.447 28.9064V26.5483C117.447 26.199 117.534 25.937 117.795 25.675C118.057 25.413 118.318 25.3256 118.667 25.3256H121.019C121.368 25.3256 121.629 25.413 121.891 25.675C122.152 25.937 122.239 26.199 122.239 26.5483V27.8584H120.845V26.6357H118.667V28.8191H120.932C121.281 28.8191 121.542 28.9064 121.804 29.1684C122.065 29.4304 122.152 29.6924 122.152 30.0418V32.3125C122.152 32.6619 122.065 33.0112 121.804 33.1859C121.629 33.5352 121.281 33.6226 120.932 33.6226ZM117.534 31.2645V32.3125C117.534 32.6619 117.621 32.9239 117.882 33.0985C118.057 33.2732 118.318 33.4479 118.667 33.4479H121.019C121.368 33.4479 121.542 33.3606 121.804 33.0985C122.065 32.9239 122.152 32.6619 122.152 32.3125V29.9544C122.152 29.6051 122.065 29.4304 121.804 29.1684C121.629 28.9064 121.368 28.8191 121.019 28.8191H118.492V26.2863H121.019V27.509H122.065V26.3737C122.065 26.0243 121.978 25.8496 121.717 25.5876C121.542 25.3256 121.281 25.2383 120.932 25.2383H118.579C118.231 25.2383 117.969 25.3256 117.795 25.5876C117.621 25.7623 117.447 26.0243 117.447 26.3737V28.8191C117.447 29.1684 117.534 29.4304 117.795 29.6051C117.969 29.7798 118.231 29.9544 118.579 29.9544H121.019V32.4872H118.492V31.2645H117.534Z" fill="#737373"/>
<path d="M126.68 33.5366V26.3751C126.68 26.0257 126.767 25.7637 127.028 25.5017C127.29 25.2397 127.551 25.1523 127.9 25.1523H130.253C130.601 25.1523 130.863 25.2397 131.124 25.5017C131.385 25.7637 131.473 26.0257 131.473 26.3751V33.5366H130.253V29.9558H127.9V33.5366H126.68ZM130.165 28.8205V26.4624H127.813V28.8205H130.165Z" fill="#737373"/>
<path d="M131.475 33.624H130.081V30.0432H127.902V33.624H126.508V26.3751C126.508 26.0257 126.595 25.7637 126.856 25.5017C127.118 25.2397 127.379 25.1523 127.728 25.1523H130.081C130.429 25.1523 130.691 25.2397 130.952 25.5017C131.214 25.7637 131.301 26.0257 131.301 26.3751V33.624H131.475ZM130.255 33.4493H131.301V26.3751C131.301 26.0257 131.214 25.851 130.952 25.589C130.778 25.327 130.516 25.2397 130.168 25.2397H127.815C127.466 25.2397 127.205 25.327 127.031 25.589C126.856 25.7637 126.682 26.0257 126.682 26.3751V33.4493H127.728V29.8685H130.255V33.4493ZM130.255 28.9078H127.728V26.3751H130.255V28.9078ZM127.902 28.7331H130.081V26.5497H127.902V28.7331Z" fill="#737373"/>
<path d="M135.922 33.5352V25.2383H140.628V26.461H137.055V28.8191H139.408V30.0418H137.055V33.6226H135.922V33.5352Z" fill="#737373"/>
<path d="M137.144 33.624H135.75V25.1523H140.63V26.5497H137.057V28.7331H139.41V30.1305H137.057V33.624H137.144ZM136.011 33.4493H137.057V29.8685H139.41V28.8205H137.057V26.2877H140.63V25.327H136.099V33.4493H136.011Z" fill="#737373"/>
<path d="M145.156 33.5352V25.2383H149.862V26.461H146.289V28.8191H148.642V30.0418H146.289V32.3125H149.862V33.5352H145.156Z" fill="#737373"/>
<path d="M149.95 33.624H145.07V25.1523H149.95V26.5497H146.377V28.7331H148.73V30.1305H146.377V32.3139H149.95V33.624ZM145.245 33.4493H149.776V32.4013H146.203V29.8685H148.556V28.8205H146.203V26.2877H149.776V25.327H145.245V33.4493Z" fill="#737373"/>
<path d="M65.6881 53.8838C65.5138 53.8838 65.3396 53.7965 65.2524 53.7092C65.1653 53.6218 65.0781 53.4472 65.0781 53.2725V50.041C65.0781 49.8664 65.1653 49.6917 65.2524 49.6044C65.3396 49.517 65.5138 49.4297 65.6881 49.4297H67.6053V50.041H65.6881V53.2725H67.6053V53.8838H65.6881Z" fill="#737373"/>
<path d="M67.6936 53.9726H65.6893C65.5151 53.9726 65.3408 53.8852 65.1665 53.7979C64.9922 53.6232 64.9922 53.4486 64.9922 53.2739V50.0424C64.9922 49.8678 65.0793 49.6931 65.1665 49.5184C65.3408 49.3438 65.5151 49.3438 65.6893 49.3438H67.6936V50.1298H65.7765V53.1865H67.6936V53.9726ZM65.6893 49.5184C65.5151 49.5184 65.4279 49.6058 65.3408 49.6931C65.2536 49.7804 65.1665 49.9551 65.1665 50.0424V53.2739C65.1665 53.4486 65.2536 53.5359 65.3408 53.6232C65.4279 53.7106 65.6022 53.7979 65.6893 53.7979H67.5194V53.3612H65.6022V49.9551H67.5194V49.5184H65.6893Z" fill="#737373"/>
<path d="M70.0469 53.8838V49.4297H71.964C72.1383 49.4297 72.3126 49.517 72.3998 49.6044C72.4869 49.6917 72.574 49.8664 72.574 50.041V51.3511C72.574 51.5258 72.4869 51.7004 72.3998 51.7878C72.3126 51.8751 72.1383 51.9624 71.964 51.9624H71.6155L72.574 53.8838H71.964L71.0055 51.9624H70.6569V53.8838H70.0469ZM71.964 51.3511V50.041H70.6569V51.3511H71.964Z" fill="#737373"/>
<path d="M72.7495 53.9726H71.8781L70.9195 52.0512H70.7452V53.9726H69.9609V49.3438H71.9652C72.1395 49.3438 72.3138 49.4311 72.4881 49.5184C72.6624 49.6931 72.6624 49.8678 72.6624 50.0424V51.3525C72.6624 51.5272 72.5752 51.7018 72.4881 51.8765C72.3138 52.0512 72.1395 52.0512 71.9652 52.0512H71.791L72.7495 53.9726ZM72.0524 53.7979H72.4881L71.5295 51.8765H71.9652C72.1395 51.8765 72.2267 51.7892 72.3138 51.7018C72.401 51.6145 72.4881 51.4398 72.4881 51.3525V50.0424C72.4881 49.8678 72.401 49.7804 72.3138 49.6931C72.2267 49.6058 72.0524 49.5184 71.9652 49.5184H70.1352V53.7979H70.5709V51.8765H71.0067L72.0524 53.7979ZM72.0524 51.4398H70.5709V49.9551H72.0524V51.4398ZM70.7452 51.2651H71.8781V50.1298H70.7452V51.2651Z" fill="#737373"/>
<path d="M75.9742 53.8838V51.9624L75.0156 50.041V49.4297H75.6256V50.041L76.2356 51.3511L76.8456 50.041V49.4297H77.5428V50.041L76.5842 51.9624V53.8838H75.9742Z" fill="#737373"/>
<path d="M76.6687 53.9726H75.8844V51.9638L74.9258 50.0424V49.3438H75.7101V50.0424L76.2329 51.1778L76.7558 50.0424V49.3438H77.5401V50.1298L76.6687 51.9638V53.9726ZM76.0587 53.7979H76.4944V51.9638L77.4529 50.0424V49.5184H77.0172V50.1298L76.3201 51.5272L75.6229 50.0424V49.5184H75.1872V50.0424L76.1458 51.9638V53.7979H76.0587Z" fill="#737373"/>
<path d="M79.9844 53.8838V49.4297H81.9015C82.0758 49.4297 82.2501 49.517 82.3373 49.6044C82.4244 49.6917 82.5115 49.8664 82.5115 50.041V51.3511C82.5115 51.5258 82.4244 51.7004 82.3373 51.7878C82.2501 51.8751 82.0758 51.9624 81.9015 51.9624H80.5944V53.8838H79.9844ZM81.9015 51.3511V50.041H80.5944V51.3511H81.9015Z" fill="#737373"/>
<path d="M80.6788 53.9726H79.8945V49.3438H81.8988C82.0731 49.3438 82.2474 49.4311 82.4217 49.5184C82.596 49.6931 82.596 49.8678 82.596 50.0424V51.3525C82.596 51.5272 82.5088 51.7018 82.4217 51.8765C82.2474 52.0512 82.0731 52.0512 81.8988 52.0512H80.6788V53.9726ZM80.0688 53.7979H80.5045V51.8765H81.8988C82.0731 51.8765 82.1603 51.7892 82.2474 51.7018C82.3346 51.6145 82.4217 51.4398 82.4217 51.3525V50.0424C82.4217 49.8678 82.3346 49.7804 82.2474 49.6931C82.1603 49.6058 81.986 49.5184 81.8988 49.5184H80.0688V53.7979ZM81.986 51.4398H80.5045V49.9551H81.986V51.4398ZM80.6788 51.2651H81.8117V50.1298H80.6788V51.2651Z" fill="#737373"/>
<path d="M85.9039 53.8838V50.041H84.9453V49.4297H87.4725V50.041H86.5139V53.8838H85.9039Z" fill="#737373"/>
<path d="M86.6022 53.9726H85.818V50.1298H84.8594V49.3438H87.5608V50.1298H86.6022V53.9726ZM85.9922 53.7979H86.428V49.9551H87.3865V49.5184H85.0337V49.9551H85.9922V53.7979Z" fill="#737373"/>
<path d="M90.5241 53.8838C90.3498 53.8838 90.1755 53.7965 90.0884 53.7092C90.0012 53.6218 89.9141 53.4472 89.9141 53.2725V50.041C89.9141 49.8664 90.0012 49.6917 90.0884 49.6044C90.1755 49.517 90.3498 49.4297 90.5241 49.4297H91.8312C92.0055 49.4297 92.1798 49.517 92.2669 49.6044C92.3541 49.6917 92.4412 49.8664 92.4412 50.041V53.2725C92.4412 53.4472 92.3541 53.6218 92.2669 53.7092C92.1798 53.7965 92.0055 53.8838 91.8312 53.8838H90.5241ZM91.8312 53.2725V50.041H90.5241V53.2725H91.8312Z" fill="#737373"/>
<path d="M91.8324 53.9726H90.5253C90.351 53.9726 90.1767 53.8852 90.0024 53.7979C89.8281 53.6232 89.8281 53.4486 89.8281 53.2739V50.0424C89.8281 49.8678 89.9153 49.6931 90.0024 49.5184C90.1767 49.3438 90.351 49.3438 90.5253 49.3438H91.8324C92.0067 49.3438 92.181 49.4311 92.3553 49.5184C92.5296 49.6931 92.5296 49.8678 92.5296 50.0424V53.2739C92.5296 53.4486 92.4424 53.6232 92.3553 53.7979C92.181 53.8852 92.0067 53.9726 91.8324 53.9726ZM90.5253 49.5184C90.351 49.5184 90.2638 49.6058 90.1767 49.6931C90.0896 49.7804 90.0024 49.9551 90.0024 50.0424V53.2739C90.0024 53.4486 90.0896 53.5359 90.1767 53.6232C90.2638 53.7106 90.4381 53.7979 90.5253 53.7979H91.8324C92.0067 53.7979 92.0939 53.7106 92.181 53.6232C92.2682 53.5359 92.3553 53.3612 92.3553 53.2739V50.0424C92.3553 49.8678 92.2682 49.7804 92.181 49.6931C92.0939 49.6058 91.9196 49.5184 91.8324 49.5184H90.5253ZM91.9196 53.3612H90.4381V49.9551H91.9196V53.3612ZM90.6124 53.1865H91.7453V50.1298H90.6124V53.1865Z" fill="#737373"/>
<path d="M95.4928 53.8838C95.3185 53.8838 95.1442 53.7965 95.0571 53.7092C94.97 53.6218 94.8828 53.4472 94.8828 53.2725V50.041C94.8828 49.8664 94.97 49.6917 95.0571 49.6044C95.1442 49.517 95.3185 49.4297 95.4928 49.4297H96.8C96.9743 49.4297 97.1485 49.517 97.2357 49.6044C97.3228 49.6917 97.41 49.8664 97.41 50.041V50.6524H96.8V50.041H95.4928V53.2725H96.8V51.9624H96.19V51.3511H97.1485C97.2357 51.3511 97.3228 51.3511 97.41 51.4384C97.4971 51.5258 97.4971 51.6131 97.4971 51.7004V53.2725C97.4971 53.4472 97.41 53.6218 97.3228 53.7092C97.2357 53.7965 97.0614 53.8838 96.8871 53.8838H95.4928Z" fill="#737373"/>
<path d="M96.8012 53.9726H95.494C95.3197 53.9726 95.1454 53.8852 94.9712 53.7979C94.7969 53.6232 94.7969 53.4486 94.7969 53.2739V50.0424C94.7969 49.8678 94.884 49.6931 94.9712 49.5184C95.1454 49.3438 95.3197 49.3438 95.494 49.3438H96.8012C96.9755 49.3438 97.1497 49.4311 97.324 49.5184C97.4983 49.6931 97.4983 49.8678 97.4983 50.0424V50.7411H96.714V50.1298H95.5812V53.1865H96.714V52.0512H96.104V51.2651H97.1498C97.2369 51.2651 97.324 51.2651 97.4112 51.3525C97.4983 51.4398 97.4983 51.5272 97.4983 51.6145V53.2739C97.4983 53.4486 97.4112 53.6232 97.324 53.7979C97.1497 53.8852 96.9755 53.9726 96.8012 53.9726ZM95.494 49.5184C95.3197 49.5184 95.2326 49.6058 95.1454 49.6931C95.0583 49.7804 94.9712 49.9551 94.9712 50.0424V53.2739C94.9712 53.4486 95.0583 53.5359 95.1454 53.6232C95.2326 53.7106 95.4069 53.7979 95.494 53.7979H96.8012C96.9755 53.7979 97.0626 53.7106 97.1498 53.6232C97.2369 53.5359 97.324 53.3612 97.324 53.2739V51.7018C97.324 51.6145 97.324 51.6145 97.2369 51.5272C97.1497 51.4398 97.1498 51.4398 97.0626 51.4398H96.1912V51.8765H96.8012V53.3612H95.3197V49.9551H96.8012V50.5665H97.2369V50.0424C97.2369 49.8678 97.1498 49.7804 97.0626 49.6931C96.9755 49.6058 96.8012 49.5184 96.714 49.5184H95.494Z" fill="#737373"/>
<path d="M99.8516 53.8838V49.4297H101.769C101.943 49.4297 102.117 49.517 102.204 49.6044C102.292 49.6917 102.379 49.8664 102.379 50.041V51.3511C102.379 51.5258 102.292 51.7004 102.204 51.7878C102.117 51.8751 101.943 51.9624 101.769 51.9624H101.42L102.379 53.8838H101.769L100.81 51.9624H100.462V53.8838H99.8516ZM101.769 51.3511V50.041H100.462V51.3511H101.769Z" fill="#737373"/>
<path d="M102.55 53.9726H101.679L100.72 52.0512H100.546V53.9726H99.7617V49.3438H101.766C101.94 49.3438 102.115 49.4311 102.289 49.5184C102.463 49.6931 102.463 49.8678 102.463 50.0424V51.3525C102.463 51.5272 102.376 51.7018 102.289 51.8765C102.115 52.0512 101.94 52.0512 101.766 52.0512H101.592L102.55 53.9726ZM101.766 53.7979H102.202L101.243 51.8765H101.679C101.853 51.8765 101.94 51.7892 102.027 51.7018C102.115 51.6145 102.202 51.4398 102.202 51.3525V50.0424C102.202 49.8678 102.115 49.7804 102.027 49.6931C101.94 49.6058 101.766 49.5184 101.679 49.5184H99.8489V53.7979H100.285V51.8765H100.72L101.766 53.7979ZM101.853 51.4398H100.372V49.9551H101.853V51.4398ZM100.546 51.2651H101.679V50.1298H100.546V51.2651Z" fill="#737373"/>
<path d="M104.82 53.8838V50.041C104.82 49.8664 104.907 49.6917 104.995 49.6044C105.082 49.517 105.256 49.4297 105.43 49.4297H106.737C106.912 49.4297 107.086 49.517 107.173 49.6044C107.26 49.6917 107.347 49.8664 107.347 50.041V53.8838H106.737V51.9624H105.43V53.8838H104.82ZM106.737 51.3511V50.041H105.43V51.3511H106.737Z" fill="#737373"/>
<path d="M107.432 53.9726H106.648V52.0512H105.515V53.9726H104.73V50.0424C104.73 49.8678 104.818 49.6931 104.905 49.5184C105.079 49.3438 105.253 49.3438 105.428 49.3438H106.735C106.909 49.3438 107.083 49.4311 107.258 49.5184C107.432 49.6931 107.432 49.8678 107.432 50.0424V53.9726ZM106.822 53.7979H107.258V50.0424C107.258 49.8678 107.17 49.7804 107.083 49.6931C106.996 49.6058 106.822 49.5184 106.735 49.5184H105.428C105.253 49.5184 105.166 49.6058 105.079 49.6931C104.992 49.7804 104.905 49.9551 104.905 50.0424V53.7979H105.34V51.8765H106.822V53.7979ZM106.822 51.4398H105.34V49.9551H106.822V51.4398ZM105.515 51.2651H106.648V50.1298H105.515V51.2651Z" fill="#737373"/>
<path d="M109.781 53.8838V49.4297H111.698C111.873 49.4297 112.047 49.517 112.134 49.6044C112.221 49.6917 112.308 49.8664 112.308 50.041V51.3511C112.308 51.5258 112.221 51.7004 112.134 51.7878C112.047 51.8751 111.873 51.9624 111.698 51.9624H110.391V53.8838H109.781ZM111.698 51.3511V50.041H110.391V51.3511H111.698Z" fill="#737373"/>
<path d="M110.48 53.9726H109.695V49.3438H111.7C111.874 49.3438 112.048 49.4311 112.222 49.5184C112.397 49.6931 112.397 49.8678 112.397 50.0424V51.3525C112.397 51.5272 112.31 51.7018 112.222 51.8765C112.048 52.0512 111.874 52.0512 111.7 52.0512H110.48V53.9726ZM109.87 53.7979H110.305V51.8765H111.7C111.874 51.8765 111.961 51.7892 112.048 51.7018C112.135 51.6145 112.222 51.4398 112.222 51.3525V50.0424C112.222 49.8678 112.135 49.7804 112.048 49.6931C111.961 49.6058 111.787 49.5184 111.7 49.5184H109.87V53.7979ZM111.787 51.4398H110.305V49.9551H111.787V51.4398ZM110.48 51.2651H111.612V50.1298H110.48V51.2651Z" fill="#737373"/>
<path d="M114.75 53.8838V49.4297H115.36V51.3511H116.667V49.4297H117.277V53.8838H116.667V51.9624H115.36V53.8838H114.75Z" fill="#737373"/>
<path d="M117.366 53.9726H116.581V52.0512H115.448V53.9726H114.664V49.3438H115.448V51.2651H116.581V49.3438H117.366V53.9726ZM116.668 53.7979H117.104V49.5184H116.668V51.4398H115.187V49.5184H114.751V53.7979H115.187V51.8765H116.668V53.7979Z" fill="#737373"/>
<path d="M119.719 53.8838V53.2725H120.329V50.041H119.719V49.4297H121.636V50.041H121.026V53.2725H121.636V53.8838H119.719Z" fill="#737373"/>
<path d="M121.638 53.9726H119.547V53.1865H120.157V50.1298H119.547V49.3438H121.638V50.1298H121.028V53.1865H121.638V53.9726ZM119.808 53.7979H121.551V53.3612H120.941V49.9551H121.551V49.5184H119.808V49.9551H120.418V53.3612H119.808V53.7979Z" fill="#737373"/>
<path d="M124.594 53.8838C124.42 53.8838 124.246 53.7965 124.159 53.7092C124.072 53.6218 123.984 53.4472 123.984 53.2725V50.041C123.984 49.8664 124.072 49.6917 124.159 49.6044C124.246 49.517 124.42 49.4297 124.594 49.4297H126.512V50.041H124.594V53.2725H126.512V53.8838H124.594Z" fill="#737373"/>
<path d="M126.6 53.9726H124.596C124.421 53.9726 124.247 53.8852 124.073 53.7979C123.898 53.6232 123.898 53.4486 123.898 53.2739V50.0424C123.898 49.8678 123.986 49.6931 124.073 49.5184C124.247 49.3438 124.421 49.3438 124.596 49.3438H126.6V50.1298H124.683V53.1865H126.6V53.9726ZM124.596 49.5184C124.421 49.5184 124.334 49.6058 124.247 49.6931C124.16 49.7804 124.073 49.9551 124.073 50.0424V53.2739C124.073 53.4486 124.16 53.5359 124.247 53.6232C124.334 53.7106 124.508 53.7979 124.596 53.7979H126.426V53.3612H124.508V49.9551H126.426V49.5184H124.596Z" fill="#737373"/>
<path d="M132.352 53.8838V49.4297H134.269C134.443 49.4297 134.617 49.517 134.704 49.6044C134.792 49.6917 134.879 49.8664 134.879 50.041V51.0017C134.879 51.1764 134.792 51.3511 134.704 51.4384C134.792 51.5258 134.879 51.7004 134.879 51.8751V53.2725C134.879 53.4472 134.792 53.6218 134.704 53.7092C134.617 53.7965 134.443 53.8838 134.269 53.8838H132.352ZM134.269 51.3511V50.041H132.962V51.3511H134.269ZM134.269 53.2725V51.9624H132.962V53.2725H134.269Z" fill="#737373"/>
<path d="M134.27 53.9726H132.266V49.3438H134.27C134.444 49.3438 134.618 49.4311 134.793 49.5184C134.967 49.6931 134.967 49.8678 134.967 50.0424V51.0031C134.967 51.1778 134.88 51.3525 134.793 51.5272C134.88 51.7018 134.967 51.7892 134.967 51.9638V53.2739C134.967 53.4486 134.88 53.6232 134.793 53.7979C134.618 53.8852 134.444 53.9726 134.27 53.9726ZM132.44 53.7979H134.27C134.444 53.7979 134.531 53.7106 134.619 53.6232C134.706 53.5359 134.793 53.3612 134.793 53.2739V51.9638C134.793 51.7892 134.706 51.7018 134.619 51.6145L134.531 51.5272L134.619 51.4398C134.706 51.3525 134.793 51.1778 134.793 51.0031V50.0424C134.793 49.8678 134.706 49.7804 134.619 49.6931C134.531 49.6058 134.357 49.5184 134.27 49.5184H132.44V53.7979ZM134.357 53.3612H132.876V51.8765H134.357V53.3612ZM133.05 53.1865H134.183V52.0512H133.05V53.1865ZM134.357 51.4398H132.876V49.9551H134.357V51.4398ZM133.05 51.2651H134.183V50.1298H133.05V51.2651Z" fill="#737373"/>
<path d="M137.32 53.8838V50.041C137.32 49.8664 137.407 49.6917 137.495 49.6044C137.582 49.517 137.756 49.4297 137.93 49.4297H139.237C139.412 49.4297 139.586 49.517 139.673 49.6044C139.76 49.6917 139.847 49.8664 139.847 50.041V53.8838H139.237V51.9624H137.93V53.8838H137.32ZM139.237 51.3511V50.041H137.93V51.3511H139.237Z" fill="#737373"/>
<path d="M139.936 53.9726H139.152V52.0512H138.019V53.9726H137.234V50.0424C137.234 49.8678 137.322 49.6931 137.409 49.5184C137.583 49.3438 137.757 49.3438 137.932 49.3438H139.239C139.413 49.3438 139.587 49.4311 139.762 49.5184C139.936 49.6931 139.936 49.8678 139.936 50.0424V53.9726ZM139.326 53.7979H139.762V50.0424C139.762 49.8678 139.674 49.7804 139.587 49.6931C139.5 49.6058 139.326 49.5184 139.239 49.5184H137.932C137.757 49.5184 137.67 49.6058 137.583 49.6931C137.496 49.7804 137.409 49.9551 137.409 50.0424V53.7979H137.844V51.8765H139.326V53.7979ZM139.326 51.4398H137.844V49.9551H139.326V51.4398ZM138.019 51.2651H139.152V50.1298H138.019V51.2651Z" fill="#737373"/>
<path d="M142.289 53.8877V49.4336H142.899L144.468 52.665V49.4336H145.078V53.8877H144.468L142.899 50.6563V53.8877H142.289Z" fill="#737373"/>
<path d="M145.252 53.974H144.468V53.8866L143.073 51.0045V53.8866H142.289V49.2578H143.073V49.3451L144.468 52.2272V49.3451H145.252V53.974ZM144.555 53.7993H145.078V49.5198H144.642V53.0133L142.899 49.5198H142.376V53.7993H142.812V50.3058L144.555 53.7993Z" fill="#737373"/>
<path d="M147.516 53.8838V49.4297H148.126V51.3511H148.474L149.433 49.4297H150.043L148.91 51.7004L150.043 53.9712H149.433L148.474 52.0498H148.126V53.9712H147.516V53.8838Z" fill="#737373"/>
<path d="M150.218 53.9726H149.347L148.388 52.0512H148.214V53.9726H147.43V49.3438H148.214V51.2651H148.388L149.347 49.3438H150.218L149.085 51.7018L150.218 53.9726ZM149.521 53.7979H149.957L148.911 51.6145L149.957 49.4311H149.521L148.563 51.3525H148.127V49.4311H147.691V53.7106H148.127V51.7892H148.563L149.521 53.7979Z" fill="#737373"/>
<path d="M92.2656 42.9711V39.6523H94.1828V40.1764H92.7885V41.1371H93.7471V41.5737H92.7885V42.5344H94.1828V42.9711H92.2656Z" fill="#737373"/>
<path d="M94.184 43.0585H92.1797V39.6523H94.184V40.1764H92.7897V41.0497H93.7483V41.5737H92.7897V42.4471H94.184V43.0585ZM92.354 42.9711H94.184V42.6218H92.7897V41.5737H93.7483V41.2244H92.7897V40.1764H94.184V39.827H92.354V42.9711Z" fill="#737373"/>
<path d="M96.4498 42.9711C96.2756 42.9711 96.1884 42.8838 96.1013 42.7964C96.0141 42.7091 95.927 42.6218 95.927 42.4471V42.0104H96.3627V42.4471H97.3213V41.4864H96.3627C96.1884 41.4864 96.1013 41.3991 96.0141 41.3117C95.927 41.2244 95.8398 41.1371 95.8398 40.9624V40.1764C95.8398 40.089 95.927 39.9143 96.0141 39.827C96.1013 39.7397 96.1884 39.6523 96.3627 39.6523H97.3213C97.4084 39.6523 97.5827 39.7397 97.6699 39.827C97.757 39.9143 97.8441 40.0017 97.8441 40.1764V40.613H97.4084V40.1764H96.4498V41.1371H97.4084C97.4956 41.1371 97.6699 41.2244 97.757 41.3117C97.8441 41.3991 97.9313 41.4864 97.9313 41.6611V42.6218C97.9313 42.7964 97.8441 42.8838 97.757 42.9711C97.6699 43.0585 97.5827 43.1458 97.4084 43.1458H96.4498V42.9711Z" fill="#737373"/>
<path d="M97.4111 43.0585H96.4525C96.2783 43.0585 96.1911 42.9711 96.104 42.8838C96.0168 42.7964 95.9297 42.6218 95.9297 42.5344V42.0104H96.4525V42.4471H97.324V41.5737H96.4525C96.2783 41.5737 96.1911 41.4864 96.104 41.3991C96.0168 41.3117 95.9297 41.1371 95.9297 41.0497V40.1764C95.9297 40.0017 96.0168 39.9143 96.104 39.827C96.1911 39.7397 96.3654 39.6523 96.4525 39.6523H97.4111C97.5854 39.6523 97.6726 39.7397 97.7597 39.827C97.8468 39.9143 97.934 40.089 97.934 40.1764V40.7004H97.4111V40.1764H96.5397V41.0497H97.4111C97.5854 41.0497 97.6726 41.1371 97.7597 41.2244C97.8468 41.3117 97.934 41.4864 97.934 41.5737V42.5344C97.934 42.7091 97.8468 42.7964 97.7597 42.8838C97.6726 42.9711 97.4983 43.0585 97.4111 43.0585ZM96.0168 42.0978V42.5344C96.0168 42.6218 96.0168 42.7964 96.104 42.7964C96.1911 42.8838 96.2783 42.8838 96.3654 42.8838H97.324C97.4111 42.8838 97.4983 42.8838 97.5854 42.7964C97.6726 42.7091 97.6726 42.6218 97.6726 42.5344V41.5737C97.6726 41.4864 97.6726 41.3991 97.5854 41.3117C97.4983 41.2244 97.4111 41.2244 97.324 41.2244H96.3654V40.1764H97.4111V40.613H97.7597V40.1764C97.7597 40.089 97.7597 40.0017 97.6726 39.9144C97.5854 39.827 97.4983 39.827 97.4111 39.827H96.4525C96.3654 39.827 96.1911 39.827 96.1911 39.9144C96.104 40.0017 96.104 40.089 96.104 40.1764V41.1371C96.104 41.2244 96.104 41.3991 96.1911 41.3991C96.2783 41.4864 96.3654 41.4864 96.4525 41.4864H97.4111V42.5344H96.3654V42.0978H96.0168Z" fill="#737373"/>
<path d="M100.369 42.9697V40.175H99.6719V39.7383H101.589V40.175H100.892V42.9697H100.369Z" fill="#737373"/>
<path d="M100.893 43.0585H100.37V40.1764H99.6731V39.6523H101.677V40.1764H100.98V43.0585H100.893ZM100.37 42.9711H100.719V40.1764H101.416V39.827H99.5859V40.1764H100.283V42.9711H100.37Z" fill="#737373"/>
<path d="M103.336 42.9711V39.6523H104.73C104.817 39.6523 104.992 39.7397 105.079 39.827C105.166 39.9143 105.253 40.0017 105.253 40.1764V42.5344C105.253 42.7091 105.166 42.7964 105.079 42.8838C104.992 42.9711 104.905 43.0585 104.73 43.0585H103.336V42.9711ZM104.73 42.5344V40.1764H103.772V42.5344H104.73Z" fill="#737373"/>
<path d="M104.728 43.0585H103.246V39.6523H104.728C104.902 39.6523 104.989 39.7397 105.076 39.827C105.163 39.9143 105.25 40.089 105.25 40.1764V42.5344C105.25 42.7091 105.163 42.7964 105.076 42.8838C104.989 42.9711 104.902 43.0585 104.728 43.0585ZM103.333 42.9711H104.728C104.815 42.9711 104.902 42.9711 104.989 42.8838C105.076 42.7964 105.076 42.7091 105.076 42.6218V40.1764C105.076 40.089 105.076 40.0017 104.989 39.9144C104.902 39.827 104.815 39.827 104.728 39.827H103.333V42.9711ZM104.815 42.5344H103.769V40.089H104.815V42.5344ZM103.856 42.4471H104.728V40.1764H103.856V42.4471Z" fill="#737373"/>
<path d="M109.52 42.9697V42.533H109.955V40.175L109.52 40.6116V40.175L109.955 39.7383H110.391V42.533H110.827V42.9697H109.52Z" fill="#737373"/>
<path d="M111.001 43.0585H109.52V42.5344H109.955V40.351L109.52 40.7877V40.1764L110.042 39.6523H110.565V42.4471H111.001V43.0585ZM109.52 42.9711H110.827V42.6218H110.391V39.827H109.955L109.52 40.2637V40.613L109.955 40.1764V42.7091H109.52V42.9711Z" fill="#737373"/>
<path d="M113.18 42.9711C113.006 42.9711 112.919 42.8838 112.832 42.7964C112.745 42.7091 112.657 42.6218 112.657 42.4471V42.1851H113.093V42.4471H114.052V41.4864H113.093C112.919 41.4864 112.832 41.3991 112.745 41.3117C112.657 41.2244 112.57 41.1371 112.57 40.9624V40.1764C112.57 40.089 112.657 39.9143 112.745 39.827C112.832 39.7397 112.919 39.6523 113.093 39.6523H114.052C114.139 39.6523 114.313 39.7397 114.4 39.827C114.487 39.9143 114.575 40.0017 114.575 40.1764V42.5344C114.575 42.7091 114.487 42.7964 114.4 42.8838C114.313 42.9711 114.226 43.0585 114.052 43.0585H113.18V42.9711ZM114.139 41.1371V40.1764H113.18V41.1371H114.139Z" fill="#737373"/>
<path d="M114.138 43.0585H113.179C113.005 43.0585 112.918 42.9711 112.831 42.8838C112.743 42.7964 112.656 42.6218 112.656 42.5344V42.2724H113.179V42.5344H114.051V41.6611H113.179C113.005 41.6611 112.918 41.5737 112.831 41.4864C112.743 41.3991 112.656 41.2244 112.656 41.1371V40.1764C112.656 40.0017 112.743 39.9143 112.831 39.827C112.918 39.7397 113.092 39.6523 113.179 39.6523H114.138C114.312 39.6523 114.399 39.7397 114.486 39.827C114.573 39.9143 114.661 40.089 114.661 40.1764V42.5344C114.661 42.7091 114.573 42.7964 114.486 42.8838C114.399 42.9711 114.225 43.0585 114.138 43.0585ZM112.743 42.3598V42.5344C112.743 42.6218 112.743 42.7964 112.831 42.7964C112.918 42.8838 113.005 42.8838 113.092 42.8838H114.051C114.138 42.8838 114.225 42.8838 114.312 42.7964C114.399 42.7091 114.399 42.6218 114.399 42.5344V40.1764C114.399 40.089 114.399 40.0017 114.312 39.9144C114.225 39.827 114.138 39.827 114.051 39.827H113.092C113.005 39.827 112.831 39.827 112.831 39.9144C112.743 40.0017 112.743 40.089 112.743 40.1764V41.1371C112.743 41.2244 112.743 41.3991 112.831 41.3991C112.918 41.4864 113.005 41.4864 113.092 41.4864H114.051V42.5344H113.005V42.2724H112.743V42.3598ZM114.138 41.1371H113.092V40.089H114.138V41.1371ZM113.266 41.0497H114.138V40.1764H113.266V41.0497Z" fill="#737373"/>
<path d="M116.84 42.9711C116.666 42.9711 116.579 42.8838 116.492 42.7964C116.405 42.7091 116.318 42.6218 116.318 42.4471V42.1851H116.753V42.4471H117.712V41.4864H116.753C116.579 41.4864 116.492 41.3991 116.405 41.3117C116.318 41.2244 116.23 41.1371 116.23 40.9624V40.1764C116.23 40.089 116.318 39.9143 116.405 39.827C116.492 39.7397 116.579 39.6523 116.753 39.6523H117.712C117.799 39.6523 117.973 39.7397 118.06 39.827C118.148 39.9143 118.235 40.0017 118.235 40.1764V42.5344C118.235 42.7091 118.148 42.7964 118.06 42.8838C117.973 42.9711 117.886 43.0585 117.712 43.0585H116.84V42.9711ZM117.799 41.1371V40.1764H116.84V41.1371H117.799Z" fill="#737373"/>
<path d="M117.802 43.0585H116.843C116.669 43.0585 116.582 42.9711 116.495 42.8838C116.407 42.7964 116.32 42.6218 116.32 42.5344V42.2724H116.843V42.5344H117.715V41.6611H116.843C116.669 41.6611 116.582 41.5737 116.495 41.4864C116.407 41.3991 116.32 41.2244 116.32 41.1371V40.1764C116.32 40.0017 116.407 39.9143 116.495 39.827C116.582 39.7397 116.756 39.6523 116.843 39.6523H117.802C117.976 39.6523 118.063 39.7397 118.15 39.827C118.237 39.9143 118.325 40.089 118.325 40.1764V42.5344C118.325 42.7091 118.237 42.7964 118.15 42.8838C118.063 42.9711 117.976 43.0585 117.802 43.0585ZM116.407 42.3598V42.5344C116.407 42.6218 116.407 42.7964 116.495 42.7964C116.582 42.8838 116.669 42.8838 116.756 42.8838H117.715C117.802 42.8838 117.889 42.8838 117.976 42.7964C118.063 42.7091 118.063 42.6218 118.063 42.5344V40.1764C118.063 40.089 118.063 40.0017 117.976 39.9144C117.889 39.827 117.802 39.827 117.715 39.827H116.756C116.669 39.827 116.495 39.827 116.495 39.9144C116.407 40.0017 116.407 40.089 116.407 40.1764V41.1371C116.407 41.2244 116.407 41.3991 116.495 41.3991C116.582 41.4864 116.669 41.4864 116.756 41.4864H117.715V42.5344H116.669V42.2724H116.407V42.3598ZM117.889 41.1371H116.843V40.089H117.889V41.1371ZM116.93 41.0497H117.802V40.1764H116.93V41.0497Z" fill="#737373"/>
<path d="M120.501 42.9711C120.326 42.9711 120.239 42.8838 120.152 42.7964C120.065 42.7091 119.978 42.6218 119.978 42.4471V42.1851H120.413V42.4471H121.372V41.4864H120.413C120.239 41.4864 120.152 41.3991 120.065 41.3117C119.978 41.2244 119.891 41.1371 119.891 40.9624V40.1764C119.891 40.089 119.978 39.9143 120.065 39.827C120.152 39.7397 120.239 39.6523 120.413 39.6523H121.372C121.459 39.6523 121.633 39.7397 121.721 39.827C121.808 39.9143 121.895 40.0017 121.895 40.1764V42.5344C121.895 42.7091 121.808 42.7964 121.721 42.8838C121.633 42.9711 121.546 43.0585 121.372 43.0585H120.501V42.9711ZM121.459 41.1371V40.1764H120.501V41.1371H121.459Z" fill="#737373"/>
<path d="M121.458 43.0585H120.499C120.325 43.0585 120.238 42.9711 120.151 42.8838C120.064 42.7964 119.977 42.6218 119.977 42.5344V42.2724H120.499V42.5344H121.371V41.6611H120.499C120.325 41.6611 120.238 41.5737 120.151 41.4864C120.064 41.3991 119.977 41.2244 119.977 41.1371V40.1764C119.977 40.0017 120.064 39.9143 120.151 39.827C120.238 39.7397 120.412 39.6523 120.499 39.6523H121.458C121.632 39.6523 121.719 39.7397 121.807 39.827C121.894 39.9143 121.981 40.089 121.981 40.1764V42.5344C121.981 42.7091 121.894 42.7964 121.807 42.8838C121.719 42.9711 121.632 43.0585 121.458 43.0585ZM120.151 42.3598V42.5344C120.151 42.6218 120.151 42.7964 120.238 42.7964C120.325 42.8838 120.412 42.8838 120.499 42.8838H121.458C121.545 42.8838 121.632 42.8838 121.719 42.7964C121.807 42.7091 121.807 42.6218 121.807 42.5344V40.1764C121.807 40.089 121.807 40.0017 121.719 39.9144C121.632 39.827 121.545 39.827 121.458 39.827H120.499C120.412 39.827 120.238 39.827 120.238 39.9144C120.151 40.0017 120.151 40.089 120.151 40.1764V41.1371C120.151 41.2244 120.151 41.3991 120.238 41.3991C120.325 41.4864 120.412 41.4864 120.499 41.4864H121.458V42.5344H120.412V42.2724H120.151V42.3598ZM121.545 41.1371H120.499V40.089H121.545V41.1371ZM120.587 41.0497H121.458V40.1764H120.587V41.0497Z" fill="#737373"/>
<path d="M89.6497 41.1367H63.5938V41.5734H89.6497V41.1367Z" fill="#737373"/>
<path d="M150.915 41.1367H124.859V41.5734H150.915V41.1367Z" fill="#737373"/>
</g>
<defs>
<clipPath id="clip0_3768_2201">
<rect width="162" height="80" fill="white" transform="translate(0.851562)"/>
</clipPath>
</defs>
</svg>
