<svg width="85" height="80" viewBox="0 0 85 80" fill="none" xmlns="http://www.w3.org/2000/svg">
<g clip-path="url(#clip0_3768_826)">
<path d="M4.39372 40.3445H3.93723L7.24679 43.597C7.41797 43.7682 7.41797 43.9965 7.24679 44.1106L6.73324 44.6241C6.56205 44.7953 6.39087 44.7953 6.21969 44.6241L1.88302 40.2875H1.48359V44.3388C1.48359 44.5671 1.31241 44.7383 1.08417 44.7383H0.342368C0.171184 44.7383 0 44.5671 0 44.3388V34.8096C0 34.5813 0.171184 34.4102 0.342368 34.4102H4.39372C5.99144 34.4102 7.36091 35.7226 7.36091 37.3773C7.36091 39.0321 6.0485 40.3445 4.39372 40.3445ZM4.39372 35.8938H1.48359V38.8609H4.45078C5.24964 38.8609 5.93438 38.1762 5.93438 37.3773C5.87732 36.5785 5.24964 35.8938 4.39372 35.8938Z" fill="#737373"/>
<path d="M15.5787 44.7383H8.95956C8.78837 44.7383 8.61719 44.5671 8.61719 44.3388V34.8096C8.61719 34.5813 8.78837 34.4102 8.95956 34.4102H15.5787C15.8069 34.4102 15.9781 34.5813 15.9781 34.8096V35.5514C15.9781 35.7226 15.8069 35.8938 15.5787 35.8938H10.0437V38.8609H14.0951C14.3233 38.8609 14.4945 39.0321 14.4945 39.2033V39.9451C14.4945 40.1163 14.3233 40.3445 14.0951 40.3445H10.0437V43.3117H15.5787C15.8069 43.3117 15.9781 43.4829 15.9781 43.7112V44.453C15.9781 44.5671 15.8069 44.7383 15.5787 44.7383Z" fill="#737373"/>
<path d="M24.1959 35.8938H21.6281V44.3388C21.6281 44.5671 21.4569 44.7383 21.2287 44.7383H20.5439C20.3157 44.7383 20.1445 44.5671 20.1445 44.3388V35.8938H17.5767C17.4056 35.8938 17.2344 35.7226 17.2344 35.5514V34.8096C17.2344 34.5813 17.4056 34.4102 17.5767 34.4102H24.1959C24.4241 34.4102 24.5953 34.5813 24.5953 34.8096V35.5514C24.5953 35.7226 24.4241 35.8938 24.1959 35.8938Z" fill="#737373"/>
<path d="M32.813 44.7383H26.1939C26.0227 44.7383 25.8516 44.5671 25.8516 44.3388V43.597C25.8516 43.3688 26.0227 43.1976 26.1939 43.1976H28.7617V35.8938H27.6205C27.4493 35.8938 27.2781 35.7226 27.2781 35.5514V34.8096C27.2781 34.5813 27.4493 34.4102 27.6205 34.4102H31.3295C31.5577 34.4102 31.7289 34.5813 31.7289 34.8096V35.5514C31.7289 35.7226 31.5577 35.8938 31.3295 35.8938H30.2453V43.2547H32.813C33.0413 43.2547 33.2125 43.4258 33.2125 43.6541V44.3959C33.2125 44.5671 33.0413 44.7383 32.813 44.7383Z" fill="#737373"/>
<path d="M41.4263 44.7383H40.6845C40.4563 44.7383 40.2851 44.5671 40.2851 44.3388V42.7982L35.8914 38.3474V44.3388C35.8914 44.5671 35.7202 44.7383 35.4919 44.7383H34.8072C34.636 44.7383 34.4648 44.5671 34.4648 44.3388V34.8096C34.4648 34.5813 34.636 34.4102 34.8072 34.4102H35.549C35.7202 34.4102 35.9484 34.5813 35.9484 34.8096V36.3502L40.3422 40.744V34.8096C40.3422 34.5813 40.5133 34.4102 40.7416 34.4102H41.4834C41.7116 34.4102 41.8828 34.5813 41.8828 34.8096V44.3959C41.7687 44.5671 41.6546 44.7383 41.4263 44.7383Z" fill="#737373"/>
<path d="M50.042 44.7383H49.3002C49.0719 44.7383 48.9008 44.5671 48.9008 44.3388V40.2875H44.507V44.3388C44.507 44.5671 44.3358 44.7383 44.1076 44.7383H43.3658C43.1946 44.7383 43.0234 44.5671 43.0234 44.3388V37.3773C43.0234 35.7796 44.3358 34.4102 45.9906 34.4102H47.4742C49.0719 34.4102 50.4414 35.7226 50.4414 37.3773V44.3959C50.3844 44.5671 50.2132 44.7383 50.042 44.7383ZM48.9008 37.3773C48.9008 36.5785 48.216 35.8938 47.4172 35.8938H45.9336C45.1347 35.8938 44.45 36.5785 44.45 37.3773V38.8609H48.8437V37.3773H48.9008Z" fill="#737373"/>
<path d="M56.0914 44.7367H54.6078C53.0101 44.7367 51.6406 43.4243 51.6406 41.7695C51.6406 41.5413 51.8118 41.3701 51.983 41.3701H52.7248C52.896 41.3701 53.1242 41.5413 53.1242 41.7695C53.1242 42.5684 53.809 43.2531 54.6078 43.2531H56.0914C56.8903 43.2531 57.575 42.5684 57.575 41.7695C57.575 40.9707 56.8903 40.2859 56.0914 40.2859H54.6078C53.0101 40.2859 51.6406 38.9735 51.6406 37.3188C51.6406 35.721 52.953 34.3516 54.6078 34.3516H56.0914C57.6891 34.3516 59.0586 35.664 59.0586 37.3188C59.0586 37.547 58.8874 37.7182 58.6592 37.7182H57.9174C57.6891 37.7182 57.5179 37.547 57.5179 37.3188C57.5179 36.5199 56.8332 35.8352 56.0343 35.8352H54.5508C53.7519 35.8352 53.0672 36.5199 53.0672 37.3188C53.0672 38.1176 53.7519 38.8023 54.5508 38.8023H56.0343C57.6321 38.8023 59.0015 40.1148 59.0015 41.7695C59.0015 43.4243 57.6891 44.7367 56.0914 44.7367Z" fill="#737373"/>
<path d="M64.65 44.7367H63.1664C61.5687 44.7367 60.1992 43.4243 60.1992 41.7695V37.3188C60.1992 35.721 61.5116 34.3516 63.1664 34.3516H64.65C66.2477 34.3516 67.6172 35.664 67.6172 37.3188C67.6172 37.547 67.446 37.7182 67.2178 37.7182H66.476C66.2477 37.7182 66.0765 37.547 66.0765 37.3188C66.0765 36.5199 65.3918 35.8352 64.5929 35.8352H63.1093C62.3105 35.8352 61.6258 36.5199 61.6258 37.3188V41.7695C61.6258 42.5684 62.3105 43.2531 63.1093 43.2531H64.5929C65.3918 43.2531 66.0765 42.5684 66.0765 41.7695C66.0765 41.5413 66.2477 41.3701 66.476 41.3701H67.2178C67.446 41.3701 67.6172 41.5413 67.6172 41.7695C67.6172 43.4243 66.3048 44.7367 64.65 44.7367Z" fill="#737373"/>
<path d="M75.8349 44.7383H75.0932C74.8649 44.7383 74.6937 44.5671 74.6937 44.3388V40.2875H70.3V44.3388C70.3 44.5671 70.1288 44.7383 69.9006 44.7383H69.1588C68.9876 44.7383 68.8164 44.5671 68.8164 44.3388V37.3773C68.8164 35.7796 70.1288 34.4102 71.7836 34.4102H73.2672C74.8649 34.4102 76.2344 35.7226 76.2344 37.3773V44.3959C76.2344 44.5671 76.0632 44.7383 75.8349 44.7383ZM74.7508 37.3773C74.7508 36.5785 74.066 35.8938 73.2672 35.8938H71.7836C70.9847 35.8938 70.3 36.5785 70.3 37.3773V38.8609H74.6937V37.3773H74.7508Z" fill="#737373"/>
<path d="M84.4482 44.7383H83.7064C83.4782 44.7383 83.307 44.5671 83.307 44.3388V42.7982L78.9133 38.3474V44.3388C78.9133 44.5671 78.7421 44.7383 78.5139 44.7383H77.7721C77.6009 44.7383 77.4297 44.5671 77.4297 44.3388V34.8096C77.4297 34.5813 77.6009 34.4102 77.7721 34.4102H78.5139C78.685 34.4102 78.9133 34.5813 78.9133 34.8096V36.3502L83.307 40.744V34.8096C83.307 34.5813 83.4782 34.4102 83.7064 34.4102H84.4482C84.6765 34.4102 84.8477 34.5813 84.8477 34.8096V44.3959C84.8477 44.5671 84.6765 44.7383 84.4482 44.7383Z" fill="#737373"/>
<path d="M10.5006 29.6155H9.35938V20.6569L40.6861 2.56841C41.7702 1.94074 43.1397 1.94074 44.2809 2.56841L75.2652 20.4857L74.6946 21.4557L43.7103 3.59552C42.9685 3.13903 42.0555 3.13903 41.2567 3.59552L10.5006 21.3416V29.6155Z" fill="#737373"/>
<path d="M42.4563 77.3176C41.8287 77.3176 41.201 77.1464 40.6874 76.8611L9.70312 58.9438L10.2737 57.9738L41.2581 75.8911C41.9998 76.3476 42.9128 76.3476 43.7117 75.8911L74.4107 58.145V49.8711H75.5519V58.7727L44.2823 76.8611C43.7117 77.1464 43.084 77.3176 42.4563 77.3176Z" fill="#737373"/>
<path d="M31.4401 54.2632H29.6141C29.5571 54.2632 29.5 54.2062 29.5 54.1491V51.5243C29.5 51.4672 29.5571 51.4102 29.6141 51.4102H31.4401C31.4971 51.4102 31.5542 51.4672 31.5542 51.5243V51.7525C31.5542 51.8096 31.4971 51.8666 31.4401 51.8666H29.8994V52.6655H31.0407C31.0977 52.6655 31.1548 52.7226 31.1548 52.7796V53.0079C31.1548 53.0649 31.0977 53.122 31.0407 53.122H29.8994V53.9209H31.4401C31.4971 53.9209 31.5542 53.9779 31.5542 54.035V54.2632C31.5542 54.2062 31.4971 54.2632 31.4401 54.2632Z" fill="#737373"/>
<path d="M31.4409 54.3782H29.615C29.5008 54.3782 29.3867 54.2641 29.3867 54.1499V51.5251C29.3867 51.411 29.5008 51.2969 29.615 51.2969H31.4409C31.555 51.2969 31.6692 51.411 31.6692 51.5251V51.7534C31.6692 51.8675 31.555 51.9816 31.4409 51.9816H30.0144V52.5522H31.0415C31.1556 52.5522 31.2697 52.6663 31.2697 52.7805V53.0087C31.2697 53.1228 31.1556 53.237 31.0415 53.237H30.0144V53.8076H31.4409C31.555 53.8076 31.6692 53.9217 31.6692 54.0358V54.2641C31.6692 54.3211 31.555 54.3782 31.4409 54.3782ZM31.4409 51.5251H29.615V54.1499H31.4409V53.9788H29.7861V52.9517H31.0415V52.7805H29.8432V51.7534H31.498L31.4409 51.5251Z" fill="#737373"/>
<path d="M33.7217 54.2648H33.3223C32.8658 54.2648 32.5234 53.9224 32.5234 53.4659C32.5234 53.4088 32.5805 53.3518 32.6376 53.3518H32.8658C32.9229 53.3518 32.9799 53.4088 32.9799 53.4659C32.9799 53.6941 33.1511 53.8653 33.3794 53.8653H33.7788C34.007 53.8653 34.1782 53.6941 34.1782 53.4659C34.1782 53.2377 34.007 53.0665 33.7788 53.0665H33.3794C32.9229 53.0665 32.5805 52.7241 32.5805 52.2676C32.5805 51.8111 32.9229 51.4688 33.3794 51.4688H33.7788C34.2353 51.4688 34.5776 51.8111 34.5776 52.2676C34.5776 52.3247 34.5206 52.3817 34.4635 52.3817H34.2353C34.1782 52.3817 34.1212 52.3247 34.1212 52.2676C34.1212 52.0394 33.95 51.8682 33.7217 51.8682H33.3223C33.0941 51.8682 32.9229 52.0394 32.9229 52.2676C32.9229 52.4959 33.0941 52.667 33.3223 52.667H33.7217C34.1782 52.667 34.5206 53.0094 34.5206 53.4659C34.5206 53.9224 34.1782 54.2648 33.7217 54.2648Z" fill="#737373"/>
<path d="M33.7226 54.3797H33.3231C32.8096 54.3797 32.4102 53.9803 32.4102 53.4667C32.4102 53.3526 32.5243 53.2385 32.6384 53.2385H32.8666C32.9808 53.2385 33.0949 53.3526 33.0949 53.4667C33.0949 53.6379 33.209 53.752 33.3802 53.752H33.7796C33.9508 53.752 34.0649 53.6379 34.0649 53.4667C34.0649 53.2956 33.9508 53.1814 33.7796 53.1814H33.3802C32.8666 53.1814 32.4672 52.782 32.4672 52.2684C32.4672 51.7549 32.8666 51.3555 33.3802 51.3555H33.7796C34.2932 51.3555 34.6926 51.7549 34.6926 52.2684C34.6926 52.3826 34.5785 52.4967 34.4644 52.4967H34.2361C34.122 52.4967 34.0079 52.3826 34.0079 52.2684C34.0079 52.0973 33.8938 51.9831 33.7226 51.9831H33.3231C33.152 51.9831 33.0378 52.0973 33.0378 52.2684C33.0378 52.4396 33.152 52.5538 33.3231 52.5538H33.7226C34.2361 52.5538 34.6355 52.9532 34.6355 53.4667C34.6355 53.9803 34.2361 54.3797 33.7226 54.3797ZM32.8096 53.4667H32.6384C32.6384 53.8662 32.9808 54.1515 33.3802 54.1515H33.7796C34.1791 54.1515 34.4644 53.8662 34.4644 53.4667C34.4644 53.0673 34.1791 52.782 33.7796 52.782H33.3802C33.0949 52.782 32.8666 52.5538 32.8666 52.2684C32.8666 51.9831 33.0949 51.7549 33.3802 51.7549H33.7796C34.0649 51.7549 34.2932 51.9831 34.2932 52.2684H34.4644C34.4644 51.869 34.122 51.5837 33.7796 51.5837H33.3802C32.9808 51.5837 32.6955 51.869 32.6955 52.2684C32.6955 52.6679 33.0378 52.9532 33.3802 52.9532H33.7796C34.0649 52.9532 34.2932 53.1814 34.2932 53.4667C34.2932 53.752 34.0649 53.9803 33.7796 53.9803H33.3802C33.0378 53.9803 32.8096 53.752 32.8096 53.4667Z" fill="#737373"/>
<path d="M37.4307 51.812H36.746V54.1515C36.746 54.2085 36.6889 54.2656 36.6319 54.2656H36.4036C36.3466 54.2656 36.2895 54.2085 36.2895 54.1515V51.812H35.5477C35.4907 51.812 35.4336 51.7549 35.4336 51.6978V51.4696C35.4336 51.4125 35.4907 51.3555 35.5477 51.3555H37.3737C37.4307 51.3555 37.4878 51.4125 37.4878 51.4696V51.6978C37.5449 51.812 37.4878 51.812 37.4307 51.812Z" fill="#737373"/>
<path d="M36.6327 54.3806H36.4045C36.2904 54.3806 36.1762 54.2664 36.1762 54.1523V51.9269H35.5486C35.4344 51.9269 35.3203 51.8128 35.3203 51.6987V51.4704C35.3203 51.3563 35.4344 51.2422 35.5486 51.2422H37.3745C37.4886 51.2422 37.6028 51.3563 37.6028 51.4704V51.6987C37.6028 51.8128 37.4886 51.9269 37.3745 51.9269H36.8039V54.1523C36.861 54.3235 36.7468 54.3806 36.6327 54.3806ZM36.2904 51.6987H36.4045V54.1523H36.5757V51.6987H37.3745V51.5275H35.5486V51.6987H36.2904Z" fill="#737373"/>
<path d="M39.7124 54.2632H38.5712C38.5141 54.2632 38.457 54.2062 38.457 54.1491V51.5243C38.457 51.4672 38.5141 51.4102 38.5712 51.4102H39.7124C40.1689 51.4102 40.5112 51.7525 40.5112 52.209V53.4073C40.5112 53.9209 40.1689 54.2632 39.7124 54.2632ZM40.1118 52.2661C40.1118 52.0378 39.9406 51.8666 39.7124 51.8666H38.9135V53.9209H39.7124C39.9406 53.9209 40.1118 53.7497 40.1118 53.5214V52.2661Z" fill="#737373"/>
<path d="M39.7132 54.3782H38.572C38.4579 54.3782 38.3438 54.2641 38.3438 54.1499V51.5251C38.3438 51.411 38.4579 51.2969 38.572 51.2969H39.7132C40.2268 51.2969 40.6262 51.6963 40.6262 52.2099V53.4081C40.6262 53.9788 40.2268 54.3782 39.7132 54.3782ZM38.572 51.5251V54.1499H39.6562C40.0556 54.1499 40.3409 53.8646 40.3409 53.4652V52.2669C40.3409 51.8675 40.0556 51.5822 39.6562 51.5822H38.572V51.5251ZM39.7132 53.9788H38.8002V51.6963H39.7132C39.9985 51.6963 40.2268 51.9245 40.2268 52.2099V53.4081C40.2268 53.7505 39.9985 53.9788 39.7132 53.9788ZM39.0285 53.7505H39.7132C39.8844 53.7505 39.9985 53.6364 39.9985 53.4652V52.2669C39.9985 52.0957 39.8844 51.9816 39.7132 51.9816H39.0285V53.7505Z" fill="#737373"/>
<path d="M46.4516 54.2671H44.6257C44.5686 54.2671 44.5115 54.2101 44.5115 54.153V53.9248C44.5115 53.8677 44.5686 53.8106 44.6257 53.8106H45.3675V52.0417L44.8539 52.5553C44.7969 52.6124 44.7398 52.6124 44.6827 52.5553L44.5115 52.4982C44.4545 52.4412 44.4545 52.3841 44.5115 52.327L45.3104 51.5282C45.3104 51.4711 45.3675 51.4141 45.4245 51.4141H45.6528C45.7098 51.4141 45.7669 51.4711 45.7669 51.5282V53.8677H46.4516C46.5087 53.8677 46.5658 53.9248 46.5658 53.9818V54.2101C46.5087 54.2101 46.5087 54.2671 46.4516 54.2671Z" fill="#737373"/>
<path d="M46.4487 54.3806H44.6228C44.5087 54.3806 44.3945 54.2664 44.3945 54.1523V53.9241C44.3945 53.8099 44.5087 53.6958 44.6228 53.6958H45.2505V52.3263L44.9651 52.6117C44.9081 52.6687 44.7369 52.6687 44.6798 52.6117L44.5087 52.4405C44.4516 52.3834 44.4516 52.2122 44.5087 52.1552L45.2505 51.4134C45.2505 51.2992 45.3646 51.2422 45.4787 51.2422H45.7069C45.8211 51.2422 45.9352 51.3563 45.9352 51.4704V53.6958H46.5058C46.6199 53.6958 46.734 53.8099 46.734 53.9241V54.1523C46.6199 54.3235 46.5629 54.3806 46.4487 54.3806ZM44.6228 53.9811V54.1523H46.4487V53.9811H45.6499V51.5275H45.4787V51.5846V51.6416L44.6798 52.4405L44.851 52.5546L45.5358 51.8699V54.0382H44.6228V53.9811Z" fill="#737373"/>
<path d="M48.7295 54.2648H48.3301C47.8736 54.2648 47.5312 53.9224 47.5312 53.4659C47.5312 53.4088 47.5883 53.3518 47.6454 53.3518H47.8736C47.9307 53.3518 47.9877 53.4088 47.9877 53.4659C47.9877 53.6941 48.1589 53.8653 48.3872 53.8653H48.7866C49.0148 53.8653 49.186 53.6941 49.186 53.4659V53.0665H48.3872C47.9307 53.0665 47.5883 52.7241 47.5883 52.2676C47.5883 51.8111 47.9307 51.4688 48.3872 51.4688H48.7866C49.2431 51.4688 49.5855 51.8111 49.5855 52.2676V53.4659C49.5284 53.9224 49.186 54.2648 48.7295 54.2648ZM49.129 52.2676C49.129 52.0394 48.9578 51.8682 48.7295 51.8682H48.3301C48.1019 51.8682 47.9307 52.0394 47.9307 52.2676C47.9307 52.4959 48.1019 52.667 48.3301 52.667H49.129V52.2676Z" fill="#737373"/>
<path d="M48.7304 54.3797H48.3309C47.8174 54.3797 47.418 53.9803 47.418 53.4667C47.418 53.3526 47.5321 53.2385 47.6462 53.2385H47.8745C47.9886 53.2385 48.1027 53.3526 48.1027 53.4667C48.1027 53.6379 48.2168 53.752 48.388 53.752H48.7874C48.9586 53.752 49.0727 53.6379 49.0727 53.4667V53.1814H48.388C47.8745 53.1814 47.475 52.782 47.475 52.2684C47.475 51.7549 47.8745 51.3555 48.388 51.3555H48.7874C49.301 51.3555 49.7004 51.7549 49.7004 52.2684V53.4667C49.6434 53.9803 49.2439 54.3797 48.7304 54.3797ZM47.8174 53.4667H47.6462C47.6462 53.8662 47.9886 54.1515 48.388 54.1515H48.7874C49.1869 54.1515 49.4722 53.8662 49.4722 53.4667V52.2684C49.4722 51.869 49.1869 51.5837 48.7874 51.5837H48.388C47.9886 51.5837 47.7033 51.869 47.7033 52.2684C47.7033 52.6679 48.0456 52.9532 48.388 52.9532H49.301V53.4667C49.301 53.752 49.0727 53.9803 48.7874 53.9803H48.388C48.0456 53.9803 47.8174 53.752 47.8174 53.4667ZM49.2439 52.782H48.3309C48.0456 52.782 47.8174 52.5538 47.8174 52.2684C47.8174 51.9831 48.0456 51.7549 48.3309 51.7549H48.7304C49.0157 51.7549 49.2439 51.9831 49.2439 52.2684V52.782ZM48.3309 51.9261C48.1598 51.9261 48.0456 52.0402 48.0456 52.2114C48.0456 52.3826 48.1598 52.4967 48.3309 52.4967H49.0157V52.2114C49.0157 52.0402 48.9016 51.9261 48.7304 51.9261H48.3309Z" fill="#737373"/>
<path d="M51.6944 54.2648H51.295C50.8385 54.2648 50.4961 53.9224 50.4961 53.4659C50.4961 53.4088 50.5532 53.3518 50.6102 53.3518H50.7814C50.8385 53.3518 50.8955 53.4088 50.8955 53.4659C50.8955 53.6941 51.0667 53.8653 51.295 53.8653H51.6944C51.9226 53.8653 52.0938 53.6941 52.0938 53.4659V53.0665H51.295C50.8385 53.0665 50.4961 52.7241 50.4961 52.2676C50.4961 51.8111 50.8385 51.4688 51.295 51.4688H51.6944C52.1509 51.4688 52.4932 51.8111 52.4932 52.2676V53.4659C52.5503 53.9224 52.1509 54.2648 51.6944 54.2648ZM52.0938 52.2676C52.0938 52.0394 51.9226 51.8682 51.6944 51.8682H51.295C51.0667 51.8682 50.8955 52.0394 50.8955 52.2676C50.8955 52.4959 51.0667 52.667 51.295 52.667H52.0938V52.2676Z" fill="#737373"/>
<path d="M51.6952 54.3797H51.2958C50.7822 54.3797 50.3828 53.9803 50.3828 53.4667C50.3828 53.3526 50.4969 53.2385 50.6111 53.2385H50.7822C50.8964 53.2385 51.0105 53.3526 51.0105 53.4667C51.0105 53.6379 51.1246 53.752 51.2958 53.752H51.6952C51.8664 53.752 51.9805 53.6379 51.9805 53.4667V53.1814H51.2958C50.7822 53.1814 50.3828 52.782 50.3828 52.2684C50.3828 51.7549 50.7822 51.3555 51.2958 51.3555H51.6952C52.2088 51.3555 52.6082 51.7549 52.6082 52.2684V53.4667C52.6653 53.9803 52.2088 54.3797 51.6952 54.3797ZM50.7822 53.4667H50.6111C50.6111 53.8662 50.9534 54.1515 51.3529 54.1515H51.7523C52.1517 54.1515 52.437 53.8662 52.437 53.4667V52.2684C52.437 51.869 52.1517 51.5837 51.7523 51.5837H51.3529C50.9534 51.5837 50.6681 51.869 50.6681 52.2684C50.6681 52.6679 51.0105 52.9532 51.3529 52.9532H52.2658V53.4667C52.2658 53.752 52.0376 53.9803 51.7523 53.9803H51.3529C51.0105 53.9803 50.7822 53.752 50.7822 53.4667ZM52.2088 52.782H51.2958C51.0105 52.782 50.7822 52.5538 50.7822 52.2684C50.7822 51.9831 51.0105 51.7549 51.2958 51.7549H51.6952C51.9805 51.7549 52.2088 51.9831 52.2088 52.2684V52.782ZM51.2958 51.9261C51.1246 51.9261 51.0105 52.0402 51.0105 52.2114C51.0105 52.3826 51.1246 52.4967 51.2958 52.4967H51.9805V52.2114C51.9805 52.0402 51.8664 51.9261 51.6952 51.9261H51.2958Z" fill="#737373"/>
<path d="M55.5191 52.152L54.7202 52.9508V54.2062C54.7202 54.2632 54.6631 54.3203 54.6061 54.3203H54.3778C54.3208 54.3203 54.2637 54.2632 54.2637 54.2062V52.8367C54.2637 52.7796 54.2637 52.7796 54.3208 52.7796L55.1196 51.9808V51.8666H53.579C53.5219 51.8666 53.4648 51.8096 53.4648 51.7525V51.5243C53.4648 51.4672 53.5219 51.4102 53.579 51.4102H55.4049C55.462 51.4102 55.5191 51.4672 55.5191 51.5243V52.0949V52.152Z" fill="#737373"/>
<path d="M54.6069 54.379H54.3787C54.2645 54.379 54.1504 54.2649 54.1504 54.1508V52.7813C54.1504 52.7243 54.1504 52.6672 54.2075 52.6101L54.9493 51.8683H53.5798C53.4657 51.8683 53.3516 51.7542 53.3516 51.6401V51.4118C53.3516 51.2977 53.4657 51.1836 53.5798 51.1836H55.4058C55.5199 51.1836 55.634 51.2977 55.634 51.4118V51.9825C55.634 52.0395 55.634 52.0966 55.577 52.1536L54.8352 52.8954V54.0937C54.8352 54.322 54.721 54.379 54.6069 54.379ZM55.1205 51.6971H55.2346V51.9825L54.4357 52.7813V54.1508H54.6069V52.8954L55.4058 52.0966V51.583H53.5798V51.7542L55.1205 51.6971Z" fill="#737373"/>
<path d="M19.4596 28.1304H17.6337C17.5766 28.1304 17.5195 28.0733 17.5195 28.0163V25.3915C17.5195 25.3344 17.5766 25.2773 17.6337 25.2773H19.4596C19.5167 25.2773 19.5737 25.3344 19.5737 25.3915V25.6197C19.5737 25.6768 19.5167 25.7338 19.4596 25.7338H17.919V26.5327H19.0602C19.1172 26.5327 19.1743 26.5898 19.1743 26.6468V26.818C19.1743 26.8751 19.1172 26.9321 19.0602 26.9321H17.919V27.731H19.4596C19.5167 27.731 19.5737 27.788 19.5737 27.8451V28.0734C19.5737 28.0734 19.5167 28.1304 19.4596 28.1304Z" fill="#737373"/>
<path d="M19.4605 28.2454H17.6345C17.5204 28.2454 17.4062 28.1313 17.4062 28.0171V25.3923C17.4062 25.2782 17.5204 25.1641 17.6345 25.1641H19.4605C19.5746 25.1641 19.6887 25.2782 19.6887 25.3923V25.6206C19.6887 25.7347 19.5746 25.8488 19.4605 25.8488H18.0339V26.4194H19.061C19.1752 26.4194 19.2893 26.5335 19.2893 26.6477V26.8188C19.2893 26.933 19.1752 27.0471 19.061 27.0471H18.0339V27.6177H19.4605C19.5746 27.6177 19.6887 27.7318 19.6887 27.8459V28.0742C19.6887 28.1313 19.5746 28.2454 19.4605 28.2454ZM19.4605 25.3923H17.6345V28.0171H19.4605V27.8459H17.8057V26.8188H19.061V26.6477H17.8627V25.6206H19.5175L19.4605 25.3923Z" fill="#737373"/>
<path d="M22.5425 26.0191L21.7436 26.818V28.0734C21.7436 28.1304 21.6866 28.1875 21.6295 28.1875H21.4013C21.3442 28.1875 21.2871 28.1304 21.2871 28.0734V26.818L20.5453 26.0191L20.4883 25.9621V25.3915C20.4883 25.3344 20.5453 25.2773 20.6024 25.2773H20.8306C20.8877 25.2773 20.9448 25.3344 20.9448 25.3915V25.848L21.5724 26.4756L22.2001 25.848V25.3915C22.2001 25.3344 22.2572 25.2773 22.3142 25.2773H22.5425C22.5996 25.2773 22.6566 25.3344 22.6566 25.3915V25.9621C22.5425 25.9621 22.5425 25.9621 22.5425 26.0191Z" fill="#737373"/>
<path d="M21.6303 28.2438H21.4021C21.288 28.2438 21.1739 28.1297 21.1739 28.0156V26.8173L20.4321 26.0755C20.375 26.0185 20.375 25.9614 20.375 25.9043V25.3337C20.375 25.2196 20.4891 25.1055 20.6032 25.1055H20.8315C20.9456 25.1055 21.0597 25.2196 21.0597 25.3337V25.7331L21.5733 26.2467L22.0868 25.7331V25.3337C22.0868 25.2196 22.201 25.1055 22.3151 25.1055H22.5433C22.6575 25.1055 22.7716 25.2196 22.7716 25.3337V25.9043C22.7716 25.9614 22.7716 26.0185 22.7145 26.0755L21.8586 26.8173V28.0156C21.8586 28.1297 21.7445 28.2438 21.6303 28.2438ZM20.8315 25.3908H20.6603V25.9043L21.4592 26.7032V28.0156H21.6303V26.7602L22.4292 25.9614V25.4478H22.258V25.9043L21.5162 26.6461L20.7744 25.9043V25.3908H20.8315Z" fill="#737373"/>
<path d="M25.4518 28.1304H23.6258C23.5688 28.1304 23.5117 28.0733 23.5117 28.0163V25.3915C23.5117 25.3344 23.5688 25.2773 23.6258 25.2773H25.4518C25.5089 25.2773 25.5659 25.3344 25.5659 25.3915V25.6197C25.5659 25.6768 25.5089 25.7338 25.4518 25.7338H23.9111V26.5327H25.0524C25.1094 26.5327 25.1665 26.5898 25.1665 26.6468V26.818C25.1665 26.8751 25.1094 26.9321 25.0524 26.9321H23.9111V27.731H25.4518C25.5089 27.731 25.5659 27.788 25.5659 27.8451V28.0734C25.5659 28.0734 25.5089 28.1304 25.4518 28.1304Z" fill="#737373"/>
<path d="M25.4526 28.2454H23.6267C23.5126 28.2454 23.3984 28.1313 23.3984 28.0171V25.3923C23.3984 25.2782 23.5126 25.1641 23.6267 25.1641H25.4526C25.5668 25.1641 25.6809 25.2782 25.6809 25.3923V25.6206C25.6809 25.7347 25.5668 25.8488 25.4526 25.8488H24.0261V26.4194H25.0532C25.1673 26.4194 25.2815 26.5335 25.2815 26.6477V26.8188C25.2815 26.933 25.1673 27.0471 25.0532 27.0471H24.0261V27.6177H25.4526C25.5668 27.6177 25.6809 27.7318 25.6809 27.8459V28.0742C25.6809 28.1313 25.5668 28.2454 25.4526 28.2454ZM25.4526 25.3923H23.6267V28.0171H25.4526V27.8459H23.7979V26.8188H25.0532V26.6477H23.8549V25.6206H25.5097L25.4526 25.3923Z" fill="#737373"/>
<path d="M30.7569 28.128H30.3575C29.901 28.128 29.5586 27.7857 29.5586 27.3292C29.5586 27.2721 29.6157 27.2151 29.6727 27.2151H29.901C29.958 27.2151 30.0151 27.2721 30.0151 27.3292C30.0151 27.5574 30.1863 27.7286 30.4145 27.7286H30.8139C31.0422 27.7286 31.2134 27.5574 31.2134 27.3292C31.2134 27.1009 31.0422 26.9297 30.8139 26.9297H30.4145C29.958 26.9297 29.6157 26.5874 29.6157 26.1309C29.6157 25.6744 29.958 25.332 30.4145 25.332H30.8139C31.2704 25.332 31.6128 25.6744 31.6128 26.1309C31.6128 26.188 31.5557 26.245 31.4987 26.245H31.2704C31.2134 26.245 31.1563 26.188 31.1563 26.1309C31.1563 25.9026 30.9851 25.7315 30.7569 25.7315H30.3575C30.1292 25.7315 29.958 25.9026 29.958 26.1309C29.958 26.3591 30.1292 26.5303 30.3575 26.5303H30.7569C31.2134 26.5303 31.5557 26.8727 31.5557 27.3292C31.5557 27.7857 31.1563 28.128 30.7569 28.128Z" fill="#737373"/>
<path d="M30.7577 28.243H30.3583C29.8447 28.243 29.4453 27.8436 29.4453 27.33C29.4453 27.2159 29.5594 27.1018 29.6736 27.1018H29.9018C30.0159 27.1018 30.13 27.2159 30.13 27.33C30.13 27.5012 30.2442 27.6153 30.4154 27.6153H30.8148C30.986 27.6153 31.1001 27.5012 31.1001 27.33C31.1001 27.1588 30.986 27.0447 30.8148 27.0447H30.4154C29.9018 27.0447 29.5024 26.6453 29.5024 26.1317C29.5024 25.6182 29.9018 25.2188 30.4154 25.2188H30.8148C31.3283 25.2188 31.7278 25.6182 31.7278 26.1317C31.7278 26.2459 31.6136 26.36 31.4995 26.36H31.2713C31.1572 26.36 31.043 26.2459 31.043 26.1317C31.043 25.9605 30.9289 25.8464 30.7577 25.8464H30.3583C30.1871 25.8464 30.073 25.9605 30.073 26.1317C30.073 26.3029 30.1871 26.417 30.3583 26.417H30.7577C31.2713 26.417 31.6707 26.8165 31.6707 27.33C31.6707 27.8436 31.2713 28.243 30.7577 28.243ZM29.7877 27.33H29.6165C29.6165 27.7294 29.9589 28.0148 30.3583 28.0148H30.7577C31.1572 28.0148 31.4425 27.7294 31.4425 27.33C31.4425 26.9306 31.1572 26.6453 30.7577 26.6453H30.3583C30.073 26.6453 29.8447 26.417 29.8447 26.1317C29.8447 25.8464 30.073 25.6182 30.3583 25.6182H30.7577C31.043 25.6182 31.2713 25.8464 31.2713 26.1317H31.4425C31.4425 25.7323 31.1001 25.447 30.7577 25.447H30.3583C29.9589 25.447 29.6736 25.7323 29.6736 26.1317C29.6736 26.5312 30.0159 26.8165 30.3583 26.8165H30.7577C31.043 26.8165 31.2713 27.0447 31.2713 27.33C31.2713 27.6153 31.043 27.8436 30.7577 27.8436H30.3583C30.0159 27.8436 29.7877 27.6153 29.7877 27.33Z" fill="#737373"/>
<path d="M33.7256 28.128H33.3262C32.8697 28.128 32.5273 27.7857 32.5273 27.3292V26.1309C32.5273 25.6744 32.8697 25.332 33.3262 25.332H33.7256C34.1821 25.332 34.5245 25.6744 34.5245 26.1309C34.5245 26.188 34.4674 26.245 34.4104 26.245H34.2392C34.1821 26.245 34.1251 26.188 34.1251 26.1309C34.1251 25.9026 33.9539 25.7315 33.7256 25.7315H33.3262C33.098 25.7315 32.9268 25.9026 32.9268 26.1309V27.3292C32.9268 27.5574 33.098 27.7286 33.3262 27.7286H33.7256C33.9539 27.7286 34.1251 27.5574 34.1251 27.3292C34.1251 27.2721 34.1821 27.2151 34.2392 27.2151H34.4674C34.5245 27.2151 34.5816 27.2721 34.5816 27.3292C34.5245 27.7857 34.1821 28.128 33.7256 28.128Z" fill="#737373"/>
<path d="M33.7265 28.243H33.327C32.8135 28.243 32.4141 27.8436 32.4141 27.33V26.1317C32.4141 25.6182 32.8135 25.2188 33.327 25.2188H33.7265C34.24 25.2188 34.6395 25.6182 34.6395 26.1317C34.6395 26.2459 34.5253 26.36 34.4112 26.36H34.24C34.1259 26.36 34.0118 26.2459 34.0118 26.1317C34.0118 25.9605 33.8977 25.8464 33.7265 25.8464H33.327C33.1559 25.8464 33.0417 25.9605 33.0417 26.1317V27.33C33.0417 27.5012 33.1559 27.6153 33.327 27.6153H33.7265C33.8977 27.6153 34.0118 27.5012 34.0118 27.33C34.0118 27.2159 34.1259 27.1018 34.24 27.1018H34.4683C34.5824 27.1018 34.6965 27.2159 34.6965 27.33C34.6395 27.8436 34.24 28.243 33.7265 28.243ZM33.327 25.3899C32.9276 25.3899 32.6423 25.6752 32.6423 26.0747V27.273C32.6423 27.6724 32.9847 27.9577 33.327 27.9577H33.7265C34.1259 27.9577 34.4112 27.6724 34.4112 27.273H34.24C34.24 27.5583 34.0118 27.7865 33.7265 27.7865H33.327C33.0417 27.7865 32.8135 27.5583 32.8135 27.273V26.0747C32.8135 25.7894 33.0417 25.5611 33.327 25.5611H33.7265C34.0118 25.5611 34.24 25.7894 34.24 26.0747H34.4112C34.4112 25.6752 34.0688 25.3899 33.7265 25.3899H33.327Z" fill="#737373"/>
<path d="M37.4346 28.1304H37.2064C37.1493 28.1304 37.0923 28.0733 37.0923 28.0163V26.8751H35.894V28.0163C35.894 28.0733 35.8369 28.1304 35.7799 28.1304H35.5516C35.4946 28.1304 35.4375 28.0733 35.4375 28.0163V26.0762C35.4375 25.6197 35.7799 25.2773 36.2364 25.2773H36.6358C37.0923 25.2773 37.4346 25.6197 37.4346 26.0762V28.0163C37.5488 28.0733 37.4917 28.1304 37.4346 28.1304ZM37.1493 26.0762C37.1493 25.848 36.9782 25.6768 36.7499 25.6768H36.3505C36.1222 25.6768 35.9511 25.848 35.9511 26.0762V26.4756H37.1493V26.0762Z" fill="#737373"/>
<path d="M37.4355 28.2454H37.2072C37.0931 28.2454 36.979 28.1313 36.979 28.0171V26.99H36.009V28.0171C36.009 28.1313 35.8948 28.2454 35.7807 28.2454H35.5525C35.4383 28.2454 35.3242 28.1313 35.3242 28.0171V26.077C35.3242 25.5635 35.7236 25.1641 36.2372 25.1641H36.6366C37.1502 25.1641 37.5496 25.5635 37.5496 26.077V28.0171C37.6637 28.1313 37.5496 28.2454 37.4355 28.2454ZM35.7807 26.8188H37.2072V28.0742H37.3784V26.1341C37.3784 25.7347 37.0931 25.4494 36.6937 25.4494H36.2943C35.8948 25.4494 35.6095 25.7347 35.6095 26.1341V28.0742H35.7807V26.8188ZM37.2643 26.6477H35.8378V26.1341C35.8378 25.8488 36.066 25.6206 36.3513 25.6206H36.7508C37.0361 25.6206 37.2643 25.8488 37.2643 26.1341V26.6477ZM36.009 26.4194H36.979V26.1341C36.979 25.9629 36.8649 25.8488 36.6937 25.8488H36.2943C36.1231 25.8488 36.009 25.9629 36.009 26.1341V26.4194Z" fill="#737373"/>
<path d="M40.4581 28.1319H40.2298C40.1728 28.1319 40.1157 28.0749 40.1157 28.0178V27.6184L38.9174 26.4201V28.0749C38.9174 28.1319 38.8604 28.189 38.8033 28.189H38.5751C38.518 28.189 38.4609 28.1319 38.4609 28.0749V25.4501C38.4609 25.393 38.518 25.3359 38.5751 25.3359H38.8033C38.8604 25.3359 38.9174 25.393 38.9174 25.4501V25.9066L40.1157 27.1048V25.4501C40.1157 25.393 40.1728 25.3359 40.2298 25.3359H40.4581C40.5151 25.3359 40.5722 25.393 40.5722 25.4501V28.0749C40.5151 28.0749 40.5151 28.1319 40.4581 28.1319Z" fill="#737373"/>
<path d="M40.4589 28.2454H40.2307C40.1166 28.2454 40.0024 28.1313 40.0024 28.0171V27.6177L39.0324 26.6477V28.0171C39.0324 28.1313 38.9183 28.2454 38.8041 28.2454H38.5759C38.4618 28.2454 38.3477 28.1313 38.3477 28.0171V25.3923C38.3477 25.2782 38.4618 25.1641 38.5759 25.1641H38.8041C38.9183 25.1641 39.0324 25.2782 39.0324 25.3923V25.7917L40.0024 26.7618V25.3923C40.0024 25.2782 40.1166 25.1641 40.2307 25.1641H40.4589C40.5731 25.1641 40.6872 25.2782 40.6872 25.3923V28.0171C40.6301 28.1313 40.5731 28.2454 40.4589 28.2454ZM38.8041 26.1341L40.2307 27.5606V28.0171H40.4019V25.3923H40.2307V27.3324L38.8041 25.8488V25.3923H38.633V28.0171H38.8041V26.1341Z" fill="#737373"/>
<path d="M45.71 28.128H45.3106C44.8541 28.128 44.5117 27.7857 44.5117 27.3292C44.5117 27.2721 44.5688 27.2151 44.6258 27.2151H44.8541C44.9111 27.2151 44.9682 27.2721 44.9682 27.3292C44.9682 27.5574 45.1394 27.7286 45.3676 27.7286H45.7671C45.9953 27.7286 46.1665 27.5574 46.1665 27.3292C46.1665 27.1009 45.9953 26.9297 45.7671 26.9297H45.3676C44.9111 26.9297 44.5688 26.5874 44.5688 26.1309C44.5688 25.6744 44.9111 25.332 45.3676 25.332H45.7671C46.2236 25.332 46.5659 25.6744 46.5659 26.1309C46.5659 26.188 46.5089 26.245 46.4518 26.245H46.2236C46.1665 26.245 46.1094 26.188 46.1094 26.1309C46.1094 25.9026 45.9383 25.7315 45.71 25.7315H45.3106C45.0823 25.7315 44.9111 25.9026 44.9111 26.1309C44.9111 26.3591 45.0823 26.5303 45.3106 26.5303H45.71C46.1665 26.5303 46.5089 26.8727 46.5089 27.3292C46.5089 27.7857 46.1665 28.128 45.71 28.128Z" fill="#737373"/>
<path d="M45.7108 28.243H45.3114C44.7979 28.243 44.3984 27.8436 44.3984 27.33C44.3984 27.2159 44.5126 27.1018 44.6267 27.1018H44.8549C44.969 27.1018 45.0832 27.2159 45.0832 27.33C45.0832 27.5012 45.1973 27.6153 45.3685 27.6153H45.7679C45.9391 27.6153 46.0532 27.5012 46.0532 27.33C46.0532 27.1588 45.9391 27.0447 45.7679 27.0447H45.3685C44.8549 27.0447 44.4555 26.6453 44.4555 26.1317C44.4555 25.6182 44.8549 25.2188 45.3685 25.2188H45.7679C46.2815 25.2188 46.6809 25.6182 46.6809 26.1317C46.6809 26.2459 46.5668 26.36 46.4526 26.36H46.2244C46.1103 26.36 45.9962 26.2459 45.9962 26.1317C45.9962 25.9605 45.882 25.8464 45.7108 25.8464H45.3114C45.1402 25.8464 45.0261 25.9605 45.0261 26.1317C45.0261 26.3029 45.1402 26.417 45.3114 26.417H45.7108C46.2244 26.417 46.6238 26.8165 46.6238 27.33C46.6238 27.8436 46.2244 28.243 45.7108 28.243ZM44.7979 27.33H44.6267C44.6267 27.7294 44.969 28.0148 45.3685 28.0148H45.7679C46.1673 28.0148 46.4526 27.7294 46.4526 27.33C46.4526 26.9306 46.1673 26.6453 45.7679 26.6453H45.3685C45.0832 26.6453 44.8549 26.417 44.8549 26.1317C44.8549 25.8464 45.0832 25.6182 45.3685 25.6182H45.7679C46.0532 25.6182 46.2815 25.8464 46.2815 26.1317H46.4526C46.4526 25.7323 46.1103 25.447 45.7679 25.447H45.3685C44.969 25.447 44.6837 25.7323 44.6837 26.1317C44.6837 26.5312 45.0261 26.8165 45.3685 26.8165H45.7679C46.0532 26.8165 46.2815 27.0447 46.2815 27.33C46.2815 27.6153 46.0532 27.8436 45.7679 27.8436H45.3685C45.0261 27.8436 44.7979 27.6153 44.7979 27.33Z" fill="#737373"/>
<path d="M48.7334 28.128H48.334C47.8775 28.128 47.5352 27.7857 47.5352 27.3292V26.1309C47.5352 25.6744 47.8775 25.332 48.334 25.332H48.7334C49.1899 25.332 49.5323 25.6744 49.5323 26.1309V27.3292C49.5323 27.7857 49.1899 28.128 48.7334 28.128ZM49.1329 26.0738C49.1329 25.8456 48.9617 25.6744 48.7334 25.6744H48.334C48.1058 25.6744 47.9346 25.8456 47.9346 26.0738V27.2721C47.9346 27.5004 48.1058 27.6715 48.334 27.6715H48.7334C48.9617 27.6715 49.1329 27.5004 49.1329 27.2721V26.0738Z" fill="#737373"/>
<path d="M48.7343 28.243H48.3349C47.8213 28.243 47.4219 27.8436 47.4219 27.33V26.1317C47.4219 25.6182 47.8213 25.2188 48.3349 25.2188H48.7343C49.2478 25.2188 49.6473 25.6182 49.6473 26.1317V27.33C49.6473 27.8436 49.2478 28.243 48.7343 28.243ZM48.3349 25.3899C47.9354 25.3899 47.6501 25.6752 47.6501 26.0747V27.273C47.6501 27.6724 47.9925 27.9577 48.3349 27.9577H48.7343C49.1337 27.9577 49.419 27.6724 49.419 27.273V26.0747C49.419 25.6752 49.1337 25.3899 48.7343 25.3899H48.3349ZM48.7343 27.8436H48.3349C48.0495 27.8436 47.8213 27.6153 47.8213 27.33V26.1317C47.8213 25.8464 48.0495 25.6182 48.3349 25.6182H48.7343C49.0196 25.6182 49.2478 25.8464 49.2478 26.1317V27.33C49.2478 27.6153 49.0196 27.8436 48.7343 27.8436ZM48.3349 25.7894C48.1637 25.7894 48.0495 25.9035 48.0495 26.0747V27.273C48.0495 27.4441 48.1637 27.5583 48.3349 27.5583H48.7343C48.9055 27.5583 49.0196 27.4441 49.0196 27.273V26.0747C49.0196 25.9035 48.9055 25.7894 48.7343 25.7894H48.3349Z" fill="#737373"/>
<path d="M52.4386 25.6783H50.8979V26.4772H52.0391C52.0962 26.4772 52.1532 26.5342 52.1532 26.5913V26.8195C52.1532 26.8766 52.0962 26.9337 52.0391 26.9337H50.8979V28.0749C50.8979 28.1319 50.8408 28.189 50.7838 28.189H50.5555C50.4985 28.189 50.4414 28.1319 50.4414 28.0749V25.4501C50.4414 25.393 50.4985 25.3359 50.5555 25.3359H52.3815C52.4386 25.3359 52.4956 25.393 52.4956 25.4501V25.6783C52.5527 25.6212 52.4956 25.6783 52.4386 25.6783Z" fill="#737373"/>
<path d="M50.7846 28.2454H50.5564C50.4422 28.2454 50.3281 28.1313 50.3281 28.0171V25.3923C50.3281 25.2782 50.4422 25.1641 50.5564 25.1641H52.3823C52.4965 25.1641 52.6106 25.2782 52.6106 25.3923V25.6206C52.6106 25.7347 52.4965 25.8488 52.3823 25.8488H50.9558V26.4194H51.9829C52.097 26.4194 52.2112 26.5335 52.2112 26.6477V26.8188C52.2112 26.933 52.097 27.0471 51.9829 27.0471H50.9558V28.0742C51.0129 28.1313 50.8987 28.2454 50.7846 28.2454ZM52.4394 25.3923H50.6134V28.0171H50.7846V26.8188H52.04V26.6477H50.8417V25.6206H52.4965V25.3923H52.4394Z" fill="#737373"/>
<path d="M55.4073 25.6752H54.7226V28.0148C54.7226 28.0718 54.6655 28.1289 54.6084 28.1289H54.3802C54.3231 28.1289 54.2661 28.0718 54.2661 28.0148V25.6752H53.5243C53.4672 25.6752 53.4102 25.6182 53.4102 25.5611V25.3329C53.4102 25.2758 53.4672 25.2188 53.5243 25.2188H55.3502C55.4073 25.2188 55.4644 25.2758 55.4644 25.3329V25.5611C55.5214 25.6182 55.4644 25.6752 55.4073 25.6752Z" fill="#737373"/>
<path d="M54.6093 28.2438H54.381C54.2669 28.2438 54.1528 28.1297 54.1528 28.0156V25.7902H53.5251C53.411 25.7902 53.2969 25.6761 53.2969 25.562V25.3337C53.2969 25.2196 53.411 25.1055 53.5251 25.1055H55.3511C55.4652 25.1055 55.5793 25.2196 55.5793 25.3337V25.562C55.5793 25.6761 55.4652 25.7902 55.3511 25.7902H54.7805V28.0156C54.8375 28.1297 54.7234 28.2438 54.6093 28.2438ZM54.324 25.562H54.4381V28.0156H54.6093V25.562H55.4081V25.3908H53.5822V25.562H54.324Z" fill="#737373"/>
<path d="M57.9187 28.1304C57.7475 28.1304 57.6334 28.0733 57.5193 27.9592C57.4052 28.0733 57.291 28.1304 57.1199 28.1304C56.7775 28.1304 56.4922 27.8451 56.4922 27.5027V25.3915C56.4922 25.3344 56.5492 25.2773 56.6063 25.2773H56.8346C56.8916 25.2773 56.9487 25.3344 56.9487 25.3915V27.5027C56.9487 27.6169 57.0628 27.731 57.1769 27.731C57.291 27.731 57.4052 27.6169 57.4052 27.5027V26.5898C57.4052 26.5327 57.4622 26.4756 57.5193 26.4756H57.7475C57.8046 26.4756 57.8617 26.5327 57.8617 26.5898V27.5027C57.8617 27.6169 57.9758 27.731 58.0899 27.731C58.204 27.731 58.3181 27.6169 58.3181 27.5027V25.3915C58.3181 25.3344 58.3752 25.2773 58.4323 25.2773H58.6605C58.7176 25.2773 58.7746 25.3344 58.7746 25.3915V27.5027C58.5464 27.8451 58.2611 28.1304 57.9187 28.1304Z" fill="#737373"/>
<path d="M57.9196 28.2454C57.7484 28.2454 57.6343 28.1883 57.5201 28.1313C57.406 28.1883 57.2348 28.2454 57.1207 28.2454C56.7213 28.2454 56.3789 27.903 56.3789 27.5036V25.3923C56.3789 25.2782 56.493 25.1641 56.6071 25.1641H56.8354C56.9495 25.1641 57.0636 25.2782 57.0636 25.3923V27.5036C57.0636 27.5606 57.1207 27.6177 57.1778 27.6177C57.2348 27.6177 57.2919 27.5606 57.2919 27.5036V26.5906C57.2919 26.4765 57.406 26.3624 57.5201 26.3624H57.7484C57.8625 26.3624 57.9766 26.4765 57.9766 26.5906V27.5036C57.9766 27.5606 58.0337 27.6177 58.0907 27.6177C58.1478 27.6177 58.2049 27.5606 58.2049 27.5036V25.3923C58.2049 25.2782 58.319 25.1641 58.4331 25.1641H58.6614C58.7755 25.1641 58.8896 25.2782 58.8896 25.3923V27.5036C58.6614 27.903 58.319 28.2454 57.9196 28.2454ZM57.5201 27.8459L57.5772 27.903C57.6913 27.9601 57.8054 28.0171 57.9196 28.0171C58.2049 28.0171 58.4331 27.7889 58.4331 27.5036V25.3923H58.2619V27.5036C58.2619 27.6748 58.0907 27.8459 57.9196 27.8459C57.7484 27.8459 57.5772 27.6748 57.5772 27.5036V26.5906H57.406V27.5036C57.406 27.6748 57.2348 27.8459 57.0636 27.8459C56.8925 27.8459 56.7213 27.6748 56.7213 27.5036V25.3923H56.5501V27.5036C56.5501 27.7889 56.7783 28.0171 57.0636 28.0171C57.1778 28.0171 57.2919 27.9601 57.406 27.903L57.5201 27.8459Z" fill="#737373"/>
<path d="M61.401 28.1304H61.1728C61.1157 28.1304 61.0587 28.0733 61.0587 28.0163V26.8751H59.9174V28.0163C59.9174 28.0733 59.8604 28.1304 59.8033 28.1304H59.5751C59.518 28.1304 59.4609 28.0733 59.4609 28.0163V26.0762C59.4609 25.6197 59.8033 25.2773 60.2598 25.2773H60.6592C61.1157 25.2773 61.4581 25.6197 61.4581 26.0762V28.0163C61.5151 28.0733 61.4581 28.1304 61.401 28.1304ZM61.1157 26.0762C61.1157 25.848 60.9445 25.6768 60.7163 25.6768H60.3169C60.0886 25.6768 59.9174 25.848 59.9174 26.0762V26.4756H61.1157V26.0762Z" fill="#737373"/>
<path d="M61.4003 28.2454H61.1721C61.058 28.2454 60.9438 28.1313 60.9438 28.0171V26.99H59.9738V28.0171C59.9738 28.1313 59.8597 28.2454 59.7456 28.2454H59.5173C59.4032 28.2454 59.2891 28.1313 59.2891 28.0171V26.077C59.2891 25.5635 59.6885 25.1641 60.202 25.1641H60.6015C61.115 25.1641 61.5145 25.5635 61.5145 26.077V28.0171C61.6286 28.1313 61.5145 28.2454 61.4003 28.2454ZM59.8026 26.8188H61.2291V28.0742H61.4003V26.1341C61.4003 25.7347 61.115 25.4494 60.7156 25.4494H60.3162C59.9167 25.4494 59.6314 25.7347 59.6314 26.1341V28.0742H59.8026V26.8188ZM61.2291 26.6477H59.8026V26.1341C59.8026 25.8488 60.0309 25.6206 60.3162 25.6206H60.7156C61.0009 25.6206 61.2291 25.8488 61.2291 26.1341V26.6477ZM60.0309 26.4194H61.0009V26.1341C61.0009 25.9629 60.8868 25.8488 60.7156 25.8488H60.3162C60.145 25.8488 60.0309 25.9629 60.0309 26.1341V26.4194Z" fill="#737373"/>
<path d="M63.6835 26.9313H63.5694L64.4824 27.8443C64.5394 27.9013 64.5394 27.9584 64.4824 28.0154L64.3112 28.1866C64.2541 28.2437 64.1971 28.2437 64.14 28.1866L62.9417 26.9883H62.8276V28.1296C62.8276 28.1866 62.7705 28.2437 62.7135 28.2437H62.4852C62.4282 28.2437 62.3711 28.1866 62.3711 28.1296V25.5047C62.3711 25.4477 62.4282 25.3906 62.4852 25.3906H63.6264C64.0829 25.3906 64.4253 25.733 64.4253 26.1895C64.5394 26.5319 64.14 26.9313 63.6835 26.9313ZM63.6835 25.6759H62.8846V26.4748H63.6835C63.9117 26.4748 64.0829 26.3036 64.0829 26.0754C64.14 25.8471 63.9117 25.6759 63.6835 25.6759Z" fill="#737373"/>
<path d="M64.255 28.2454C64.1979 28.2454 64.1408 28.2454 64.0838 28.1883L62.9426 27.0471V28.0171C62.9426 28.1313 62.8284 28.2454 62.7143 28.2454H62.4861C62.3719 28.2454 62.2578 28.1313 62.2578 28.0171V25.3923C62.2578 25.2782 62.3719 25.1641 62.4861 25.1641H63.6273C64.1408 25.1641 64.5403 25.5635 64.5403 26.077C64.5403 26.5335 64.1979 26.933 63.7414 26.99L64.4832 27.7318C64.5403 27.8459 64.5403 27.9601 64.4832 28.0171L64.312 28.1883C64.3691 28.2454 64.312 28.2454 64.255 28.2454ZM62.6002 25.3923V28.0171H62.7714V26.8188H63.0567L64.255 28.0171L64.3691 27.8459L63.2849 26.7618H63.6843C64.0838 26.7618 64.3691 26.4194 64.3691 26.077C64.3691 25.6776 64.0838 25.3923 63.6843 25.3923H62.6002ZM63.6843 26.6477H62.7714V25.6206H63.6843C63.9697 25.6206 64.1979 25.8488 64.1979 26.1341C64.255 26.3624 63.9697 26.6477 63.6843 26.6477ZM62.9996 26.4194H63.6843C63.8555 26.4194 63.9697 26.3053 63.9697 26.1341C63.9697 25.9629 63.8555 25.8488 63.6843 25.8488H62.9996V26.4194Z" fill="#737373"/>
<path d="M67.3893 28.1304H65.5633C65.5063 28.1304 65.4492 28.0733 65.4492 28.0163V25.3915C65.4492 25.3344 65.5063 25.2773 65.5633 25.2773H67.3893C67.4464 25.2773 67.5034 25.3344 67.5034 25.3915V25.6197C67.5034 25.6768 67.4464 25.7338 67.3893 25.7338H65.8487V26.5327H66.9899C67.0469 26.5327 67.104 26.5898 67.104 26.6468V26.818C67.104 26.8751 67.0469 26.9321 66.9899 26.9321H65.8487V27.731H67.3893C67.4464 27.731 67.5034 27.788 67.5034 27.8451V28.0734C67.5034 28.0734 67.4464 28.1304 67.3893 28.1304Z" fill="#737373"/>
<path d="M67.3901 28.2454H65.5642C65.4501 28.2454 65.3359 28.1313 65.3359 28.0171V25.3923C65.3359 25.2782 65.4501 25.1641 65.5642 25.1641H67.3901C67.5043 25.1641 67.6184 25.2782 67.6184 25.3923V25.6206C67.6184 25.7347 67.5043 25.8488 67.3901 25.8488H65.9636V26.4194H66.9907C67.1048 26.4194 67.219 26.5335 67.219 26.6477V26.8188C67.219 26.933 67.1048 27.0471 66.9907 27.0471H65.9636V27.6177H67.3901C67.5043 27.6177 67.6184 27.7318 67.6184 27.8459V28.0742C67.6184 28.1313 67.5613 28.2454 67.3901 28.2454ZM67.3901 25.3923H65.5642V28.0171H67.3901V27.8459H65.7354V26.8188H66.9907V26.6477H65.7924V25.6206H67.4472L67.3901 25.3923Z" fill="#737373"/>
<path d="M25.8495 53.3535H22.8252C22.597 53.3535 22.4258 53.1824 22.4258 52.9541C22.4258 52.7259 22.597 52.5547 22.8252 52.5547H25.7924C26.0206 52.5547 26.1918 52.7259 26.1918 52.9541C26.2489 53.1824 26.0777 53.3535 25.8495 53.3535Z" fill="#737373"/>
<path d="M62.1947 53.3535H59.2276C58.9993 53.3535 58.8281 53.1824 58.8281 52.9541C58.8281 52.7259 58.9993 52.5547 59.2276 52.5547H62.1947C62.423 52.5547 62.5942 52.7259 62.5942 52.9541C62.5942 53.1824 62.423 53.3535 62.1947 53.3535Z" fill="#737373"/>
<path d="M46.3369 0.0152225L45.9375 0.707031L76.3278 18.2534L76.7272 17.5616L46.3369 0.0152225Z" fill="#737373"/>
<path d="M8.49318 61.4097L8.09375 62.1016L39.1264 80.0188L39.5259 79.327L8.49318 61.4097Z" fill="#737373"/>
<path d="M42.4561 15.9747C41.8284 15.9747 41.2578 15.4611 41.2578 14.7764C41.2578 14.1487 41.7714 13.5781 42.4561 13.5781C43.0838 13.5781 43.6544 14.0917 43.6544 14.7764C43.6544 15.4611 43.1408 15.9747 42.4561 15.9747ZM42.4561 14.0917C42.0567 14.0917 41.7714 14.434 41.7714 14.7764C41.7714 15.1758 42.1137 15.4612 42.4561 15.4612C42.8555 15.4612 43.1408 15.1188 43.1408 14.7764C43.1979 14.434 42.8555 14.0917 42.4561 14.0917Z" fill="#737373"/>
<path d="M42.4568 20.3707C39.3755 20.3707 36.9219 17.86 36.9219 14.8357C36.9219 11.8115 39.4326 9.30078 42.4568 9.30078C45.5381 9.30078 47.9918 11.8115 47.9918 14.8357C47.9918 17.86 45.5381 20.3707 42.4568 20.3707ZM42.4568 9.70021C39.6608 9.70021 37.3784 11.9827 37.3784 14.7787C37.3784 17.5747 39.6608 19.8571 42.4568 19.8571C45.2528 19.8571 47.5353 17.5747 47.5353 14.7787C47.5353 11.9827 45.2528 9.70021 42.4568 9.70021Z" fill="#737373"/>
<path d="M40.0582 14.0349C40.0011 14.0349 40.0011 14.0349 39.9441 14.0349L37.4334 13.0078C37.3193 12.9507 37.2622 12.8366 37.3193 12.7224C37.3763 12.6083 37.4904 12.5513 37.6046 12.6083L40.1153 13.6354C40.2294 13.6925 40.2864 13.8066 40.2294 13.9207C40.2294 13.9778 40.1723 14.0349 40.0582 14.0349Z" fill="#737373"/>
<path d="M43.4811 12.6669C43.424 12.6669 43.424 12.6669 43.367 12.6669C43.2529 12.6098 43.1958 12.4957 43.2529 12.3816L44.28 9.87088C44.337 9.75676 44.4511 9.6997 44.5653 9.75676C44.6794 9.81382 44.7364 9.92794 44.6794 10.0421L43.6523 12.5528C43.6523 12.6098 43.5382 12.6669 43.4811 12.6669Z" fill="#737373"/>
<path d="M41.4262 12.6083C41.312 12.6083 41.255 12.5512 41.1979 12.4371L40.1708 9.98347C40.1138 9.86935 40.1708 9.69817 40.2849 9.69817C40.3991 9.64111 40.5703 9.69817 40.5703 9.81229L41.5974 12.2659C41.6544 12.38 41.5974 12.5512 41.4832 12.5512C41.5403 12.5512 41.4832 12.6083 41.4262 12.6083Z" fill="#737373"/>
<path d="M44.8522 14.0372C44.7381 14.0372 44.681 13.9802 44.6239 13.866C44.5669 13.7519 44.624 13.5807 44.7381 13.5807L47.2488 12.5536C47.3629 12.4966 47.5341 12.5536 47.5341 12.6678C47.5911 12.7819 47.5341 12.9531 47.42 12.9531L44.9093 13.9802C44.9093 14.0372 44.9093 14.0372 44.8522 14.0372Z" fill="#737373"/>
<path d="M42.454 20.3692C41.9975 20.3692 36.4625 20.2551 32.9247 15.519C32.5824 15.1195 32.5824 14.4919 32.9247 14.0924C36.5767 9.18516 42.3969 9.24222 42.454 9.24222C42.5681 9.24222 42.6822 9.35634 42.6822 9.47046C42.6822 9.58458 42.5681 9.69871 42.454 9.69871C42.3969 9.69871 36.8049 9.64165 33.3242 14.3207C33.153 14.606 33.153 14.9484 33.3242 15.1766C36.862 19.9127 42.3969 19.7986 42.454 19.7986C42.5681 19.7986 42.6822 19.9127 42.6822 20.0268C42.6822 20.2551 42.6252 20.3692 42.454 20.3692Z" fill="#737373"/>
<path d="M42.5119 20.3683C42.4548 20.3683 42.4548 20.3683 42.5119 20.3683C42.3407 20.3683 42.2266 20.2542 42.2266 20.1401C42.2266 20.026 42.3407 19.9118 42.4548 19.9118C42.5119 19.9118 48.1039 19.9689 51.5846 15.2899C51.7558 15.0046 51.7558 14.6622 51.5846 14.434C48.0468 9.69787 42.5119 9.81199 42.4548 9.81199C42.3407 9.81199 42.2266 9.69787 42.2266 9.58374C42.2266 9.46962 42.3407 9.3555 42.4548 9.3555C42.5119 9.3555 48.3321 9.29844 51.9841 14.2057C52.3264 14.6622 52.3264 15.2328 51.9841 15.6322C48.4462 20.2542 42.9684 20.3683 42.5119 20.3683Z" fill="#737373"/>
<path d="M46.5017 15.2902C46.3305 15.2902 46.2734 15.1761 46.2734 15.062C46.2734 15.0049 46.2734 14.8908 46.2734 14.8337C46.2734 14.7196 46.3876 14.6055 46.5017 14.6055C46.6158 14.6055 46.7299 14.7196 46.7299 14.8337C46.7299 14.8908 46.7299 15.0049 46.7299 15.062C46.7299 15.1761 46.6158 15.2902 46.5017 15.2902Z" fill="#737373"/>
<path d="M42.7965 19.0577C42.6823 19.0577 42.5682 18.9436 42.5682 18.8295C42.5682 18.7154 42.6253 18.6012 42.7965 18.6012C42.9676 18.6012 43.0818 18.5442 43.253 18.5442C43.3671 18.5442 43.4812 18.6012 43.5383 18.7154C43.5383 18.8295 43.4812 18.9436 43.3671 19.0007C43.1388 19.0007 43.0247 19.0577 42.7965 19.0577ZM42.1117 19.0577C41.9405 19.0577 41.7694 19.0007 41.5982 19.0007C41.4841 19.0007 41.3699 18.8295 41.427 18.7154C41.427 18.6012 41.5982 18.4871 41.7123 18.5442C41.8835 18.6012 41.9976 18.6012 42.1688 18.6012C42.2829 18.6012 42.397 18.7154 42.397 18.8295C42.34 18.9436 42.2829 19.0577 42.1117 19.0577ZM41.0276 18.8295H40.9705C40.7993 18.7724 40.6281 18.7154 40.514 18.6012C40.3999 18.5442 40.3428 18.373 40.3999 18.2589C40.4569 18.1447 40.6281 18.0877 40.7423 18.1447C40.8564 18.2018 41.0276 18.2589 41.1417 18.3159C41.2558 18.373 41.3129 18.4871 41.2558 18.6012C41.1987 18.7724 41.0846 18.8295 41.0276 18.8295ZM43.9377 18.8295C43.8236 18.8295 43.7665 18.7724 43.7094 18.6583C43.6524 18.5442 43.7094 18.373 43.8236 18.373C43.9377 18.3159 44.1089 18.2589 44.223 18.2018C44.3371 18.1447 44.5083 18.2018 44.5654 18.3159C44.6224 18.4301 44.5654 18.6012 44.4512 18.6583C44.2801 18.7154 44.1659 18.8295 43.9947 18.8865C43.9947 18.7724 43.9377 18.8295 43.9377 18.8295ZM40.0005 18.2589C39.9434 18.2589 39.8863 18.2589 39.8293 18.2018C39.7152 18.0877 39.544 17.9736 39.4298 17.8594C39.3157 17.7453 39.3157 17.6312 39.4298 17.5171C39.544 17.4029 39.6581 17.4029 39.7722 17.5171C39.8863 17.6312 40.0005 17.7453 40.1146 17.8024C40.2287 17.8594 40.2287 18.0306 40.1716 18.1447C40.1716 18.2018 40.0575 18.2589 40.0005 18.2589ZM44.9077 18.2589C44.8507 18.2589 44.7936 18.2018 44.7365 18.1447C44.6795 18.0306 44.6795 17.9165 44.7936 17.8024C44.9077 17.6883 45.0219 17.6312 45.136 17.5171C45.2501 17.4029 45.3642 17.4029 45.4783 17.5171C45.5925 17.6312 45.5925 17.7453 45.4783 17.8594C45.3642 17.9736 45.2501 18.0877 45.0789 18.2018C45.0219 18.2018 44.9648 18.2589 44.9077 18.2589ZM39.2016 17.4029C39.1445 17.4029 39.0304 17.3459 39.0304 17.2888C38.9163 17.1747 38.8592 17.0035 38.7451 16.8894C38.688 16.7753 38.7451 16.6041 38.8592 16.547C38.9734 16.49 39.1445 16.547 39.2016 16.6612C39.2587 16.7753 39.3728 16.9465 39.4298 17.0606C39.4869 17.1747 39.4869 17.2888 39.3728 17.4029C39.3157 17.4029 39.2587 17.4029 39.2016 17.4029ZM45.7066 17.4029C45.6495 17.4029 45.5925 17.4029 45.5925 17.3459C45.4783 17.2888 45.4783 17.1176 45.5354 17.0035C45.6495 16.8894 45.7066 16.7753 45.7636 16.6041C45.8207 16.49 45.9919 16.4329 46.106 16.49C46.2201 16.547 46.2772 16.7182 46.2201 16.8323C46.1631 17.0035 46.049 17.1176 45.9348 17.2888C45.8778 17.4029 45.8207 17.4029 45.7066 17.4029ZM38.688 16.3758C38.5739 16.3758 38.5169 16.3188 38.4598 16.2047C38.4027 16.0335 38.3457 15.8623 38.2886 15.6911C38.2316 15.577 38.3457 15.4629 38.4598 15.4058C38.5739 15.3487 38.688 15.4629 38.7451 15.577C38.8022 15.7482 38.8022 15.8623 38.8592 16.0335C38.9163 16.1476 38.8592 16.3188 38.7451 16.3188C38.688 16.3758 38.688 16.3758 38.688 16.3758ZM46.2772 16.3758H46.2201C46.106 16.3188 46.049 16.2047 46.049 16.0905C46.106 15.9764 46.1631 15.8052 46.1631 15.634C46.2201 15.5199 46.3343 15.4058 46.4484 15.4629C46.5625 15.5199 46.6766 15.634 46.6196 15.7482C46.5625 15.9194 46.5054 16.0905 46.5054 16.2617C46.4484 16.3188 46.3913 16.3758 46.2772 16.3758Z" fill="#737373"/>
<path d="M38.4001 15.2902C38.286 15.2902 38.1719 15.1761 38.1719 15.062C38.1719 15.0049 38.1719 14.8908 38.1719 14.8337C38.1719 14.7196 38.286 14.6055 38.4001 14.6055C38.5142 14.6055 38.6284 14.7196 38.6284 14.8337C38.6284 14.8908 38.6284 15.0049 38.6284 15.062C38.6854 15.1761 38.5713 15.2331 38.4001 15.2902C38.4572 15.2902 38.4572 15.2902 38.4001 15.2902Z" fill="#737373"/>
<path d="M42.4561 63.7383C43.0838 63.7383 43.6544 64.2518 43.6544 64.9366C43.6544 65.5642 43.1408 66.1349 42.4561 66.1349C41.8284 66.1349 41.2578 65.6213 41.2578 64.9366C41.3149 64.2518 41.8284 63.7383 42.4561 63.7383ZM42.4561 65.6213C42.8555 65.6213 43.1408 65.2789 43.1408 64.9366C43.1408 64.5371 42.7985 64.2518 42.4561 64.2518C42.0567 64.2518 41.7714 64.5942 41.7714 64.9366C41.7714 65.336 42.0567 65.6213 42.4561 65.6213Z" fill="#737373"/>
<path d="M42.4568 59.4023C45.5381 59.4023 47.9918 61.913 47.9918 64.9373C47.9918 68.0186 45.4811 70.4722 42.4568 70.4722C39.4326 70.4722 36.9219 67.9615 36.9219 64.9373C36.9219 61.856 39.4326 59.4023 42.4568 59.4023ZM42.4568 70.0158C45.2528 70.0158 47.5353 67.7333 47.5353 64.9373C47.5353 62.1413 45.2528 59.8588 42.4568 59.8588C39.6608 59.8588 37.3784 62.1413 37.3784 64.9373C37.3784 67.7333 39.6608 70.0158 42.4568 70.0158Z" fill="#737373"/>
<path d="M44.8498 65.6797C44.9069 65.6797 44.9069 65.6797 44.9639 65.6797L47.4746 66.7068C47.5888 66.7639 47.6458 66.878 47.5888 66.9921C47.5317 67.1062 47.4176 67.1633 47.3035 67.1062L44.7928 66.0791C44.6786 66.0221 44.6216 65.9079 44.6786 65.7938C44.6786 65.7368 44.7928 65.6797 44.8498 65.6797Z" fill="#737373"/>
<path d="M41.4863 67.1055C41.5434 67.1055 41.5434 67.1055 41.6004 67.1055C41.7145 67.1625 41.7716 67.2767 41.7145 67.3908L40.6874 69.9015C40.6304 70.0156 40.5163 70.0727 40.4021 70.0156C40.288 69.9585 40.2309 69.8444 40.288 69.7303L41.3151 67.2196C41.3151 67.1625 41.3722 67.1055 41.4863 67.1055Z" fill="#737373"/>
<path d="M43.4826 67.1641C43.5968 67.1641 43.6538 67.2211 43.7109 67.3352L44.738 69.7889C44.795 69.903 44.738 70.0742 44.6239 70.0742C44.5097 70.1313 44.3385 70.0742 44.3385 69.9601L43.3114 67.5064C43.2544 67.3923 43.3114 67.2211 43.4256 67.2211C43.4256 67.1641 43.4256 67.1641 43.4826 67.1641Z" fill="#737373"/>
<path d="M40.0597 65.6797C40.1739 65.6797 40.2309 65.7368 40.288 65.8509C40.345 65.965 40.288 66.1362 40.1739 66.1362L37.6632 67.1633C37.549 67.2203 37.3779 67.1633 37.3779 67.0492C37.3208 66.935 37.3779 66.7639 37.492 66.7639L40.0027 65.7367C40.0027 65.6797 40.0597 65.6797 40.0597 65.6797Z" fill="#737373"/>
<path d="M42.5126 59.4023C42.9691 59.4023 48.5041 59.5165 52.0419 64.2526C52.3842 64.652 52.3842 65.2797 52.0419 65.6791C48.3899 70.5864 42.5697 70.5293 42.5126 70.5293C42.3985 70.5293 42.2844 70.4152 42.2844 70.3011C42.2844 70.1869 42.3985 70.0728 42.5126 70.0728C42.5697 70.0728 48.1617 70.1299 51.6424 65.4508C51.8136 65.1655 51.8136 64.8232 51.6424 64.5949C48.1046 59.8588 42.5697 59.973 42.5126 59.973C42.3985 59.973 42.2844 59.8588 42.2844 59.7447C42.2273 59.5165 42.3414 59.4023 42.5126 59.4023C42.4556 59.4023 42.4556 59.4023 42.5126 59.4023Z" fill="#737373"/>
<path d="M42.4555 59.4023C42.6267 59.4023 42.7408 59.5165 42.7408 59.6306C42.7408 59.7447 42.6267 59.8588 42.5126 59.8588C42.4555 59.8588 36.8635 59.8018 33.3828 64.4808C33.2116 64.7661 33.2116 65.1085 33.3828 65.3367C36.9206 70.0728 42.4555 69.9587 42.5126 69.9587C42.6267 69.9587 42.7408 70.0728 42.7408 70.1869C42.7408 70.3011 42.6267 70.4152 42.5126 70.4152C42.4555 70.4152 36.6353 70.4722 32.9833 65.565C32.641 65.1085 32.641 64.5379 32.9833 64.1384C36.4641 59.4594 41.999 59.4023 42.4555 59.4023Z" fill="#737373"/>
<path d="M38.404 64.4805C38.4611 64.4805 38.4611 64.4805 38.404 64.4805C38.5752 64.4805 38.6323 64.5946 38.6323 64.7087C38.6323 64.7658 38.6323 64.8799 38.6323 64.937C38.6323 65.0511 38.5182 65.1652 38.404 65.1652C38.2899 65.1652 38.1758 65.0511 38.1758 64.937C38.1758 64.8799 38.1758 64.7658 38.1758 64.7087C38.2328 64.5375 38.2899 64.4805 38.404 64.4805Z" fill="#737373"/>
<path d="M42.1133 60.6562C42.2274 60.6562 42.3415 60.7704 42.3415 60.8845C42.3415 60.9986 42.2844 61.1127 42.1133 61.1127C41.9421 61.1127 41.828 61.1698 41.6568 61.1698C41.5426 61.1698 41.4285 61.1127 41.3715 60.9986C41.3715 60.8845 41.4285 60.7704 41.5426 60.7133C41.7709 60.7133 41.9421 60.6562 42.1133 60.6562ZM42.798 60.6562C42.9692 60.6562 43.1404 60.7133 43.3115 60.7133C43.4257 60.7133 43.5398 60.8845 43.4827 60.9986C43.4827 61.1127 43.3115 61.2269 43.1974 61.1698C43.0262 61.1127 42.9121 61.1127 42.7409 61.1127C42.6268 61.1127 42.5127 60.9986 42.5127 60.8845C42.5697 60.7704 42.6839 60.6562 42.798 60.6562ZM43.9392 60.9416H43.9963C44.1675 60.9986 44.3387 61.0557 44.4528 61.1698C44.5669 61.2269 44.624 61.398 44.5669 61.5122C44.5098 61.6263 44.3387 61.6834 44.2245 61.6263C44.1104 61.5692 43.9392 61.5122 43.8251 61.4551C43.711 61.398 43.6539 61.2839 43.711 61.1698C43.768 60.9986 43.8251 60.9416 43.9392 60.9416ZM41.0291 60.9416C41.1432 60.9416 41.2003 60.9986 41.2573 61.1127C41.3144 61.2269 41.2573 61.398 41.1432 61.398C41.0291 61.4551 40.8579 61.5122 40.7438 61.5692C40.6297 61.6263 40.4585 61.5692 40.4014 61.4551C40.3444 61.341 40.4014 61.1698 40.5155 61.1127C40.6867 61.0557 40.8008 60.9416 40.972 60.8845C40.972 60.9416 40.972 60.9416 41.0291 60.9416ZM44.9093 61.4551C44.9663 61.4551 45.0234 61.4551 45.0804 61.5122C45.1946 61.6263 45.3658 61.7404 45.4799 61.8545C45.594 61.9687 45.594 62.0828 45.4799 62.1969C45.3658 62.311 45.2516 62.311 45.1375 62.1969C45.0234 62.0828 44.9093 61.9687 44.7951 61.9116C44.681 61.8545 44.681 61.6834 44.7381 61.5692C44.7951 61.5122 44.8522 61.4551 44.9093 61.4551ZM40.002 61.5122C40.059 61.5122 40.1161 61.5692 40.1732 61.6263C40.2302 61.7404 40.2302 61.8545 40.1161 61.9687C40.002 62.0828 39.8879 62.1398 39.7737 62.254C39.6596 62.3681 39.5455 62.3681 39.4314 62.254C39.3173 62.1398 39.3173 62.0257 39.4314 61.9116C39.5455 61.7975 39.6596 61.6834 39.8308 61.5692C39.8879 61.5122 39.9449 61.5122 40.002 61.5122ZM45.7081 62.311C45.7652 62.311 45.8793 62.3681 45.8793 62.4252C45.9934 62.5393 46.0505 62.7105 46.1646 62.8246C46.2217 62.9387 46.1646 63.1099 46.0505 63.1669C45.9364 63.224 45.7652 63.1669 45.7081 63.0528C45.6511 62.9387 45.5369 62.7675 45.4799 62.6534C45.4228 62.5393 45.4228 62.4251 45.5369 62.311C45.6511 62.311 45.7081 62.311 45.7081 62.311ZM39.2031 62.311C39.2602 62.311 39.3173 62.311 39.3173 62.3681C39.4314 62.4252 39.4314 62.5963 39.3743 62.7105C39.2602 62.8246 39.2031 62.9387 39.1461 63.1099C39.089 63.224 38.9178 63.2811 38.8037 63.224C38.6896 63.1669 38.6325 62.9958 38.6896 62.8816C38.7466 62.7105 38.8608 62.5963 38.9749 62.4252C39.0319 62.3681 39.1461 62.311 39.2031 62.311ZM46.2787 63.3381C46.3929 63.3381 46.4499 63.3952 46.507 63.5093C46.564 63.6805 46.6211 63.8517 46.6782 64.0229C46.7352 64.137 46.6211 64.2511 46.507 64.3082C46.3929 64.3652 46.2787 64.2511 46.2217 64.137C46.1646 63.9658 46.1646 63.8517 46.1076 63.6805C46.0505 63.5664 46.1076 63.3952 46.2217 63.3952C46.2217 63.3381 46.2217 63.3381 46.2787 63.3381ZM38.6896 63.3381H38.7466C38.8608 63.3952 38.9178 63.5093 38.9178 63.6234C38.8608 63.7376 38.8037 63.9087 38.8037 64.0799C38.7466 64.1941 38.6325 64.3082 38.5184 64.2511C38.4043 64.2511 38.2901 64.0799 38.3472 63.9658C38.4043 63.7946 38.4613 63.6234 38.4613 63.4523C38.4613 63.3952 38.5755 63.3381 38.6896 63.3381Z" fill="#737373"/>
<path d="M46.5095 64.4805C46.6236 64.4805 46.7377 64.5946 46.7377 64.7087C46.7377 64.7658 46.7377 64.8799 46.7377 64.937C46.7377 65.0511 46.6236 65.1652 46.5095 65.1652C46.3954 65.1652 46.2812 65.0511 46.2812 64.937C46.2812 64.8799 46.2812 64.7658 46.2812 64.7087C46.2812 64.5946 46.3383 64.4805 46.5095 64.4805Z" fill="#737373"/>
</g>
<defs>
<clipPath id="clip0_3768_826">
<rect width="84.8502" height="80" fill="white"/>
</clipPath>
</defs>
</svg>
