<svg width="138" height="68" viewBox="0 0 138 68" fill="none" xmlns="http://www.w3.org/2000/svg">
<g clip-path="url(#clip0_3772_961)">
<path d="M20.0022 54.0005C23.9584 54.0005 27.8258 52.8273 31.1153 50.6292C34.4047 48.4311 36.9684 45.307 38.4822 41.6518C39.996 37.9966 40.3919 33.9746 39.6197 30.0944C38.8476 26.2143 36.9421 22.6502 34.1443 19.8531C31.3465 17.0559 27.7821 15.1512 23.9017 14.3799C20.0214 13.6086 15.9995 14.0053 12.3447 15.5199C8.68981 17.0345 5.56619 19.5989 3.36884 22.8889C1.1715 26.1788 -0.000865409 30.0464 4.793e-07 34.0027C0.00579632 39.3054 2.11517 44.3892 5.86517 48.1384C9.61518 51.8876 14.6995 53.9958 20.0022 54.0005ZM14.311 28.3859C14.6738 28.3859 15.0285 28.4935 15.3301 28.6951C15.6318 28.8966 15.8669 29.1831 16.0057 29.5183C16.1445 29.8535 16.1809 30.2223 16.1101 30.5781C16.0393 30.9339 15.8646 31.2608 15.6081 31.5173C15.3516 31.7738 15.0247 31.9485 14.6689 32.0193C14.3131 32.0901 13.9443 32.0538 13.6091 31.9149C13.2739 31.7761 12.9874 31.541 12.7859 31.2393C12.5843 30.9377 12.4767 30.583 12.4767 30.2202C12.4773 29.978 12.5257 29.7383 12.6192 29.5149C12.7127 29.2915 12.8494 29.0887 13.0215 28.9183C13.1935 28.7478 13.3976 28.6131 13.6219 28.5217C13.8462 28.4304 14.0864 28.3842 14.3285 28.3859H14.311ZM13.2735 20.5322V26.4072C12.3559 26.6628 11.562 27.2421 11.0386 28.038C10.5153 28.8339 10.298 29.7925 10.427 30.7362C10.556 31.68 11.0225 32.5451 11.7402 33.1714C12.4579 33.7977 13.3782 34.1427 14.3307 34.1427C15.2833 34.1427 16.2036 33.7977 16.9213 33.1714C17.639 32.5451 18.1055 31.68 18.2345 30.7362C18.3635 29.7925 18.1462 28.8339 17.6229 28.038C17.0995 27.2421 16.3056 26.6628 15.388 26.4072V19.6566C16.878 19.1715 18.4352 18.9248 20.0022 18.9255H20.2123V34.6287H25.9472C26.2028 35.5463 26.7822 36.3402 27.5781 36.8636C28.374 37.3869 29.3325 37.6042 30.2763 37.4752C31.2201 37.3462 32.0852 36.8797 32.7114 36.162C33.3377 35.4443 33.6828 34.524 33.6828 33.5715C33.6828 32.6189 33.3377 31.6986 32.7114 30.9809C32.0852 30.2632 31.2201 29.7967 30.2763 29.6677C29.3325 29.5387 28.374 29.756 27.5781 30.2793C26.7822 30.8027 26.2028 31.5966 25.9472 32.5142H22.3268V19.1313C24.5309 19.4656 26.6329 20.2869 28.4799 21.5353C30.3269 22.7838 31.8725 24.428 33.0045 26.3486C34.1365 28.2692 34.8263 30.4178 35.0239 32.6384C35.2215 34.859 34.9219 37.0957 34.1469 39.186H17.4324C17.1768 38.2684 16.5975 37.4744 15.8016 36.9511C15.0057 36.4278 14.0471 36.2105 13.1034 36.3395C12.1596 36.4685 11.2945 36.935 10.6682 37.6527C10.0419 38.3704 9.69686 39.2907 9.69686 40.2432C9.69686 41.1958 10.0419 42.1161 10.6682 42.8338C11.2945 43.5515 12.1596 44.018 13.1034 44.147C14.0471 44.276 15.0057 44.0587 15.8016 43.5353C16.5975 43.012 17.1768 42.2181 17.4324 41.3005H33.1706C32.0278 43.3657 30.4156 45.1335 28.464 46.4611C26.5124 47.7886 24.276 48.6389 21.9353 48.9432C19.5947 49.2475 17.2153 48.9974 14.9891 48.213C12.7629 47.4286 10.7522 46.1319 9.1193 44.4275C7.4864 42.7231 6.277 40.6588 5.58866 38.401C4.90032 36.1432 4.75233 33.7553 5.15661 31.4298C5.5609 29.1043 6.50614 26.9065 7.91608 25.0135C9.32603 23.1205 11.1612 21.5855 13.2735 20.5322ZM27.9129 33.5649C27.912 33.2009 28.0192 32.8448 28.2209 32.5417C28.4226 32.2387 28.7098 32.0023 29.0459 31.8626C29.3821 31.7229 29.7521 31.6862 30.1092 31.757C30.4663 31.8278 30.7943 32.003 31.0517 32.2604C31.3091 32.5178 31.4843 32.8458 31.5551 33.2029C31.6259 33.56 31.5891 33.93 31.4494 34.2662C31.3097 34.6023 31.0734 34.8894 30.7703 35.0911C30.4673 35.2928 30.1112 35.4001 29.7472 35.3992C29.2626 35.3981 28.798 35.2056 28.4545 34.8638C28.111 34.5219 27.9163 34.0583 27.9129 33.5736V33.5649ZM15.4668 40.2323C15.4668 40.5959 15.3589 40.9514 15.1569 41.2538C14.9549 41.5562 14.6677 41.7918 14.3317 41.931C13.9958 42.0702 13.6261 42.1066 13.2694 42.0356C12.9127 41.9647 12.5851 41.7896 12.328 41.5324C12.0708 41.2753 11.8957 40.9477 11.8247 40.591C11.7538 40.2343 11.7902 39.8646 11.9294 39.5287C12.0686 39.1927 12.3042 38.9055 12.6066 38.7035C12.909 38.5014 13.2645 38.3936 13.6281 38.3936C14.1158 38.3936 14.5834 38.5873 14.9283 38.9321C15.2731 39.277 15.4668 39.7446 15.4668 40.2323Z" fill="white"/>
</g>
<path d="M59.96 44.42C57.36 44.42 55.3 43.7 53.78 42.26C52.26 40.8 51.5 38.72 51.5 36.02V30.98C51.5 28.28 52.26 26.21 53.78 24.77C55.3 23.31 57.36 22.58 59.96 22.58C62.54 22.58 64.53 23.29 65.93 24.71C67.35 26.11 68.06 28.04 68.06 30.5V30.68H64.16V30.38C64.16 29.14 63.81 28.12 63.11 27.32C62.43 26.52 61.38 26.12 59.96 26.12C58.56 26.12 57.46 26.55 56.66 27.41C55.86 28.27 55.46 29.44 55.46 30.92V36.08C55.46 37.54 55.86 38.71 56.66 39.59C57.46 40.45 58.56 40.88 59.96 40.88C61.38 40.88 62.43 40.48 63.11 39.68C63.81 38.86 64.16 37.84 64.16 36.62V36.08H68.06V36.5C68.06 38.96 67.35 40.9 65.93 42.32C64.53 43.72 62.54 44.42 59.96 44.42ZM69.9266 44V29.12H73.6466V30.8H74.1866C74.4066 30.2 74.7666 29.76 75.2666 29.48C75.7866 29.2 76.3866 29.06 77.0666 29.06H78.8666V32.42H77.0066C76.0466 32.42 75.2566 32.68 74.6366 33.2C74.0166 33.7 73.7066 34.48 73.7066 35.54V44H69.9266ZM86.5938 44.42C85.1138 44.42 83.8038 44.11 82.6638 43.49C81.5438 42.85 80.6638 41.96 80.0238 40.82C79.4038 39.66 79.0938 38.3 79.0938 36.74V36.38C79.0938 34.82 79.4038 33.47 80.0238 32.33C80.6438 31.17 81.5138 30.28 82.6338 29.66C83.7538 29.02 85.0538 28.7 86.5338 28.7C87.9938 28.7 89.2638 29.03 90.3438 29.69C91.4238 30.33 92.2638 31.23 92.8638 32.39C93.4638 33.53 93.7638 34.86 93.7638 36.38V37.67H82.9338C82.9738 38.69 83.3538 39.52 84.0738 40.16C84.7938 40.8 85.6738 41.12 86.7138 41.12C87.7738 41.12 88.5538 40.89 89.0538 40.43C89.5538 39.97 89.9338 39.46 90.1938 38.9L93.2838 40.52C93.0038 41.04 92.5938 41.61 92.0538 42.23C91.5338 42.83 90.8338 43.35 89.9538 43.79C89.0738 44.21 87.9538 44.42 86.5938 44.42ZM82.9638 34.85H89.9238C89.8438 33.99 89.4938 33.3 88.8738 32.78C88.2738 32.26 87.4838 32 86.5038 32C85.4838 32 84.6738 32.26 84.0738 32.78C83.4738 33.3 83.1038 33.99 82.9638 34.85ZM101.828 44.42C99.8883 44.42 98.2983 44 97.0583 43.16C95.8183 42.32 95.0683 41.12 94.8083 39.56L98.2883 38.66C98.4283 39.36 98.6583 39.91 98.9783 40.31C99.3183 40.71 99.7283 41 100.208 41.18C100.708 41.34 101.248 41.42 101.828 41.42C102.708 41.42 103.358 41.27 103.778 40.97C104.198 40.65 104.408 40.26 104.408 39.8C104.408 39.34 104.208 38.99 103.808 38.75C103.408 38.49 102.768 38.28 101.888 38.12L101.048 37.97C100.008 37.77 99.0583 37.5 98.1983 37.16C97.3383 36.8 96.6483 36.31 96.1283 35.69C95.6083 35.07 95.3483 34.27 95.3483 33.29C95.3483 31.81 95.8883 30.68 96.9683 29.9C98.0483 29.1 99.4683 28.7 101.228 28.7C102.888 28.7 104.268 29.07 105.368 29.81C106.468 30.55 107.188 31.52 107.528 32.72L104.018 33.8C103.858 33.04 103.528 32.5 103.028 32.18C102.548 31.86 101.948 31.7 101.228 31.7C100.508 31.7 99.9583 31.83 99.5783 32.09C99.1983 32.33 99.0083 32.67 99.0083 33.11C99.0083 33.59 99.2083 33.95 99.6083 34.19C100.008 34.41 100.548 34.58 101.228 34.7L102.068 34.85C103.188 35.05 104.198 35.32 105.098 35.66C106.018 35.98 106.738 36.45 107.258 37.07C107.798 37.67 108.068 38.49 108.068 39.53C108.068 41.09 107.498 42.3 106.358 43.16C105.238 44 103.728 44.42 101.828 44.42ZM115.308 44C114.328 44 113.528 43.7 112.908 43.1C112.308 42.48 112.008 41.66 112.008 40.64V32.24H108.288V29.12H112.008V24.5H115.788V29.12H119.868V32.24H115.788V39.98C115.788 40.58 116.068 40.88 116.628 40.88H119.508V44H115.308ZM126.429 44.42C125.369 44.42 124.419 44.24 123.579 43.88C122.739 43.5 122.069 42.96 121.569 42.26C121.089 41.54 120.849 40.67 120.849 39.65C120.849 38.63 121.089 37.78 121.569 37.1C122.069 36.4 122.749 35.88 123.609 35.54C124.489 35.18 125.489 35 126.609 35H130.689V34.16C130.689 33.46 130.469 32.89 130.029 32.45C129.589 31.99 128.889 31.76 127.929 31.76C126.989 31.76 126.289 31.98 125.829 32.42C125.369 32.84 125.069 33.39 124.929 34.07L121.449 32.9C121.689 32.14 122.069 31.45 122.589 30.83C123.129 30.19 123.839 29.68 124.719 29.3C125.619 28.9 126.709 28.7 127.989 28.7C129.949 28.7 131.499 29.19 132.639 30.17C133.779 31.15 134.349 32.57 134.349 34.43V39.98C134.349 40.58 134.629 40.88 135.189 40.88H136.389V44H133.869C133.129 44 132.519 43.82 132.039 43.46C131.559 43.1 131.319 42.62 131.319 42.02V41.99H130.749C130.669 42.23 130.489 42.55 130.209 42.95C129.929 43.33 129.489 43.67 128.889 43.97C128.289 44.27 127.469 44.42 126.429 44.42ZM127.089 41.36C128.149 41.36 129.009 41.07 129.669 40.49C130.349 39.89 130.689 39.1 130.689 38.12V37.82H126.879C126.179 37.82 125.629 37.97 125.229 38.27C124.829 38.57 124.629 38.99 124.629 39.53C124.629 40.07 124.839 40.51 125.259 40.85C125.679 41.19 126.289 41.36 127.089 41.36Z" fill="white"/>
<defs>
<clipPath id="clip0_3772_961">
<rect width="40" height="40" fill="white" transform="translate(0 14)"/>
</clipPath>
</defs>
</svg>
