<svg width="170" height="35" viewBox="0 0 170 35" fill="none" xmlns="http://www.w3.org/2000/svg">
<rect width="35" height="35" rx="5" fill="url(#paint0_linear_3638_13723)"/>
<path opacity="0.8" d="M20.6289 18.625H18.5781V24.75H15.8438V18.625H13.6016V16.1094H15.8438V14.168C15.8438 11.9805 17.1562 10.75 19.1523 10.75C20.1094 10.75 21.1211 10.9414 21.1211 10.9414V13.1016H20C18.9062 13.1016 18.5781 13.7578 18.5781 14.4688V16.1094H21.0117L20.6289 18.625Z" fill="white"/>
<rect opacity="0.3" x="45.5" y="0.5" width="34" height="34" rx="4.5" stroke="white"/>
<path opacity="0.8" d="M68.5508 14.9062C68.5508 15.043 68.5508 15.1523 68.5508 15.2891C68.5508 19.0898 65.6797 23.4375 60.4023 23.4375C58.7617 23.4375 57.2578 22.9727 56 22.1523C56.2188 22.1797 56.4375 22.207 56.6836 22.207C58.0234 22.207 59.2539 21.7422 60.2383 20.9766C58.9805 20.9492 57.9141 20.1289 57.5586 18.9805C57.75 19.0078 57.9141 19.0352 58.1055 19.0352C58.3516 19.0352 58.625 18.9805 58.8438 18.9258C57.5312 18.6523 56.5469 17.5039 56.5469 16.1094V16.082C56.9297 16.3008 57.3945 16.4102 57.8594 16.4375C57.0664 15.918 56.5742 15.043 56.5742 14.0586C56.5742 13.5117 56.7109 13.0195 56.957 12.6094C58.3789 14.332 60.5117 15.4805 62.8906 15.6172C62.8359 15.3984 62.8086 15.1797 62.8086 14.9609C62.8086 13.375 64.0938 12.0898 65.6797 12.0898C66.5 12.0898 67.2383 12.418 67.7852 12.9922C68.4141 12.8555 69.043 12.6094 69.5898 12.2812C69.3711 12.9648 68.9336 13.5117 68.332 13.8672C68.9062 13.8125 69.4805 13.6484 69.9727 13.4297C69.5898 14.0039 69.0977 14.4961 68.5508 14.9062Z" fill="white"/>
<rect opacity="0.3" x="90.5" y="0.5" width="34" height="34" rx="4.5" stroke="white"/>
<path opacity="0.8" d="M112.375 11.625C112.84 11.625 113.25 12.0352 113.25 12.5273V23C113.25 23.4922 112.84 23.875 112.375 23.875H101.848C101.383 23.875 101 23.4922 101 23V12.5273C101 12.0352 101.383 11.625 101.848 11.625H112.375ZM104.691 22.125V16.3008H102.887V22.125H104.691ZM103.789 15.4805C104.363 15.4805 104.828 15.0156 104.828 14.4414C104.828 13.8672 104.363 13.375 103.789 13.375C103.188 13.375 102.723 13.8672 102.723 14.4414C102.723 15.0156 103.188 15.4805 103.789 15.4805ZM111.5 22.125V18.9258C111.5 17.3672 111.145 16.1367 109.312 16.1367C108.438 16.1367 107.836 16.6289 107.59 17.0938H107.562V16.3008H105.84V22.125H107.645V19.2539C107.645 18.4883 107.781 17.75 108.738 17.75C109.668 17.75 109.668 18.625 109.668 19.2812V22.125H111.5Z" fill="white"/>
<rect opacity="0.3" x="135.5" y="0.5" width="34" height="34" rx="4.5" stroke="white"/>
<path opacity="0.8" d="M152.578 10.9414C155.148 10.9414 157.5 12.7188 157.5 15.4258C157.5 17.9688 156.188 20.8125 153.289 20.8125C152.578 20.8125 151.73 20.457 151.375 19.8281C150.773 22.2891 150.801 22.6719 149.434 24.5586C149.297 24.6133 149.324 24.6133 149.242 24.5039C149.188 23.9844 149.133 23.4922 149.133 22.9727C149.133 21.3047 149.898 18.8711 150.281 17.2578C150.062 16.8203 150.008 16.3281 150.008 15.8633C150.008 13.6758 152.578 13.3477 152.578 15.1523C152.578 16.2188 151.84 17.2305 151.84 18.2695C151.84 18.9531 152.441 19.4453 153.125 19.4453C155.012 19.4453 155.586 16.7383 155.586 15.2891C155.586 13.3477 154.219 12.2812 152.332 12.2812C150.172 12.2812 148.504 13.8398 148.504 16.0273C148.504 17.0938 149.16 17.6406 149.16 17.8867C149.16 18.1055 148.996 18.8438 148.723 18.8438C148.066 18.8438 147 17.75 147 15.8359C147 12.8008 149.762 10.9414 152.578 10.9414Z" fill="white"/>
<defs>
<linearGradient id="paint0_linear_3638_13723" x1="-0.221684" y1="12.5818" x2="35.3839" y2="13.2092" gradientUnits="userSpaceOnUse">
<stop stop-color="#351EE0"/>
<stop offset="1" stop-color="#3F74EF"/>
</linearGradient>
</defs>
</svg>
